<?xml version="1.0" encoding="utf-8"?>
<!-- Generator: Adobe Illustrator 26.0.3, SVG Export Plug-In . SVG Version: 6.00 Build 0)  -->
<svg version="1.1" id="Layer_1" xmlns="http://www.w3.org/2000/svg" xmlns:xlink="http://www.w3.org/1999/xlink" x="0px" y="0px"
	 viewBox="0 0 536.7 159.4" style="enable-background:new 0 0 536.7 159.4;" xml:space="preserve">
<style type="text/css">
	.st0{fill:#192432;}
</style>
<g>
	<g>
		<g>
			<g>
				<path class="st0" d="M31.3,154.1V67H0V41.3h94.1v25.6H62.7V154H31.3V154.1z M235.5,154.1V41.3h31.4v41.4h0.9l30.7-41.4h33.9
					l-35.7,46.1l42.1,66.6h-33.5l-26.5-45l-12,13.7v31.4C266.9,154.1,235.5,154.1,235.5,154.1z M353.9,154.1V41.3h76.6v24.4h-45.3
					v19.6h39v22.8h-38.9v21.6h47.4V154L353.9,154.1L353.9,154.1z M460.5,154.1V41.3h31.4v87.1h44.8V154L460.5,154.1L460.5,154.1z"/>
				<circle class="st0" cx="116.9" cy="98.6" r="0.5"/>
				<circle class="st0" cx="131.7" cy="120.4" r="2.5"/>
				<circle class="st0" cx="133.1" cy="82.8" r="2.5"/>
				<circle class="st0" cx="152" cy="54.2" r="0.5"/>
				<path class="st0" d="M155.7,141.6c0,0.7-0.6,1.3-1.3,1.3c-0.7,0-1.3-0.6-1.3-1.3c0-0.7,0.6-1.3,1.3-1.3
					C155.1,140.3,155.7,140.9,155.7,141.6z"/>
				<circle class="st0" cx="161.9" cy="101.4" r="3.7"/>
				<circle class="st0" cx="166" cy="126.6" r="0.5"/>
				<path class="st0" d="M175.9,70.6l-5.3,0.9c0,0.4,0.1,0.8,0.1,1.2c0,5.5-4.5,10-10,10c-4.8,0-8.8-3.4-9.8-8l-5.1,0.8l-0.5-3.2
					l5.4-0.9c0.6-5,4.8-8.8,9.9-8.8c4,0,7.4,2.3,9,5.7l5.7-1L175.9,70.6z"/>
				<circle class="st0" cx="190.6" cy="104.4" r="0.5"/>
				<circle class="st0" cx="190.8" cy="127.8" r="5"/>
				<circle class="st0" cx="197" cy="76.5" r="1.3"/>
				<path class="st0" d="M160.7,36.6c-33.9,0-61.4,27.5-61.4,61.4c0,33.9,27.5,61.4,61.4,61.4s61.4-27.5,61.4-61.4
					C222.1,64.1,194.6,36.6,160.7,36.6z M160.7,151.9c-29.8,0-53.9-24.1-53.9-53.9c0-29.8,24.1-53.9,53.9-53.9s53.9,24.1,53.9,53.9
					C214.6,127.8,190.5,151.9,160.7,151.9z"/>
				<circle class="st0" cx="116.9" cy="98.6" r="0.5"/>
				<circle class="st0" cx="131.7" cy="120.4" r="2.5"/>
				<circle class="st0" cx="133.1" cy="82.8" r="2.5"/>
				<circle class="st0" cx="152" cy="54.2" r="0.5"/>
				<path class="st0" d="M155.7,141.6c0,0.7-0.6,1.3-1.3,1.3c-0.7,0-1.3-0.6-1.3-1.3c0-0.7,0.6-1.3,1.3-1.3
					C155.1,140.3,155.7,140.9,155.7,141.6z"/>
				<circle class="st0" cx="161.9" cy="101.4" r="3.7"/>
				<circle class="st0" cx="166" cy="126.6" r="0.5"/>
				<path class="st0" d="M175.9,70.6l-5.3,0.9c0,0.4,0.1,0.8,0.1,1.2c0,5.5-4.5,10-10,10c-4.8,0-8.8-3.4-9.8-8l-5.1,0.8l-0.5-3.2
					l5.4-0.9c0.6-5,4.8-8.8,9.9-8.8c4,0,7.4,2.3,9,5.7l5.7-1L175.9,70.6z"/>
				<circle class="st0" cx="190.6" cy="104.4" r="0.5"/>
				<circle class="st0" cx="190.8" cy="127.8" r="5"/>
				<circle class="st0" cx="197" cy="76.5" r="1.3"/>
				<path class="st0" d="M170.7,72.7c0,5.5-4.5,10-10,10c-4.8,0-8.8-3.4-9.8-8c-0.1-0.7-0.2-1.3-0.2-2c0-0.4,0-0.8,0.1-1.2
					c0.6-5,4.8-8.8,9.9-8.8c4,0,7.4,2.3,9,5.7c0.5,1,0.8,2,0.9,3.1C170.7,71.9,170.7,72.3,170.7,72.7z"/>
				<polygon class="st0" points="175.9,70.6 170.6,71.5 150.9,74.8 145.9,75.6 145.3,72.4 150.8,71.5 169.7,68.4 175.4,67.4 				"/>
				<circle class="st0" cx="161.9" cy="101.4" r="3.7"/>
				<circle class="st0" cx="197" cy="76.5" r="1.3"/>
				<circle class="st0" cx="190.6" cy="104.4" r="0.5"/>
				<circle class="st0" cx="116.9" cy="98.6" r="0.5"/>
				<circle class="st0" cx="152" cy="54.2" r="0.5"/>
				<circle class="st0" cx="166" cy="126.6" r="0.5"/>
				<path class="st0" d="M155.7,141.6c0,0.7-0.6,1.3-1.3,1.3c-0.7,0-1.3-0.6-1.3-1.3c0-0.7,0.6-1.3,1.3-1.3
					C155.1,140.3,155.7,140.9,155.7,141.6z"/>
				<circle class="st0" cx="190.8" cy="127.8" r="5"/>
				<circle class="st0" cx="131.7" cy="120.4" r="2.5"/>
				<circle class="st0" cx="133.1" cy="82.8" r="2.5"/>
			</g>
		</g>
	</g>
</g>
<g>
	<path class="st0" d="M1.5,24.7V0.5h8.3c1.4,0,2.7,0.1,3.9,0.4c1.2,0.2,2.2,0.7,3.1,1.2c0.9,0.6,1.5,1.3,2,2.3
		c0.5,0.9,0.7,2.1,0.7,3.5c0,1.3-0.2,2.4-0.7,3.4s-1.2,1.8-2,2.4c-0.9,0.6-1.9,1.1-3.1,1.4c-1.2,0.3-2.5,0.5-3.9,0.5H5.4v9.1H1.5z
		 M5.3,12.7h4.1c2.1,0,3.7-0.4,4.7-1.2c1-0.8,1.5-2,1.5-3.5c0-1.6-0.5-2.8-1.6-3.5c-1-0.7-2.6-1-4.8-1h-4L5.3,12.7L5.3,12.7z"/>
	<path class="st0" d="M64.8,25.3c-1.7,0-3.2-0.3-4.6-0.9s-2.6-1.4-3.6-2.5s-1.8-2.4-2.3-4c-0.6-1.6-0.8-3.4-0.8-5.3
		c0-2,0.3-3.7,0.8-5.3c0.6-1.6,1.3-2.9,2.3-3.9c1-1.1,2.2-1.9,3.6-2.5S63.1,0,64.8,0c1.6,0,3.2,0.3,4.5,0.9c1.4,0.6,2.6,1.4,3.6,2.5
		s1.8,2.4,2.4,3.9c0.6,1.6,0.8,3.3,0.8,5.3s-0.3,3.7-0.8,5.3c-0.6,1.6-1.3,2.9-2.4,4c-1,1.1-2.2,1.9-3.6,2.5
		C67.9,25,66.4,25.3,64.8,25.3z M64.8,22c2.2,0,4-0.8,5.3-2.5s2-4,2-6.9s-0.7-5.2-2-6.8S67,3.4,64.8,3.4c-2.2,0-4,0.8-5.3,2.4
		c-1.3,1.6-2,3.9-2,6.8s0.7,5.2,2,6.9C60.7,21.1,62.5,22,64.8,22z"/>
	<path class="st0" d="M114.3,24.7l-5.4-24.2h3.8l2.6,12.6c0.2,1.3,0.5,2.6,0.7,3.9s0.5,2.6,0.7,3.9h0.1c0.3-1.3,0.6-2.6,0.9-3.9
		c0.3-1.3,0.6-2.6,1-3.9l3.5-12.6h3.4l3.4,12.6c0.3,1.3,0.6,2.6,0.9,3.9c0.3,1.3,0.6,2.6,1,3.9h0.2c0.2-1.3,0.5-2.6,0.7-3.9
		s0.5-2.6,0.7-3.9l2.6-12.6h3.6l-5.4,24.2h-4.5l-3.7-13.5c-0.2-1-0.5-1.9-0.7-2.8c-0.2-0.9-0.4-1.8-0.6-2.7h-0.2
		c-0.2,0.9-0.4,1.8-0.6,2.7c-0.2,0.9-0.4,1.9-0.7,2.8l-3.6,13.5H114.3z"/>
	<path class="st0" d="M173.5,24.7V0.5h15.2v3.1h-11.3v7h9.6v2.9h-9.6v8.1h11.8v3.1H173.5z"/>
	<path class="st0" d="M225.2,24.7V0.5h8.4c1.3,0,2.6,0.1,3.7,0.3s2.1,0.6,2.9,1.2c0.8,0.6,1.5,1.3,1.9,2.2c0.5,0.9,0.7,2,0.7,3.3
		c0,1.8-0.5,3.3-1.5,4.5s-2.4,2-4,2.4l6.4,10.2h-4.2l-6-9.7H229v9.8H225.2z M229.1,12.2h4.1c4,0,6-1.5,6-4.4c0-1.6-0.5-2.6-1.6-3.3
		c-1-0.6-2.5-0.9-4.5-0.9h-4V12.2z"/>
	<path class="st0" d="M279.2,24.7V0.5h15.2v3.1h-11.3v7h9.6v2.9h-9.6v8.1h11.8v3.1H279.2z"/>
	<path class="st0" d="M330.9,24.7V0.5h6.7c4,0,7.1,1,9.3,3s3.3,5,3.3,9s-1.1,7-3.3,9.1c-2.2,2.1-5.2,3.1-9.1,3.1H330.9z M334.8,21.7
		h2.9c2.9,0,5-0.8,6.4-2.3s2.1-3.8,2.1-6.8c0-2.8-0.7-5-2.1-6.6s-3.5-2.3-6.4-2.3h-2.9V21.7z"/>
	<path class="st0" d="M425.3,24.7V0.5h7.9c1.3,0,2.6,0.1,3.7,0.3s2.1,0.6,2.9,1c0.8,0.5,1.4,1.1,1.9,1.8c0.5,0.8,0.7,1.7,0.7,2.8
		c0,1.2-0.4,2.2-1.1,3.2c-0.7,0.9-1.7,1.6-3.1,2v0.2c1.7,0.3,3.1,1,4.1,1.9s1.5,2.2,1.5,3.9c0,1.2-0.2,2.3-0.7,3.1
		c-0.5,0.9-1.2,1.6-2.1,2.2s-1.9,1-3.1,1.3s-2.5,0.4-4,0.4h-8.6V24.7z M429.2,10.7h3.6c2.1,0,3.7-0.3,4.6-1c0.9-0.7,1.4-1.6,1.4-2.8
		s-0.5-2.1-1.4-2.7c-1-0.5-2.4-0.8-4.3-0.8h-3.9V10.7z M429.2,21.8h4.2c2,0,3.6-0.3,4.8-1c1.2-0.7,1.8-1.8,1.8-3.4
		c0-1.4-0.6-2.4-1.7-3.1s-2.8-1-4.9-1h-4.2V21.8z"/>
	<path class="st0" d="M482.5,24.7v-9.1l-7.8-15h4.1l3.1,6.4c0.4,0.9,0.8,1.8,1.2,2.6c0.4,0.9,0.8,1.7,1.3,2.6h0.2
		c0.4-0.9,0.8-1.8,1.2-2.6c0.4-0.9,0.8-1.7,1.2-2.6l3.1-6.4h4l-7.8,15v9.1H482.5z"/>
</g>
</svg>
