<svg width="654" height="100" viewBox="0 0 654 100" fill="none" xmlns="http://www.w3.org/2000/svg">
<g opacity="0.99">
<path d="M26.1651 98.3154V25.6625H0V4.30035H78.531V25.6625H52.366V98.3154H26.1651ZM196.489 98.3154V4.30035H222.654V38.8526H223.371L248.998 4.30035H277.314L247.565 42.7594L282.654 98.3154H254.697L232.618 60.7524L222.654 72.1503V98.3154H196.489ZM295.271 98.3154V4.30035H359.178V24.5872H321.436V40.9673H353.838V60.0356H321.436V78.0285H360.97V98.3154H295.271ZM384.125 98.3154V4.30035H410.29V76.9532H447.674V98.3154H384.125V98.3154Z" fill="#192432"/>
<path d="M164.374 34.6235C164.948 34.6235 165.413 34.1581 165.413 33.584C165.413 33.01 164.948 32.5446 164.374 32.5446C163.8 32.5446 163.334 33.01 163.334 33.584C163.334 34.1581 163.8 34.6235 164.374 34.6235Z" fill="#192432"/>
<path d="M97.5636 52.5806C97.8407 52.5806 98.0654 52.3559 98.0654 52.0788C98.0654 51.8016 97.8407 51.577 97.5636 51.577C97.2864 51.577 97.0618 51.8016 97.0618 52.0788C97.0618 52.3559 97.2864 52.5806 97.5636 52.5806Z" fill="#192432"/>
<path d="M461.15 98.2798V4.33643H485.989V98.2798H461.15Z" fill="#192432"/>
<path d="M536.563 100C530.577 100 524.448 98.9247 518.14 96.7383C511.832 94.5877 506.133 91.1827 501.007 86.559L515.165 69.4979C518.534 72.1861 522.19 74.3725 526.061 76.0571C529.968 77.7417 533.66 78.6019 537.101 78.6019C540.864 78.6019 543.588 78.0285 545.273 76.8815C546.957 75.7345 547.818 74.0858 547.818 71.9711C547.818 70.8241 547.531 69.8563 546.958 69.0678C546.384 68.3151 545.524 67.5624 544.413 66.9173C543.302 66.2363 541.975 65.5911 540.434 64.9818C538.893 64.3725 537.101 63.6556 535.094 62.9029L523.373 57.9925C520.864 57.0247 518.463 55.7702 516.133 54.1573C513.803 52.5802 511.796 50.6806 510.076 48.53C508.355 46.3795 506.957 43.8705 505.954 41.0748C504.95 38.2791 504.448 35.1966 504.448 31.8274C504.448 27.7772 505.308 24.0137 507.065 20.5012C508.785 16.9886 511.222 13.9061 514.305 11.2538C517.387 8.60142 521.079 6.52255 525.344 4.98132C529.646 3.44009 534.341 2.65155 539.431 2.65155C544.843 2.65155 550.291 3.65514 555.846 5.69817C561.402 7.70535 566.312 10.8953 570.649 15.2323L558.212 30.8238C555.022 28.6016 551.975 26.917 549.036 25.77C546.097 24.623 542.907 24.0496 539.431 24.0496C536.348 24.0496 533.947 24.5872 532.19 25.6266C530.47 26.7019 529.574 28.279 529.574 30.3937C529.574 32.6159 530.792 34.3364 533.266 35.5192C535.739 36.7378 539.108 38.1357 543.445 39.7844L554.879 44.2648C560.757 46.5945 565.273 49.8204 568.463 53.9423C571.653 58.1 573.23 63.4405 573.23 69.9997C573.23 73.9424 572.406 77.7417 570.757 81.4335C569.108 85.0894 566.743 88.3153 563.588 91.0393C560.47 93.7992 556.635 95.9856 552.083 97.5985C547.639 99.1756 542.441 100 536.563 100Z" fill="#192432"/>
<path d="M603.338 98.2798V25.161H578.499V4.33643H653.052V25.161H628.213V98.2798H603.338Z" fill="#192432"/>
<path d="M139.584 73.4677C139.867 73.4677 140.097 73.2382 140.097 72.9551C140.097 72.672 139.867 72.4426 139.584 72.4426C139.301 72.4426 139.072 72.672 139.072 72.9551C139.072 73.2382 139.301 73.4677 139.584 73.4677Z" fill="#192432"/>
<path d="M128.205 14.7618C128.489 14.7618 128.718 14.5323 128.718 14.2492C128.718 13.9661 128.489 13.7366 128.205 13.7366C127.922 13.7366 127.693 13.9661 127.693 14.2492C127.693 14.5323 127.922 14.7618 128.205 14.7618Z" fill="#192432"/>
<path d="M99.8094 50.7439C100.093 50.7439 100.322 50.5145 100.322 50.2314C100.322 49.9483 100.093 49.7188 99.8094 49.7188C99.5264 49.7188 99.2969 49.9483 99.2969 50.2314C99.2969 50.5145 99.5264 50.7439 99.8094 50.7439Z" fill="#192432"/>
<path d="M159.438 55.4254C159.721 55.4254 159.95 55.1959 159.95 54.9128C159.95 54.6298 159.721 54.4003 159.438 54.4003C159.155 54.4003 158.925 54.6298 158.925 54.9128C158.925 55.1959 159.155 55.4254 159.438 55.4254Z" fill="#192432"/>
<path d="M184.656 49.7531C184.656 77.0215 162.582 99.096 135.313 99.096C108.045 99.096 85.9702 77.0215 85.9702 49.7531C85.9702 22.4846 108.045 0.410156 135.313 0.410156C162.582 0.410156 184.656 22.4846 184.656 49.7531Z" fill="#192432"/>
<path d="M135.313 99.4376C107.908 99.4376 85.5942 77.1239 85.5942 49.7188C85.5942 36.4263 90.7882 23.9539 100.151 14.5568C109.514 5.19399 122.021 0 135.313 0C162.718 0 185.032 22.3137 185.032 49.7188C185.032 63.0113 179.838 75.4837 170.475 84.8808C161.078 94.2778 148.571 99.4376 135.313 99.4376ZM135.313 0.751766C122.26 0.751766 109.89 5.87741 100.664 15.1036C91.4375 24.3297 86.3118 36.6996 86.3118 49.753C86.3118 76.748 108.318 98.7542 135.313 98.7542C148.366 98.7542 160.736 93.6285 169.962 84.4023C179.189 75.1762 184.314 62.8063 184.314 49.753C184.314 22.7579 162.308 0.751766 135.313 0.751766Z" fill="#192432"/>
<path d="M135.313 93.4236C159.432 93.4236 178.984 73.8716 178.984 49.753C178.984 25.6345 159.432 6.08252 135.313 6.08252C111.195 6.08252 91.6426 25.6345 91.6426 49.753C91.6426 73.8716 111.195 93.4236 135.313 93.4236Z" fill="#DEDEDE"/>
<path d="M142.967 29.2158C142.967 33.4872 139.482 36.9726 135.211 36.9726C130.939 36.9726 127.454 33.5555 127.454 29.2158C127.454 24.8761 130.939 21.459 135.211 21.459C139.482 21.4932 142.967 24.9444 142.967 29.2158Z" fill="#192432"/>
<path d="M135.245 37.3144C130.768 37.3144 127.146 33.6923 127.146 29.2159C127.146 24.7395 130.768 21.1174 135.245 21.1174C139.721 21.1174 143.343 24.7395 143.343 29.2159C143.343 33.6923 139.721 37.3144 135.245 37.3144ZM135.245 21.835C131.11 21.835 127.864 25.1837 127.864 29.2159C127.864 33.2481 131.213 36.5968 135.245 36.5968C139.379 36.5968 142.626 33.2481 142.626 29.2159C142.626 25.1837 139.345 21.835 135.245 21.835Z" fill="#192432"/>
<path d="M147.231 25.2176L122.862 29.2718L123.209 31.3616L147.579 27.3074L147.231 25.2176Z" fill="#192432"/>
<path d="M138.935 52.5894C138.935 54.0929 137.739 55.2889 136.236 55.2889C134.732 55.2889 133.536 54.0929 133.536 52.5894C133.536 51.0859 134.732 49.8899 136.236 49.8899C137.739 49.8899 138.935 51.0859 138.935 52.5894Z" fill="#192432"/>
<path d="M136.236 55.5621C134.527 55.5621 133.194 54.2295 133.194 52.5209C133.194 50.8124 134.527 49.4797 136.236 49.4797C137.944 49.4797 139.277 50.8124 139.277 52.5209C139.277 54.2295 137.944 55.5621 136.236 55.5621ZM136.236 50.2314C134.971 50.2314 133.878 51.2908 133.878 52.5892C133.878 53.8877 134.937 54.947 136.236 54.947C137.534 54.947 138.593 53.8877 138.593 52.5892C138.559 51.2224 137.568 50.2314 136.236 50.2314Z" fill="#192432"/>
<path d="M165.349 32.2576C165.349 32.5993 165.076 32.9068 164.7 32.9068C164.324 32.9068 164.051 32.6335 164.051 32.2576C164.051 31.8817 164.324 31.6083 164.7 31.6083C165.076 31.6083 165.349 31.9159 165.349 32.2576Z" fill="#192432"/>
<path d="M164.7 33.2825C164.119 33.2825 163.709 32.8725 163.709 32.2916C163.709 31.7106 164.119 31.3006 164.7 31.3006C165.281 31.3006 165.691 31.7106 165.691 32.2916C165.691 32.8383 165.281 33.2825 164.7 33.2825ZM164.7 31.984C164.564 31.984 164.427 32.1207 164.427 32.2574C164.427 32.3941 164.564 32.5308 164.7 32.5308C164.837 32.5308 164.974 32.3941 164.974 32.2574C164.974 32.1207 164.837 31.984 164.7 31.984Z" fill="#192432"/>
<path d="M159.438 55.4254C159.721 55.4254 159.95 55.1959 159.95 54.9128C159.95 54.6298 159.721 54.4003 159.438 54.4003C159.155 54.4003 158.925 54.6298 158.925 54.9128C158.925 55.1959 159.155 55.4254 159.438 55.4254Z" fill="#192432"/>
<path d="M159.164 54.9127C159.164 54.776 159.233 54.7077 159.369 54.7077V56.1429C160.019 56.1429 160.565 55.6303 160.565 54.9469H159.164V54.9127ZM159.438 54.7077C159.574 54.7077 159.643 54.776 159.643 54.9127H158.208C158.208 55.562 158.72 56.1087 159.404 56.1087V54.7077H159.438ZM159.677 54.9127C159.677 55.0494 159.609 55.1177 159.472 55.1177V53.6826C158.823 53.6826 158.276 54.1951 158.276 54.8785H159.677V54.9127ZM159.438 55.2203C159.301 55.2203 159.233 55.0836 159.233 55.0152H160.668C160.668 54.366 160.155 53.8192 159.472 53.8192V55.2203H159.438Z" fill="#192432"/>
<path d="M99.8094 50.7439C100.093 50.7439 100.322 50.5145 100.322 50.2314C100.322 49.9483 100.093 49.7188 99.8094 49.7188C99.5264 49.7188 99.2969 49.9483 99.2969 50.2314C99.2969 50.5145 99.5264 50.7439 99.8094 50.7439Z" fill="#192432"/>
<path d="M99.6045 50.2313C99.6045 50.0946 99.6728 50.0263 99.8095 50.0263V51.4615C100.459 51.4615 101.005 50.9489 101.005 50.2655H99.6045V50.2313ZM99.8095 49.9579C99.9462 49.9579 100.015 50.0946 100.015 50.163H98.5793C98.5793 50.8122 99.0919 51.3589 99.7753 51.3589V49.9579H99.8095ZM100.083 50.2313C100.083 50.368 100.015 50.4363 99.8778 50.4363V49.0012C99.2286 49.0012 98.6819 49.5137 98.6819 50.1971H100.083V50.2313ZM99.8095 50.4363C99.6728 50.4363 99.6045 50.2996 99.6045 50.2313H101.04C101.04 49.5821 100.527 49.0353 99.8437 49.0353V50.4363H99.8095Z" fill="#192432"/>
<path d="M128.205 14.7618C128.489 14.7618 128.718 14.5323 128.718 14.2492C128.718 13.9661 128.489 13.7366 128.205 13.7366C127.922 13.7366 127.693 13.9661 127.693 14.2492C127.693 14.5323 127.922 14.7618 128.205 14.7618Z" fill="#192432"/>
<path d="M128 14.2491C128 14.1125 128.069 14.0441 128.206 14.0441V15.4793C128.855 15.4793 129.401 14.9667 129.401 14.2833H128V14.2491ZM128.206 13.9416C128.342 13.9416 128.411 14.0099 128.411 14.1466H127.01C127.01 14.7959 127.522 15.3426 128.206 15.3426V13.9416ZM128.411 14.2491C128.411 14.3858 128.342 14.4542 128.206 14.4542V13.019C127.556 13.019 127.01 13.5315 127.01 14.215H128.411V14.2491ZM128.206 14.4542C128.069 14.4542 128 14.3175 128 14.2491H129.436C129.436 13.5999 128.923 13.0532 128.24 13.0532V14.4542H128.206Z" fill="#192432"/>
<path d="M139.584 73.4677C139.867 73.4677 140.097 73.2382 140.097 72.9551C140.097 72.672 139.867 72.4426 139.584 72.4426C139.301 72.4426 139.072 72.672 139.072 72.9551C139.072 73.2382 139.301 73.4677 139.584 73.4677Z" fill="#192432"/>
<path d="M139.345 72.955C139.345 72.8183 139.414 72.7499 139.55 72.7499V74.1851C140.199 74.1851 140.746 73.6725 140.746 72.9891H139.345V72.955ZM139.584 72.7499C139.721 72.7499 139.789 72.8866 139.789 72.955H138.354C138.354 73.6042 138.867 74.1509 139.55 74.1509V72.7499H139.584ZM139.789 72.955C139.789 73.0916 139.721 73.16 139.584 73.16V71.759C138.935 71.759 138.388 72.2715 138.388 72.955H139.789ZM139.584 73.16C139.448 73.16 139.379 73.0916 139.379 72.955H140.815C140.815 72.3057 140.302 71.759 139.619 71.759V73.16H139.584Z" fill="#192432"/>
<path d="M130.837 84.9489C130.837 85.2906 130.563 85.5981 130.188 85.5981C129.846 85.5981 129.538 85.3247 129.538 84.9489C129.538 84.6071 129.812 84.2996 130.188 84.2996C130.563 84.3338 130.837 84.6071 130.837 84.9489Z" fill="#192432"/>
<path d="M130.187 86.0424C129.607 86.0424 129.197 85.6324 129.197 85.0515C129.197 84.4705 129.607 84.0605 130.187 84.0605C130.768 84.0605 131.178 84.4705 131.178 85.0515C131.178 85.6324 130.7 86.0424 130.187 86.0424ZM130.187 84.6756C130.051 84.6756 129.914 84.8122 129.914 84.9489C129.914 85.0856 130.051 85.2223 130.187 85.2223C130.324 85.2223 130.461 85.0856 130.461 84.9489C130.495 84.8122 130.324 84.6756 130.187 84.6756Z" fill="#192432"/>
<path d="M163.299 73.8094C163.299 75.8597 161.659 77.4999 159.608 77.4999C157.558 77.4999 155.918 75.8597 155.918 73.8094C155.918 71.7592 157.558 70.119 159.608 70.119C161.659 70.119 163.299 71.8275 163.299 73.8094Z" fill="#192432"/>
<path d="M159.609 77.8758C157.353 77.8758 155.576 76.0306 155.576 73.8436C155.576 71.6567 157.422 69.8115 159.609 69.8115C161.796 69.8115 163.641 71.6567 163.641 73.8436C163.641 76.0989 161.864 77.8758 159.609 77.8758ZM159.609 70.4607C157.763 70.4607 156.26 71.9642 156.26 73.8095C156.26 75.6547 157.763 77.1582 159.609 77.1582C161.454 77.1582 162.957 75.6547 162.957 73.8095C162.923 71.9642 161.454 70.4607 159.609 70.4607Z" fill="#192432"/>
<path d="M113.444 67.9318C113.444 68.8544 112.658 69.6403 111.735 69.6403C110.813 69.6403 110.027 68.8544 110.027 67.9318C110.027 67.0091 110.813 66.2232 111.735 66.2232C112.726 66.2232 113.444 67.0091 113.444 67.9318Z" fill="#192432"/>
<path d="M111.803 69.9137C110.676 69.9137 109.753 68.9911 109.753 67.8634C109.753 66.7358 110.676 65.8132 111.803 65.8132C112.931 65.8132 113.854 66.7358 113.854 67.8634C113.854 68.9911 112.863 69.9137 111.803 69.9137ZM111.803 66.5649C111.086 66.5649 110.471 67.1459 110.471 67.8976C110.471 68.6152 111.052 69.2303 111.803 69.2303C112.521 69.2303 113.136 68.6494 113.136 67.8976C113.068 67.2142 112.521 66.5649 111.803 66.5649Z" fill="#192432"/>
<path d="M114.571 37.3143C114.571 38.2369 113.785 39.0229 112.863 39.0229C111.94 39.0229 111.154 38.2369 111.154 37.3143C111.154 36.3917 111.94 35.6058 112.863 35.6058C113.854 35.6741 114.571 36.3917 114.571 37.3143Z" fill="#192432"/>
<path d="M112.931 39.3647C111.803 39.3647 110.881 38.4421 110.881 37.3145C110.881 36.1868 111.803 35.2642 112.931 35.2642C114.059 35.2642 114.981 36.1868 114.981 37.3145C114.981 38.4421 113.99 39.3647 112.931 39.3647ZM112.931 36.0501C112.214 36.0501 111.598 36.6311 111.598 37.3828C111.598 38.1346 112.179 38.7155 112.931 38.7155C113.649 38.7155 114.264 38.1346 114.264 37.3828C114.264 36.6311 113.649 36.0501 112.931 36.0501Z" fill="#192432"/>
</g>
</svg>
