<?xml version="1.0" encoding="utf-8"?>
<!-- Generator: Adobe Illustrator 25.4.1, SVG Export Plug-In . SVG Version: 6.00 Build 0)  -->
<svg version="1.1" id="Layer_1" xmlns="http://www.w3.org/2000/svg" xmlns:xlink="http://www.w3.org/1999/xlink" x="0px" y="0px"
	 viewBox="0 0 1360.1 295" style="enable-background:new 0 0 1360.1 295;" xml:space="preserve">
<style type="text/css">
	.st0{fill:#192432;}
</style>
<polygon class="st0" points="1360.1,225.4 1360.1,290.3 1167,290.3 1167,4.7 1246.5,4.7 1246.5,225.4 "/>
<polygon class="st0" points="1096.6,228.6 1096.6,290.3 897,290.3 897,4.7 1091.2,4.7 1091.2,66.3 976.5,66.3 976.5,116.1 
	1075,116.1 1075,174 976.5,174 976.5,228.6 "/>
<polygon class="st0" points="858.8,290.3 773.9,290.3 706.8,176.1 676.5,210.7 676.5,290.3 597,290.3 597,4.7 676.5,4.7 
	676.5,109.6 678.6,109.6 756.5,4.7 842.5,4.7 752.2,121.5 "/>
<polygon class="st0" points="238.5,4.7 238.5,69.6 159,69.6 159,290.3 79.5,290.3 79.5,69.6 0,69.6 0,4.7 "/>
<g>
	<g>
		<path class="st0" d="M484.4,163L484.4,163L484.4,163L484.4,163L484.4,163z M484.4,163L484.4,163L484.4,163L484.4,163L484.4,163z
			 M391,39.9c0.2,0.3,0.4,0.6,0.5,0.9C391.4,40.5,391.2,40.2,391,39.9z M384.6,41.9L384.6,41.9L384.6,41.9L384.6,41.9z M384.6,42.1
			L384.6,42.1L384.6,42.1L384.6,42.1z M304.1,145.4L304.1,145.4L304.1,145.4L304.1,145.4z M303.9,145.4L303.9,145.4L303.9,145.4
			L303.9,145.4z"/>
		<path class="st0" d="M391.8,42.1L391.8,42.1c0,0.2,0,0.3,0,0.5c0,0.1,0,0.3-0.1,0.4l0,0l0,0c0,0.2-0.1,0.4-0.2,0.6
			c-0.2,0.4-0.5,0.8-0.8,1.1c-0.1,0.1-0.1,0.1-0.2,0.2s-0.2,0.2-0.3,0.2c-0.1,0.1-0.2,0.1-0.3,0.2c-0.2,0.1-0.4,0.2-0.6,0.3
			c-0.3,0.1-0.7,0.1-1,0.1l0,0c-0.3,0-0.6,0-0.9-0.1c-1.7-0.5-2.7-1.9-2.7-3.5l0,0l0,0V42v-0.1v-0.1c0-0.1,0-0.1,0-0.2
			s0-0.3,0.1-0.4c0.4-1.6,1.9-2.7,3.5-2.7c0.3,0,0.6,0,0.9,0.1l0,0c0,0,0,0,0.1,0l0,0l0,0l0,0h0.1c0.1,0,0.1,0.1,0.2,0.1
			s0.2,0.1,0.3,0.1c0.1,0,0.2,0.1,0.2,0.1c0.2,0.1,0.5,0.3,0.7,0.5c0.1,0.1,0.1,0.2,0.2,0.3c0.2,0.3,0.4,0.6,0.5,0.9
			c0.1,0.2,0.2,0.4,0.2,0.7c0,0.1,0,0.2,0,0.3C391.7,41.9,391.8,42,391.8,42.1z"/>
		<path class="st0" d="M307.5,148.9c0,2.1-1.7,3.6-3.6,3.6c-2.1,0-3.6-1.7-3.6-3.6v-0.1l0,0l0,0l0,0l0,0l0,0l0,0
			c0.1-2,1.7-3.4,3.6-3.4l0,0l0,0h0.1l0,0l0,0h0.1c0.1,0,0.2,0,0.2,0c0.2,0,0.3,0.1,0.4,0.1s0.2,0.1,0.3,0.1c0.1,0,0.1,0,0.2,0.1
			c0.1,0,0.2,0.1,0.3,0.1c0.1,0.1,0.3,0.2,0.4,0.2c0,0,0.1,0,0.1,0.1c0.1,0,0.1,0.1,0.2,0.1s0.1,0.1,0.2,0.2l0.1,0.1
			c0.1,0.1,0.2,0.2,0.2,0.3c0.1,0.1,0.1,0.2,0.2,0.2c0.1,0.1,0.2,0.3,0.2,0.4c0,0.1,0.1,0.2,0.1,0.3c0,0.2,0.1,0.3,0.1,0.4
			s0,0.2,0,0.3l0,0C307.5,148.7,307.5,148.8,307.5,148.9z"/>
		<path class="st0" d="M409.2,0c-39.4,0-76.5,15.4-104.3,43.2s-43.2,64.9-43.2,104.3c0,81.3,66.2,147.5,147.5,147.5
			c39.4,0,76.5-15.4,104.3-43.2c13.9-13.9,24.7-30.1,32-47.8c7.3-17.7,11.2-36.8,11.2-56.5C556.7,66.2,490.6,0,409.2,0z M408.7,277
			c-71.5-0.3-129.3-58.6-129-130.1s58.5-129.3,130.1-129c71.5,0.3,129.3,58.6,129,130.1S480.2,277.3,408.7,277z"/>
	</g>
	<path class="st0" d="M484.4,163L484.4,163L484.4,163L484.4,163L484.4,163z M484.4,163L484.4,163L484.4,163L484.4,163L484.4,163z
		 M391,39.9c0.2,0.3,0.4,0.6,0.5,0.9C391.4,40.5,391.2,40.2,391,39.9z M384.6,41.9L384.6,41.9L384.6,41.9L384.6,41.9z M384.6,42.1
		L384.6,42.1L384.6,42.1L384.6,42.1z M304.1,145.4L304.1,145.4L304.1,145.4L304.1,145.4z M303.9,145.4L303.9,145.4L303.9,145.4
		L303.9,145.4z"/>
	<g>
		<path class="st0" d="M432.8,83.1c0.2,1.1,0.3,2.3,0.3,3.5c0,13.3-10.7,24-24,24c-11.8,0-21.6-8.5-23.6-19.6l-12,2l-1-6.2l12.7-2.1
			c1-12.4,11.3-22.1,23.9-22.1c9.9,0,18.3,5.9,22,14.4l13.6-2.3l1,6.2L432.8,83.1z"/>
	</g>
	<g>
		<circle class="st0" cx="412" cy="155.7" r="9.1"/>
	</g>
	<g>
		<path class="st0" d="M499.4,95.6c0,1.7-1.3,3-2.9,3c-1.7,0-3-1.3-3-3s1.3-2.9,3-2.9C498.1,92.7,499.4,94,499.4,95.6z"/>
	</g>
	<path class="st0" d="M303.9,152.5c-2.1,0-3.6-1.7-3.6-3.6v-0.1l0,0l0,0l0,0l0,0l0,0l0,0l0,0c0.1-2,1.7-3.4,3.6-3.4l0,0h0.1l0,0l0,0
		l0,0h0.1c0.1,0,0.2,0,0.2,0c0.2,0,0.3,0.1,0.4,0.1s0.2,0.1,0.3,0.1c0.1,0,0.1,0,0.2,0.1c0.1,0,0.2,0.1,0.3,0.1
		c0.1,0.1,0.3,0.2,0.4,0.2c0,0,0.1,0,0.1,0.1c0.1,0,0.1,0.1,0.2,0.1s0.1,0.1,0.2,0.2l0.1,0.1c0.1,0.1,0.2,0.2,0.2,0.3
		c0.1,0.1,0.1,0.2,0.2,0.2c0.1,0.1,0.2,0.3,0.2,0.4s0.1,0.2,0.1,0.3c0,0.2,0.1,0.3,0.1,0.4c0,0.1,0,0.2,0,0.3l0,0c0,0.1,0,0.3,0,0.4
		C307.5,151,305.8,152.5,303.9,152.5z M480.9,159.3c2.1,0,3.6,1.7,3.6,3.6v0.1l0,0l0,0v0.1l0,0l0,0c-0.1,2-1.7,3.4-3.6,3.4
		c-0.1,0-0.3,0-0.4,0s-0.2,0-0.4-0.1c-0.1,0-0.2-0.1-0.3-0.1h-0.1c-0.1,0-0.1,0-0.2-0.1l0,0h-0.1h-0.1c-0.1,0-0.1-0.1-0.2-0.1
		s-0.1-0.1-0.2-0.1l-0.1-0.1l-0.1-0.1c-0.1-0.1-0.3-0.2-0.4-0.3s-0.1-0.2-0.2-0.3s-0.1-0.2-0.2-0.2c0,0,0-0.1-0.1-0.1
		c0-0.1-0.1-0.1-0.1-0.2l0,0c0-0.1-0.1-0.2-0.1-0.3s0-0.1-0.1-0.2c0-0.1-0.1-0.2-0.1-0.2v-0.1c0,0,0,0,0-0.1s0-0.1,0-0.2
		c0-0.2,0-0.3,0-0.5C477.3,160.7,479,159.3,480.9,159.3z M384.6,42.1L384.6,42.1L384.6,42.1L384.6,42.1L384.6,42.1L384.6,42.1v-0.2
		c0-0.1,0-0.1,0-0.2s0-0.3,0.1-0.4c0.4-1.6,1.9-2.7,3.5-2.7c0.3,0,0.6,0,0.9,0.1l0,0h0.1l0,0h0.1c0.1,0,0.1,0.1,0.2,0.1
		s0.2,0.1,0.3,0.1c0.1,0,0.2,0.1,0.2,0.1c0.2,0.1,0.5,0.3,0.7,0.5c0.1,0.1,0.1,0.2,0.2,0.3c0.2,0.3,0.4,0.6,0.5,0.9
		c0.1,0.2,0.2,0.4,0.2,0.7c0,0.1,0,0.2,0,0.3c0,0.1,0,0.2,0,0.3l0,0c0,0.1,0,0.3,0,0.4s0,0.3-0.1,0.4l0,0l0,0c0,0.2-0.1,0.4-0.2,0.6
		c-0.2,0.4-0.5,0.8-0.8,1.1c-0.1,0.1-0.1,0.1-0.2,0.2s-0.2,0.2-0.3,0.2c-0.1,0.1-0.2,0.1-0.3,0.2c-0.2,0.1-0.4,0.2-0.6,0.3
		c-0.3,0.1-0.7,0.1-1,0.1l0,0c-0.3,0-0.6,0-0.9-0.1C385.6,45.1,384.6,43.7,384.6,42.1L384.6,42.1z M339.5,207.3
		c-3.4,0-6.1-2.7-6.1-6.1c0-3.4,2.7-6.1,6.1-6.1s6.1,2.7,6.1,6.1C345.6,204.6,342.7,207.3,339.5,207.3z M342.9,116.7
		c-3.4,0-6.1-2.7-6.1-6.1c0-3.4,2.7-6.1,6.1-6.1s6.1,2.7,6.1,6.1C349,114,346,116.7,342.9,116.7z M394.1,255.1c-1.7,0-3-1.3-3-3
		s1.3-2.9,3-2.9s3,1.3,3,2.9C397,253.8,395.6,255.1,394.1,255.1z M402.9,155.7c0-5,4-9.1,9.1-9.1c5,0,9.1,4,9.1,9.1s-4,9.1-9.1,9.1
		C406.9,164.7,402.9,160.7,402.9,155.7z M421.9,219.9c-2.1,0-3.6-1.7-3.6-3.6c0-2.1,1.7-3.6,3.6-3.6c2.1,0,3.6,1.7,3.6,3.6
		C425.5,218.5,423.8,219.9,421.9,219.9z M433,86.6c0,13.3-10.7,24-24,24c-11.8,0-21.6-8.5-23.6-19.6l-12,2l-1-6.2l12.7-2.1
		c1-12.4,11.3-22.1,23.9-22.1c9.9,0,18.3,5.9,22,14.4l13.6-2.3l1,6.2l-12.9,2.2C433,84.2,433,85.4,433,86.6z M481.3,230.9
		c-6.7,0-12-5.5-12-12s5.5-12,12-12c6.5,0,12,5.5,12,12C493.3,225.6,488,230.9,481.3,230.9z M496.5,98.6c-1.7,0-3-1.3-3-3
		s1.3-2.9,3-2.9s2.9,1.3,2.9,2.9C499.4,97.3,498.1,98.6,496.5,98.6z"/>
	<path class="st0" d="M484.4,163L484.4,163L484.4,163L484.4,163L484.4,163L484.4,163L484.4,163z"/>
	<path class="st0" d="M303.9,145.4L303.9,145.4L303.9,145.4L303.9,145.4z M304.1,145.4L304.1,145.4L304.1,145.4L304.1,145.4z"/>
	<path class="st0" d="M384.6,42.1L384.6,42.1L384.6,42.1L384.6,42.1z M384.6,41.9L384.6,41.9L384.6,41.9L384.6,41.9z"/>
	<path class="st0" d="M384.6,41.9L384.6,41.9C384.6,42,384.6,42,384.6,41.9L384.6,41.9z"/>
	<path class="st0" d="M384.6,42.1L384.6,42.1L384.6,42.1L384.6,42.1z"/>
	<path class="st0" d="M391.5,40.8c-0.1-0.3-0.3-0.6-0.5-0.9C391.2,40.2,391.4,40.5,391.5,40.8z"/>
	<path class="st0" d="M425.5,216.3c0,2.1-1.7,3.6-3.6,3.6c-2.1,0-3.6-1.7-3.6-3.6c0-2.1,1.7-3.6,3.6-3.6
		C424,212.8,425.5,214.4,425.5,216.3z"/>
	<g>
		<path class="st0" d="M397,252.2c0,1.7-1.5,3-3,3c-1.7,0-3-1.3-3-3s1.3-2.9,3-2.9C395.8,249.2,397,250.5,397,252.2z"/>
	</g>
	<g>
		<ellipse transform="matrix(0.1091 -0.994 0.994 0.1091 211.1893 673.4405)" class="st0" cx="481.3" cy="218.9" rx="12" ry="12"/>
	</g>
	<g>
		<circle class="st0" cx="339.5" cy="201.2" r="6.1"/>
	</g>
	<g>
		<path class="st0" d="M349,110.6c0,3.4-3,6.1-6.1,6.1c-3.4,0-6.1-2.7-6.1-6.1c0-3.4,2.7-6.1,6.1-6.1S349,107.2,349,110.6z"/>
	</g>
	<path class="st0" d="M303.9,145.4L303.9,145.4L303.9,145.4L303.9,145.4z"/>
	<path class="st0" d="M484.4,163L484.4,163L484.4,163L484.4,163c-0.1,2.1-1.7,3.4-3.6,3.4c-0.1,0-0.3,0-0.4,0s-0.2,0-0.4-0.1
		c-0.1,0-0.2-0.1-0.3-0.1h-0.1c-0.1,0-0.1,0-0.2-0.1l0,0h-0.1h-0.1c-0.1,0-0.1-0.1-0.2-0.1s-0.1-0.1-0.2-0.1l-0.1-0.1l-0.1-0.1
		c-0.1-0.1-0.3-0.2-0.4-0.3s-0.1-0.2-0.2-0.3s-0.1-0.2-0.2-0.2c0,0,0-0.1-0.1-0.1c0-0.1-0.1-0.1-0.1-0.2l0,0c0-0.1-0.1-0.2-0.1-0.3
		s0-0.1-0.1-0.2c0-0.1-0.1-0.2-0.1-0.2v-0.1c0,0,0,0,0-0.1s0-0.1,0-0.2c0-0.2,0-0.3,0-0.5c0-2.1,1.7-3.6,3.6-3.6
		C483,159.4,484.5,161.1,484.4,163C484.4,162.9,484.4,162.9,484.4,163L484.4,163L484.4,163L484.4,163z"/>
</g>
</svg>
