<svg width="32" height="32" viewBox="0 0 32 32" fill="none" xmlns="http://www.w3.org/2000/svg">
<path d="M16 0C7.1776 0 0 7.1776 0 16C0 24.8224 7.1776 32 16 32C24.8224 32 32 24.8224 32 16C32 7.1776 24.8224 0 16 0ZM16 28.8C8.9424 28.8 3.2 23.0576 3.2 16C3.2 8.9424 8.9424 3.2 16 3.2C23.0576 3.2 28.8 8.9424 28.8 16C28.8 23.0576 23.0576 28.8 16 28.8Z" fill="#C6C6C6"/>
<path d="M10.4 16C11.7255 16 12.8 14.9255 12.8 13.6C12.8 12.2745 11.7255 11.2 10.4 11.2C9.07452 11.2 8 12.2745 8 13.6C8 14.9255 9.07452 16 10.4 16Z" fill="#C6C6C6"/>
<path d="M21.5888 15.9776C22.9081 15.9776 23.9776 14.9081 23.9776 13.5888C23.9776 12.2695 22.9081 11.2 21.5888 11.2C20.2695 11.2 19.2 12.2695 19.2 13.5888C19.2 14.9081 20.2695 15.9776 21.5888 15.9776Z" fill="#C6C6C6"/>
<path d="M16 25.6C22.4 25.6 24 19.2 24 19.2H8C8 19.2 9.6 25.6 16 25.6Z" fill="#C6C6C6"/>
</svg>
