<?xml version="1.0" encoding="utf-8"?>
<!-- Generator: Adobe Illustrator 25.4.1, SVG Export Plug-In . SVG Version: 6.00 Build 0)  -->
<svg version="1.1" id="Layer_1" xmlns="http://www.w3.org/2000/svg" xmlns:xlink="http://www.w3.org/1999/xlink" x="0px" y="0px"
	 viewBox="0 0 374.1 374.1" style="enable-background:new 0 0 374.1 374.1;" xml:space="preserve">
<style type="text/css">
	.st0{fill:#192432;}
</style>
<g>
	<g>
		<path class="st0" d="M252.4,197.7L252.4,197.7C252.4,197.7,252.4,197.7,252.4,197.7L252.4,197.7
			C252.4,197.6,252.4,197.6,252.4,197.7z M252.4,197.6L252.4,197.6L252.4,197.6L252.4,197.6L252.4,197.6z M158.9,74.6
			c0.2,0.3,0.4,0.6,0.5,0.9C159.3,75.1,159.1,74.8,158.9,74.6z M152.5,76.6L152.5,76.6C152.5,76.6,152.5,76.6,152.5,76.6L152.5,76.6
			z M152.5,76.8C152.5,76.8,152.5,76.8,152.5,76.8L152.5,76.8C152.5,76.8,152.5,76.8,152.5,76.8z M72,180C72.1,180,72.1,180,72,180
			L72,180L72,180z M71.9,180L71.9,180C71.9,180,71.9,180,71.9,180L71.9,180z"/>
		<path class="st0" d="M159.7,76.8C159.7,76.8,159.7,76.8,159.7,76.8c0,0.2,0,0.3,0,0.5c0,0.1,0,0.3-0.1,0.4c0,0,0,0,0,0s0,0,0,0
			c0,0.2-0.1,0.4-0.2,0.6c-0.2,0.4-0.5,0.8-0.8,1.1c-0.1,0.1-0.1,0.1-0.2,0.2c-0.1,0.1-0.2,0.2-0.3,0.2c-0.1,0.1-0.2,0.1-0.3,0.2
			c-0.2,0.1-0.4,0.2-0.6,0.3c-0.3,0.1-0.7,0.1-1,0.1c0,0,0,0,0,0c-0.3,0-0.6,0-0.9-0.1c-1.7-0.5-2.7-1.9-2.7-3.5h0c0,0,0,0,0,0
			c0,0,0-0.1,0-0.1v-0.1c0,0,0-0.1,0-0.1c0-0.1,0-0.1,0-0.2c0-0.1,0-0.3,0.1-0.4c0.4-1.6,1.9-2.7,3.5-2.7c0.3,0,0.6,0,0.9,0.1
			c0,0,0,0,0,0c0,0,0,0,0.1,0c0,0,0,0,0,0h0c0,0,0,0,0,0c0,0,0.1,0,0.1,0c0.1,0,0.1,0.1,0.2,0.1c0.1,0,0.2,0.1,0.3,0.1
			c0.1,0,0.2,0.1,0.2,0.1c0.2,0.1,0.5,0.3,0.7,0.5c0.1,0.1,0.1,0.2,0.2,0.3c0.2,0.3,0.4,0.6,0.5,0.9c0.1,0.2,0.2,0.4,0.2,0.7
			c0,0.1,0,0.2,0,0.3C159.7,76.6,159.7,76.7,159.7,76.8z"/>
		<path class="st0" d="M75.4,183.6c0,2.1-1.7,3.6-3.6,3.6c-2.1,0-3.6-1.7-3.6-3.6c0,0,0-0.1,0-0.1v0c0,0,0,0,0,0c0,0,0,0,0,0v0
			c0,0,0,0,0,0s0,0,0,0c0.1-2,1.7-3.4,3.6-3.4v0c0,0,0,0,0,0c0,0,0.1,0,0.1,0c0,0,0,0,0,0c0,0,0,0,0,0c0,0,0.1,0,0.1,0
			c0.1,0,0.2,0,0.2,0c0.2,0,0.3,0.1,0.4,0.1c0.1,0,0.2,0.1,0.3,0.1c0.1,0,0.1,0,0.2,0.1c0.1,0,0.2,0.1,0.3,0.1
			c0.1,0.1,0.3,0.2,0.4,0.2c0,0,0.1,0,0.1,0.1c0.1,0,0.1,0.1,0.2,0.1s0.1,0.1,0.2,0.2c0,0,0.1,0.1,0.1,0.1c0.1,0.1,0.2,0.2,0.2,0.3
			c0.1,0.1,0.1,0.2,0.2,0.2c0.1,0.1,0.2,0.3,0.2,0.4c0,0.1,0.1,0.2,0.1,0.3c0,0.2,0.1,0.3,0.1,0.4c0,0.1,0,0.2,0,0.3c0,0,0,0,0,0
			C75.4,183.3,75.4,183.5,75.4,183.6z"/>
		<path class="st0" d="M177.2,34.7c-39.4,0-76.5,15.4-104.3,43.2c-27.8,27.8-43.2,64.9-43.2,104.3c0,81.3,66.2,147.5,147.5,147.5
			c39.4,0,76.5-15.4,104.3-43.2c13.9-13.9,24.7-30.1,32-47.8c7.3-17.7,11.2-36.8,11.2-56.5C324.7,100.8,258.5,34.7,177.2,34.7z
			 M176.6,311.7c-71.5-0.3-129.3-58.6-129-130.1C48,110,106.2,52.3,177.8,52.6c71.5,0.3,129.3,58.6,129,130.1S248.2,312,176.6,311.7
			z"/>
	</g>
	<path class="st0" d="M252.4,197.7L252.4,197.7C252.4,197.7,252.4,197.7,252.4,197.7L252.4,197.7
		C252.4,197.6,252.4,197.6,252.4,197.7z M252.4,197.6L252.4,197.6L252.4,197.6L252.4,197.6L252.4,197.6z M158.9,74.6
		c0.2,0.3,0.4,0.6,0.5,0.9C159.3,75.1,159.1,74.8,158.9,74.6z M152.5,76.6L152.5,76.6C152.5,76.6,152.5,76.6,152.5,76.6L152.5,76.6z
		 M152.5,76.8C152.5,76.8,152.5,76.8,152.5,76.8L152.5,76.8C152.5,76.8,152.5,76.8,152.5,76.8z M72,180C72.1,180,72.1,180,72,180
		L72,180L72,180z M71.9,180L71.9,180C71.9,180,71.9,180,71.9,180L71.9,180z"/>
	<g>
		<path class="st0" d="M200.7,117.8c0.2,1.1,0.3,2.3,0.3,3.5c0,13.3-10.7,24-24,24c-11.8,0-21.6-8.5-23.6-19.6l-12,2l-1-6.2
			l12.7-2.1c1-12.4,11.3-22.1,23.9-22.1c9.9,0,18.3,5.9,22,14.4l13.6-2.3l1,6.2L200.7,117.8z"/>
	</g>
	<g>
		<circle class="st0" cx="179.9" cy="190.3" r="9.1"/>
	</g>
	<g>
		<path class="st0" d="M267.4,130.3c0,1.7-1.3,3-2.9,3c-1.7,0-3-1.3-3-3c0-1.7,1.3-2.9,3-2.9C266.1,127.4,267.4,128.6,267.4,130.3z"
			/>
	</g>
	<path class="st0" d="M71.9,187.2c-2.1,0-3.6-1.7-3.6-3.6c0,0,0-0.1,0-0.1v0c0,0,0,0,0,0c0,0,0,0,0,0v0c0,0,0,0,0,0v0h0
		c0.1-2,1.7-3.4,3.6-3.4h0c0,0,0.1,0,0.1,0c0,0,0,0,0,0h0v0c0,0,0.1,0,0.1,0c0.1,0,0.2,0,0.2,0c0.2,0,0.3,0.1,0.4,0.1
		c0.1,0,0.2,0.1,0.3,0.1c0.1,0,0.1,0,0.2,0.1c0.1,0,0.2,0.1,0.3,0.1c0.1,0.1,0.3,0.2,0.4,0.2c0,0,0.1,0,0.1,0.1
		c0.1,0,0.1,0.1,0.2,0.1s0.1,0.1,0.2,0.2c0,0,0.1,0.1,0.1,0.1c0.1,0.1,0.2,0.2,0.2,0.3c0.1,0.1,0.1,0.2,0.2,0.2
		c0.1,0.1,0.2,0.3,0.2,0.4c0,0.1,0.1,0.2,0.1,0.3c0,0.2,0.1,0.3,0.1,0.4c0,0.1,0,0.2,0,0.3c0,0,0,0,0,0c0,0.1,0,0.3,0,0.4
		C75.4,185.7,73.8,187.2,71.9,187.2z M248.8,193.9c2.1,0,3.6,1.7,3.6,3.6c0,0,0,0.1,0,0.1v0h0v0.1c0,0,0,0,0,0s0,0,0,0
		c-0.1,2-1.7,3.4-3.6,3.4c-0.1,0-0.3,0-0.4,0c-0.1,0-0.2,0-0.4-0.1c-0.1,0-0.2-0.1-0.3-0.1c0,0-0.1,0-0.1,0c-0.1,0-0.1,0-0.2-0.1
		c0,0,0,0,0,0c0,0-0.1,0-0.1,0c0,0-0.1,0-0.1,0c-0.1,0-0.1-0.1-0.2-0.1c-0.1,0-0.1-0.1-0.2-0.1c0,0-0.1-0.1-0.1-0.1
		c0,0-0.1-0.1-0.1-0.1c-0.1-0.1-0.3-0.2-0.4-0.3c-0.1-0.1-0.1-0.2-0.2-0.3c-0.1-0.1-0.1-0.2-0.2-0.2c0,0,0-0.1-0.1-0.1
		c0-0.1-0.1-0.1-0.1-0.2c0,0,0,0,0,0c0-0.1-0.1-0.2-0.1-0.3c0-0.1,0-0.1-0.1-0.2c0-0.1-0.1-0.2-0.1-0.2c0,0,0-0.1,0-0.1
		c0,0,0,0,0-0.1c0-0.1,0-0.1,0-0.2c0-0.2,0-0.3,0-0.5C245.2,195.4,246.9,193.9,248.8,193.9z M152.5,76.8c0,0,0-0.1,0-0.1v0
		c0,0,0,0,0,0v0h0c0,0,0-0.1,0-0.1c0-0.1,0-0.1,0-0.2c0-0.1,0-0.3,0.1-0.4c0.4-1.6,1.9-2.7,3.5-2.7c0.3,0,0.6,0,0.9,0.1c0,0,0,0,0,0
		c0,0,0.1,0,0.1,0c0,0,0,0,0,0c0,0,0.1,0,0.1,0c0.1,0,0.1,0.1,0.2,0.1c0.1,0,0.2,0.1,0.3,0.1c0.1,0,0.2,0.1,0.2,0.1
		c0.2,0.1,0.5,0.3,0.7,0.5c0.1,0.1,0.1,0.2,0.2,0.3c0.2,0.3,0.4,0.6,0.5,0.9c0.1,0.2,0.2,0.4,0.2,0.7c0,0.1,0,0.2,0,0.3
		c0,0.1,0,0.2,0,0.3c0,0,0,0,0,0c0,0.1,0,0.3,0,0.4c0,0.1,0,0.3-0.1,0.4c0,0,0,0,0,0s0,0,0,0c0,0.2-0.1,0.4-0.2,0.6
		c-0.2,0.4-0.5,0.8-0.8,1.1c-0.1,0.1-0.1,0.1-0.2,0.2c-0.1,0.1-0.2,0.2-0.3,0.2c-0.1,0.1-0.2,0.1-0.3,0.2c-0.2,0.1-0.4,0.2-0.6,0.3
		c-0.3,0.1-0.7,0.1-1,0.1c0,0,0,0,0,0c-0.3,0-0.6,0-0.9-0.1C153.5,79.8,152.5,78.3,152.5,76.8C152.5,76.8,152.5,76.8,152.5,76.8z
		 M107.5,241.9c-3.4,0-6.1-2.7-6.1-6.1s2.7-6.1,6.1-6.1s6.1,2.7,6.1,6.1S110.6,241.9,107.5,241.9z M110.8,151.4
		c-3.4,0-6.1-2.7-6.1-6.1c0-3.4,2.7-6.1,6.1-6.1s6.1,2.7,6.1,6.1C116.9,148.6,114,151.4,110.8,151.4z M162,289.8c-1.7,0-3-1.3-3-3
		c0-1.7,1.3-2.9,3-2.9c1.7,0,3,1.3,3,2.9C165,288.5,163.5,289.8,162,289.8z M170.9,190.3c0-5,4-9.1,9.1-9.1c5,0,9.1,4,9.1,9.1
		c0,5.1-4,9.1-9.1,9.1C174.9,199.4,170.9,195.4,170.9,190.3z M189.8,254.6c-2.1,0-3.6-1.7-3.6-3.6c0-2.1,1.7-3.6,3.6-3.6
		c2.1,0,3.6,1.7,3.6,3.6C193.4,253.1,191.7,254.6,189.8,254.6z M201,121.2c0,13.3-10.7,24-24,24c-11.8,0-21.6-8.5-23.6-19.6l-12,2
		l-1-6.2l12.7-2.1c1-12.4,11.3-22.1,23.9-22.1c9.9,0,18.3,5.9,22,14.4l13.6-2.3l1,6.2l-12.9,2.2C200.9,118.9,201,120.1,201,121.2z
		 M249.2,265.5c-6.7,0-12-5.5-12-12c0-6.5,5.5-12,12-12c6.5,0,12,5.5,12,12C261.2,260.3,256,265.5,249.2,265.5z M264.4,133.3
		c-1.7,0-3-1.3-3-3c0-1.7,1.3-2.9,3-2.9c1.7,0,2.9,1.3,2.9,2.9C267.4,132,266.1,133.3,264.4,133.3z"/>
	<path class="st0" d="M252.4,197.6L252.4,197.6C252.4,197.7,252.4,197.7,252.4,197.6L252.4,197.6
		C252.4,197.7,252.4,197.7,252.4,197.6L252.4,197.6L252.4,197.6z"/>
	<path class="st0" d="M71.9,180L71.9,180C71.9,180,71.9,180,71.9,180L71.9,180z M72,180C72.1,180,72.1,180,72,180L72,180L72,180z"/>
	<path class="st0" d="M152.5,76.8C152.5,76.8,152.5,76.8,152.5,76.8L152.5,76.8C152.5,76.8,152.5,76.8,152.5,76.8z M152.5,76.6
		L152.5,76.6C152.5,76.6,152.5,76.6,152.5,76.6L152.5,76.6z"/>
	<path class="st0" d="M152.6,76.6L152.6,76.6C152.5,76.6,152.5,76.6,152.6,76.6C152.5,76.6,152.5,76.6,152.6,76.6z"/>
	<path class="st0" d="M152.6,76.8L152.6,76.8C152.5,76.8,152.5,76.8,152.6,76.8C152.5,76.8,152.5,76.8,152.6,76.8z"/>
	<path class="st0" d="M159.4,75.4c-0.1-0.3-0.3-0.6-0.5-0.9C159.1,74.8,159.3,75.1,159.4,75.4z"/>
	<path class="st0" d="M193.4,251c0,2.1-1.7,3.6-3.6,3.6c-2.1,0-3.6-1.7-3.6-3.6c0-2.1,1.7-3.6,3.6-3.6
		C191.9,247.4,193.4,249.1,193.4,251z"/>
	<g>
		<path class="st0" d="M165,286.8c0,1.7-1.5,3-3,3c-1.7,0-3-1.3-3-3c0-1.7,1.3-2.9,3-2.9C163.7,283.9,165,285.1,165,286.8z"/>
	</g>
	<g>
		<circle class="st0" cx="249.2" cy="253.5" r="12"/>
	</g>
	<g>
		<circle class="st0" cx="107.5" cy="235.8" r="6.1"/>
	</g>
	<g>
		<path class="st0" d="M116.9,145.3c0,3.4-3,6.1-6.1,6.1c-3.4,0-6.1-2.7-6.1-6.1c0-3.4,2.7-6.1,6.1-6.1S116.9,141.9,116.9,145.3z"/>
	</g>
	<path class="st0" d="M71.9,180C71.9,180,71.9,180,71.9,180L71.9,180L71.9,180z"/>
	<path class="st0" d="M252.4,197.7C252.4,197.7,252.4,197.7,252.4,197.7C252.4,197.7,252.4,197.7,252.4,197.7
		C252.4,197.7,252.4,197.7,252.4,197.7c-0.1,2.1-1.7,3.4-3.6,3.4c-0.1,0-0.3,0-0.4,0c-0.1,0-0.2,0-0.4-0.1c-0.1,0-0.2-0.1-0.3-0.1
		c0,0-0.1,0-0.1,0c-0.1,0-0.1,0-0.2-0.1c0,0,0,0,0,0c0,0-0.1,0-0.1,0c0,0-0.1,0-0.1,0c-0.1,0-0.1-0.1-0.2-0.1
		c-0.1,0-0.1-0.1-0.2-0.1c0,0-0.1-0.1-0.1-0.1c0,0-0.1-0.1-0.1-0.1c-0.1-0.1-0.3-0.2-0.4-0.3c-0.1-0.1-0.1-0.2-0.2-0.3
		c-0.1-0.1-0.1-0.2-0.2-0.2c0,0,0-0.1-0.1-0.1c0-0.1-0.1-0.1-0.1-0.2c0,0,0,0,0,0c0-0.1-0.1-0.2-0.1-0.3c0-0.1,0-0.1-0.1-0.2
		c0-0.1-0.1-0.2-0.1-0.2c0,0,0-0.1,0-0.1c0,0,0,0,0-0.1c0-0.1,0-0.1,0-0.2c0-0.2,0-0.3,0-0.5c0-2.1,1.7-3.6,3.6-3.6
		c2.1,0,3.6,1.7,3.6,3.6C252.4,197.5,252.4,197.6,252.4,197.7L252.4,197.7C252.4,197.7,252.4,197.7,252.4,197.7L252.4,197.7z"/>
</g>
</svg>
