<?xml version="1.0" encoding="utf-8"?>
<!-- Generator: Adobe Illustrator 25.4.1, SVG Export Plug-In . SVG Version: 6.00 Build 0)  -->
<svg version="1.1" id="Layer_1" xmlns="http://www.w3.org/2000/svg" xmlns:xlink="http://www.w3.org/1999/xlink" x="0px" y="0px"
	 viewBox="0 0 1411.8 353.8" style="enable-background:new 0 0 1411.8 353.8;" xml:space="preserve">
<style type="text/css">
	.st0{fill:#192432;}
</style>
<polygon class="st0" points="1385.7,257.8 1385.7,322.7 1192.6,322.7 1192.6,37.1 1272.1,37.1 1272.1,257.8 "/>
<polygon class="st0" points="1122.2,261 1122.2,322.7 922.6,322.7 922.6,37.1 1116.8,37.1 1116.8,98.7 1002.1,98.7 1002.1,148.5 
	1100.6,148.5 1100.6,206.4 1002.1,206.4 1002.1,261 "/>
<polygon class="st0" points="884.4,322.7 799.5,322.7 732.4,208.5 702.1,243.1 702.1,322.7 622.6,322.7 622.6,37.1 702.1,37.1 
	702.1,142 704.2,142 782.1,37.1 868.1,37.1 777.8,153.9 "/>
<polygon class="st0" points="264.1,37.1 264.1,102 184.6,102 184.6,322.7 105.1,322.7 105.1,102 25.6,102 25.6,37.1 "/>
<g>
	<g>
		<path class="st0" d="M510,195.4L510,195.4C510,195.4,510,195.4,510,195.4L510,195.4C510,195.4,510,195.4,510,195.4z M510,195.4
			L510,195.4L510,195.4L510,195.4L510,195.4z M416.6,72.3c0.2,0.3,0.4,0.6,0.5,0.9C417,72.9,416.8,72.6,416.6,72.3z M410.2,74.3
			L410.2,74.3C410.2,74.3,410.2,74.3,410.2,74.3L410.2,74.3z M410.2,74.5C410.2,74.5,410.2,74.5,410.2,74.5L410.2,74.5
			C410.2,74.5,410.2,74.5,410.2,74.5z M329.7,177.8C329.7,177.8,329.7,177.8,329.7,177.8L329.7,177.8L329.7,177.8z M329.5,177.8
			L329.5,177.8C329.5,177.8,329.5,177.8,329.5,177.8L329.5,177.8z"/>
		<path class="st0" d="M417.4,74.5C417.4,74.5,417.4,74.5,417.4,74.5c0,0.2,0,0.3,0,0.5c0,0.1,0,0.3-0.1,0.4c0,0,0,0,0,0s0,0,0,0
			c0,0.2-0.1,0.4-0.2,0.6c-0.2,0.4-0.5,0.8-0.8,1.1c-0.1,0.1-0.1,0.1-0.2,0.2c-0.1,0.1-0.2,0.2-0.3,0.2c-0.1,0.1-0.2,0.1-0.3,0.2
			c-0.2,0.1-0.4,0.2-0.6,0.3c-0.3,0.1-0.7,0.1-1,0.1c0,0,0,0,0,0c-0.3,0-0.6,0-0.9-0.1c-1.7-0.5-2.7-1.9-2.7-3.5h0c0,0,0,0,0,0
			c0,0,0-0.1,0-0.1v-0.1c0,0,0-0.1,0-0.1c0-0.1,0-0.1,0-0.2c0-0.1,0-0.3,0.1-0.4c0.4-1.6,1.9-2.7,3.5-2.7c0.3,0,0.6,0,0.9,0.1
			c0,0,0,0,0,0c0,0,0,0,0.1,0c0,0,0,0,0,0h0c0,0,0,0,0,0c0,0,0.1,0,0.1,0c0.1,0,0.1,0.1,0.2,0.1c0.1,0,0.2,0.1,0.3,0.1
			c0.1,0,0.2,0.1,0.2,0.1c0.2,0.1,0.5,0.3,0.7,0.5c0.1,0.1,0.1,0.2,0.2,0.3c0.2,0.3,0.4,0.6,0.5,0.9c0.1,0.2,0.2,0.4,0.2,0.7
			c0,0.1,0,0.2,0,0.3C417.3,74.3,417.4,74.4,417.4,74.5z"/>
		<path class="st0" d="M333.1,181.3c0,2.1-1.7,3.6-3.6,3.6c-2.1,0-3.6-1.7-3.6-3.6c0,0,0-0.1,0-0.1v0c0,0,0,0,0,0c0,0,0,0,0,0v0
			c0,0,0,0,0,0s0,0,0,0c0.1-2,1.7-3.4,3.6-3.4v0c0,0,0,0,0,0c0,0,0.1,0,0.1,0c0,0,0,0,0,0c0,0,0,0,0,0c0,0,0.1,0,0.1,0
			c0.1,0,0.2,0,0.2,0c0.2,0,0.3,0.1,0.4,0.1c0.1,0,0.2,0.1,0.3,0.1c0.1,0,0.1,0,0.2,0.1c0.1,0,0.2,0.1,0.3,0.1
			c0.1,0.1,0.3,0.2,0.4,0.2c0,0,0.1,0,0.1,0.1c0.1,0,0.1,0.1,0.2,0.1s0.1,0.1,0.2,0.2c0,0,0.1,0.1,0.1,0.1c0.1,0.1,0.2,0.2,0.2,0.3
			c0.1,0.1,0.1,0.2,0.2,0.2c0.1,0.1,0.2,0.3,0.2,0.4c0,0.1,0.1,0.2,0.1,0.3c0,0.2,0.1,0.3,0.1,0.4c0,0.1,0,0.2,0,0.3c0,0,0,0,0,0
			C333.1,181.1,333.1,181.2,333.1,181.3z"/>
		<path class="st0" d="M434.8,32.4c-39.4,0-76.5,15.4-104.3,43.2c-27.8,27.8-43.2,64.9-43.2,104.3c0,81.3,66.2,147.5,147.5,147.5
			c39.4,0,76.5-15.4,104.3-43.2c13.9-13.9,24.7-30.1,32-47.8c7.3-17.7,11.2-36.8,11.2-56.5C582.3,98.6,516.2,32.4,434.8,32.4z
			 M434.3,309.4c-71.5-0.3-129.3-58.6-129-130.1c0.3-71.5,58.5-129.3,130.1-129c71.5,0.3,129.3,58.6,129,130.1
			S505.8,309.7,434.3,309.4z"/>
	</g>
	<path class="st0" d="M510,195.4L510,195.4C510,195.4,510,195.4,510,195.4L510,195.4C510,195.4,510,195.4,510,195.4z M510,195.4
		L510,195.4L510,195.4L510,195.4L510,195.4z M416.6,72.3c0.2,0.3,0.4,0.6,0.5,0.9C417,72.9,416.8,72.6,416.6,72.3z M410.2,74.3
		L410.2,74.3C410.2,74.3,410.2,74.3,410.2,74.3L410.2,74.3z M410.2,74.5C410.2,74.5,410.2,74.5,410.2,74.5L410.2,74.5
		C410.2,74.5,410.2,74.5,410.2,74.5z M329.7,177.8C329.7,177.8,329.7,177.8,329.7,177.8L329.7,177.8L329.7,177.8z M329.5,177.8
		L329.5,177.8C329.5,177.8,329.5,177.8,329.5,177.8L329.5,177.8z"/>
	<g>
		<path class="st0" d="M458.4,115.5c0.2,1.1,0.3,2.3,0.3,3.5c0,13.3-10.7,24-24,24c-11.8,0-21.6-8.5-23.6-19.6l-12,2l-1-6.2
			l12.7-2.1c1-12.4,11.3-22.1,23.9-22.1c9.9,0,18.3,5.9,22,14.4l13.6-2.3l1,6.2L458.4,115.5z"/>
	</g>
	<g>
		<circle class="st0" cx="437.6" cy="188.1" r="9.1"/>
	</g>
	<g>
		<path class="st0" d="M525,128c0,1.7-1.3,3-2.9,3c-1.7,0-3-1.3-3-3c0-1.7,1.3-2.9,3-2.9C523.7,125.1,525,126.4,525,128z"/>
	</g>
	<path class="st0" d="M329.5,184.9c-2.1,0-3.6-1.7-3.6-3.6c0,0,0-0.1,0-0.1v0c0,0,0,0,0,0c0,0,0,0,0,0v0c0,0,0,0,0,0v0h0
		c0.1-2,1.7-3.4,3.6-3.4h0c0,0,0.1,0,0.1,0c0,0,0,0,0,0h0v0c0,0,0.1,0,0.1,0c0.1,0,0.2,0,0.2,0c0.2,0,0.3,0.1,0.4,0.1
		c0.1,0,0.2,0.1,0.3,0.1c0.1,0,0.1,0,0.2,0.1c0.1,0,0.2,0.1,0.3,0.1c0.1,0.1,0.3,0.2,0.4,0.2c0,0,0.1,0,0.1,0.1
		c0.1,0,0.1,0.1,0.2,0.1s0.1,0.1,0.2,0.2c0,0,0.1,0.1,0.1,0.1c0.1,0.1,0.2,0.2,0.2,0.3c0.1,0.1,0.1,0.2,0.2,0.2
		c0.1,0.1,0.2,0.3,0.2,0.4c0,0.1,0.1,0.2,0.1,0.3c0,0.2,0.1,0.3,0.1,0.4c0,0.1,0,0.2,0,0.3c0,0,0,0,0,0c0,0.1,0,0.3,0,0.4
		C333.1,183.4,331.4,184.9,329.5,184.9z M506.5,191.7c2.1,0,3.6,1.7,3.6,3.6c0,0,0,0.1,0,0.1v0h0v0.1c0,0,0,0,0,0s0,0,0,0
		c-0.1,2-1.7,3.4-3.6,3.4c-0.1,0-0.3,0-0.4,0c-0.1,0-0.2,0-0.4-0.1c-0.1,0-0.2-0.1-0.3-0.1c0,0-0.1,0-0.1,0c-0.1,0-0.1,0-0.2-0.1
		c0,0,0,0,0,0c0,0-0.1,0-0.1,0c0,0-0.1,0-0.1,0c-0.1,0-0.1-0.1-0.2-0.1c-0.1,0-0.1-0.1-0.2-0.1c0,0-0.1-0.1-0.1-0.1
		c0,0-0.1-0.1-0.1-0.1c-0.1-0.1-0.3-0.2-0.4-0.3c-0.1-0.1-0.1-0.2-0.2-0.3c-0.1-0.1-0.1-0.2-0.2-0.2c0,0,0-0.1-0.1-0.1
		c0-0.1-0.1-0.1-0.1-0.2c0,0,0,0,0,0c0-0.1-0.1-0.2-0.1-0.3c0-0.1,0-0.1-0.1-0.2c0-0.1-0.1-0.2-0.1-0.2c0,0,0-0.1,0-0.1
		c0,0,0,0,0-0.1c0-0.1,0-0.1,0-0.2c0-0.2,0-0.3,0-0.5C502.9,193.1,504.6,191.7,506.5,191.7z M410.2,74.5c0,0,0-0.1,0-0.1v0
		c0,0,0,0,0,0v0h0c0,0,0-0.1,0-0.1c0-0.1,0-0.1,0-0.2c0-0.1,0-0.3,0.1-0.4c0.4-1.6,1.9-2.7,3.5-2.7c0.3,0,0.6,0,0.9,0.1c0,0,0,0,0,0
		c0,0,0.1,0,0.1,0c0,0,0,0,0,0c0,0,0.1,0,0.1,0c0.1,0,0.1,0.1,0.2,0.1c0.1,0,0.2,0.1,0.3,0.1c0.1,0,0.2,0.1,0.2,0.1
		c0.2,0.1,0.5,0.3,0.7,0.5c0.1,0.1,0.1,0.2,0.2,0.3c0.2,0.3,0.4,0.6,0.5,0.9c0.1,0.2,0.2,0.4,0.2,0.7c0,0.1,0,0.2,0,0.3
		c0,0.1,0,0.2,0,0.3c0,0,0,0,0,0c0,0.1,0,0.3,0,0.4c0,0.1,0,0.3-0.1,0.4c0,0,0,0,0,0s0,0,0,0c0,0.2-0.1,0.4-0.2,0.6
		c-0.2,0.4-0.5,0.8-0.8,1.1c-0.1,0.1-0.1,0.1-0.2,0.2c-0.1,0.1-0.2,0.2-0.3,0.2c-0.1,0.1-0.2,0.1-0.3,0.2c-0.2,0.1-0.4,0.2-0.6,0.3
		c-0.3,0.1-0.7,0.1-1,0.1c0,0,0,0,0,0c-0.3,0-0.6,0-0.9-0.1C411.2,77.5,410.2,76.1,410.2,74.5C410.2,74.5,410.2,74.5,410.2,74.5z
		 M365.1,239.7c-3.4,0-6.1-2.7-6.1-6.1s2.7-6.1,6.1-6.1s6.1,2.7,6.1,6.1S368.3,239.7,365.1,239.7z M368.5,149.1
		c-3.4,0-6.1-2.7-6.1-6.1c0-3.4,2.7-6.1,6.1-6.1s6.1,2.7,6.1,6.1C374.6,146.4,371.6,149.1,368.5,149.1z M419.7,287.5
		c-1.7,0-3-1.3-3-3c0-1.7,1.3-2.9,3-2.9c1.7,0,3,1.3,3,2.9C422.6,286.2,421.2,287.5,419.7,287.5z M428.5,188.1c0-5,4-9.1,9.1-9.1
		c5,0,9.1,4,9.1,9.1c0,5.1-4,9.1-9.1,9.1C432.5,197.1,428.5,193.1,428.5,188.1z M447.5,252.3c-2.1,0-3.6-1.7-3.6-3.6
		c0-2.1,1.7-3.6,3.6-3.6c2.1,0,3.6,1.7,3.6,3.6C451.1,250.9,449.4,252.3,447.5,252.3z M458.6,119c0,13.3-10.7,24-24,24
		c-11.8,0-21.6-8.5-23.6-19.6l-12,2l-1-6.2l12.7-2.1c1-12.4,11.3-22.1,23.9-22.1c9.9,0,18.3,5.9,22,14.4l13.6-2.3l1,6.2l-12.9,2.2
		C458.6,116.6,458.6,117.8,458.6,119z M506.9,263.3c-6.7,0-12-5.5-12-12c0-6.5,5.5-12,12-12c6.5,0,12,5.5,12,12
		C518.9,258,513.6,263.3,506.9,263.3z M522.1,131c-1.7,0-3-1.3-3-3c0-1.7,1.3-2.9,3-2.9c1.7,0,2.9,1.3,2.9,2.9
		C525,129.7,523.7,131,522.1,131z"/>
	<path class="st0" d="M510,195.4L510,195.4C510,195.4,510,195.4,510,195.4L510,195.4C510,195.4,510,195.4,510,195.4L510,195.4
		L510,195.4z"/>
	<path class="st0" d="M329.5,177.8L329.5,177.8C329.5,177.8,329.5,177.8,329.5,177.8L329.5,177.8z M329.7,177.8
		C329.7,177.8,329.7,177.8,329.7,177.8L329.7,177.8L329.7,177.8z"/>
	<path class="st0" d="M410.2,74.5C410.2,74.5,410.2,74.5,410.2,74.5L410.2,74.5C410.2,74.5,410.2,74.5,410.2,74.5z M410.2,74.3
		L410.2,74.3C410.2,74.3,410.2,74.3,410.2,74.3L410.2,74.3z"/>
	<path class="st0" d="M410.2,74.3L410.2,74.3C410.2,74.4,410.2,74.4,410.2,74.3C410.2,74.3,410.2,74.3,410.2,74.3z"/>
	<path class="st0" d="M410.2,74.5L410.2,74.5C410.2,74.5,410.2,74.5,410.2,74.5C410.2,74.5,410.2,74.5,410.2,74.5z"/>
	<path class="st0" d="M417.1,73.2c-0.1-0.3-0.3-0.6-0.5-0.9C416.8,72.6,417,72.9,417.1,73.2z"/>
	<path class="st0" d="M451.1,248.7c0,2.1-1.7,3.6-3.6,3.6c-2.1,0-3.6-1.7-3.6-3.6c0-2.1,1.7-3.6,3.6-3.6
		C449.6,245.2,451.1,246.8,451.1,248.7z"/>
	<g>
		<path class="st0" d="M422.6,284.6c0,1.7-1.5,3-3,3c-1.7,0-3-1.3-3-3c0-1.7,1.3-2.9,3-2.9C421.4,281.6,422.6,282.9,422.6,284.6z"/>
	</g>
	<g>
		<circle class="st0" cx="506.9" cy="251.3" r="12"/>
	</g>
	<g>
		<circle class="st0" cx="365.1" cy="233.6" r="6.1"/>
	</g>
	<g>
		<path class="st0" d="M374.6,143c0,3.4-3,6.1-6.1,6.1c-3.4,0-6.1-2.7-6.1-6.1c0-3.4,2.7-6.1,6.1-6.1S374.6,139.6,374.6,143z"/>
	</g>
	<path class="st0" d="M329.5,177.8C329.5,177.8,329.5,177.8,329.5,177.8L329.5,177.8L329.5,177.8z"/>
	<path class="st0" d="M510,195.4C510,195.4,510,195.4,510,195.4C510,195.4,510,195.4,510,195.4C510,195.4,510,195.4,510,195.4
		c-0.1,2.1-1.7,3.4-3.6,3.4c-0.1,0-0.3,0-0.4,0c-0.1,0-0.2,0-0.4-0.1c-0.1,0-0.2-0.1-0.3-0.1c0,0-0.1,0-0.1,0c-0.1,0-0.1,0-0.2-0.1
		c0,0,0,0,0,0c0,0-0.1,0-0.1,0c0,0-0.1,0-0.1,0c-0.1,0-0.1-0.1-0.2-0.1c-0.1,0-0.1-0.1-0.2-0.1c0,0-0.1-0.1-0.1-0.1
		c0,0-0.1-0.1-0.1-0.1c-0.1-0.1-0.3-0.2-0.4-0.3c-0.1-0.1-0.1-0.2-0.2-0.3c-0.1-0.1-0.1-0.2-0.2-0.2c0,0,0-0.1-0.1-0.1
		c0-0.1-0.1-0.1-0.1-0.2c0,0,0,0,0,0c0-0.1-0.1-0.2-0.1-0.3c0-0.1,0-0.1-0.1-0.2c0-0.1-0.1-0.2-0.1-0.2c0,0,0-0.1,0-0.1
		c0,0,0,0,0-0.1c0-0.1,0-0.1,0-0.2c0-0.2,0-0.3,0-0.5c0-2.1,1.7-3.6,3.6-3.6c2.1,0,3.6,1.7,3.6,3.6C510,195.3,510,195.3,510,195.4
		L510,195.4C510,195.4,510,195.4,510,195.4L510,195.4z"/>
</g>
</svg>
