<svg width="523" height="150" viewBox="0 0 523 150" fill="none" xmlns="http://www.w3.org/2000/svg">
<path d="M34.4 145V63.4H5V39.4H93.2V63.4H63.8V145H34.4ZM225.72 145V39.4H255.12V78.2H255.92L284.72 39.4H316.52L283.12 82.6L322.52 145H291.12L266.32 102.8L255.12 115.6V145H225.72ZM336.658 145V39.4H408.458V62.2H366.058V80.6H402.458V102H366.058V122.2H410.458V145H336.658ZM436.463 145V39.4H465.863V121H507.863V145H436.463Z" fill="#F0F0F0"/>
<ellipse rx="57.4907" ry="57.5" transform="matrix(1 0 0.000161611 1 155.676 92.5)" fill="#DEDEDE"/>
<ellipse cx="155.679" cy="92.5" rx="50.5303" ry="50.5303" fill="#192432"/>
<ellipse cx="155.595" cy="68.7788" rx="9.39367" ry="9.38035" fill="#DEDEDE"/>
<path d="M141.515 70.0261L169.696 65.3359" stroke="#DEDEDE" stroke-width="3"/>
<ellipse cx="156.778" cy="95.7461" rx="3.52263" ry="3.51763" fill="#DEDEDE"/>
<ellipse cx="189.653" cy="72.2966" rx="1.17421" ry="1.17254" fill="#DEDEDE"/>
<ellipse cx="183.585" cy="98.5289" rx="0.547404" ry="0.547972" fill="#DEDEDE"/>
<ellipse cx="114.619" cy="93.048" rx="0.547404" ry="0.547972" fill="#DEDEDE"/>
<ellipse cx="147.463" cy="51.4025" rx="0.547404" ry="0.547972" fill="#DEDEDE"/>
<ellipse cx="160.603" cy="119.35" rx="0.547404" ry="0.547972" fill="#DEDEDE"/>
<ellipse cx="149.724" cy="133.269" rx="1.17421" ry="1.17254" fill="#DEDEDE"/>
<ellipse cx="183.783" cy="120.371" rx="4.69684" ry="4.69017" fill="#DEDEDE"/>
<ellipse cx="128.446" cy="113.51" rx="2.34842" ry="2.34509" fill="#DEDEDE"/>
<ellipse cx="129.774" cy="78.1595" rx="2.34842" ry="2.34509" fill="#DEDEDE"/>
</svg>
