<svg width="140" height="140" viewBox="0 0 140 140" fill="none" xmlns="http://www.w3.org/2000/svg">
<path d="M139.489 70C139.495 108.384 108.389 139.5 70.0112 139.5C31.6338 139.5 0.517516 108.384 0.511313 70C0.50511 31.6161 31.6113 0.5 69.9888 0.5C108.366 0.5 139.482 31.6161 139.489 70Z" fill="#DEDEDE" stroke="#CED0DA"/>
<ellipse cx="70.0042" cy="70.0005" rx="61.5152" ry="61.5151" fill="#192432"/>
<path d="M80.8374 41.1217C80.8374 47.1517 75.9419 52.0413 69.9016 52.0413C63.8613 52.0413 58.9658 47.1517 58.9658 41.1217C58.9658 35.0917 63.8613 30.2021 69.9016 30.2021C75.9419 30.2021 80.8374 35.0917 80.8374 41.1217Z" fill="white" stroke="white"/>
<path d="M52.761 42.6409L87.0683 36.9312" stroke="white" stroke-width="3"/>
<path d="M75.1305 73.9518C75.1305 76.04 73.4351 77.7341 71.3421 77.7341C69.2492 77.7341 67.5537 76.04 67.5537 73.9518C67.5537 71.8635 69.2492 70.1694 71.3421 70.1694C73.4351 70.1694 75.1305 71.8635 75.1305 73.9518Z" fill="white" stroke="white"/>
<path d="M112.293 45.404C112.293 45.9156 111.878 46.3315 111.364 46.3315C110.85 46.3315 110.434 45.9156 110.434 45.404C110.434 44.8925 110.85 44.4766 111.364 44.4766C111.878 44.4766 112.293 44.8925 112.293 45.404Z" fill="white" stroke="white"/>
<mask id="path-7-inside-1" fill="white">
<ellipse cx="103.976" cy="77.339" rx="0.666404" ry="0.667096"/>
</mask>
<ellipse cx="103.976" cy="77.339" rx="0.666404" ry="0.667096" fill="white"/>
<path d="M103.642 77.339C103.642 77.1561 103.791 77.0061 103.976 77.0061V79.0061C104.897 79.0061 105.642 78.2587 105.642 77.339H103.642ZM103.976 77.0061C104.161 77.0061 104.31 77.1561 104.31 77.339H102.31C102.31 78.2587 103.055 79.0061 103.976 79.0061V77.0061ZM104.31 77.339C104.31 77.5219 104.161 77.6719 103.976 77.6719V75.6719C103.055 75.6719 102.31 76.4192 102.31 77.339H104.31ZM103.976 77.6719C103.791 77.6719 103.642 77.5219 103.642 77.339H105.642C105.642 76.4192 104.897 75.6719 103.976 75.6719V77.6719Z" fill="white" mask="url(#path-7-inside-1)"/>
<mask id="path-9-inside-2" fill="white">
<ellipse cx="20.0177" cy="70.6671" rx="0.666404" ry="0.667096"/>
</mask>
<ellipse cx="20.0177" cy="70.6671" rx="0.666404" ry="0.667096" fill="white"/>
<path d="M19.6841 70.6671C19.6841 70.4842 19.8325 70.3342 20.0177 70.3342V72.3342C20.939 72.3342 21.6841 71.5868 21.6841 70.6671H19.6841ZM20.0177 70.3342C20.2029 70.3342 20.3513 70.4842 20.3513 70.6671H18.3513C18.3513 71.5868 19.0964 72.3342 20.0177 72.3342V70.3342ZM20.3513 70.6671C20.3513 70.85 20.2029 71 20.0177 71V69C19.0964 69 18.3513 69.7474 18.3513 70.6671H20.3513ZM20.0177 71C19.8325 71 19.6841 70.85 19.6841 70.6671H21.6841C21.6841 69.7474 20.939 69 20.0177 69V71Z" fill="white" mask="url(#path-9-inside-2)"/>
<mask id="path-11-inside-3" fill="white">
<ellipse cx="60.0023" cy="19.9684" rx="0.666404" ry="0.667096"/>
</mask>
<ellipse cx="60.0023" cy="19.9684" rx="0.666404" ry="0.667096" fill="white"/>
<path d="M59.6687 19.9684C59.6687 19.7855 59.8171 19.6355 60.0023 19.6355V21.6355C60.9236 21.6355 61.6687 20.8881 61.6687 19.9684H59.6687ZM60.0023 19.6355C60.1876 19.6355 60.3359 19.7855 60.3359 19.9684H58.3359C58.3359 20.8881 59.081 21.6355 60.0023 21.6355V19.6355ZM60.3359 19.9684C60.3359 20.1512 60.1876 20.3013 60.0023 20.3013V18.3013C59.081 18.3013 58.3359 19.0486 58.3359 19.9684H60.3359ZM60.0023 20.3013C59.8171 20.3013 59.6687 20.1512 59.6687 19.9684H61.6687C61.6687 19.0486 60.9236 18.3013 60.0023 18.3013V20.3013Z" fill="white" mask="url(#path-11-inside-3)"/>
<mask id="path-13-inside-4" fill="white">
<ellipse cx="75.9984" cy="102.687" rx="0.666404" ry="0.667096"/>
</mask>
<ellipse cx="75.9984" cy="102.687" rx="0.666404" ry="0.667096" fill="white"/>
<path d="M75.6648 102.687C75.6648 102.504 75.8132 102.354 75.9984 102.354V104.354C76.9197 104.354 77.6648 103.606 77.6648 102.687H75.6648ZM75.9984 102.354C76.1837 102.354 76.332 102.504 76.332 102.687H74.332C74.332 103.606 75.0771 104.354 75.9984 104.354V102.354ZM76.332 102.687C76.332 102.87 76.1837 103.02 75.9984 103.02V101.02C75.0771 101.02 74.332 101.767 74.332 102.687H76.332ZM75.9984 103.02C75.8132 103.02 75.6648 102.87 75.6648 102.687H77.6648C77.6648 101.767 76.9197 101.02 75.9984 101.02V103.02Z" fill="white" mask="url(#path-13-inside-4)"/>
<path d="M63.6829 119.631C63.6829 120.143 63.2674 120.559 62.7534 120.559C62.2394 120.559 61.824 120.143 61.824 119.631C61.824 119.12 62.2394 118.704 62.7534 118.704C63.2674 118.704 63.6829 119.12 63.6829 119.631Z" fill="white" stroke="white"/>
<path d="M109.436 103.93C109.436 106.806 107.101 109.139 104.218 109.139C101.336 109.139 99.0002 106.806 99.0002 103.93C99.0002 101.053 101.336 98.7197 104.218 98.7197C107.101 98.7197 109.436 101.053 109.436 103.93Z" fill="white" stroke="white"/>
<path d="M39.2098 95.5775C39.2098 96.8774 38.1544 97.9324 36.8509 97.9324C35.5474 97.9324 34.4919 96.8774 34.4919 95.5775C34.4919 94.2776 35.5474 93.2227 36.8509 93.2227C38.1544 93.2227 39.2098 94.2776 39.2098 95.5775Z" fill="white" stroke="white"/>
<path d="M40.8275 52.5419C40.8275 53.8418 39.772 54.8968 38.4686 54.8968C37.1651 54.8968 36.1096 53.8418 36.1096 52.5419C36.1096 51.242 37.1651 50.187 38.4686 50.187C39.772 50.187 40.8275 51.242 40.8275 52.5419Z" fill="white" stroke="white"/>
</svg>
