<?xml version="1.0" encoding="utf-8"?>
<!-- Generator: Adobe Illustrator 25.4.1, SVG Export Plug-In . SVG Version: 6.00 Build 0)  -->
<svg version="1.1" id="Layer_1" xmlns="http://www.w3.org/2000/svg" xmlns:xlink="http://www.w3.org/1999/xlink" x="0px" y="0px"
	 viewBox="0 0 385.6 338" style="enable-background:new 0 0 385.6 338;" xml:space="preserve">
<style type="text/css">
	.st0{fill:#DEDEDE;}
	.st1{fill:#192432;}
	.st2{fill:#FFFFFF;}
</style>
<g>
	<g>
		<path class="st0" d="M262.1,183.2L262.1,183.2C262.1,183.3,262.1,183.3,262.1,183.2L262.1,183.2
			C262.1,183.2,262.1,183.2,262.1,183.2z M262.1,183.2L262.1,183.2L262.1,183.2L262.1,183.2L262.1,183.2z M168.7,60.1
			c0.2,0.3,0.4,0.6,0.5,0.9C169.1,60.7,168.9,60.4,168.7,60.1z M162.3,62.2L162.3,62.2C162.3,62.2,162.3,62.2,162.3,62.2L162.3,62.2
			z M162.3,62.4C162.3,62.4,162.3,62.4,162.3,62.4L162.3,62.4C162.3,62.4,162.3,62.4,162.3,62.4z M81.8,165.6
			C81.8,165.6,81.8,165.6,81.8,165.6L81.8,165.6L81.8,165.6z M81.6,165.6L81.6,165.6C81.6,165.6,81.6,165.6,81.6,165.6L81.6,165.6z"
			/>
		<path class="st0" d="M169.4,62.4C169.4,62.4,169.4,62.4,169.4,62.4c0,0.2,0,0.3,0,0.5c0,0.1,0,0.3-0.1,0.4c0,0,0,0,0,0s0,0,0,0
			c0,0.2-0.1,0.4-0.2,0.6c-0.2,0.4-0.5,0.8-0.8,1.1c-0.1,0.1-0.1,0.1-0.2,0.2c-0.1,0.1-0.2,0.2-0.3,0.2c-0.1,0.1-0.2,0.1-0.3,0.2
			c-0.2,0.1-0.4,0.2-0.6,0.3c-0.3,0.1-0.7,0.1-1,0.1c0,0,0,0,0,0c-0.3,0-0.6,0-0.9-0.1c-1.7-0.5-2.7-1.9-2.7-3.5h0c0,0,0,0,0,0
			c0,0,0-0.1,0-0.1v-0.1c0,0,0-0.1,0-0.1c0-0.1,0-0.1,0-0.2c0-0.1,0-0.3,0.1-0.4c0.4-1.6,1.9-2.7,3.5-2.7c0.3,0,0.6,0,0.9,0.1
			c0,0,0,0,0,0c0,0,0,0,0.1,0c0,0,0,0,0,0h0c0,0,0,0,0,0c0,0,0.1,0,0.1,0c0.1,0,0.1,0.1,0.2,0.1c0.1,0,0.2,0.1,0.3,0.1
			c0.1,0,0.2,0.1,0.2,0.1c0.2,0.1,0.5,0.3,0.7,0.5c0.1,0.1,0.1,0.2,0.2,0.3c0.2,0.3,0.4,0.6,0.5,0.9c0.1,0.2,0.2,0.4,0.2,0.7
			c0,0.1,0,0.2,0,0.3C169.4,62.1,169.4,62.3,169.4,62.4z"/>
		<path class="st0" d="M85.2,169.2c0,2.1-1.7,3.6-3.6,3.6c-2.1,0-3.6-1.7-3.6-3.6c0,0,0-0.1,0-0.1v0c0,0,0,0,0,0c0,0,0,0,0,0v0
			c0,0,0,0,0,0s0,0,0,0c0.1-2,1.7-3.4,3.6-3.4v0c0,0,0,0,0,0c0,0,0.1,0,0.1,0c0,0,0,0,0,0c0,0,0,0,0,0c0,0,0.1,0,0.1,0
			c0.1,0,0.2,0,0.2,0c0.2,0,0.3,0.1,0.4,0.1c0.1,0,0.2,0.1,0.3,0.1c0.1,0,0.1,0,0.2,0.1c0.1,0,0.2,0.1,0.3,0.1
			c0.1,0.1,0.3,0.2,0.4,0.2c0,0,0.1,0,0.1,0.1c0.1,0,0.1,0.1,0.2,0.1s0.1,0.1,0.2,0.2c0,0,0.1,0.1,0.1,0.1c0.1,0.1,0.2,0.2,0.2,0.3
			c0.1,0.1,0.1,0.2,0.2,0.2c0.1,0.1,0.2,0.3,0.2,0.4c0,0.1,0.1,0.2,0.1,0.3c0,0.2,0.1,0.3,0.1,0.4c0,0.1,0,0.2,0,0.3c0,0,0,0,0,0
			C85.2,168.9,85.2,169,85.2,169.2z"/>
		<path class="st0" d="M186.9,20.3c-39.4,0-76.5,15.4-104.3,43.2c-27.8,27.8-43.2,64.9-43.2,104.3c0,81.3,66.2,147.5,147.5,147.5
			c39.4,0,76.5-15.4,104.3-43.2c13.9-13.9,24.7-30.1,32-47.8c7.3-17.7,11.2-36.8,11.2-56.5C334.4,86.4,268.2,20.3,186.9,20.3z
			 M186.4,297.3c-71.5-0.3-129.3-58.6-129-130.1c0.3-71.5,58.5-129.3,130.1-129c71.6,0.3,129.3,58.6,129,130.1
			S257.9,297.6,186.4,297.3z"/>
	</g>
	<path class="st1" d="M262.1,183.2L262.1,183.2C262.1,183.3,262.1,183.3,262.1,183.2L262.1,183.2
		C262.1,183.2,262.1,183.2,262.1,183.2z M262.1,183.2L262.1,183.2L262.1,183.2L262.1,183.2L262.1,183.2z M168.7,60.1
		c0.2,0.3,0.4,0.6,0.5,0.9C169.1,60.7,168.9,60.4,168.7,60.1z M162.3,62.2L162.3,62.2C162.3,62.2,162.3,62.2,162.3,62.2L162.3,62.2z
		 M162.3,62.4C162.3,62.4,162.3,62.4,162.3,62.4L162.3,62.4C162.3,62.4,162.3,62.4,162.3,62.4z M81.8,165.6
		C81.8,165.6,81.8,165.6,81.8,165.6L81.8,165.6L81.8,165.6z M81.6,165.6L81.6,165.6C81.6,165.6,81.6,165.6,81.6,165.6L81.6,165.6z"
		/>
	<g>
		<path class="st0" d="M210.5,103.3c0.2,1.1,0.3,2.3,0.3,3.5c0,13.3-10.7,24-24,24c-11.8,0-21.6-8.5-23.6-19.6l-12,2l-1-6.2
			l12.7-2.1c1-12.4,11.3-22.1,23.9-22.1c9.9,0,18.3,5.9,22,14.4l13.6-2.3l1,6.2L210.5,103.3z"/>
	</g>
	<g>
		<circle class="st0" cx="189.7" cy="175.9" r="9.1"/>
	</g>
	<g>
		<path class="st0" d="M277.1,115.9c0,1.7-1.3,3-2.9,3c-1.7,0-3-1.3-3-3c0-1.7,1.3-2.9,3-2.9C275.8,112.9,277.1,114.2,277.1,115.9z"
			/>
	</g>
	<path class="st1" d="M187.5,38.2c-71.5-0.3-129.8,57.5-130.1,129c-0.3,71.5,57.4,129.8,129,130.1c71.6,0.3,129.8-57.4,130.1-129
		S259,38.5,187.5,38.2z M81.6,172.8c-2.1,0-3.6-1.7-3.6-3.6c0,0,0-0.1,0-0.1v0c0,0,0,0,0,0c0,0,0,0,0,0v0c0,0,0,0,0,0v0h0
		c0.1-2,1.7-3.4,3.6-3.4h0c0,0,0.1,0,0.1,0c0,0,0,0,0,0h0v0c0,0,0.1,0,0.1,0c0.1,0,0.2,0,0.2,0c0.2,0,0.3,0.1,0.4,0.1
		c0.1,0,0.2,0.1,0.3,0.1c0.1,0,0.1,0,0.2,0.1c0.1,0,0.2,0.1,0.3,0.1c0.1,0.1,0.3,0.2,0.4,0.2c0,0,0.1,0,0.1,0.1
		c0.1,0,0.1,0.1,0.2,0.1s0.1,0.1,0.2,0.2c0,0,0.1,0.1,0.1,0.1c0.1,0.1,0.2,0.2,0.2,0.3c0.1,0.1,0.1,0.2,0.2,0.2
		c0.1,0.1,0.2,0.3,0.2,0.4c0,0.1,0.1,0.2,0.1,0.3c0,0.2,0.1,0.3,0.1,0.4c0,0.1,0,0.2,0,0.3c0,0,0,0,0,0c0,0.1,0,0.3,0,0.4
		C85.2,171.3,83.5,172.8,81.6,172.8z M258.5,179.5c2.1,0,3.6,1.7,3.6,3.6c0,0,0,0.1,0,0.1v0h0v0.1c0,0,0,0,0,0s0,0,0,0
		c-0.1,2-1.7,3.4-3.6,3.4c-0.1,0-0.3,0-0.4,0c-0.1,0-0.2,0-0.4-0.1c-0.1,0-0.2-0.1-0.3-0.1c0,0-0.1,0-0.1,0c-0.1,0-0.1,0-0.2-0.1
		c0,0,0,0,0,0c0,0-0.1,0-0.1,0c0,0-0.1,0-0.1,0c-0.1,0-0.1-0.1-0.2-0.1c-0.1,0-0.1-0.1-0.2-0.1c0,0-0.1-0.1-0.1-0.1
		c0,0-0.1-0.1-0.1-0.1c-0.1-0.1-0.3-0.2-0.4-0.3c-0.1-0.1-0.1-0.2-0.2-0.3c-0.1-0.1-0.1-0.2-0.2-0.2c0,0,0-0.1-0.1-0.1
		c0-0.1-0.1-0.1-0.1-0.2c0,0,0,0,0,0c0-0.1-0.1-0.2-0.1-0.3c0-0.1,0-0.1-0.1-0.2c0-0.1-0.1-0.2-0.1-0.2c0,0,0-0.1,0-0.1
		c0,0,0,0,0-0.1c0-0.1,0-0.1,0-0.2c0-0.2,0-0.3,0-0.5C255,181,256.6,179.5,258.5,179.5z M162.3,62.4c0,0,0-0.1,0-0.1v0c0,0,0,0,0,0
		v0h0c0,0,0-0.1,0-0.1c0-0.1,0-0.1,0-0.2c0-0.1,0-0.3,0.1-0.4c0.4-1.6,1.9-2.7,3.5-2.7c0.3,0,0.6,0,0.9,0.1c0,0,0,0,0,0
		c0,0,0.1,0,0.1,0c0,0,0,0,0,0c0,0,0.1,0,0.1,0c0.1,0,0.1,0.1,0.2,0.1c0.1,0,0.2,0.1,0.3,0.1c0.1,0,0.2,0.1,0.2,0.1
		c0.2,0.1,0.5,0.3,0.7,0.5c0.1,0.1,0.1,0.2,0.2,0.3c0.2,0.3,0.4,0.6,0.5,0.9c0.1,0.2,0.2,0.4,0.2,0.7c0,0.1,0,0.2,0,0.3
		c0,0.1,0,0.2,0,0.3c0,0,0,0,0,0c0,0.1,0,0.3,0,0.4c0,0.1,0,0.3-0.1,0.4c0,0,0,0,0,0s0,0,0,0c0,0.2-0.1,0.4-0.2,0.6
		c-0.2,0.4-0.5,0.8-0.8,1.1c-0.1,0.1-0.1,0.1-0.2,0.2c-0.1,0.1-0.2,0.2-0.3,0.2c-0.1,0.1-0.2,0.1-0.3,0.2c-0.2,0.1-0.4,0.2-0.6,0.3
		c-0.3,0.1-0.7,0.1-1,0.1c0,0,0,0,0,0c-0.3,0-0.6,0-0.9-0.1C163.2,65.4,162.3,63.9,162.3,62.4C162.3,62.4,162.3,62.4,162.3,62.4z
		 M117.2,227.5c-3.4,0-6.1-2.7-6.1-6.1s2.7-6.1,6.1-6.1s6.1,2.7,6.1,6.1S120.4,227.5,117.2,227.5z M120.6,137
		c-3.4,0-6.1-2.7-6.1-6.1c0-3.4,2.7-6.1,6.1-6.1s6.1,2.7,6.1,6.1C126.7,134.2,123.7,137,120.6,137z M171.8,275.4c-1.7,0-3-1.3-3-3
		c0-1.7,1.3-2.9,3-2.9c1.7,0,3,1.3,3,2.9C174.7,274.1,173.2,275.4,171.8,275.4z M180.6,175.9c0-5,4-9.1,9.1-9.1c5,0,9.1,4,9.1,9.1
		c0,5.1-4,9.1-9.1,9.1C184.6,185,180.6,181,180.6,175.9z M199.6,240.2c-2.1,0-3.6-1.7-3.6-3.6c0-2.1,1.7-3.6,3.6-3.6
		c2.1,0,3.6,1.7,3.6,3.6C203.1,238.7,201.5,240.2,199.6,240.2z M210.7,106.8c0,13.3-10.7,24-24,24c-11.8,0-21.6-8.5-23.6-19.6l-12,2
		l-1-6.2l12.7-2.1c1-12.4,11.3-22.1,23.9-22.1c9.9,0,18.3,5.9,22,14.4l13.6-2.3l1,6.2l-12.9,2.2
		C210.6,104.5,210.7,105.6,210.7,106.8z M259,251.1c-6.7,0-12-5.5-12-12c0-6.5,5.5-12,12-12c6.5,0,12,5.5,12,12
		C271,245.9,265.7,251.1,259,251.1z M274.1,118.8c-1.7,0-3-1.3-3-3c0-1.7,1.3-2.9,3-2.9c1.7,0,2.9,1.3,2.9,2.9
		C277.1,117.6,275.8,118.8,274.1,118.8z"/>
	<path class="st2" d="M262.1,183.2L262.1,183.2C262.1,183.3,262.1,183.3,262.1,183.2L262.1,183.2
		C262.1,183.2,262.1,183.2,262.1,183.2L262.1,183.2L262.1,183.2z"/>
	<path class="st2" d="M81.6,165.6L81.6,165.6C81.6,165.6,81.6,165.6,81.6,165.6L81.6,165.6z M81.8,165.6
		C81.8,165.6,81.8,165.6,81.8,165.6L81.8,165.6L81.8,165.6z"/>
	<path class="st2" d="M162.3,62.4C162.3,62.4,162.3,62.4,162.3,62.4L162.3,62.4C162.3,62.4,162.3,62.4,162.3,62.4z M162.3,62.2
		L162.3,62.2C162.3,62.2,162.3,62.2,162.3,62.2L162.3,62.2z"/>
	<path class="st2" d="M162.3,62.2L162.3,62.2C162.3,62.2,162.3,62.2,162.3,62.2C162.3,62.2,162.3,62.2,162.3,62.2z"/>
	<path class="st2" d="M162.3,62.4L162.3,62.4C162.3,62.4,162.3,62.4,162.3,62.4C162.3,62.4,162.3,62.4,162.3,62.4z"/>
	<path class="st2" d="M169.2,61c-0.1-0.3-0.3-0.6-0.5-0.9C168.9,60.4,169.1,60.7,169.2,61z"/>
	<path class="st0" d="M203.1,236.6c0,2.1-1.7,3.6-3.6,3.6c-2.1,0-3.6-1.7-3.6-3.6c0-2.1,1.7-3.6,3.6-3.6
		C201.7,233,203.1,234.7,203.1,236.6z"/>
	<g>
		<path class="st0" d="M174.7,272.4c0,1.7-1.5,3-3,3c-1.7,0-3-1.3-3-3c0-1.7,1.3-2.9,3-2.9C173.4,269.5,174.7,270.7,174.7,272.4z"/>
	</g>
	<g>
		<circle class="st0" cx="259" cy="239.1" r="12"/>
	</g>
	<g>
		<circle class="st0" cx="117.2" cy="221.4" r="6.1"/>
	</g>
	<g>
		<path class="st0" d="M126.7,130.8c0,3.4-3,6.1-6.1,6.1c-3.4,0-6.1-2.7-6.1-6.1c0-3.4,2.7-6.1,6.1-6.1S126.7,127.5,126.7,130.8z"/>
	</g>
	<path class="st2" d="M81.6,165.6C81.6,165.6,81.6,165.6,81.6,165.6L81.6,165.6L81.6,165.6z"/>
	<path class="st0" d="M262.1,183.3C262.1,183.3,262.1,183.3,262.1,183.3C262.1,183.3,262.1,183.3,262.1,183.3
		C262.1,183.3,262.1,183.3,262.1,183.3c-0.1,2.1-1.7,3.4-3.6,3.4c-0.1,0-0.3,0-0.4,0c-0.1,0-0.2,0-0.4-0.1c-0.1,0-0.2-0.1-0.3-0.1
		c0,0-0.1,0-0.1,0c-0.1,0-0.1,0-0.2-0.1c0,0,0,0,0,0c0,0-0.1,0-0.1,0c0,0-0.1,0-0.1,0c-0.1,0-0.1-0.1-0.2-0.1
		c-0.1,0-0.1-0.1-0.2-0.1c0,0-0.1-0.1-0.1-0.1c0,0-0.1-0.1-0.1-0.1c-0.1-0.1-0.3-0.2-0.4-0.3c-0.1-0.1-0.1-0.2-0.2-0.3
		c-0.1-0.1-0.1-0.2-0.2-0.2c0,0,0-0.1-0.1-0.1c0-0.1-0.1-0.1-0.1-0.2c0,0,0,0,0,0c0-0.1-0.1-0.2-0.1-0.3c0-0.1,0-0.1-0.1-0.2
		c0-0.1-0.1-0.2-0.1-0.2c0,0,0-0.1,0-0.1c0,0,0,0,0-0.1c0-0.1,0-0.1,0-0.2c0-0.2,0-0.3,0-0.5c0-2.1,1.7-3.6,3.6-3.6
		c2.1,0,3.6,1.7,3.6,3.6C262.1,183.1,262.1,183.2,262.1,183.3L262.1,183.3C262.1,183.2,262.1,183.2,262.1,183.3L262.1,183.3z"/>
</g>
</svg>
