<svg width="518" height="143" viewBox="0 0 518 143" fill="none" xmlns="http://www.w3.org/2000/svg">
<path d="M34.4 139V57.4H5V33.4H93.2V57.4H63.8V139H34.4ZM225.72 139V33.4H255.12V72.2H255.92L284.72 33.4H316.52L283.12 76.6L322.52 139H291.12L266.32 96.8L255.12 109.6V139H225.72ZM336.658 139V33.4H408.458V56.2H366.058V74.6H402.458V96H366.058V116.2H410.458V139H336.658ZM436.463 139V33.4H465.863V115H507.863V139H436.463Z" fill="#192432"/>
<ellipse cx="155.473" cy="85.4697" rx="57.5" ry="57.5" fill="#192432"/>
<ellipse cx="155.377" cy="58.4755" rx="10.6894" ry="10.6742" fill="white"/>
<path d="M139.355 59.8962L171.424 54.5591" stroke="white" stroke-width="3"/>
<ellipse cx="156.723" cy="89.1625" rx="4.00851" ry="4.00282" fill="white"/>
<ellipse cx="194.133" cy="62.4783" rx="1.33617" ry="1.33427" fill="white"/>
<ellipse cx="187.228" cy="92.3301" rx="0.622908" ry="0.623554" fill="white"/>
<ellipse cx="108.75" cy="86.0933" rx="0.622908" ry="0.623554" fill="white"/>
<ellipse cx="146.124" cy="38.7046" rx="0.622908" ry="0.623554" fill="white"/>
<ellipse cx="161.076" cy="116.022" rx="0.622908" ry="0.623554" fill="white"/>
<ellipse cx="148.696" cy="131.861" rx="1.33617" ry="1.33427" fill="white"/>
<ellipse cx="187.453" cy="117.185" rx="5.34468" ry="5.33709" fill="white"/>
<ellipse cx="124.484" cy="109.377" rx="2.67234" ry="2.66855" fill="white"/>
<ellipse cx="125.995" cy="69.1515" rx="2.67234" ry="2.66855" fill="white"/>
</svg>
