<svg width="156" height="42" viewBox="0 0 156 42" fill="none" xmlns="http://www.w3.org/2000/svg">
<path d="M10.32 41V16.52H1.5V9.32H27.96V16.52H19.14V41H10.32ZM67.7161 41V9.32H76.5361V20.96H76.7761L85.4161 9.32H94.9561L84.9361 22.28L96.7561 41H87.3361L79.8961 28.34L76.5361 32.18V41H67.7161ZM100.997 41V9.32H122.537V16.16H109.817V21.68H120.737V28.1H109.817V34.16H123.137V41H100.997ZM130.939 41V9.32H139.759V33.8H152.359V41H130.939Z" fill="#192432"/>
<ellipse rx="16.4973" ry="16.5" transform="matrix(1 0 0.000161611 1 46.5 25.5)" fill="#DEDEDE"/>
<ellipse cx="46.501" cy="25.5" rx="14.5" ry="14.5" fill="#13182A"/>
<ellipse cx="46.4768" cy="18.6927" rx="2.69558" ry="2.69175" fill="#DEDEDE"/>
<path d="M42.4365 19.051L50.5233 17.7051" stroke="#DEDEDE" stroke-width="0.5"/>
<ellipse cx="46.8163" cy="26.4313" rx="1.01084" ry="1.00941" fill="#DEDEDE"/>
<ellipse cx="56.25" cy="19.7022" rx="0.336947" ry="0.336469" fill="#DEDEDE"/>
<ellipse cx="54.5086" cy="27.23" rx="0.157081" ry="0.157244" fill="#DEDEDE"/>
<ellipse cx="34.7186" cy="25.6572" rx="0.157081" ry="0.157244" fill="#DEDEDE"/>
<ellipse cx="44.1434" cy="13.707" rx="0.157081" ry="0.157244" fill="#DEDEDE"/>
<ellipse cx="47.9139" cy="33.2046" rx="0.157081" ry="0.157244" fill="#DEDEDE"/>
<ellipse cx="44.792" cy="37.1988" rx="0.336947" ry="0.336469" fill="#DEDEDE"/>
<ellipse cx="54.5656" cy="33.4977" rx="1.34779" ry="1.34588" fill="#DEDEDE"/>
<ellipse cx="38.6863" cy="31.5289" rx="0.673894" ry="0.672938" fill="#DEDEDE"/>
<ellipse cx="39.0674" cy="21.3849" rx="0.673894" ry="0.672938" fill="#DEDEDE"/>
</svg>
