<svg width="13" height="16" viewBox="0 0 13 16" fill="none" xmlns="http://www.w3.org/2000/svg">
<ellipse cx="6.8427" cy="10.9469" rx="1.70012" ry="1.68417" fill="#222C3C"/>
<path fill-rule="evenodd" clip-rule="evenodd" d="M2.59273 4C2.59273 1.79086 4.38359 0 6.59273 0H7.09332C9.30246 0 11.0933 1.79086 11.0933 4V5.91687C12.0556 6.06158 12.7934 6.89189 12.7934 7.89453V13.9995C12.7934 15.1041 11.898 15.9995 10.7934 15.9995H2.89258C1.78801 15.9995 0.892578 15.1041 0.892578 13.9995V7.89453C0.892578 6.89187 1.6304 6.06154 2.59273 5.91686V4ZM4.29286 5.89453H9.39321V4.10449C9.39321 2.99992 8.49778 2.10449 7.39321 2.10449H6.29286C5.18829 2.10449 4.29286 2.99992 4.29286 4.10449V5.89453ZM8.54323 10.9469C8.54323 11.877 7.78206 12.631 6.84311 12.631C5.90416 12.631 5.14299 11.877 5.14299 10.9469C5.14299 10.0167 5.90416 9.2627 6.84311 9.2627C7.78206 9.2627 8.54323 10.0167 8.54323 10.9469Z" fill="#CED0DA"/>
</svg>
