<svg width="698" height="114" viewBox="0 0 698 114" fill="none" xmlns="http://www.w3.org/2000/svg">
<g opacity="0.99">
<path d="M46.1651 98.3154V25.6625H20V4.30035H98.5311V25.6625H72.366V98.3154H46.1651ZM216.489 98.3154V4.30035H242.654V38.8526H243.371L268.998 4.30035H297.314L267.565 42.7594L302.654 98.3154H274.697L252.618 60.7524L242.654 72.1503V98.3154H216.489ZM315.271 98.3154V4.30035H379.178V24.5872H341.436V40.9673H373.838V60.0356H341.436V78.0285H380.97V98.3154H315.271ZM404.125 98.3154V4.30035H430.29V76.9532H467.674V98.3154H404.125Z" fill="#DEDEDE"/>
<path d="M184.374 34.6235C184.948 34.6235 185.413 34.1581 185.413 33.584C185.413 33.01 184.948 32.5446 184.374 32.5446C183.8 32.5446 183.335 33.01 183.335 33.584C183.335 34.1581 183.8 34.6235 184.374 34.6235Z" fill="#DEDEDE"/>
<path d="M117.564 52.5806C117.841 52.5806 118.065 52.3559 118.065 52.0788C118.065 51.8016 117.841 51.577 117.564 51.577C117.286 51.577 117.062 51.8016 117.062 52.0788C117.062 52.3559 117.286 52.5806 117.564 52.5806Z" fill="#DEDEDE"/>
<path d="M481.15 98.2798V4.33643H505.989V98.2798H481.15Z" fill="#DEDEDE"/>
<path d="M556.563 100C550.577 100 544.448 98.9247 538.14 96.7383C531.832 94.5877 526.133 91.1827 521.007 86.559L535.165 69.4979C538.534 72.1861 542.19 74.3725 546.061 76.0571C549.968 77.7417 553.66 78.6019 557.101 78.6019C560.864 78.6019 563.588 78.0285 565.273 76.8815C566.957 75.7346 567.818 74.0858 567.818 71.9711C567.818 70.8241 567.531 69.8563 566.957 69.0678C566.384 68.3151 565.524 67.5624 564.413 66.9173C563.301 66.2363 561.975 65.5911 560.434 64.9818C558.893 64.3725 557.101 63.6556 555.094 62.9029L543.373 57.9925C540.864 57.0247 538.463 55.7702 536.133 54.1573C533.803 52.5802 531.796 50.6806 530.075 48.53C528.355 46.3795 526.957 43.8705 525.954 41.0748C524.95 38.2791 524.448 35.1966 524.448 31.8274C524.448 27.7772 525.308 24.0137 527.065 20.5012C528.785 16.9886 531.222 13.9061 534.305 11.2538C537.387 8.60142 541.079 6.52255 545.344 4.98132C549.645 3.44009 554.341 2.65155 559.431 2.65155C564.843 2.65155 570.291 3.65514 575.846 5.69817C581.402 7.70535 586.312 10.8953 590.649 15.2323L578.212 30.8238C575.022 28.6016 571.975 26.917 569.036 25.77C566.097 24.623 562.907 24.0496 559.431 24.0496C556.348 24.0496 553.947 24.5872 552.19 25.6266C550.47 26.7019 549.574 28.279 549.574 30.3937C549.574 32.6159 550.792 34.3364 553.266 35.5192C555.739 36.7378 559.108 38.1357 563.445 39.7844L574.879 44.2648C580.757 46.5945 585.273 49.8204 588.463 53.9423C591.653 58.1 593.23 63.4405 593.23 69.9997C593.23 73.9424 592.406 77.7417 590.757 81.4335C589.108 85.0894 586.743 88.3153 583.588 91.0393C580.47 93.7992 576.635 95.9856 572.083 97.5985C567.638 99.1756 562.441 100 556.563 100Z" fill="#DEDEDE"/>
<path d="M623.338 98.2798V25.161H598.499V4.33643H673.051V25.161H648.213V98.2798H623.338Z" fill="#DEDEDE"/>
<path d="M159.584 73.4677C159.868 73.4677 160.097 73.2382 160.097 72.9551C160.097 72.672 159.868 72.4426 159.584 72.4426C159.301 72.4426 159.072 72.672 159.072 72.9551C159.072 73.2382 159.301 73.4677 159.584 73.4677Z" fill="#DEDEDE"/>
<path d="M148.206 14.7618C148.489 14.7618 148.718 14.5323 148.718 14.2492C148.718 13.9661 148.489 13.7366 148.206 13.7366C147.922 13.7366 147.693 13.9661 147.693 14.2492C147.693 14.5323 147.922 14.7618 148.206 14.7618Z" fill="#DEDEDE"/>
<path d="M119.81 50.7439C120.093 50.7439 120.322 50.5145 120.322 50.2314C120.322 49.9483 120.093 49.7188 119.81 49.7188C119.526 49.7188 119.297 49.9483 119.297 50.2314C119.297 50.5145 119.526 50.7439 119.81 50.7439Z" fill="#DEDEDE"/>
<path d="M179.438 55.4254C179.721 55.4254 179.95 55.1959 179.95 54.9128C179.95 54.6298 179.721 54.4003 179.438 54.4003C179.155 54.4003 178.925 54.6298 178.925 54.9128C178.925 55.1959 179.155 55.4254 179.438 55.4254Z" fill="#DEDEDE"/>
<path d="M204.656 49.7531C204.656 77.0215 182.582 99.096 155.313 99.096C128.045 99.096 105.97 77.0215 105.97 49.7531C105.97 22.4846 128.045 0.410156 155.313 0.410156C182.582 0.410156 204.656 22.4846 204.656 49.7531Z" fill="#DEDEDE"/>
<path d="M155.313 99.4376C127.908 99.4376 105.594 77.1239 105.594 49.7188C105.594 36.4263 110.788 23.9539 120.151 14.5568C129.514 5.19399 142.021 0 155.313 0C182.718 0 205.032 22.3137 205.032 49.7188C205.032 63.0113 199.838 75.4837 190.475 84.8808C181.078 94.2778 168.571 99.4376 155.313 99.4376ZM155.313 0.751766C142.26 0.751766 129.89 5.87741 120.664 15.1036C111.438 24.3298 106.312 36.6996 106.312 49.753C106.312 76.748 128.318 98.7542 155.313 98.7542C168.366 98.7542 180.736 93.6285 189.962 84.4024C199.189 75.1762 204.314 62.8063 204.314 49.753C204.314 22.7579 182.308 0.751766 155.313 0.751766Z" fill="#CED0DA"/>
<path d="M155.313 93.4236C179.432 93.4236 198.984 73.8716 198.984 49.753C198.984 25.6345 179.432 6.08252 155.313 6.08252C131.195 6.08252 111.643 25.6345 111.643 49.753C111.643 73.8716 131.195 93.4236 155.313 93.4236Z" fill="#192432"/>
<path d="M162.967 29.2158C162.967 33.4872 159.482 36.9726 155.211 36.9726C150.939 36.9726 147.454 33.5555 147.454 29.2158C147.454 24.8761 150.939 21.459 155.211 21.459C159.482 21.4932 162.967 24.9444 162.967 29.2158Z" fill="#DEDEDE"/>
<path d="M155.245 37.3144C150.768 37.3144 147.146 33.6923 147.146 29.2159C147.146 24.7395 150.768 21.1174 155.245 21.1174C159.721 21.1174 163.343 24.7395 163.343 29.2159C163.343 33.6923 159.721 37.3144 155.245 37.3144ZM155.245 21.835C151.11 21.835 147.864 25.1837 147.864 29.2159C147.864 33.2481 151.213 36.5968 155.245 36.5968C159.38 36.5968 162.626 33.2481 162.626 29.2159C162.626 25.1837 159.345 21.835 155.245 21.835Z" fill="#DEDEDE"/>
<path d="M167.232 25.2176L142.862 29.2718L143.21 31.3616L167.579 27.3074L167.232 25.2176Z" fill="#DEDEDE"/>
<path d="M158.935 52.5894C158.935 54.0929 157.739 55.2889 156.236 55.2889C154.732 55.2889 153.536 54.0929 153.536 52.5894C153.536 51.0859 154.732 49.8899 156.236 49.8899C157.739 49.8899 158.935 51.0859 158.935 52.5894Z" fill="#DEDEDE"/>
<path d="M156.236 55.5621C154.527 55.5621 153.195 54.2295 153.195 52.5209C153.195 50.8124 154.527 49.4797 156.236 49.4797C157.944 49.4797 159.277 50.8124 159.277 52.5209C159.277 54.2295 157.944 55.5621 156.236 55.5621ZM156.236 50.2314C154.971 50.2314 153.878 51.2908 153.878 52.5892C153.878 53.8877 154.937 54.947 156.236 54.947C157.534 54.947 158.594 53.8877 158.594 52.5892C158.559 51.2224 157.568 50.2314 156.236 50.2314Z" fill="#DEDEDE"/>
<path d="M185.349 32.2576C185.349 32.5993 185.076 32.9068 184.7 32.9068C184.324 32.9068 184.051 32.6335 184.051 32.2576C184.051 31.8817 184.324 31.6083 184.7 31.6083C185.076 31.6083 185.349 31.9159 185.349 32.2576Z" fill="#DEDEDE"/>
<path d="M184.7 33.2825C184.119 33.2825 183.709 32.8725 183.709 32.2916C183.709 31.7106 184.119 31.3006 184.7 31.3006C185.281 31.3006 185.691 31.7106 185.691 32.2916C185.691 32.8383 185.281 33.2825 184.7 33.2825ZM184.7 31.984C184.564 31.984 184.427 32.1207 184.427 32.2574C184.427 32.3941 184.564 32.5308 184.7 32.5308C184.837 32.5308 184.974 32.3941 184.974 32.2574C184.974 32.1207 184.837 31.984 184.7 31.984Z" fill="#DEDEDE"/>
<path d="M179.438 55.4254C179.721 55.4254 179.95 55.1959 179.95 54.9128C179.95 54.6298 179.721 54.4003 179.438 54.4003C179.155 54.4003 178.925 54.6298 178.925 54.9128C178.925 55.1959 179.155 55.4254 179.438 55.4254Z" fill="#DEDEDE"/>
<path d="M179.164 54.9127C179.164 54.776 179.233 54.7077 179.37 54.7077V56.1429C180.019 56.1429 180.566 55.6303 180.566 54.9469H179.164V54.9127ZM179.438 54.7077C179.575 54.7077 179.643 54.776 179.643 54.9127H178.208C178.208 55.562 178.72 56.1087 179.404 56.1087V54.7077H179.438ZM179.677 54.9127C179.677 55.0494 179.609 55.1177 179.472 55.1177V53.6826C178.823 53.6826 178.276 54.1951 178.276 54.8785H179.677V54.9127ZM179.438 55.2203C179.301 55.2203 179.233 55.0836 179.233 55.0152H180.668C180.668 54.366 180.155 53.8192 179.472 53.8192V55.2203H179.438Z" fill="#DEDEDE"/>
<path d="M119.81 50.7439C120.093 50.7439 120.322 50.5145 120.322 50.2314C120.322 49.9483 120.093 49.7188 119.81 49.7188C119.526 49.7188 119.297 49.9483 119.297 50.2314C119.297 50.5145 119.526 50.7439 119.81 50.7439Z" fill="#DEDEDE"/>
<path d="M119.604 50.2313C119.604 50.0946 119.673 50.0263 119.81 50.0263V51.4615C120.459 51.4615 121.005 50.9489 121.005 50.2655H119.604V50.2313ZM119.81 49.9579C119.946 49.9579 120.015 50.0946 120.015 50.163H118.579C118.579 50.8122 119.092 51.3589 119.775 51.3589V49.9579H119.81ZM120.083 50.2313C120.083 50.368 120.015 50.4363 119.878 50.4363V49.0012C119.229 49.0012 118.682 49.5137 118.682 50.1971H120.083V50.2313ZM119.81 50.4363C119.673 50.4363 119.604 50.2996 119.604 50.2313H121.04C121.04 49.5821 120.527 49.0353 119.844 49.0353V50.4363H119.81Z" fill="#DEDEDE"/>
<path d="M148.206 14.7618C148.489 14.7618 148.718 14.5323 148.718 14.2492C148.718 13.9661 148.489 13.7366 148.206 13.7366C147.922 13.7366 147.693 13.9661 147.693 14.2492C147.693 14.5323 147.922 14.7618 148.206 14.7618Z" fill="#DEDEDE"/>
<path d="M148.001 14.2491C148.001 14.1125 148.069 14.0441 148.206 14.0441V15.4793C148.855 15.4793 149.402 14.9667 149.402 14.2833H148.001V14.2491ZM148.206 13.9416C148.342 13.9416 148.411 14.0099 148.411 14.1466H147.01C147.01 14.7959 147.522 15.3426 148.206 15.3426V13.9416ZM148.411 14.2491C148.411 14.3858 148.342 14.4542 148.206 14.4542V13.019C147.556 13.019 147.01 13.5315 147.01 14.215H148.411V14.2491ZM148.206 14.4542C148.069 14.4542 148.001 14.3175 148.001 14.2491H149.436C149.436 13.5999 148.923 13.0532 148.24 13.0532V14.4542H148.206Z" fill="#DEDEDE"/>
<path d="M159.584 73.4677C159.868 73.4677 160.097 73.2382 160.097 72.9551C160.097 72.672 159.868 72.4426 159.584 72.4426C159.301 72.4426 159.072 72.672 159.072 72.9551C159.072 73.2382 159.301 73.4677 159.584 73.4677Z" fill="#DEDEDE"/>
<path d="M159.345 72.955C159.345 72.8183 159.414 72.7499 159.55 72.7499V74.1851C160.2 74.1851 160.746 73.6725 160.746 72.9891H159.345V72.955ZM159.585 72.7499C159.721 72.7499 159.79 72.8866 159.79 72.955H158.354C158.354 73.6042 158.867 74.1509 159.55 74.1509V72.7499H159.585ZM159.79 72.955C159.79 73.0916 159.721 73.16 159.585 73.16V71.759C158.935 71.759 158.389 72.2715 158.389 72.955H159.79ZM159.585 73.16C159.448 73.16 159.379 73.0916 159.379 72.955H160.815C160.815 72.3057 160.302 71.759 159.619 71.759V73.16H159.585Z" fill="#DEDEDE"/>
<path d="M150.837 84.9489C150.837 85.2906 150.563 85.5981 150.188 85.5981C149.846 85.5981 149.538 85.3247 149.538 84.9489C149.538 84.6071 149.812 84.2996 150.188 84.2996C150.563 84.3338 150.837 84.6071 150.837 84.9489Z" fill="#DEDEDE"/>
<path d="M150.187 86.0424C149.607 86.0424 149.197 85.6324 149.197 85.0515C149.197 84.4705 149.607 84.0605 150.187 84.0605C150.768 84.0605 151.178 84.4705 151.178 85.0515C151.178 85.6324 150.7 86.0424 150.187 86.0424ZM150.187 84.6756C150.051 84.6756 149.914 84.8122 149.914 84.9489C149.914 85.0856 150.051 85.2223 150.187 85.2223C150.324 85.2223 150.461 85.0856 150.461 84.9489C150.495 84.8122 150.324 84.6756 150.187 84.6756Z" fill="#DEDEDE"/>
<path d="M183.299 73.8094C183.299 75.8597 181.659 77.4999 179.609 77.4999C177.558 77.4999 175.918 75.8597 175.918 73.8094C175.918 71.7592 177.558 70.119 179.609 70.119C181.659 70.119 183.299 71.8275 183.299 73.8094Z" fill="#DEDEDE"/>
<path d="M179.609 77.8758C177.353 77.8758 175.577 76.0306 175.577 73.8436C175.577 71.6567 177.422 69.8115 179.609 69.8115C181.796 69.8115 183.641 71.6567 183.641 73.8436C183.641 76.0989 181.864 77.8758 179.609 77.8758ZM179.609 70.4607C177.763 70.4607 176.26 71.9642 176.26 73.8095C176.26 75.6547 177.763 77.1582 179.609 77.1582C181.454 77.1582 182.957 75.6547 182.957 73.8095C182.923 71.9642 181.454 70.4607 179.609 70.4607Z" fill="#DEDEDE"/>
<path d="M133.444 67.9318C133.444 68.8544 132.658 69.6403 131.735 69.6403C130.813 69.6403 130.027 68.8544 130.027 67.9318C130.027 67.0091 130.813 66.2232 131.735 66.2232C132.726 66.2232 133.444 67.0091 133.444 67.9318Z" fill="#DEDEDE"/>
<path d="M131.803 69.9137C130.676 69.9137 129.753 68.9911 129.753 67.8634C129.753 66.7358 130.676 65.8132 131.803 65.8132C132.931 65.8132 133.854 66.7358 133.854 67.8634C133.854 68.9911 132.863 69.9137 131.803 69.9137ZM131.803 66.5649C131.086 66.5649 130.471 67.1459 130.471 67.8976C130.471 68.6152 131.052 69.2303 131.803 69.2303C132.521 69.2303 133.136 68.6494 133.136 67.8976C133.068 67.2142 132.521 66.5649 131.803 66.5649Z" fill="#DEDEDE"/>
<path d="M134.571 37.3143C134.571 38.2369 133.785 39.0229 132.863 39.0229C131.94 39.0229 131.154 38.2369 131.154 37.3143C131.154 36.3917 131.94 35.6058 132.863 35.6058C133.854 35.6741 134.571 36.3917 134.571 37.3143Z" fill="#DEDEDE"/>
<path d="M132.931 39.3647C131.804 39.3647 130.881 38.4421 130.881 37.3145C130.881 36.1868 131.804 35.2642 132.931 35.2642C134.059 35.2642 134.981 36.1868 134.981 37.3145C134.981 38.4421 133.99 39.3647 132.931 39.3647ZM132.931 36.0501C132.214 36.0501 131.599 36.6311 131.599 37.3828C131.599 38.1346 132.179 38.7155 132.931 38.7155C133.649 38.7155 134.264 38.1346 134.264 37.3828C134.264 36.6311 133.649 36.0501 132.931 36.0501Z" fill="#DEDEDE"/>
</g>
</svg>
