<svg version="1.1" viewBox="0.0 0.0 676.0 394.0" fill="none" stroke="none" stroke-linecap="square" stroke-miterlimit="10" width="676" height="394" xmlns:xlink="http://www.w3.org/1999/xlink" xmlns="http://www.w3.org/2000/svg"><path fill="#f0f0f0" d="M0 0L676.0 0L676.0 394.0L0 394.0L0 0Z" fill-rule="nonzero"/><path stroke="#242424" stroke-width="1.0" stroke-linecap="butt" d="M83.5 60.5L83.5 323.5" fill-rule="nonzero"/><path stroke="#192432" stroke-width="1.0" stroke-linecap="butt" d="M140.5 60.5L140.5 323.5" fill-rule="nonzero"/><path stroke="#192432" stroke-width="1.0" stroke-linecap="butt" d="M197.5 60.5L197.5 323.5" fill-rule="nonzero"/><path stroke="#192432" stroke-width="1.0" stroke-linecap="butt" d="M255.5 60.5L255.5 323.5" fill-rule="nonzero"/><path stroke="#192432" stroke-width="1.0" stroke-linecap="butt" d="M312.5 60.5L312.5 323.5" fill-rule="nonzero"/><path stroke="#192432" stroke-width="1.0" stroke-linecap="butt" d="M370.5 60.5L370.5 323.5" fill-rule="nonzero"/><path stroke="#192432" stroke-width="1.0" stroke-linecap="butt" d="M427.5 60.5L427.5 323.5" fill-rule="nonzero"/><path stroke="#192432" stroke-width="1.0" stroke-linecap="butt" d="M484.5 60.5L484.5 323.5" fill-rule="nonzero"/><path stroke="#192432" stroke-width="1.0" stroke-linecap="butt" d="M542.5 60.5L542.5 323.5" fill-rule="nonzero"/><path stroke="#192432" stroke-width="1.0" stroke-linecap="butt" d="M599.5 60.5L599.5 323.5" fill-rule="nonzero"/><path stroke="#192432" stroke-width="1.0" stroke-linecap="butt" d="M657.5 60.5L657.5 323.5" fill-rule="nonzero"/><path stroke="#ced0da" stroke-width="1.0" stroke-linecap="butt" d="M102.5 60.5L102.5 323.5" fill-rule="nonzero"/><path stroke="#ced0da" stroke-width="1.0" stroke-linecap="butt" d="M121.5 60.5L121.5 323.5" fill-rule="nonzero"/><path stroke="#ced0da" stroke-width="1.0" stroke-linecap="butt" d="M159.5 60.5L159.5 323.5" fill-rule="nonzero"/><path stroke="#ced0da" stroke-width="1.0" stroke-linecap="butt" d="M178.5 60.5L178.5 323.5" fill-rule="nonzero"/><path stroke="#ced0da" stroke-width="1.0" stroke-linecap="butt" d="M216.5 60.5L216.5 323.5" fill-rule="nonzero"/><path stroke="#ced0da" stroke-width="1.0" stroke-linecap="butt" d="M236.5 60.5L236.5 323.5" fill-rule="nonzero"/><path stroke="#ced0da" stroke-width="1.0" stroke-linecap="butt" d="M274.5 60.5L274.5 323.5" fill-rule="nonzero"/><path stroke="#ced0da" stroke-width="1.0" stroke-linecap="butt" d="M293.5 60.5L293.5 323.5" fill-rule="nonzero"/><path stroke="#ced0da" stroke-width="1.0" stroke-linecap="butt" d="M331.5 60.5L331.5 323.5" fill-rule="nonzero"/><path stroke="#ced0da" stroke-width="1.0" stroke-linecap="butt" d="M350.5 60.5L350.5 323.5" fill-rule="nonzero"/><path stroke="#ced0da" stroke-width="1.0" stroke-linecap="butt" d="M389.5 60.5L389.5 323.5" fill-rule="nonzero"/><path stroke="#ced0da" stroke-width="1.0" stroke-linecap="butt" d="M408.5 60.5L408.5 323.5" fill-rule="nonzero"/><path stroke="#ced0da" stroke-width="1.0" stroke-linecap="butt" d="M446.5 60.5L446.5 323.5" fill-rule="nonzero"/><path stroke="#ced0da" stroke-width="1.0" stroke-linecap="butt" d="M465.5 60.5L465.5 323.5" fill-rule="nonzero"/><path stroke="#ced0da" stroke-width="1.0" stroke-linecap="butt" d="M503.5 60.5L503.5 323.5" fill-rule="nonzero"/><path stroke="#ced0da" stroke-width="1.0" stroke-linecap="butt" d="M523.5 60.5L523.5 323.5" fill-rule="nonzero"/><path stroke="#ced0da" stroke-width="1.0" stroke-linecap="butt" d="M561.5 60.5L561.5 323.5" fill-rule="nonzero"/><path stroke="#ced0da" stroke-width="1.0" stroke-linecap="butt" d="M580.5 60.5L580.5 323.5" fill-rule="nonzero"/><path stroke="#ced0da" stroke-width="1.0" stroke-linecap="butt" d="M618.5 60.5L618.5 323.5" fill-rule="nonzero"/><path stroke="#ced0da" stroke-width="1.0" stroke-linecap="butt" d="M637.5 60.5L637.5 323.5" fill-rule="nonzero"/><path stroke="#242424" stroke-width="1.0" stroke-linecap="butt" d="M83.5 323.5L657.5 323.5" fill-rule="nonzero"/><path stroke="#bdbdbd" stroke-width="1.0" stroke-linecap="butt" d="M83.5 263.5L657.5 263.5" fill-rule="nonzero"/><path stroke="#bdbdbd" stroke-width="1.0" stroke-linecap="butt" d="M83.5 203.5L657.5 203.5" fill-rule="nonzero"/><path stroke="#bdbdbd" stroke-width="1.0" stroke-linecap="butt" d="M83.5 144.5L657.5 144.5" fill-rule="nonzero"/><path stroke="#bdbdbd" stroke-width="1.0" stroke-linecap="butt" d="M83.5 84.5L657.5 84.5" fill-rule="nonzero"/><path stroke="#dedede" stroke-width="1.0" stroke-linecap="butt" d="M83.5 311.5L657.5 311.5" fill-rule="nonzero"/><path stroke="#dedede" stroke-width="1.0" stroke-linecap="butt" d="M83.5 299.5L657.5 299.5" fill-rule="nonzero"/><path stroke="#dedede" stroke-width="1.0" stroke-linecap="butt" d="M83.5 287.5L657.5 287.5" fill-rule="nonzero"/><path stroke="#dedede" stroke-width="1.0" stroke-linecap="butt" d="M83.5 275.5L657.5 275.5" fill-rule="nonzero"/><path stroke="#dedede" stroke-width="1.0" stroke-linecap="butt" d="M83.5 251.5L657.5 251.5" fill-rule="nonzero"/><path stroke="#dedede" stroke-width="1.0" stroke-linecap="butt" d="M83.5 239.5L657.5 239.5" fill-rule="nonzero"/><path stroke="#dedede" stroke-width="1.0" stroke-linecap="butt" d="M83.5 227.5L657.5 227.5" fill-rule="nonzero"/><path stroke="#dedede" stroke-width="1.0" stroke-linecap="butt" d="M83.5 215.5L657.5 215.5" fill-rule="nonzero"/><path stroke="#dedede" stroke-width="1.0" stroke-linecap="butt" d="M83.5 191.5L657.5 191.5" fill-rule="nonzero"/><path stroke="#dedede" stroke-width="1.0" stroke-linecap="butt" d="M83.5 180.5L657.5 180.5" fill-rule="nonzero"/><path stroke="#dedede" stroke-width="1.0" stroke-linecap="butt" d="M83.5 168.5L657.5 168.5" fill-rule="nonzero"/><path stroke="#dedede" stroke-width="1.0" stroke-linecap="butt" d="M83.5 156.5L657.5 156.5" fill-rule="nonzero"/><path stroke="#dedede" stroke-width="1.0" stroke-linecap="butt" d="M83.5 132.5L657.5 132.5" fill-rule="nonzero"/><path stroke="#dedede" stroke-width="1.0" stroke-linecap="butt" d="M83.5 120.5L657.5 120.5" fill-rule="nonzero"/><path stroke="#dedede" stroke-width="1.0" stroke-linecap="butt" d="M83.5 108.5L657.5 108.5" fill-rule="nonzero"/><path stroke="#dedede" stroke-width="1.0" stroke-linecap="butt" d="M83.5 96.5L657.5 96.5" fill-rule="nonzero"/><path stroke="#dedede" stroke-width="1.0" stroke-linecap="butt" d="M83.5 72.5L657.5 72.5" fill-rule="nonzero"/><path stroke="#dedede" stroke-width="1.0" stroke-linecap="butt" d="M83.5 60.5L657.5 60.5" fill-rule="nonzero"/><path stroke="#000000" stroke-width="1.0" stroke-linecap="butt" d="M657.5 323.5L83.5 323.5" fill-rule="nonzero"/><path stroke="#000000" stroke-width="1.0" stroke-linecap="butt" d="M83.5 323.5L83.5 60.5" fill-rule="nonzero"/><clipPath id="id_0"><path d="M83.06337 60.445194L657.00195 60.445194L657.00195 323.5L83.06337 323.5L83.06337 60.445194Z" clip-rule="nonzero"/></clipPath><path fill="#192432" fill-opacity="0.5019608" clip-path="url(#id_0)" d="M83.06337 203.92963L84.82449 203.8332L96.30327 177.12358L107.78204 156.37021L119.26081 140.24483L130.73958 127.71541L142.21835 117.98005L153.69713 110.41567L165.1759 104.538155L176.65468 99.97133L188.13345 96.4229L199.61221 93.66577L211.09099 91.52348L222.56976 89.858925L234.04854 88.56556L245.52731 87.560616L257.00607 86.77978L268.48486 86.173065L279.96362 85.70165L291.44238 85.33536L302.92117 85.05075L314.39993 84.82961L325.87872 84.65778L337.35748 84.52428L348.83627 84.42054L360.31503 84.339935L371.7938 84.27731L383.27258 84.228645L394.75134 84.190834L406.23013 84.16146L417.7089 84.13863L429.18765 84.120895L440.66644 84.10711L452.1452 84.096405L463.624 84.08808L475.10275 84.08162L486.5815 84.07659L498.0603 84.07269L509.53906 84.06966L521.0178 84.06731L532.49664 84.065475L543.9754 84.06405L555.45416 84.06294L566.9329 84.06209L578.4117 84.06142L589.8905 84.0609L601.36926 84.06049L612.848 84.06018L624.3268 84.05994L635.80554 84.05975L647.28436 84.0596L658.7631 84.059494L658.7631 323.5L647.28436 323.5L635.80554 323.5L624.3268 323.5L612.848 323.5L601.36926 323.5L589.8905 323.5L578.4117 323.5L566.9329 323.5L555.45416 323.5L543.9754 323.5L532.49664 323.5L521.0178 323.5L509.53906 323.5L498.0603 323.5L486.5815 323.5L475.10275 323.5L463.624 323.5L452.1452 323.5L440.66644 323.5L429.18765 323.5L417.7089 323.5L406.23013 323.5L394.75134 323.5L383.27258 323.5L371.7938 323.5L360.31503 323.5L348.83627 323.5L337.35748 323.5L325.87872 323.5L314.39993 323.5L302.92117 323.5L291.44238 323.5L279.96362 323.5L268.48486 323.5L257.00607 323.5L245.52731 323.5L234.04854 323.5L222.56976 323.5L211.09099 323.5L199.61221 323.5L188.13345 323.5L176.65468 323.5L165.1759 323.5L153.69713 323.5L142.21835 323.5L130.73958 323.5L119.26081 323.5L107.78204 323.5L96.30327 323.5L84.82449 323.5L83.06337 323.5Z" fill-rule="nonzero"/><path stroke="#192432" stroke-width="2.0" stroke-linecap="butt" clip-path="url(#id_0)" d="M83.06337 203.92963L84.82449 203.8332L96.30327 177.12358L107.78204 156.37021L119.26081 140.24483L130.73958 127.71541L142.21835 117.98005L153.69713 110.41567L165.1759 104.538155L176.65468 99.97133L188.13345 96.4229L199.61221 93.66577L211.09099 91.52348L222.56976 89.858925L234.04854 88.56556L245.52731 87.560616L257.00607 86.77978L268.48486 86.173065L279.96362 85.70165L291.44238 85.33536L302.92117 85.05075L314.39993 84.82961L325.87872 84.65778L337.35748 84.52428L348.83627 84.42054L360.31503 84.339935L371.7938 84.27731L383.27258 84.228645L394.75134 84.190834L406.23013 84.16146L417.7089 84.13863L429.18765 84.120895L440.66644 84.10711L452.1452 84.096405L463.624 84.08808L475.10275 84.08162L486.5815 84.07659L498.0603 84.07269L509.53906 84.06966L521.0178 84.06731L532.49664 84.065475L543.9754 84.06405L555.45416 84.06294L566.9329 84.06209L578.4117 84.06142L589.8905 84.0609L601.36926 84.06049L612.848 84.06018L624.3268 84.05994L635.80554 84.05975L647.28436 84.0596L658.7631 84.059494" fill-rule="nonzero"/><path fill="#192432" clip-path="url(#id_0)" d="M85.06337 203.92963C85.06337 205.03421 84.16794 205.92963 83.06337 205.92963C81.9588 205.92963 81.06337 205.03421 81.06337 203.92963C81.06337 202.82506 81.9588 201.92963 83.06337 201.92963C84.16794 201.92963 85.06337 202.82506 85.06337 203.92963Z" fill-rule="nonzero"/><path fill="#192432" clip-path="url(#id_0)" d="M86.82449 203.8332C86.82449 204.93777 85.92906 205.8332 84.82449 205.8332C83.719925 205.8332 82.82449 204.93777 82.82449 203.8332C82.82449 202.72864 83.719925 201.8332 84.82449 201.8332C85.92906 201.8332 86.82449 202.72864 86.82449 203.8332Z" fill-rule="nonzero"/><path fill="#192432" clip-path="url(#id_0)" d="M98.30327 177.12358C98.30327 178.22815 97.40784 179.12358 96.30327 179.12358C95.1987 179.12358 94.30327 178.22815 94.30327 177.12358C94.30327 176.01901 95.1987 175.12358 96.30327 175.12358C97.40784 175.12358 98.30327 176.01901 98.30327 177.12358Z" fill-rule="nonzero"/><path fill="#192432" clip-path="url(#id_0)" d="M109.78204 156.37021C109.78204 157.47478 108.88661 158.37021 107.78204 158.37021C106.67747 158.37021 105.78204 157.47478 105.78204 156.37021C105.78204 155.26562 106.67747 154.37021 107.78204 154.37021C108.88661 154.37021 109.78204 155.26562 109.78204 156.37021Z" fill-rule="nonzero"/><path fill="#192432" clip-path="url(#id_0)" d="M121.26081 140.24483C121.26081 141.3494 120.36538 142.24483 119.26081 142.24483C118.15624 142.24483 117.26081 141.3494 117.26081 140.24483C117.26081 139.14026 118.15624 138.24483 119.26081 138.24483C120.36538 138.24483 121.26081 139.14026 121.26081 140.24483Z" fill-rule="nonzero"/><path fill="#192432" clip-path="url(#id_0)" d="M132.73958 127.71541C132.73958 128.81998 131.84416 129.71541 130.73958 129.71541C129.63501 129.71541 128.73958 128.81998 128.73958 127.71541C128.73958 126.61084 129.63501 125.71541 130.73958 125.71541C131.84416 125.71541 132.73958 126.61084 132.73958 127.71541Z" fill-rule="nonzero"/><path fill="#192432" clip-path="url(#id_0)" d="M144.21835 117.98005C144.21835 119.08462 143.32292 119.98005 142.21835 119.98005C141.11378 119.98005 140.21835 119.08462 140.21835 117.98005C140.21835 116.87548 141.11378 115.98005 142.21835 115.98005C143.32292 115.98005 144.21835 116.87548 144.21835 117.98005Z" fill-rule="nonzero"/><path fill="#192432" clip-path="url(#id_0)" d="M155.69713 110.41567C155.69713 111.52025 154.8017 112.41567 153.69713 112.41567C152.59256 112.41567 151.69713 111.52025 151.69713 110.41567C151.69713 109.311104 152.59256 108.41567 153.69713 108.41567C154.8017 108.41567 155.69713 109.311104 155.69713 110.41567Z" fill-rule="nonzero"/><path fill="#192432" clip-path="url(#id_0)" d="M167.1759 104.538155C167.1759 105.64273 166.28047 106.538155 165.1759 106.538155C164.07133 106.538155 163.1759 105.64273 163.1759 104.538155C163.1759 103.433586 164.07133 102.538155 165.1759 102.538155C166.28047 102.538155 167.1759 103.433586 167.1759 104.538155Z" fill-rule="nonzero"/><path fill="#192432" clip-path="url(#id_0)" d="M178.65468 99.97133C178.65468 101.0759 177.75925 101.97133 176.65468 101.97133C175.55011 101.97133 174.65468 101.0759 174.65468 99.97133C174.65468 98.86676 175.55011 97.97133 176.65468 97.97133C177.75925 97.97133 178.65468 98.86676 178.65468 99.97133Z" fill-rule="nonzero"/><path fill="#192432" clip-path="url(#id_0)" d="M190.13345 96.4229C190.13345 97.527466 189.23802 98.4229 188.13345 98.4229C187.02887 98.4229 186.13345 97.527466 186.13345 96.4229C186.13345 95.31833 187.02887 94.4229 188.13345 94.4229C189.23802 94.4229 190.13345 95.31833 190.13345 96.4229Z" fill-rule="nonzero"/><path fill="#192432" clip-path="url(#id_0)" d="M201.61221 93.66577C201.61221 94.77034 200.71678 95.66577 199.61221 95.66577C198.50764 95.66577 197.61221 94.77034 197.61221 93.66577C197.61221 92.5612 198.50764 91.66577 199.61221 91.66577C200.71678 91.66577 201.61221 92.5612 201.61221 93.66577Z" fill-rule="nonzero"/><path fill="#192432" clip-path="url(#id_0)" d="M213.09099 91.52348C213.09099 92.62805 212.19556 93.52348 211.09099 93.52348C209.98642 93.52348 209.09099 92.62805 209.09099 91.52348C209.09099 90.418915 209.98642 89.52348 211.09099 89.52348C212.19556 89.52348 213.09099 90.418915 213.09099 91.52348Z" fill-rule="nonzero"/><path fill="#192432" clip-path="url(#id_0)" d="M224.56976 89.858925C224.56976 90.96349 223.67433 91.858925 222.56976 91.858925C221.4652 91.858925 220.56976 90.96349 220.56976 89.858925C220.56976 88.75435 221.4652 87.858925 222.56976 87.858925C223.67433 87.858925 224.56976 88.75435 224.56976 89.858925Z" fill-rule="nonzero"/><path fill="#192432" clip-path="url(#id_0)" d="M236.04854 88.56556C236.04854 89.67013 235.1531 90.56556 234.04854 90.56556C232.94397 90.56556 232.04854 89.67013 232.04854 88.56556C232.04854 87.46099 232.94397 86.56556 234.04854 86.56556C235.1531 86.56556 236.04854 87.46099 236.04854 88.56556Z" fill-rule="nonzero"/><path fill="#192432" clip-path="url(#id_0)" d="M247.52731 87.560616C247.52731 88.665184 246.63188 89.560616 245.52731 89.560616C244.42274 89.560616 243.52731 88.665184 243.52731 87.560616C243.52731 86.45605 244.42274 85.560616 245.52731 85.560616C246.63188 85.560616 247.52731 86.45605 247.52731 87.560616Z" fill-rule="nonzero"/><path fill="#192432" clip-path="url(#id_0)" d="M259.00607 86.77978C259.00607 87.884346 258.11066 88.77978 257.00607 88.77978C255.9015 88.77978 255.00607 87.884346 255.00607 86.77978C255.00607 85.67521 255.9015 84.77978 257.00607 84.77978C258.11066 84.77978 259.00607 85.67521 259.00607 86.77978Z" fill-rule="nonzero"/><path fill="#192432" clip-path="url(#id_0)" d="M270.48486 86.173065C270.48486 87.27763 269.58942 88.173065 268.48486 88.173065C267.38028 88.173065 266.48486 87.27763 266.48486 86.173065C266.48486 85.0685 267.38028 84.173065 268.48486 84.173065C269.58942 84.173065 270.48486 85.0685 270.48486 86.173065Z" fill-rule="nonzero"/><path fill="#192432" clip-path="url(#id_0)" d="M281.96362 85.70165C281.96362 86.80622 281.0682 87.70165 279.96362 87.70165C278.85907 87.70165 277.96362 86.80622 277.96362 85.70165C277.96362 84.59708 278.85907 83.70165 279.96362 83.70165C281.0682 83.70165 281.96362 84.59708 281.96362 85.70165Z" fill-rule="nonzero"/><path fill="#192432" clip-path="url(#id_0)" d="M293.44238 85.33536C293.44238 86.439926 292.54697 87.33536 291.44238 87.33536C290.33783 87.33536 289.44238 86.439926 289.44238 85.33536C289.44238 84.23079 290.33783 83.33536 291.44238 83.33536C292.54697 83.33536 293.44238 84.23079 293.44238 85.33536Z" fill-rule="nonzero"/><path fill="#192432" clip-path="url(#id_0)" d="M304.92117 85.05075C304.92117 86.15532 304.02573 87.05075 302.92117 87.05075C301.8166 87.05075 300.92117 86.15532 300.92117 85.05075C300.92117 83.94618 301.8166 83.05075 302.92117 83.05075C304.02573 83.05075 304.92117 83.94618 304.92117 85.05075Z" fill-rule="nonzero"/><path fill="#192432" clip-path="url(#id_0)" d="M316.39993 84.82961C316.39993 85.93418 315.50452 86.82961 314.39993 86.82961C313.29538 86.82961 312.39993 85.93418 312.39993 84.82961C312.39993 83.725044 313.29538 82.82961 314.39993 82.82961C315.50452 82.82961 316.39993 83.725044 316.39993 84.82961Z" fill-rule="nonzero"/><path fill="#192432" clip-path="url(#id_0)" d="M327.87872 84.65778C327.87872 85.76235 326.98328 86.65778 325.87872 86.65778C324.77414 86.65778 323.87872 85.76235 323.87872 84.65778C323.87872 83.553215 324.77414 82.65778 325.87872 82.65778C326.98328 82.65778 327.87872 83.553215 327.87872 84.65778Z" fill-rule="nonzero"/><path fill="#192432" clip-path="url(#id_0)" d="M339.35748 84.52428C339.35748 85.628845 338.46207 86.52428 337.35748 86.52428C336.25293 86.52428 335.35748 85.628845 335.35748 84.52428C335.35748 83.41971 336.25293 82.52428 337.35748 82.52428C338.46207 82.52428 339.35748 83.41971 339.35748 84.52428Z" fill-rule="nonzero"/><path fill="#192432" clip-path="url(#id_0)" d="M350.83627 84.42054C350.83627 85.52511 349.94083 86.42054 348.83627 86.42054C347.7317 86.42054 346.83627 85.52511 346.83627 84.42054C346.83627 83.31597 347.7317 82.42054 348.83627 82.42054C349.94083 82.42054 350.83627 83.31597 350.83627 84.42054Z" fill-rule="nonzero"/><path fill="#192432" clip-path="url(#id_0)" d="M362.31503 84.339935C362.31503 85.44451 361.4196 86.339935 360.31503 86.339935C359.21045 86.339935 358.31503 85.44451 358.31503 84.339935C358.31503 83.23537 359.21045 82.339935 360.31503 82.339935C361.4196 82.339935 362.31503 83.23537 362.31503 84.339935Z" fill-rule="nonzero"/><path fill="#192432" clip-path="url(#id_0)" d="M373.7938 84.27731C373.7938 85.38188 372.89838 86.27731 371.7938 86.27731C370.68924 86.27731 369.7938 85.38188 369.7938 84.27731C369.7938 83.17274 370.68924 82.27731 371.7938 82.27731C372.89838 82.27731 373.7938 83.17274 373.7938 84.27731Z" fill-rule="nonzero"/><path fill="#192432" clip-path="url(#id_0)" d="M385.27258 84.228645C385.27258 85.33321 384.37714 86.228645 383.27258 86.228645C382.168 86.228645 381.27258 85.33321 381.27258 84.228645C381.27258 83.12408 382.168 82.228645 383.27258 82.228645C384.37714 82.228645 385.27258 83.12408 385.27258 84.228645Z" fill-rule="nonzero"/><path fill="#192432" clip-path="url(#id_0)" d="M396.75134 84.190834C396.75134 85.2954 395.85593 86.190834 394.75134 86.190834C393.6468 86.190834 392.75134 85.2954 392.75134 84.190834C392.75134 83.086266 393.6468 82.190834 394.75134 82.190834C395.85593 82.190834 396.75134 83.086266 396.75134 84.190834Z" fill-rule="nonzero"/><path fill="#192432" clip-path="url(#id_0)" d="M408.23013 84.16146C408.23013 85.26603 407.3347 86.16146 406.23013 86.16146C405.12555 86.16146 404.23013 85.26603 404.23013 84.16146C404.23013 83.056885 405.12555 82.16146 406.23013 82.16146C407.3347 82.16146 408.23013 83.056885 408.23013 84.16146Z" fill-rule="nonzero"/><path fill="#192432" clip-path="url(#id_0)" d="M419.7089 84.13863C419.7089 85.2432 418.81348 86.13863 417.7089 86.13863C416.6043 86.13863 415.7089 85.2432 415.7089 84.13863C415.7089 83.03406 416.6043 82.13863 417.7089 82.13863C418.81348 82.13863 419.7089 83.03406 419.7089 84.13863Z" fill-rule="nonzero"/><path fill="#192432" clip-path="url(#id_0)" d="M431.18765 84.120895C431.18765 85.225464 430.29224 86.120895 429.18765 86.120895C428.0831 86.120895 427.18765 85.225464 427.18765 84.120895C427.18765 83.01633 428.0831 82.120895 429.18765 82.120895C430.29224 82.120895 431.18765 83.01633 431.18765 84.120895Z" fill-rule="nonzero"/><path fill="#192432" clip-path="url(#id_0)" d="M442.66644 84.10711C442.66644 85.211685 441.771 86.10711 440.66644 86.10711C439.56186 86.10711 438.66644 85.211685 438.66644 84.10711C438.66644 83.00254 439.56186 82.10711 440.66644 82.10711C441.771 82.10711 442.66644 83.00254 442.66644 84.10711Z" fill-rule="nonzero"/><path fill="#192432" clip-path="url(#id_0)" d="M454.1452 84.096405C454.1452 85.20097 453.2498 86.096405 452.1452 86.096405C451.04065 86.096405 450.1452 85.20097 450.1452 84.096405C450.1452 82.99184 451.04065 82.096405 452.1452 82.096405C453.2498 82.096405 454.1452 82.99184 454.1452 84.096405Z" fill-rule="nonzero"/><path fill="#192432" clip-path="url(#id_0)" d="M465.624 84.08808C465.624 85.19265 464.72855 86.08808 463.624 86.08808C462.5194 86.08808 461.624 85.19265 461.624 84.08808C461.624 82.98351 462.5194 82.08808 463.624 82.08808C464.72855 82.08808 465.624 82.98351 465.624 84.08808Z" fill-rule="nonzero"/><path fill="#192432" clip-path="url(#id_0)" d="M477.10275 84.08162C477.10275 85.18619 476.20734 86.08162 475.10275 86.08162C473.99817 86.08162 473.10275 85.18619 473.10275 84.08162C473.10275 82.97705 473.99817 82.08162 475.10275 82.08162C476.20734 82.08162 477.10275 82.97705 477.10275 84.08162Z" fill-rule="nonzero"/><path fill="#192432" clip-path="url(#id_0)" d="M488.5815 84.07659C488.5815 85.18117 487.6861 86.07659 486.5815 86.07659C485.47696 86.07659 484.5815 85.18117 484.5815 84.07659C484.5815 82.97202 485.47696 82.07659 486.5815 82.07659C487.6861 82.07659 488.5815 82.97202 488.5815 84.07659Z" fill-rule="nonzero"/><path fill="#192432" clip-path="url(#id_0)" d="M500.0603 84.07269C500.0603 85.17726 499.16486 86.07269 498.0603 86.07269C496.95572 86.07269 496.0603 85.17726 496.0603 84.07269C496.0603 82.968124 496.95572 82.07269 498.0603 82.07269C499.16486 82.07269 500.0603 82.968124 500.0603 84.07269Z" fill-rule="nonzero"/><path fill="#192432" clip-path="url(#id_0)" d="M511.53906 84.06966C511.53906 85.17423 510.64365 86.06966 509.53906 86.06966C508.4345 86.06966 507.53906 85.17423 507.53906 84.06966C507.53906 82.96509 508.4345 82.06966 509.53906 82.06966C510.64365 82.06966 511.53906 82.96509 511.53906 84.06966Z" fill-rule="nonzero"/><path fill="#192432" clip-path="url(#id_0)" d="M523.0178 84.06731C523.0178 85.171875 522.12244 86.06731 521.0178 86.06731C519.91327 86.06731 519.0178 85.171875 519.0178 84.06731C519.0178 82.96273 519.91327 82.06731 521.0178 82.06731C522.12244 82.06731 523.0178 82.96273 523.0178 84.06731Z" fill-rule="nonzero"/><path fill="#192432" clip-path="url(#id_0)" d="M534.49664 84.065475C534.49664 85.170044 533.6012 86.065475 532.49664 86.065475C531.392 86.065475 530.49664 85.170044 530.49664 84.065475C530.49664 82.9609 531.392 82.065475 532.49664 82.065475C533.6012 82.065475 534.49664 82.9609 534.49664 84.065475Z" fill-rule="nonzero"/><path fill="#192432" clip-path="url(#id_0)" d="M545.9754 84.06405C545.9754 85.16862 545.07996 86.06405 543.9754 86.06405C542.8708 86.06405 541.9754 85.16862 541.9754 84.06405C541.9754 82.95948 542.8708 82.06405 543.9754 82.06405C545.07996 82.06405 545.9754 82.95948 545.9754 84.06405Z" fill-rule="nonzero"/><path fill="#192432" clip-path="url(#id_0)" d="M557.45416 84.06294C557.45416 85.16751 556.5587 86.06294 555.45416 86.06294C554.3496 86.06294 553.45416 85.16751 553.45416 84.06294C553.45416 82.958374 554.3496 82.06294 555.45416 82.06294C556.5587 82.06294 557.45416 82.958374 557.45416 84.06294Z" fill-rule="nonzero"/><path fill="#192432" clip-path="url(#id_0)" d="M568.9329 84.06209C568.9329 85.16666 568.0375 86.06209 566.9329 86.06209C565.82837 86.06209 564.9329 85.16666 564.9329 84.06209C564.9329 82.95752 565.82837 82.06209 566.9329 82.06209C568.0375 82.06209 568.9329 82.95752 568.9329 84.06209Z" fill-rule="nonzero"/><path fill="#192432" clip-path="url(#id_0)" d="M580.4117 84.06142C580.4117 85.165985 579.5163 86.06142 578.4117 86.06142C577.3071 86.06142 576.4117 85.165985 576.4117 84.06142C576.4117 82.95685 577.3071 82.06142 578.4117 82.06142C579.5163 82.06142 580.4117 82.95685 580.4117 84.06142Z" fill-rule="nonzero"/><path fill="#192432" clip-path="url(#id_0)" d="M591.8905 84.0609C591.8905 85.16547 590.99506 86.0609 589.8905 86.0609C588.7859 86.0609 587.8905 85.16547 587.8905 84.0609C587.8905 82.95633 588.7859 82.0609 589.8905 82.0609C590.99506 82.0609 591.8905 82.95633 591.8905 84.0609Z" fill-rule="nonzero"/><path fill="#192432" clip-path="url(#id_0)" d="M603.36926 84.06049C603.36926 85.16507 602.4738 86.06049 601.36926 86.06049C600.2647 86.06049 599.36926 85.16507 599.36926 84.06049C599.36926 82.955925 600.2647 82.06049 601.36926 82.06049C602.4738 82.06049 603.36926 82.955925 603.36926 84.06049Z" fill-rule="nonzero"/><path fill="#192432" clip-path="url(#id_0)" d="M614.848 84.06018C614.848 85.16476 613.9526 86.06018 612.848 86.06018C611.74347 86.06018 610.848 85.16476 610.848 84.06018C610.848 82.95561 611.74347 82.06018 612.848 82.06018C613.9526 82.06018 614.848 82.95561 614.848 84.06018Z" fill-rule="nonzero"/><path fill="#192432" clip-path="url(#id_0)" d="M626.3268 84.05994C626.3268 85.16451 625.43134 86.05994 624.3268 86.05994C623.2222 86.05994 622.3268 85.16451 622.3268 84.05994C622.3268 82.95537 623.2222 82.05994 624.3268 82.05994C625.43134 82.05994 626.3268 82.95537 626.3268 84.05994Z" fill-rule="nonzero"/><path fill="#192432" clip-path="url(#id_0)" d="M637.80554 84.05975C637.80554 85.16432 636.91016 86.05975 635.80554 86.05975C634.701 86.05975 633.80554 85.16432 633.80554 84.05975C633.80554 82.955185 634.701 82.05975 635.80554 82.05975C636.91016 82.05975 637.80554 82.955185 637.80554 84.05975Z" fill-rule="nonzero"/><path fill="#192432" clip-path="url(#id_0)" d="M649.28436 84.0596C649.28436 85.16418 648.3889 86.0596 647.28436 86.0596C646.17975 86.0596 645.28436 85.16418 645.28436 84.0596C645.28436 82.95503 646.17975 82.0596 647.28436 82.0596C648.3889 82.0596 649.28436 82.95503 649.28436 84.0596Z" fill-rule="nonzero"/><path fill="#192432" clip-path="url(#id_0)" d="M660.7631 84.059494C660.7631 85.16406 659.8677 86.059494 658.7631 86.059494C657.65857 86.059494 656.7631 85.16406 656.7631 84.059494C656.7631 82.95492 657.65857 82.059494 658.7631 82.059494C659.8677 82.059494 660.7631 82.95492 660.7631 84.059494Z" fill-rule="nonzero"/><path stroke="#000000" stroke-width="1.0" stroke-linecap="butt" d="M102.5 326.5L102.5 320.5" fill-rule="nonzero"/><path stroke="#000000" stroke-width="1.0" stroke-linecap="butt" d="M121.5 326.5L121.5 320.5" fill-rule="nonzero"/><path stroke="#000000" stroke-width="1.0" stroke-linecap="butt" d="M159.5 326.5L159.5 320.5" fill-rule="nonzero"/><path stroke="#000000" stroke-width="1.0" stroke-linecap="butt" d="M178.5 326.5L178.5 320.5" fill-rule="nonzero"/><path stroke="#000000" stroke-width="1.0" stroke-linecap="butt" d="M216.5 326.5L216.5 320.5" fill-rule="nonzero"/><path stroke="#000000" stroke-width="1.0" stroke-linecap="butt" d="M236.5 326.5L236.5 320.5" fill-rule="nonzero"/><path stroke="#000000" stroke-width="1.0" stroke-linecap="butt" d="M274.5 326.5L274.5 320.5" fill-rule="nonzero"/><path stroke="#000000" stroke-width="1.0" stroke-linecap="butt" d="M293.5 326.5L293.5 320.5" fill-rule="nonzero"/><path stroke="#000000" stroke-width="1.0" stroke-linecap="butt" d="M331.5 326.5L331.5 320.5" fill-rule="nonzero"/><path stroke="#000000" stroke-width="1.0" stroke-linecap="butt" d="M350.5 326.5L350.5 320.5" fill-rule="nonzero"/><path stroke="#000000" stroke-width="1.0" stroke-linecap="butt" d="M389.5 326.5L389.5 320.5" fill-rule="nonzero"/><path stroke="#000000" stroke-width="1.0" stroke-linecap="butt" d="M408.5 326.5L408.5 320.5" fill-rule="nonzero"/><path stroke="#000000" stroke-width="1.0" stroke-linecap="butt" d="M446.5 326.5L446.5 320.5" fill-rule="nonzero"/><path stroke="#000000" stroke-width="1.0" stroke-linecap="butt" d="M465.5 326.5L465.5 320.5" fill-rule="nonzero"/><path stroke="#000000" stroke-width="1.0" stroke-linecap="butt" d="M503.5 326.5L503.5 320.5" fill-rule="nonzero"/><path stroke="#000000" stroke-width="1.0" stroke-linecap="butt" d="M523.5 326.5L523.5 320.5" fill-rule="nonzero"/><path stroke="#000000" stroke-width="1.0" stroke-linecap="butt" d="M561.5 326.5L561.5 320.5" fill-rule="nonzero"/><path stroke="#000000" stroke-width="1.0" stroke-linecap="butt" d="M580.5 326.5L580.5 320.5" fill-rule="nonzero"/><path stroke="#000000" stroke-width="1.0" stroke-linecap="butt" d="M618.5 326.5L618.5 320.5" fill-rule="nonzero"/><path stroke="#000000" stroke-width="1.0" stroke-linecap="butt" d="M637.5 326.5L637.5 320.5" fill-rule="nonzero"/><path stroke="#000000" stroke-width="1.0" stroke-linecap="butt" d="M83.5 329.5L83.5 317.5" fill-rule="nonzero"/><path stroke="#000000" stroke-width="1.0" stroke-linecap="butt" d="M140.5 329.5L140.5 317.5" fill-rule="nonzero"/><path stroke="#000000" stroke-width="1.0" stroke-linecap="butt" d="M197.5 329.5L197.5 317.5" fill-rule="nonzero"/><path stroke="#000000" stroke-width="1.0" stroke-linecap="butt" d="M255.5 329.5L255.5 317.5" fill-rule="nonzero"/><path stroke="#000000" stroke-width="1.0" stroke-linecap="butt" d="M312.5 329.5L312.5 317.5" fill-rule="nonzero"/><path stroke="#000000" stroke-width="1.0" stroke-linecap="butt" d="M370.5 329.5L370.5 317.5" fill-rule="nonzero"/><path stroke="#000000" stroke-width="1.0" stroke-linecap="butt" d="M427.5 329.5L427.5 317.5" fill-rule="nonzero"/><path stroke="#000000" stroke-width="1.0" stroke-linecap="butt" d="M484.5 329.5L484.5 317.5" fill-rule="nonzero"/><path stroke="#000000" stroke-width="1.0" stroke-linecap="butt" d="M542.5 329.5L542.5 317.5" fill-rule="nonzero"/><path stroke="#000000" stroke-width="1.0" stroke-linecap="butt" d="M599.5 329.5L599.5 317.5" fill-rule="nonzero"/><path stroke="#000000" stroke-width="1.0" stroke-linecap="butt" d="M657.5 329.5L657.5 317.5" fill-rule="nonzero"/><path fill="#333333" d="M327.89206 370.75162L323.7358 370.75162L323.7358 381.01724L322.18893 381.01724L322.18893 370.75162L318.03268 370.75162L318.03268 369.37662L327.89206 369.37662L327.89206 370.75162ZM331.06393 370.82974L329.40768 370.82974L329.40768 369.2985L331.06393 369.2985L331.06393 370.82974ZM330.97018 381.01724L329.50143 381.01724L329.50143 372.28287L330.97018 372.28287L330.97018 381.01724ZM347.22018 381.01724L345.75143 381.01724L345.75143 376.0485Q345.75143 375.486 345.68893 374.97037Q345.64206 374.43912 345.4858 374.12662Q345.2983 373.78287 344.95456 373.611Q344.62643 373.43912 344.00143 373.43912Q343.37643 373.43912 342.75143 373.75162Q342.14206 374.06412 341.53268 374.53287Q341.5483 374.72037 341.56393 374.95474Q341.57956 375.18912 341.57956 375.4235L341.57956 381.01724L340.1108 381.01724L340.1108 376.0485Q340.1108 375.47037 340.06393 374.95474Q340.01706 374.4235 339.84518 374.111Q339.6733 373.78287 339.32956 373.611Q339.00143 373.43912 338.3608 373.43912Q337.76706 373.43912 337.15768 373.736Q336.5483 374.03287 335.95456 374.50162L335.95456 381.01724L334.4858 381.01724L334.4858 372.28287L335.95456 372.28287L335.95456 373.25162Q336.64206 372.68912 337.31393 372.37662Q338.00143 372.0485 338.78268 372.0485Q339.6733 372.0485 340.28268 372.4235Q340.90768 372.7985 341.22018 373.45474Q342.1108 372.70474 342.84518 372.37662Q343.57956 372.0485 344.40768 372.0485Q345.84518 372.0485 346.53268 372.9235Q347.22018 373.78287 347.22018 375.34537L347.22018 381.01724ZM356.78268 376.7985L350.3608 376.7985Q350.3608 377.611 350.59518 378.20474Q350.84518 378.7985 351.26706 379.18912Q351.6733 379.56412 352.22018 379.75162Q352.78268 379.93912 353.45456 379.93912Q354.34518 379.93912 355.25143 379.57974Q356.15768 379.22037 356.53268 378.87662L356.6108 378.87662L356.6108 380.486Q355.87643 380.7985 355.09518 381.01724Q354.32956 381.22037 353.47018 381.22037Q351.2983 381.22037 350.07956 380.0485Q348.8608 378.861 348.8608 376.70474Q348.8608 374.56412 350.03268 373.31412Q351.20456 372.0485 353.1108 372.0485Q354.87643 372.0485 355.82956 373.07974Q356.78268 374.111 356.78268 376.00162L356.78268 376.7985ZM355.3608 375.6735Q355.34518 374.51724 354.76706 373.89224Q354.20456 373.25162 353.03268 373.25162Q351.84518 373.25162 351.14206 373.95474Q350.45456 374.64224 350.3608 375.6735L355.3608 375.6735ZM370.15768 384.236L368.3608 384.236Q366.9858 382.65787 366.22018 380.78287Q365.45456 378.89224 365.45456 376.5485Q365.45456 374.18912 366.22018 372.31412Q366.9858 370.43912 368.3608 368.861L370.15768 368.861L370.15768 368.93912Q369.51706 369.50162 368.93893 370.25162Q368.37643 371.00162 367.87643 371.986Q367.40768 372.95474 367.1108 374.111Q366.82956 375.26724 366.82956 376.5485Q366.82956 377.87662 367.1108 378.986Q367.39206 380.09537 367.87643 381.111Q368.34518 382.06412 368.93893 382.84537Q369.5483 383.62662 370.15768 384.15787L370.15768 384.236ZM380.03268 372.28287L374.93893 384.236L373.3608 384.236L374.9858 380.59537L371.51706 372.28287L373.1108 372.28287L375.78268 378.75162L378.4858 372.28287L380.03268 372.28287ZM388.78268 376.7985L382.3608 376.7985Q382.3608 377.611 382.59518 378.20474Q382.84518 378.7985 383.26706 379.18912Q383.6733 379.56412 384.22018 379.75162Q384.78268 379.93912 385.45456 379.93912Q386.34518 379.93912 387.25143 379.57974Q388.15768 379.22037 388.53268 378.87662L388.6108 378.87662L388.6108 380.486Q387.87643 380.7985 387.09518 381.01724Q386.32956 381.22037 385.47018 381.22037Q383.2983 381.22037 382.07956 380.0485Q380.8608 378.861 380.8608 376.70474Q380.8608 374.56412 382.03268 373.31412Q383.20456 372.0485 385.1108 372.0485Q386.87643 372.0485 387.82956 373.07974Q388.78268 374.111 388.78268 376.00162L388.78268 376.7985ZM387.3608 375.6735Q387.34518 374.51724 386.76706 373.89224Q386.20456 373.25162 385.03268 373.25162Q383.84518 373.25162 383.14206 373.95474Q382.45456 374.64224 382.3608 375.6735L387.3608 375.6735ZM398.26706 381.01724L396.7983 381.01724L396.7983 380.07974Q396.6108 380.22037 396.26706 380.45474Q395.93893 380.68912 395.62643 380.82974Q395.26706 381.01724 394.78268 381.14224Q394.31393 381.26724 393.6733 381.26724Q392.4858 381.26724 391.65768 380.486Q390.84518 379.68912 390.84518 378.486Q390.84518 377.486 391.26706 376.87662Q391.70456 376.26724 392.4858 375.90787Q393.28268 375.56412 394.39206 375.43912Q395.51706 375.31412 396.7983 375.25162L396.7983 375.01724Q396.7983 374.51724 396.62643 374.18912Q396.45456 373.861 396.12643 373.6735Q395.81393 373.50162 395.37643 373.43912Q394.93893 373.37662 394.45456 373.37662Q393.87643 373.37662 393.15768 373.53287Q392.45456 373.6735 391.70456 373.97037L391.62643 373.97037L391.62643 372.47037Q392.0483 372.361 392.8608 372.22037Q393.6733 372.07974 394.47018 372.07974Q395.39206 372.07974 396.06393 372.236Q396.75143 372.37662 397.25143 372.75162Q397.75143 373.111 398.00143 373.68912Q398.26706 374.25162 398.26706 375.09537L398.26706 381.01724ZM396.7983 378.861L396.7983 376.43912Q396.12643 376.47037 395.22018 376.5485Q394.31393 376.62662 393.78268 376.78287Q393.14206 376.95474 392.75143 377.34537Q392.3608 377.72037 392.3608 378.37662Q392.3608 379.12662 392.81393 379.51724Q393.26706 379.89224 394.20456 379.89224Q394.97018 379.89224 395.6108 379.59537Q396.25143 379.28287 396.7983 378.861ZM406.9233 373.89224L406.84518 373.89224Q406.51706 373.81412 406.20456 373.78287Q405.90768 373.736 405.4858 373.736Q404.7983 373.736 404.15768 374.0485Q403.53268 374.34537 402.95456 374.81412L402.95456 381.01724L401.4858 381.01724L401.4858 372.28287L402.95456 372.28287L402.95456 373.57974Q403.82956 372.87662 404.4858 372.57974Q405.15768 372.28287 405.8608 372.28287Q406.2358 372.28287 406.40768 372.31412Q406.57956 372.32974 406.9233 372.37662L406.9233 373.89224ZM413.72018 378.50162Q413.72018 379.68912 412.72018 380.47037Q411.7358 381.236 410.03268 381.236Q409.06393 381.236 408.25143 381.00162Q407.43893 380.76724 406.89206 380.486L406.89206 378.84537L406.97018 378.84537Q407.6733 379.361 408.51706 379.6735Q409.37643 379.986 410.15768 379.986Q411.12643 379.986 411.6733 379.6735Q412.22018 379.361 412.22018 378.68912Q412.22018 378.1735 411.9233 377.90787Q411.62643 377.64224 410.78268 377.45474Q410.47018 377.37662 409.95456 377.28287Q409.45456 377.18912 409.0483 377.07974Q407.89206 376.78287 407.40768 376.18912Q406.93893 375.59537 406.93893 374.736Q406.93893 374.20474 407.15768 373.736Q407.37643 373.25162 407.82956 372.87662Q408.26706 372.50162 408.93893 372.2985Q409.62643 372.07974 410.45456 372.07974Q411.2358 372.07974 412.03268 372.26724Q412.84518 372.45474 413.37643 372.736L413.37643 374.2985L413.2983 374.2985Q412.7358 373.89224 411.9233 373.611Q411.12643 373.31412 410.34518 373.31412Q409.5483 373.31412 408.9858 373.62662Q408.43893 373.93912 408.43893 374.5485Q408.43893 375.07974 408.76706 375.361Q409.09518 375.62662 409.82956 375.7985Q410.2358 375.89224 410.7358 375.986Q411.25143 376.07974 411.57956 376.15787Q412.6108 376.39224 413.15768 376.97037Q413.72018 377.5485 413.72018 378.50162ZM420.89206 376.5485Q420.89206 378.89224 420.12643 380.78287Q419.3608 382.65787 417.97018 384.236L416.18893 384.236L416.18893 384.15787Q416.78268 383.62662 417.39206 382.84537Q418.00143 382.06412 418.45456 381.111Q418.93893 380.09537 419.22018 378.986Q419.51706 377.87662 419.51706 376.5485Q419.51706 375.26724 419.22018 374.111Q418.93893 372.95474 418.45456 371.986Q417.97018 371.00162 417.39206 370.25162Q416.81393 369.50162 416.18893 368.93912L416.18893 368.861L417.97018 368.861Q419.3608 370.43912 420.12643 372.31412Q420.89206 374.18912 420.89206 376.5485Z" fill-rule="nonzero"/><path fill="#333333" d="M23.3134 260.5317L23.3134 264.68796L33.579025 264.68796L33.579025 266.23483L23.3134 266.23483L23.3134 270.39108L21.9384 270.39108L21.9384 260.5317L23.3134 260.5317ZM29.21965 251.50047Q31.34465 251.50047 32.59465 252.59422Q33.829025 253.68797 33.829025 255.53172Q33.829025 257.37546 32.59465 258.4692Q31.34465 259.56296 29.21965 259.56296Q27.079025 259.56296 25.84465 258.4692Q24.610275 257.37546 24.610275 255.53172Q24.610275 253.68797 25.84465 252.59422Q27.079025 251.50047 29.21965 251.50047ZM29.21965 253.0161Q27.516525 253.0161 26.704025 253.68797Q25.8759 254.34422 25.8759 255.53172Q25.8759 256.7192 26.704025 257.39108Q27.516525 258.04733 29.21965 258.04733Q30.860275 258.04733 31.704025 257.39108Q32.547775 256.7192 32.547775 255.53172Q32.547775 254.35985 31.71965 253.68797Q30.8759 253.0161 29.21965 253.0161ZM33.579025 241.0161L33.579025 242.9536L29.7509 246.4536L30.65715 247.40672L33.579025 247.40672L33.579025 248.87547L21.422775 248.87547L21.422775 247.40672L29.21965 247.40672L24.84465 243.17235L24.84465 241.31297L28.8759 245.37547L33.579025 241.0161ZM29.360275 232.6411L29.360275 239.06297Q30.172775 239.06297 30.766525 238.8286Q31.360275 238.5786 31.7509 238.15672Q32.1259 237.75047 32.3134 237.2036Q32.5009 236.6411 32.5009 235.96922Q32.5009 235.0786 32.141525 234.17235Q31.78215 233.2661 31.4384 232.8911L31.4384 232.81297L33.047775 232.81297Q33.360275 233.54735 33.579025 234.3286Q33.78215 235.09422 33.78215 235.9536Q33.78215 238.12547 32.610275 239.34422Q31.422775 240.56297 29.266525 240.56297Q27.1259 240.56297 25.8759 239.3911Q24.610275 238.21922 24.610275 236.31297Q24.610275 234.54735 25.641525 233.59422Q26.672775 232.6411 28.5634 232.6411L29.360275 232.6411ZM28.235275 234.06297Q27.079025 234.0786 26.454025 234.65672Q25.8134 235.21922 25.8134 236.3911Q25.8134 237.5786 26.516525 238.28172Q27.204025 238.96922 28.235275 239.06297L28.235275 234.06297ZM33.579025 228.4536L33.579025 229.92235L21.422775 229.92235L21.422775 228.4536L33.579025 228.4536ZM36.797775 214.2661L36.797775 216.06297Q35.21965 217.43797 33.34465 218.2036Q31.454025 218.96922 29.110275 218.96922Q26.7509 218.96922 24.8759 218.2036Q23.0009 217.43797 21.422775 216.06297L21.422775 214.2661L21.5009 214.2661Q22.0634 214.90672 22.8134 215.48485Q23.5634 216.04735 24.547775 216.54735Q25.516525 217.0161 26.672775 217.31297Q27.829025 217.59422 29.110275 217.59422Q30.4384 217.59422 31.547775 217.31297Q32.65715 217.03172 33.672775 216.54735Q34.6259 216.0786 35.40715 215.48485Q36.1884 214.87547 36.71965 214.2661L36.797775 214.2661ZM33.579025 204.3911L33.579025 206.23485L30.21965 208.71922L33.579025 211.2036L33.579025 212.92235L29.21965 209.5161L24.84465 212.8911L24.84465 211.03172L28.141525 208.5786L24.84465 206.10985L24.84465 204.3911L29.141525 207.81297L33.579025 204.3911ZM33.579025 184.2036L33.579025 185.67235L28.610275 185.67235Q28.047775 185.67235 27.53215 185.73485Q27.0009 185.78172 26.6884 185.93797Q26.34465 186.12547 26.172775 186.46922Q26.0009 186.79735 26.0009 187.42235Q26.0009 188.04735 26.3134 188.67235Q26.6259 189.28172 27.09465 189.8911Q27.28215 189.87547 27.516525 189.85985Q27.7509 189.84422 27.985275 189.84422L33.579025 189.84422L33.579025 191.31297L28.610275 191.31297Q28.03215 191.31297 27.516525 191.35985Q26.985275 191.40672 26.672775 191.5786Q26.34465 191.75047 26.172775 192.09422Q26.0009 192.42235 26.0009 193.06297Q26.0009 193.65672 26.297775 194.2661Q26.59465 194.87547 27.0634 195.46922L33.579025 195.46922L33.579025 196.93797L24.84465 196.93797L24.84465 195.46922L25.8134 195.46922Q25.2509 194.78172 24.9384 194.10985Q24.610275 193.42235 24.610275 192.6411Q24.610275 191.75047 24.985275 191.1411Q25.360275 190.5161 26.016525 190.2036Q25.266525 189.31297 24.9384 188.5786Q24.610275 187.84422 24.610275 187.0161Q24.610275 185.5786 25.485275 184.8911Q26.34465 184.2036 27.90715 184.2036L33.579025 184.2036ZM23.391525 180.35985L23.391525 182.0161L21.860275 182.0161L21.860275 180.35985L23.391525 180.35985ZM33.579025 180.4536L33.579025 181.92235L24.84465 181.92235L24.84465 180.4536L33.579025 180.4536ZM33.579025 175.4536L33.579025 176.92235L21.422775 176.92235L21.422775 175.4536L33.579025 175.4536ZM33.579025 170.4536L33.579025 171.92235L21.422775 171.92235L21.422775 170.4536L33.579025 170.4536ZM23.391525 165.35985L23.391525 167.0161L21.860275 167.0161L21.860275 165.35985L23.391525 165.35985ZM33.579025 165.4536L33.579025 166.92235L24.84465 166.92235L24.84465 165.4536L33.579025 165.4536ZM29.21965 154.50047Q31.34465 154.50047 32.59465 155.59422Q33.829025 156.68797 33.829025 158.53172Q33.829025 160.37547 32.59465 161.46922Q31.34465 162.56297 29.21965 162.56297Q27.079025 162.56297 25.84465 161.46922Q24.610275 160.37547 24.610275 158.53172Q24.610275 156.68797 25.84465 155.59422Q27.079025 154.50047 29.21965 154.50047ZM29.21965 156.0161Q27.516525 156.0161 26.704025 156.68797Q25.8759 157.34422 25.8759 158.53172Q25.8759 159.71922 26.704025 160.3911Q27.516525 161.04735 29.21965 161.04735Q30.860275 161.04735 31.704025 160.3911Q32.547775 159.71922 32.547775 158.53172Q32.547775 157.35985 31.71965 156.68797Q30.8759 156.0161 29.21965 156.0161ZM33.579025 144.6411L33.579025 146.10985L28.610275 146.10985Q28.0009 146.10985 27.485275 146.18797Q26.954025 146.25047 26.65715 146.43797Q26.329025 146.6411 26.172775 147.0161Q26.0009 147.37547 26.0009 147.9536Q26.0009 148.56297 26.297775 149.21922Q26.59465 149.87547 27.0634 150.46922L33.579025 150.46922L33.579025 151.93797L24.84465 151.93797L24.84465 150.46922L25.8134 150.46922Q25.2509 149.78172 24.9384 149.04735Q24.610275 148.31297 24.610275 147.54735Q24.610275 146.12547 25.46965 145.3911Q26.3134 144.6411 27.90715 144.6411L33.579025 144.6411ZM29.110275 137.53172Q31.454025 137.53172 33.34465 138.29735Q35.21965 139.06297 36.797775 140.4536L36.797775 142.23485L36.71965 142.23485Q36.1884 141.6411 35.40715 141.03172Q34.6259 140.42235 33.672775 139.96922Q32.65715 139.48485 31.547775 139.2036Q30.4384 138.90672 29.110275 138.90672Q27.829025 138.90672 26.672775 139.2036Q25.516525 139.48485 24.547775 139.96922Q23.5634 140.4536 22.8134 141.03172Q22.0634 141.60985 21.5009 142.23485L21.422775 142.23485L21.422775 140.4536Q23.0009 139.06297 24.8759 138.29735Q26.7509 137.53172 29.110275 137.53172Z" fill-rule="nonzero"/><path fill="#666666" d="M75.047745 324.40625Q75.047745 327.14062 74.18837 328.4375Q73.328995 329.71875 71.516495 329.71875Q69.68837 329.71875 68.84462 328.42188Q68.00087 327.10938 68.00087 324.42188Q68.00087 321.70312 68.84462 320.40625Q69.703995 319.10938 71.516495 319.10938Q73.360245 319.10938 74.203995 320.4375Q75.047745 321.75 75.047745 324.40625ZM73.25087 327.51562Q73.485245 326.95312 73.56337 326.20312Q73.65712 325.45312 73.65712 324.40625Q73.65712 323.375 73.56337 322.60938Q73.485245 321.84375 73.235245 321.29688Q73.00087 320.78125 72.578995 320.51562Q72.172745 320.25 71.516495 320.25Q70.87587 320.25 70.453995 320.51562Q70.03212 320.78125 69.797745 321.3125Q69.56337 321.82812 69.46962 322.64062Q69.391495 323.45312 69.391495 324.42188Q69.391495 325.48438 69.453995 326.20312Q69.53212 326.92188 69.78212 327.48438Q70.016495 328.01562 70.422745 328.29688Q70.84462 328.57812 71.516495 328.57812Q72.15712 328.57812 72.578995 328.3125Q73.016495 328.04688 73.25087 327.51562Z" fill-rule="nonzero"/><path fill="#666666" d="M65.96962 266.48044Q65.96962 267.1992 65.703995 267.85544Q65.453995 268.49606 65.00087 268.93356Q64.516495 269.41794 63.828995 269.68356Q63.15712 269.93356 62.25087 269.93356Q61.422745 269.93356 60.641495 269.74606Q59.87587 269.5742 59.34462 269.3242L59.34462 267.8867L59.43837 267.8867Q60.00087 268.24606 60.75087 268.49606Q61.50087 268.74606 62.21962 268.74606Q62.71962 268.74606 63.172745 268.60544Q63.62587 268.4648 63.96962 268.12106Q64.28212 267.8398 64.422745 267.43356Q64.578995 267.0117 64.578995 266.48044Q64.578995 265.9492 64.391495 265.5898Q64.21962 265.23044 63.90712 265.0117Q63.547745 264.74606 63.03212 264.6367Q62.53212 264.5273 61.891495 264.5273Q61.297745 264.5273 60.735245 264.62106Q60.18837 264.6992 59.78212 264.7773L59.78212 259.54294L65.90712 259.54294L65.90712 260.73044L61.09462 260.73044L61.09462 263.43356Q61.391495 263.41794 61.68837 263.4023Q62.00087 263.3867 62.235245 263.3867Q63.06337 263.3867 63.672745 263.5273Q64.297745 263.66794 64.828995 264.0273Q65.37587 264.4023 65.672745 264.99606Q65.96962 265.5898 65.96962 266.48044ZM75.047745 264.62106Q75.047745 267.35544 74.18837 268.6523Q73.328995 269.93356 71.516495 269.93356Q69.68837 269.93356 68.84462 268.6367Q68.00087 267.3242 68.00087 264.6367Q68.00087 261.91794 68.84462 260.62106Q69.703995 259.3242 71.516495 259.3242Q73.360245 259.3242 74.203995 260.6523Q75.047745 261.9648 75.047745 264.62106ZM73.25087 267.73044Q73.485245 267.16794 73.56337 266.41794Q73.65712 265.66794 73.65712 264.62106Q73.65712 263.5898 73.56337 262.8242Q73.485245 262.05856 73.235245 261.5117Q73.00087 260.99606 72.578995 260.73044Q72.172745 260.4648 71.516495 260.4648Q70.87587 260.4648 70.453995 260.73044Q70.03212 260.99606 69.797745 261.5273Q69.56337 262.04294 69.46962 262.85544Q69.391495 263.66794 69.391495 264.6367Q69.391495 265.6992 69.453995 266.41794Q69.53212 267.1367 69.78212 267.6992Q70.016495 268.23044 70.422745 268.5117Q70.84462 268.79294 71.516495 268.79294Q72.15712 268.79294 72.578995 268.5273Q73.016495 268.2617 73.25087 267.73044Z" fill-rule="nonzero"/><path fill="#666666" d="M56.46962 209.92963L50.96962 209.92963L50.96962 208.88275L53.078995 208.88275L53.078995 202.07025L50.96962 202.07025L50.96962 201.13275Q51.391495 201.13275 51.87587 201.07025Q52.37587 200.99213 52.62587 200.8515Q52.953995 200.67963 53.12587 200.42963Q53.31337 200.164 53.328995 199.71088L54.391495 199.71088L54.391495 208.88275L56.46962 208.88275L56.46962 209.92963ZM66.047745 204.83588Q66.047745 207.57025 65.18837 208.86713Q64.328995 210.14838 62.516495 210.14838Q60.68837 210.14838 59.84462 208.8515Q59.00087 207.539 59.00087 204.8515Q59.00087 202.13275 59.84462 200.83588Q60.703995 199.539 62.516495 199.539Q64.360245 199.539 65.203995 200.86713Q66.047745 202.17963 66.047745 204.83588ZM64.25087 207.94525Q64.485245 207.38275 64.56337 206.63275Q64.65712 205.88275 64.65712 204.83588Q64.65712 203.80463 64.56337 203.039Q64.485245 202.27338 64.235245 201.7265Q64.00087 201.21088 63.578995 200.94525Q63.172745 200.67963 62.516495 200.67963Q61.87587 200.67963 61.453995 200.94525Q61.03212 201.21088 60.797745 201.74213Q60.56337 202.25775 60.46962 203.07025Q60.391495 203.88275 60.391495 204.8515Q60.391495 205.914 60.453995 206.63275Q60.53212 207.3515 60.78212 207.914Q61.016495 208.44525 61.422745 208.7265Q61.84462 209.00775 62.516495 209.00775Q63.15712 209.00775 63.578995 208.74213Q64.016495 208.4765 64.25087 207.94525ZM75.047745 204.83588Q75.047745 207.57025 74.18837 208.86713Q73.328995 210.14838 71.516495 210.14838Q69.68837 210.14838 68.84462 208.8515Q68.00087 207.539 68.00087 204.8515Q68.00087 202.13275 68.84462 200.83588Q69.703995 199.539 71.516495 199.539Q73.360245 199.539 74.203995 200.86713Q75.047745 202.17963 75.047745 204.83588ZM73.25087 207.94525Q73.485245 207.38275 73.56337 206.63275Q73.65712 205.88275 73.65712 204.83588Q73.65712 203.80463 73.56337 203.039Q73.485245 202.27338 73.235245 201.7265Q73.00087 201.21088 72.578995 200.94525Q72.172745 200.67963 71.516495 200.67963Q70.87587 200.67963 70.453995 200.94525Q70.03212 201.21088 69.797745 201.74213Q69.56337 202.25775 69.46962 203.07025Q69.391495 203.88275 69.391495 204.8515Q69.391495 205.914 69.453995 206.63275Q69.53212 207.3515 69.78212 207.914Q70.016495 208.44525 70.422745 208.7265Q70.84462 209.00775 71.516495 209.00775Q72.15712 209.00775 72.578995 208.74213Q73.016495 208.4765 73.25087 207.94525Z" fill-rule="nonzero"/><path fill="#666666" d="M56.46962 150.14445L50.96962 150.14445L50.96962 149.09758L53.078995 149.09758L53.078995 142.28508L50.96962 142.28508L50.96962 141.34758Q51.391495 141.34758 51.87587 141.28508Q52.37587 141.20695 52.62587 141.06633Q52.953995 140.89445 53.12587 140.64445Q53.31337 140.37883 53.328995 139.9257L54.391495 139.9257L54.391495 149.09758L56.46962 149.09758L56.46962 150.14445ZM65.96962 146.91008Q65.96962 147.62883 65.703995 148.28508Q65.453995 148.9257 65.00087 149.3632Q64.516495 149.84758 63.828995 150.1132Q63.15712 150.3632 62.25087 150.3632Q61.422745 150.3632 60.641495 150.1757Q59.87587 150.00383 59.34462 149.75383L59.34462 148.31633L59.43837 148.31633Q60.00087 148.6757 60.75087 148.9257Q61.50087 149.1757 62.21962 149.1757Q62.71962 149.1757 63.172745 149.03508Q63.62587 148.89445 63.96962 148.5507Q64.28212 148.26945 64.422745 147.8632Q64.578995 147.44133 64.578995 146.91008Q64.578995 146.37883 64.391495 146.01945Q64.21962 145.66008 63.90712 145.44133Q63.547745 145.1757 63.03212 145.06633Q62.53212 144.95695 61.891495 144.95695Q61.297745 144.95695 60.735245 145.0507Q60.18837 145.12883 59.78212 145.20695L59.78212 139.97258L65.90712 139.97258L65.90712 141.16008L61.09462 141.16008L61.09462 143.8632Q61.391495 143.84758 61.68837 143.83195Q62.00087 143.81633 62.235245 143.81633Q63.06337 143.81633 63.672745 143.95695Q64.297745 144.09758 64.828995 144.45695Q65.37587 144.83195 65.672745 145.4257Q65.96962 146.01945 65.96962 146.91008ZM75.047745 145.0507Q75.047745 147.78508 74.18837 149.08195Q73.328995 150.3632 71.516495 150.3632Q69.68837 150.3632 68.84462 149.06633Q68.00087 147.75383 68.00087 145.06633Q68.00087 142.34758 68.84462 141.0507Q69.703995 139.75383 71.516495 139.75383Q73.360245 139.75383 74.203995 141.08195Q75.047745 142.39445 75.047745 145.0507ZM73.25087 148.16008Q73.485245 147.59758 73.56337 146.84758Q73.65712 146.09758 73.65712 145.0507Q73.65712 144.01945 73.56337 143.25383Q73.485245 142.4882 73.235245 141.94133Q73.00087 141.4257 72.578995 141.16008Q72.172745 140.89445 71.516495 140.89445Q70.87587 140.89445 70.453995 141.16008Q70.03212 141.4257 69.797745 141.95695Q69.56337 142.47258 69.46962 143.28508Q69.391495 144.09758 69.391495 145.06633Q69.391495 146.12883 69.453995 146.84758Q69.53212 147.56633 69.78212 148.12883Q70.016495 148.66008 70.422745 148.94133Q70.84462 149.22258 71.516495 149.22258Q72.15712 149.22258 72.578995 148.95695Q73.016495 148.69133 73.25087 148.16008Z" fill-rule="nonzero"/><path fill="#666666" d="M57.047745 90.35927L50.15712 90.35927L50.15712 88.93739Q50.87587 88.31239 51.59462 87.70302Q52.328995 87.07802 52.953995 86.46864Q54.266495 85.20302 54.75087 84.45302Q55.235245 83.70302 55.235245 82.84364Q55.235245 82.04677 54.703995 81.60927Q54.18837 81.15614 53.25087 81.15614Q52.62587 81.15614 51.891495 81.37489Q51.172745 81.59364 50.485245 82.04677L50.422745 82.04677L50.422745 80.60927Q50.90712 80.35927 51.703995 80.17177Q52.516495 79.96864 53.28212 79.96864Q54.84462 79.96864 55.735245 80.73427Q56.62587 81.48427 56.62587 82.76552Q56.62587 83.35927 56.46962 83.85927Q56.328995 84.35927 56.047745 84.81239Q55.78212 85.23427 55.422745 85.64052Q55.06337 86.04677 54.547745 86.54677Q53.81337 87.26552 53.03212 87.93739Q52.25087 88.60927 51.578995 89.18739L57.047745 89.18739L57.047745 90.35927ZM66.047745 85.26552Q66.047745 87.99989 65.18837 89.29677Q64.328995 90.57802 62.516495 90.57802Q60.68837 90.57802 59.84462 89.28114Q59.00087 87.96864 59.00087 85.28114Q59.00087 82.56239 59.84462 81.26552Q60.703995 79.96864 62.516495 79.96864Q64.360245 79.96864 65.203995 81.29677Q66.047745 82.60927 66.047745 85.26552ZM64.25087 88.37489Q64.485245 87.81239 64.56337 87.06239Q64.65712 86.31239 64.65712 85.26552Q64.65712 84.23427 64.56337 83.46864Q64.485245 82.70302 64.235245 82.15614Q64.00087 81.64052 63.578995 81.37489Q63.172745 81.10927 62.516495 81.10927Q61.87587 81.10927 61.453995 81.37489Q61.03212 81.64052 60.797745 82.17177Q60.56337 82.68739 60.46962 83.49989Q60.391495 84.31239 60.391495 85.28114Q60.391495 86.34364 60.453995 87.06239Q60.53212 87.78114 60.78212 88.34364Q61.016495 88.87489 61.422745 89.15614Q61.84462 89.43739 62.516495 89.43739Q63.15712 89.43739 63.578995 89.17177Q64.016495 88.90614 64.25087 88.37489ZM75.047745 85.26552Q75.047745 87.99989 74.18837 89.29677Q73.328995 90.57802 71.516495 90.57802Q69.68837 90.57802 68.84462 89.28114Q68.00087 87.96864 68.00087 85.28114Q68.00087 82.56239 68.84462 81.26552Q69.703995 79.96864 71.516495 79.96864Q73.360245 79.96864 74.203995 81.29677Q75.047745 82.60927 75.047745 85.26552ZM73.25087 88.37489Q73.485245 87.81239 73.56337 87.06239Q73.65712 86.31239 73.65712 85.26552Q73.65712 84.23427 73.56337 83.46864Q73.485245 82.70302 73.235245 82.15614Q73.00087 81.64052 72.578995 81.37489Q72.172745 81.10927 71.516495 81.10927Q70.87587 81.10927 70.453995 81.37489Q70.03212 81.64052 69.797745 82.17177Q69.56337 82.68739 69.46962 83.49989Q69.391495 84.31239 69.391495 85.28114Q69.391495 86.34364 69.453995 87.06239Q69.53212 87.78114 69.78212 88.34364Q70.016495 88.87489 70.422745 89.15614Q70.84462 89.43739 71.516495 89.43739Q72.15712 89.43739 72.578995 89.17177Q73.016495 88.90614 73.25087 88.37489Z" fill-rule="nonzero"/><path fill="#666666" d="M86.547745 346.40625Q86.547745 349.14062 85.68837 350.4375Q84.828995 351.71875 83.016495 351.71875Q81.18837 351.71875 80.34462 350.42188Q79.50087 349.10938 79.50087 346.42188Q79.50087 343.70312 80.34462 342.40625Q81.203995 341.10938 83.016495 341.10938Q84.860245 341.10938 85.703995 342.4375Q86.547745 343.75 86.547745 346.40625ZM84.75087 349.51562Q84.985245 348.95312 85.06337 348.20312Q85.15712 347.45312 85.15712 346.40625Q85.15712 345.375 85.06337 344.60938Q84.985245 343.84375 84.735245 343.29688Q84.50087 342.78125 84.078995 342.51562Q83.672745 342.25 83.016495 342.25Q82.37587 342.25 81.953995 342.51562Q81.53212 342.78125 81.297745 343.3125Q81.06337 343.82812 80.96962 344.64062Q80.891495 345.45312 80.891495 346.42188Q80.891495 347.48438 80.953995 348.20312Q81.03212 348.92188 81.28212 349.48438Q81.516495 350.01562 81.922745 350.29688Q82.34462 350.57812 83.016495 350.57812Q83.65712 350.57812 84.078995 350.3125Q84.516495 350.04688 84.75087 349.51562Z" fill-rule="nonzero"/><path fill="#666666" d="M143.86348 348.26562Q143.86348 348.98438 143.59785 349.64062Q143.34785 350.28125 142.89473 350.71875Q142.41035 351.20312 141.72285 351.46875Q141.05098 351.71875 140.14473 351.71875Q139.3166 351.71875 138.53535 351.53125Q137.76973 351.35938 137.23848 351.10938L137.23848 349.67188L137.33223 349.67188Q137.89473 350.03125 138.64473 350.28125Q139.39473 350.53125 140.11348 350.53125Q140.61348 350.53125 141.0666 350.39062Q141.51973 350.25 141.86348 349.90625Q142.17598 349.625 142.3166 349.21875Q142.47285 348.79688 142.47285 348.26562Q142.47285 347.73438 142.28535 347.375Q142.11348 347.01562 141.80098 346.79688Q141.4416 346.53125 140.92598 346.42188Q140.42598 346.3125 139.78535 346.3125Q139.1916 346.3125 138.6291 346.40625Q138.08223 346.48438 137.67598 346.5625L137.67598 341.32812L143.80098 341.32812L143.80098 342.51562L138.98848 342.51562L138.98848 345.21875Q139.28535 345.20312 139.58223 345.1875Q139.89473 345.17188 140.1291 345.17188Q140.95723 345.17188 141.5666 345.3125Q142.1916 345.45312 142.72285 345.8125Q143.26973 346.1875 143.5666 346.78125Q143.86348 347.375 143.86348 348.26562Z" fill-rule="nonzero"/><path fill="#666666" d="M196.25734 351.5L190.75734 351.5L190.75734 350.45312L192.86671 350.45312L192.86671 343.64062L190.75734 343.64062L190.75734 342.70312Q191.17921 342.70312 191.66359 342.64062Q192.16359 342.5625 192.41359 342.42188Q192.74171 342.25 192.91359 342.0Q193.10109 341.73438 193.11671 341.28125L194.17921 341.28125L194.17921 350.45312L196.25734 350.45312L196.25734 351.5ZM205.83546 346.40625Q205.83546 349.14062 204.97609 350.4375Q204.11671 351.71875 202.30421 351.71875Q200.47609 351.71875 199.63234 350.42188Q198.78859 349.10938 198.78859 346.42188Q198.78859 343.70312 199.63234 342.40625Q200.49171 341.10938 202.30421 341.10938Q204.14796 341.10938 204.99171 342.4375Q205.83546 343.75 205.83546 346.40625ZM204.03859 349.51562Q204.27296 348.95312 204.35109 348.20312Q204.44484 347.45312 204.44484 346.40625Q204.44484 345.375 204.35109 344.60938Q204.27296 343.84375 204.02296 343.29688Q203.78859 342.78125 203.36671 342.51562Q202.96046 342.25 202.30421 342.25Q201.66359 342.25 201.24171 342.51562Q200.81984 342.78125 200.58546 343.3125Q200.35109 343.82812 200.25734 344.64062Q200.17921 345.45312 200.17921 346.42188Q200.17921 347.48438 200.24171 348.20312Q200.31984 348.92188 200.56984 349.48438Q200.80421 350.01562 201.21046 350.29688Q201.63234 350.57812 202.30421 350.57812Q202.94484 350.57812 203.36671 350.3125Q203.80421 350.04688 204.03859 349.51562Z" fill-rule="nonzero"/><path fill="#666666" d="M253.6512 351.5L248.1512 351.5L248.1512 350.45312L250.26057 350.45312L250.26057 343.64062L248.1512 343.64062L248.1512 342.70312Q248.57307 342.70312 249.05745 342.64062Q249.55745 342.5625 249.80745 342.42188Q250.13557 342.25 250.30745 342.0Q250.49495 341.73438 250.51057 341.28125L251.57307 341.28125L251.57307 350.45312L253.6512 350.45312L253.6512 351.5ZM263.15118 348.26562Q263.15118 348.98438 262.88556 349.64062Q262.63556 350.28125 262.18243 350.71875Q261.69806 351.20312 261.01056 351.46875Q260.33868 351.71875 259.43243 351.71875Q258.6043 351.71875 257.82306 351.53125Q257.05743 351.35938 256.52618 351.10938L256.52618 349.67188L256.61993 349.67188Q257.18243 350.03125 257.93243 350.28125Q258.68243 350.53125 259.40118 350.53125Q259.90118 350.53125 260.3543 350.39062Q260.80743 350.25 261.15118 349.90625Q261.46368 349.625 261.6043 349.21875Q261.76056 348.79688 261.76056 348.26562Q261.76056 347.73438 261.57306 347.375Q261.40118 347.01562 261.08868 346.79688Q260.7293 346.53125 260.21368 346.42188Q259.71368 346.3125 259.07306 346.3125Q258.4793 346.3125 257.9168 346.40625Q257.36993 346.48438 256.96368 346.5625L256.96368 341.32812L263.08868 341.32812L263.08868 342.51562L258.27618 342.51562L258.27618 345.21875Q258.57306 345.20312 258.86993 345.1875Q259.18243 345.17188 259.4168 345.17188Q260.24493 345.17188 260.8543 345.3125Q261.4793 345.45312 262.01056 345.8125Q262.55743 346.1875 262.8543 346.78125Q263.15118 347.375 263.15118 348.26562Z" fill-rule="nonzero"/><path fill="#666666" d="M311.6232 351.5L304.73257 351.5L304.73257 350.07812Q305.45132 349.45312 306.17007 348.84375Q306.90445 348.21875 307.52945 347.60938Q308.84195 346.34375 309.32632 345.59375Q309.8107 344.84375 309.8107 343.98438Q309.8107 343.1875 309.27945 342.75Q308.76382 342.29688 307.82632 342.29688Q307.20132 342.29688 306.46695 342.51562Q305.7482 342.73438 305.0607 343.1875L304.9982 343.1875L304.9982 341.75Q305.48257 341.5 306.27945 341.3125Q307.09195 341.10938 307.85757 341.10938Q309.42007 341.10938 310.3107 341.875Q311.20132 342.625 311.20132 343.90625Q311.20132 344.5 311.04507 345.0Q310.90445 345.5 310.6232 345.95312Q310.35757 346.375 309.9982 346.78125Q309.63882 347.1875 309.1232 347.6875Q308.38882 348.40625 307.60757 349.07812Q306.82632 349.75 306.15445 350.32812L311.6232 350.32812L311.6232 351.5ZM320.6232 346.40625Q320.6232 349.14062 319.76382 350.4375Q318.90445 351.71875 317.09195 351.71875Q315.26382 351.71875 314.42007 350.42188Q313.57632 349.10938 313.57632 346.42188Q313.57632 343.70312 314.42007 342.40625Q315.27945 341.10938 317.09195 341.10938Q318.9357 341.10938 319.77945 342.4375Q320.6232 343.75 320.6232 346.40625ZM318.82632 349.51562Q319.0607 348.95312 319.13882 348.20312Q319.23257 347.45312 319.23257 346.40625Q319.23257 345.375 319.13882 344.60938Q319.0607 343.84375 318.8107 343.29688Q318.57632 342.78125 318.15445 342.51562Q317.7482 342.25 317.09195 342.25Q316.45132 342.25 316.02945 342.51562Q315.60757 342.78125 315.3732 343.3125Q315.13882 343.82812 315.04507 344.64062Q314.96695 345.45312 314.96695 346.42188Q314.96695 347.48438 315.02945 348.20312Q315.10757 348.92188 315.35757 349.48438Q315.59195 350.01562 315.9982 350.29688Q316.42007 350.57812 317.09195 350.57812Q317.73257 350.57812 318.15445 350.3125Q318.59195 350.04688 318.82632 349.51562Z" fill-rule="nonzero"/><path fill="#666666" d="M369.01706 351.5L362.12643 351.5L362.12643 350.07812Q362.84518 349.45312 363.56393 348.84375Q364.2983 348.21875 364.9233 347.60938Q366.2358 346.34375 366.72018 345.59375Q367.20456 344.84375 367.20456 343.98438Q367.20456 343.1875 366.6733 342.75Q366.15768 342.29688 365.22018 342.29688Q364.59518 342.29688 363.8608 342.51562Q363.14206 342.73438 362.45456 343.1875L362.39206 343.1875L362.39206 341.75Q362.87643 341.5 363.6733 341.3125Q364.4858 341.10938 365.25143 341.10938Q366.81393 341.10938 367.70456 341.875Q368.59518 342.625 368.59518 343.90625Q368.59518 344.5 368.43893 345.0Q368.2983 345.5 368.01706 345.95312Q367.75143 346.375 367.39206 346.78125Q367.03268 347.1875 366.51706 347.6875Q365.78268 348.40625 365.00143 349.07812Q364.22018 349.75 363.5483 350.32812L369.01706 350.32812L369.01706 351.5ZM377.93893 348.26562Q377.93893 348.98438 377.6733 349.64062Q377.4233 350.28125 376.97018 350.71875Q376.4858 351.20312 375.7983 351.46875Q375.12643 351.71875 374.22018 351.71875Q373.39206 351.71875 372.6108 351.53125Q371.84518 351.35938 371.31393 351.10938L371.31393 349.67188L371.40768 349.67188Q371.97018 350.03125 372.72018 350.28125Q373.47018 350.53125 374.18893 350.53125Q374.68893 350.53125 375.14206 350.39062Q375.59518 350.25 375.93893 349.90625Q376.25143 349.625 376.39206 349.21875Q376.5483 348.79688 376.5483 348.26562Q376.5483 347.73438 376.3608 347.375Q376.18893 347.01562 375.87643 346.79688Q375.51706 346.53125 375.00143 346.42188Q374.50143 346.3125 373.8608 346.3125Q373.26706 346.3125 372.70456 346.40625Q372.15768 346.48438 371.75143 346.5625L371.75143 341.32812L377.87643 341.32812L377.87643 342.51562L373.06393 342.51562L373.06393 345.21875Q373.3608 345.20312 373.65768 345.1875Q373.97018 345.17188 374.20456 345.17188Q375.03268 345.17188 375.64206 345.3125Q376.26706 345.45312 376.7983 345.8125Q377.34518 346.1875 377.64206 346.78125Q377.93893 347.375 377.93893 348.26562Z" fill-rule="nonzero"/><path fill="#666666" d="M425.5203 346.59375Q425.84842 346.89062 426.05154 347.34375Q426.2703 347.78125 426.2703 348.48438Q426.2703 349.1875 426.0203 349.76562Q425.7703 350.34375 425.31717 350.78125Q424.80154 351.25 424.09842 351.48438Q423.41092 351.71875 422.5828 351.71875Q421.73904 351.71875 420.91092 351.51562Q420.09842 351.3125 419.56717 351.0625L419.56717 349.64062L419.67654 349.64062Q420.25467 350.01562 421.03592 350.28125Q421.81717 350.53125 422.55154 350.53125Q422.98904 350.53125 423.47342 350.39062Q423.9578 350.23438 424.25467 349.96875Q424.56717 349.65625 424.72342 349.29688Q424.87967 348.9375 424.87967 348.375Q424.87967 347.82812 424.7078 347.48438Q424.53592 347.125 424.22342 346.90625Q423.91092 346.70312 423.47342 346.625Q423.03592 346.54688 422.53592 346.54688L421.92654 346.54688L421.92654 345.40625L422.3953 345.40625Q423.44217 345.40625 424.05154 344.98438Q424.67654 344.54688 424.67654 343.70312Q424.67654 343.34375 424.5203 343.0625Q424.36404 342.78125 424.0828 342.60938Q423.78592 342.42188 423.44217 342.35938Q423.11404 342.29688 422.69217 342.29688Q422.03592 342.29688 421.30154 342.53125Q420.5828 342.75 419.92654 343.1875L419.86404 343.1875L419.86404 341.75Q420.34842 341.51562 421.16092 341.3125Q421.97342 341.10938 422.72342 341.10938Q423.47342 341.10938 424.03592 341.25Q424.61404 341.375 425.06717 341.6875Q425.55154 342.01562 425.80154 342.48438Q426.06717 342.9375 426.06717 343.5625Q426.06717 344.40625 425.4578 345.04688Q424.86404 345.67188 424.05154 345.84375L424.05154 345.9375Q424.37967 345.98438 424.80154 346.17188Q425.22342 346.34375 425.5203 346.59375ZM435.41092 346.40625Q435.41092 349.14062 434.55154 350.4375Q433.69217 351.71875 431.87967 351.71875Q430.05154 351.71875 429.2078 350.42188Q428.36404 349.10938 428.36404 346.42188Q428.36404 343.70312 429.2078 342.40625Q430.06717 341.10938 431.87967 341.10938Q433.72342 341.10938 434.56717 342.4375Q435.41092 343.75 435.41092 346.40625ZM433.61404 349.51562Q433.84842 348.95312 433.92654 348.20312Q434.0203 347.45312 434.0203 346.40625Q434.0203 345.375 433.92654 344.60938Q433.84842 343.84375 433.59842 343.29688Q433.36404 342.78125 432.94217 342.51562Q432.53592 342.25 431.87967 342.25Q431.23904 342.25 430.81717 342.51562Q430.3953 342.78125 430.16092 343.3125Q429.92654 343.82812 429.8328 344.64062Q429.75467 345.45312 429.75467 346.42188Q429.75467 347.48438 429.81717 348.20312Q429.8953 348.92188 430.1453 349.48438Q430.37967 350.01562 430.78592 350.29688Q431.2078 350.57812 431.87967 350.57812Q432.5203 350.57812 432.94217 350.3125Q433.37967 350.04688 433.61404 349.51562Z" fill-rule="nonzero"/><path fill="#666666" d="M482.91415 346.59375Q483.24228 346.89062 483.4454 347.34375Q483.66415 347.78125 483.66415 348.48438Q483.66415 349.1875 483.41415 349.76562Q483.16415 350.34375 482.71103 350.78125Q482.1954 351.25 481.49228 351.48438Q480.80478 351.71875 479.97665 351.71875Q479.1329 351.71875 478.30478 351.51562Q477.49228 351.3125 476.96103 351.0625L476.96103 349.64062L477.0704 349.64062Q477.64853 350.01562 478.42978 350.28125Q479.21103 350.53125 479.9454 350.53125Q480.3829 350.53125 480.86728 350.39062Q481.35165 350.23438 481.64853 349.96875Q481.96103 349.65625 482.11728 349.29688Q482.27353 348.9375 482.27353 348.375Q482.27353 347.82812 482.10165 347.48438Q481.92978 347.125 481.61728 346.90625Q481.30478 346.70312 480.86728 346.625Q480.42978 346.54688 479.92978 346.54688L479.3204 346.54688L479.3204 345.40625L479.78915 345.40625Q480.83603 345.40625 481.4454 344.98438Q482.0704 344.54688 482.0704 343.70312Q482.0704 343.34375 481.91415 343.0625Q481.7579 342.78125 481.47665 342.60938Q481.17978 342.42188 480.83603 342.35938Q480.5079 342.29688 480.08603 342.29688Q479.42978 342.29688 478.6954 342.53125Q477.97665 342.75 477.3204 343.1875L477.2579 343.1875L477.2579 341.75Q477.74228 341.51562 478.55478 341.3125Q479.36728 341.10938 480.11728 341.10938Q480.86728 341.10938 481.42978 341.25Q482.0079 341.375 482.46103 341.6875Q482.9454 342.01562 483.1954 342.48438Q483.46103 342.9375 483.46103 343.5625Q483.46103 344.40625 482.85165 345.04688Q482.2579 345.67188 481.4454 345.84375L481.4454 345.9375Q481.77353 345.98438 482.1954 346.17188Q482.61728 346.34375 482.91415 346.59375ZM492.72665 348.26562Q492.72665 348.98438 492.46103 349.64062Q492.21103 350.28125 491.7579 350.71875Q491.27353 351.20312 490.58603 351.46875Q489.91415 351.71875 489.0079 351.71875Q488.17978 351.71875 487.39853 351.53125Q486.6329 351.35938 486.10165 351.10938L486.10165 349.67188L486.1954 349.67188Q486.7579 350.03125 487.5079 350.28125Q488.2579 350.53125 488.97665 350.53125Q489.47665 350.53125 489.92978 350.39062Q490.3829 350.25 490.72665 349.90625Q491.03915 349.625 491.17978 349.21875Q491.33603 348.79688 491.33603 348.26562Q491.33603 347.73438 491.14853 347.375Q490.97665 347.01562 490.66415 346.79688Q490.30478 346.53125 489.78915 346.42188Q489.28915 346.3125 488.64853 346.3125Q488.05478 346.3125 487.49228 346.40625Q486.9454 346.48438 486.53915 346.5625L486.53915 341.32812L492.66415 341.32812L492.66415 342.51562L487.85165 342.51562L487.85165 345.21875Q488.14853 345.20312 488.4454 345.1875Q488.7579 345.17188 488.99228 345.17188Q489.8204 345.17188 490.42978 345.3125Q491.05478 345.45312 491.58603 345.8125Q492.1329 346.1875 492.42978 346.78125Q492.72665 347.375 492.72665 348.26562Z" fill-rule="nonzero"/><path fill="#666666" d="M541.433 348.64062L539.933 348.64062L539.933 351.5L538.6205 351.5L538.6205 348.64062L533.7455 348.64062L533.7455 347.0625L538.66736 341.32812L539.933 341.32812L539.933 347.54688L541.433 347.54688L541.433 348.64062ZM538.6205 347.54688L538.6205 342.95312L534.66736 347.54688L538.6205 347.54688ZM550.1986 346.40625Q550.1986 349.14062 549.33923 350.4375Q548.47986 351.71875 546.66736 351.71875Q544.83923 351.71875 543.9955 350.42188Q543.15173 349.10938 543.15173 346.42188Q543.15173 343.70312 543.9955 342.40625Q544.85486 341.10938 546.66736 341.10938Q548.5111 341.10938 549.35486 342.4375Q550.1986 343.75 550.1986 346.40625ZM548.40173 349.51562Q548.6361 348.95312 548.71423 348.20312Q548.808 347.45312 548.808 346.40625Q548.808 345.375 548.71423 344.60938Q548.6361 343.84375 548.3861 343.29688Q548.15173 342.78125 547.72986 342.51562Q547.3236 342.25 546.66736 342.25Q546.02673 342.25 545.60486 342.51562Q545.183 342.78125 544.9486 343.3125Q544.71423 343.82812 544.6205 344.64062Q544.54236 345.45312 544.54236 346.42188Q544.54236 347.48438 544.60486 348.20312Q544.683 348.92188 544.933 349.48438Q545.16736 350.01562 545.5736 350.29688Q545.9955 350.57812 546.66736 350.57812Q547.308 350.57812 547.72986 350.3125Q548.16736 350.04688 548.40173 349.51562Z" fill-rule="nonzero"/><path fill="#666666" d="M598.82684 348.64062L597.32684 348.64062L597.32684 351.5L596.01434 351.5L596.01434 348.64062L591.13934 348.64062L591.13934 347.0625L596.0612 341.32812L597.32684 341.32812L597.32684 347.54688L598.82684 347.54688L598.82684 348.64062ZM596.01434 347.54688L596.01434 342.95312L592.0612 347.54688L596.01434 347.54688ZM607.51434 348.26562Q607.51434 348.98438 607.2487 349.64062Q606.9987 350.28125 606.5456 350.71875Q606.0612 351.20312 605.3737 351.46875Q604.70184 351.71875 603.7956 351.71875Q602.96747 351.71875 602.1862 351.53125Q601.4206 351.35938 600.88934 351.10938L600.88934 349.67188L600.9831 349.67188Q601.5456 350.03125 602.2956 350.28125Q603.0456 350.53125 603.76434 350.53125Q604.26434 350.53125 604.71747 350.39062Q605.1706 350.25 605.51434 349.90625Q605.82684 349.625 605.96747 349.21875Q606.1237 348.79688 606.1237 348.26562Q606.1237 347.73438 605.9362 347.375Q605.76434 347.01562 605.45184 346.79688Q605.09247 346.53125 604.57684 346.42188Q604.07684 346.3125 603.4362 346.3125Q602.84247 346.3125 602.27997 346.40625Q601.7331 346.48438 601.32684 346.5625L601.32684 341.32812L607.45184 341.32812L607.45184 342.51562L602.63934 342.51562L602.63934 345.21875Q602.9362 345.20312 603.2331 345.1875Q603.5456 345.17188 603.77997 345.17188Q604.6081 345.17188 605.21747 345.3125Q605.84247 345.45312 606.3737 345.8125Q606.9206 346.1875 607.21747 346.78125Q607.51434 347.375 607.51434 348.26562Z" fill-rule="nonzero"/><path fill="#666666" d="M655.9082 348.26562Q655.9082 348.98438 655.6426 349.64062Q655.3926 350.28125 654.93945 350.71875Q654.4551 351.20312 653.7676 351.46875Q653.0957 351.71875 652.18945 351.71875Q651.3613 351.71875 650.5801 351.53125Q649.81445 351.35938 649.2832 351.10938L649.2832 349.67188L649.37695 349.67188Q649.93945 350.03125 650.68945 350.28125Q651.43945 350.53125 652.1582 350.53125Q652.6582 350.53125 653.1113 350.39062Q653.56445 350.25 653.9082 349.90625Q654.2207 349.625 654.3613 349.21875Q654.5176 348.79688 654.5176 348.26562Q654.5176 347.73438 654.3301 347.375Q654.1582 347.01562 653.8457 346.79688Q653.4863 346.53125 652.9707 346.42188Q652.4707 346.3125 651.8301 346.3125Q651.2363 346.3125 650.6738 346.40625Q650.12695 346.48438 649.7207 346.5625L649.7207 341.32812L655.8457 341.32812L655.8457 342.51562L651.0332 342.51562L651.0332 345.21875Q651.3301 345.20312 651.62695 345.1875Q651.93945 345.17188 652.1738 345.17188Q653.00195 345.17188 653.6113 345.3125Q654.2363 345.45312 654.7676 345.8125Q655.31445 346.1875 655.6113 346.78125Q655.9082 347.375 655.9082 348.26562ZM664.9863 346.40625Q664.9863 349.14062 664.12695 350.4375Q663.2676 351.71875 661.4551 351.71875Q659.62695 351.71875 658.7832 350.42188Q657.93945 349.10938 657.93945 346.42188Q657.93945 343.70312 658.7832 342.40625Q659.6426 341.10938 661.4551 341.10938Q663.2988 341.10938 664.1426 342.4375Q664.9863 343.75 664.9863 346.40625ZM663.18945 349.51562Q663.4238 348.95312 663.50195 348.20312Q663.5957 347.45312 663.5957 346.40625Q663.5957 345.375 663.50195 344.60938Q663.4238 343.84375 663.1738 343.29688Q662.93945 342.78125 662.5176 342.51562Q662.1113 342.25 661.4551 342.25Q660.81445 342.25 660.3926 342.51562Q659.9707 342.78125 659.7363 343.3125Q659.50195 343.82812 659.4082 344.64062Q659.3301 345.45312 659.3301 346.42188Q659.3301 347.48438 659.3926 348.20312Q659.4707 348.92188 659.7207 349.48438Q659.9551 350.01562 660.3613 350.29688Q660.7832 350.57812 661.4551 350.57812Q662.0957 350.57812 662.5176 350.3125Q662.9551 350.04688 663.18945 349.51562Z" fill-rule="nonzero"/><path fill="#666666" d="M200.61862 25.726227L195.4155 25.726227L195.4155 38.55435L193.49362 38.55435L193.49362 25.726227L188.2905 25.726227L188.2905 24.007477L200.61862 24.007477L200.61862 25.726227ZM211.39987 33.101227Q211.39987 35.7731 210.02487 37.319977Q208.6655 38.851227 206.36862 38.851227Q204.05612 38.851227 202.68112 37.319977Q201.32175 35.7731 201.32175 33.101227Q201.32175 30.444977 202.68112 28.898102Q204.05612 27.335602 206.36862 27.335602Q208.6655 27.335602 210.02487 28.898102Q211.39987 30.444977 211.39987 33.101227ZM209.49362 33.101227Q209.49362 30.991852 208.6655 29.960602Q207.83737 28.929352 206.36862 28.929352Q204.86862 28.929352 204.0405 29.960602Q203.228 30.991852 203.228 33.101227Q203.228 35.1481 204.05612 36.2106Q204.88425 37.2731 206.36862 37.2731Q207.83737 37.2731 208.6655 36.226227Q209.49362 35.17935 209.49362 33.101227ZM223.99362 38.55435L221.57175 38.55435L217.19675 33.7731L216.00925 34.913727L216.00925 38.55435L214.18112 38.55435L214.18112 23.351227L216.00925 23.351227L216.00925 33.101227L221.32175 27.648102L223.63425 27.648102L218.55612 32.67935L223.99362 38.55435ZM235.228 33.288727L227.19675 33.288727Q227.19675 34.288727 227.49362 35.038727Q227.7905 35.788727 228.32175 36.2731Q228.83737 36.74185 229.52487 36.976227Q230.228 37.2106 231.07175 37.2106Q232.18112 37.2106 233.30612 36.7731Q234.43112 36.319977 234.9155 35.882477L235.00925 35.882477L235.00925 37.882477Q234.08737 38.2731 233.11862 38.538727Q232.14987 38.80435 231.08737 38.80435Q228.36862 38.80435 226.83737 37.3356Q225.32175 35.86685 225.32175 33.163727Q225.32175 30.491852 226.77487 28.913727Q228.24362 27.335602 230.63425 27.335602Q232.83737 27.335602 234.02487 28.632477Q235.228 29.913727 235.228 32.288727L235.228 33.288727ZM233.44675 31.882477Q233.43112 30.444977 232.71237 29.648102Q231.99362 28.851227 230.52487 28.851227Q229.05612 28.851227 228.18112 29.726227Q227.30612 30.601227 227.19675 31.882477L233.44675 31.882477ZM239.94675 38.55435L238.11862 38.55435L238.11862 23.351227L239.94675 23.351227L239.94675 38.55435ZM262.478 37.49185Q261.93112 37.726227 261.49362 37.944977Q261.07175 38.1481 260.36862 38.36685Q259.77487 38.55435 259.07175 38.67935Q258.36862 38.819977 257.5405 38.819977Q255.94675 38.819977 254.64987 38.382477Q253.36862 37.92935 252.39987 36.976227Q251.46237 36.05435 250.93112 34.632477Q250.4155 33.194977 250.4155 31.304352Q250.4155 29.507477 250.9155 28.085602Q251.43112 26.663727 252.38425 25.694977Q253.32175 24.741852 254.63425 24.241852Q255.94675 23.741852 257.5405 23.741852Q258.71237 23.741852 259.88425 24.038727Q261.05612 24.319977 262.478 25.023102L262.478 27.319977L262.32175 27.319977Q261.13425 26.319977 259.94675 25.866852Q258.75925 25.398102 257.4155 25.398102Q256.30612 25.398102 255.4155 25.757477Q254.5405 26.116852 253.853 26.866852Q253.18112 27.601227 252.80612 28.726227Q252.43112 29.835602 252.43112 31.304352Q252.43112 32.8356 252.83737 33.944977Q253.25925 35.038727 253.9155 35.726227Q254.58737 36.4606 255.49362 36.80435Q256.4155 37.1481 257.43112 37.1481Q258.83737 37.1481 260.05612 36.67935Q261.27487 36.194977 262.33737 35.226227L262.478 35.226227L262.478 37.49185ZM274.39987 33.101227Q274.39987 35.7731 273.02487 37.319977Q271.6655 38.851227 269.36862 38.851227Q267.05612 38.851227 265.68112 37.319977Q264.32175 35.7731 264.32175 33.101227Q264.32175 30.444977 265.68112 28.898102Q267.05612 27.335602 269.36862 27.335602Q271.6655 27.335602 273.02487 28.898102Q274.39987 30.444977 274.39987 33.101227ZM272.49362 33.101227Q272.49362 30.991852 271.6655 29.960602Q270.83737 28.929352 269.36862 28.929352Q267.86862 28.929352 267.0405 29.960602Q266.228 30.991852 266.228 33.101227Q266.228 35.1481 267.05612 36.2106Q267.88425 37.2731 269.36862 37.2731Q270.83737 37.2731 271.6655 36.226227Q272.49362 35.17935 272.49362 33.101227ZM279.07175 25.819977L276.99362 25.819977L276.99362 23.913727L279.07175 23.913727L279.07175 25.819977ZM278.94675 38.55435L277.11862 38.55435L277.11862 27.648102L278.94675 27.648102L278.94675 38.55435ZM292.21237 38.55435L290.38425 38.55435L290.38425 32.3356Q290.38425 31.585602 290.2905 30.929352Q290.21237 30.273102 289.978 29.898102Q289.728 29.491852 289.25925 29.288727Q288.80612 29.085602 288.07175 29.085602Q287.32175 29.085602 286.49362 29.460602Q285.68112 29.835602 284.93112 30.413727L284.93112 38.55435L283.103 38.55435L283.103 27.648102L284.93112 27.648102L284.93112 28.851227Q285.7905 28.148102 286.71237 27.741852Q287.63425 27.335602 288.603 27.335602Q290.36862 27.335602 291.2905 28.413727Q292.21237 29.476227 292.21237 31.476227L292.21237 38.55435ZM312.82175 38.55435L303.24362 38.55435L303.24362 24.007477L312.82175 24.007477L312.82175 25.726227L305.18112 25.726227L305.18112 29.710602L312.82175 29.710602L312.82175 31.429352L305.18112 31.429352L305.18112 36.8356L312.82175 36.8356L312.82175 38.55435ZM332.00925 38.55435L330.18112 38.55435L330.18112 32.3356Q330.18112 31.632477 330.11862 30.991852Q330.05612 30.335602 329.853 29.944977Q329.61862 29.523102 329.19675 29.304352Q328.7905 29.085602 327.99362 29.085602Q327.228 29.085602 326.44675 29.476227Q325.68112 29.866852 324.89987 30.460602Q324.93112 30.679352 324.94675 30.976227Q324.978 31.273102 324.978 31.569977L324.978 38.55435L323.13425 38.55435L323.13425 32.3356Q323.13425 31.616852 323.07175 30.976227Q323.00925 30.319977 322.80612 29.929352Q322.58737 29.507477 322.1655 29.304352Q321.74362 29.085602 320.94675 29.085602Q320.19675 29.085602 319.43112 29.460602Q318.68112 29.835602 317.93112 30.413727L317.93112 38.55435L316.103 38.55435L316.103 27.648102L317.93112 27.648102L317.93112 28.851227Q318.7905 28.148102 319.64987 27.741852Q320.50925 27.335602 321.46237 27.335602Q322.58737 27.335602 323.353 27.804352Q324.13425 28.273102 324.50925 29.116852Q325.63425 28.179352 326.5405 27.757477Q327.46237 27.335602 328.50925 27.335602Q330.30612 27.335602 331.14987 28.429352Q332.00925 29.523102 332.00925 31.476227L332.00925 38.55435ZM337.07175 25.819977L334.99362 25.819977L334.99362 23.913727L337.07175 23.913727L337.07175 25.819977ZM336.94675 38.55435L335.11862 38.55435L335.11862 27.648102L336.94675 27.648102L336.94675 38.55435ZM348.88425 35.413727Q348.88425 36.8981 347.64987 37.86685Q346.4155 38.819977 344.27487 38.819977Q343.07175 38.819977 342.05612 38.538727Q341.05612 38.24185 340.36862 37.8981L340.36862 35.8356L340.46237 35.8356Q341.33737 36.49185 342.39987 36.882477Q343.46237 37.257477 344.43112 37.257477Q345.64987 37.257477 346.32175 36.86685Q347.00925 36.476227 347.00925 35.6481Q347.00925 34.99185 346.64987 34.663727Q346.27487 34.3356 345.21237 34.101227Q344.82175 34.007477 344.19675 33.8981Q343.57175 33.7731 343.05612 33.6481Q341.61862 33.257477 341.00925 32.5231Q340.4155 31.788727 340.4155 30.710602Q340.4155 30.038727 340.69675 29.444977Q340.978 28.851227 341.5405 28.382477Q342.08737 27.913727 342.93112 27.648102Q343.77487 27.382477 344.82175 27.382477Q345.7905 27.382477 346.7905 27.632477Q347.7905 27.866852 348.46237 28.194977L348.46237 30.163727L348.36862 30.163727Q347.6655 29.648102 346.64987 29.288727Q345.64987 28.929352 344.68112 28.929352Q343.68112 28.929352 342.978 29.319977Q342.2905 29.710602 342.2905 30.460602Q342.2905 31.148102 342.71237 31.476227Q343.11862 31.819977 344.0405 32.038727Q344.5405 32.163727 345.1655 32.288727Q345.80612 32.3981 346.228 32.49185Q347.50925 32.788727 348.19675 33.49185Q348.88425 34.2106 348.88425 35.413727ZM358.88425 35.413727Q358.88425 36.8981 357.64987 37.86685Q356.4155 38.819977 354.27487 38.819977Q353.07175 38.819977 352.05612 38.538727Q351.05612 38.24185 350.36862 37.8981L350.36862 35.8356L350.46237 35.8356Q351.33737 36.49185 352.39987 36.882477Q353.46237 37.257477 354.43112 37.257477Q355.64987 37.257477 356.32175 36.86685Q357.00925 36.476227 357.00925 35.6481Q357.00925 34.99185 356.64987 34.663727Q356.27487 34.3356 355.21237 34.101227Q354.82175 34.007477 354.19675 33.8981Q353.57175 33.7731 353.05612 33.6481Q351.61862 33.257477 351.00925 32.5231Q350.4155 31.788727 350.4155 30.710602Q350.4155 30.038727 350.69675 29.444977Q350.978 28.851227 351.5405 28.382477Q352.08737 27.913727 352.93112 27.648102Q353.77487 27.382477 354.82175 27.382477Q355.7905 27.382477 356.7905 27.632477Q357.7905 27.866852 358.46237 28.194977L358.46237 30.163727L358.36862 30.163727Q357.6655 29.648102 356.64987 29.288727Q355.64987 28.929352 354.68112 28.929352Q353.68112 28.929352 352.978 29.319977Q352.2905 29.710602 352.2905 30.460602Q352.2905 31.148102 352.71237 31.476227Q353.11862 31.819977 354.0405 32.038727Q354.5405 32.163727 355.1655 32.288727Q355.80612 32.3981 356.228 32.49185Q357.50925 32.788727 358.19675 33.49185Q358.88425 34.2106 358.88425 35.413727ZM363.07175 25.819977L360.99362 25.819977L360.99362 23.913727L363.07175 23.913727L363.07175 25.819977ZM362.94675 38.55435L361.11862 38.55435L361.11862 27.648102L362.94675 27.648102L362.94675 38.55435ZM376.39987 33.101227Q376.39987 35.7731 375.02487 37.319977Q373.6655 38.851227 371.36862 38.851227Q369.05612 38.851227 367.68112 37.319977Q366.32175 35.7731 366.32175 33.101227Q366.32175 30.444977 367.68112 28.898102Q369.05612 27.335602 371.36862 27.335602Q373.6655 27.335602 375.02487 28.898102Q376.39987 30.444977 376.39987 33.101227ZM374.49362 33.101227Q374.49362 30.991852 373.6655 29.960602Q372.83737 28.929352 371.36862 28.929352Q369.86862 28.929352 369.0405 29.960602Q368.228 30.991852 368.228 33.101227Q368.228 35.1481 369.05612 36.2106Q369.88425 37.2731 371.36862 37.2731Q372.83737 37.2731 373.6655 36.226227Q374.49362 35.17935 374.49362 33.101227ZM388.21237 38.55435L386.38425 38.55435L386.38425 32.3356Q386.38425 31.585602 386.2905 30.929352Q386.21237 30.273102 385.978 29.898102Q385.728 29.491852 385.25925 29.288727Q384.80612 29.085602 384.07175 29.085602Q383.32175 29.085602 382.49362 29.460602Q381.68112 29.835602 380.93112 30.413727L380.93112 38.55435L379.103 38.55435L379.103 27.648102L380.93112 27.648102L380.93112 28.851227Q381.7905 28.148102 382.71237 27.741852Q383.63425 27.335602 384.603 27.335602Q386.36862 27.335602 387.2905 28.413727Q388.21237 29.476227 388.21237 31.476227L388.21237 38.55435ZM408.58737 33.92935Q408.58737 34.944977 408.21237 35.882477Q407.853 36.80435 407.19675 37.444977Q406.49362 38.11685 405.52487 38.49185Q404.55612 38.851227 403.27487 38.851227Q402.08737 38.851227 400.978 38.601227Q399.88425 38.351227 399.11862 38.007477L399.11862 35.944977L399.25925 35.944977Q400.05612 36.4606 401.11862 36.819977Q402.19675 37.163727 403.24362 37.163727Q403.93112 37.163727 404.57175 36.976227Q405.228 36.7731 405.74362 36.288727Q406.1655 35.86685 406.38425 35.288727Q406.603 34.694977 406.603 33.92935Q406.603 33.17935 406.33737 32.663727Q406.08737 32.132477 405.63425 31.819977Q405.11862 31.460602 404.38425 31.304352Q403.6655 31.148102 402.77487 31.148102Q401.9155 31.148102 401.11862 31.273102Q400.32175 31.382477 399.74362 31.507477L399.74362 24.007477L408.49362 24.007477L408.49362 25.726227L401.63425 25.726227L401.63425 29.585602Q402.0405 29.554352 402.478 29.538727Q402.93112 29.507477 403.24362 29.507477Q404.43112 29.507477 405.32175 29.710602Q406.21237 29.913727 406.94675 30.413727Q407.728 30.960602 408.14987 31.804352Q408.58737 32.6481 408.58737 33.92935ZM421.68112 31.273102Q421.68112 35.194977 420.46237 37.0231Q419.24362 38.851227 416.6655 38.851227Q414.0405 38.851227 412.83737 37.007477Q411.63425 35.1481 411.63425 31.304352Q411.63425 27.413727 412.853 25.569977Q414.07175 23.726227 416.6655 23.726227Q419.27487 23.726227 420.478 25.601227Q421.68112 27.476227 421.68112 31.273102ZM419.11862 35.7106Q419.46237 34.913727 419.58737 33.851227Q419.71237 32.788727 419.71237 31.273102Q419.71237 29.788727 419.58737 28.694977Q419.46237 27.601227 419.103 26.851227Q418.77487 26.085602 418.18112 25.710602Q417.58737 25.335602 416.6655 25.335602Q415.74362 25.335602 415.13425 25.710602Q414.5405 26.085602 414.18112 26.866852Q413.853 27.585602 413.728 28.757477Q413.61862 29.913727 413.61862 31.304352Q413.61862 32.819977 413.71237 33.851227Q413.82175 34.86685 414.18112 35.67935Q414.49362 36.444977 415.08737 36.851227Q415.68112 37.24185 416.6655 37.24185Q417.57175 37.24185 418.18112 36.86685Q418.7905 36.476227 419.11862 35.7106ZM442.5405 24.007477L437.4155 32.17935L437.4155 38.55435L435.49362 38.55435L435.49362 32.382477L430.353 24.007477L432.49362 24.007477L436.46237 30.523102L440.478 24.007477L442.5405 24.007477ZM453.228 33.288727L445.19675 33.288727Q445.19675 34.288727 445.49362 35.038727Q445.7905 35.788727 446.32175 36.2731Q446.83737 36.74185 447.52487 36.976227Q448.228 37.2106 449.07175 37.2106Q450.18112 37.2106 451.30612 36.7731Q452.43112 36.319977 452.9155 35.882477L453.00925 35.882477L453.00925 37.882477Q452.08737 38.2731 451.11862 38.538727Q450.14987 38.80435 449.08737 38.80435Q446.36862 38.80435 444.83737 37.3356Q443.32175 35.86685 443.32175 33.163727Q443.32175 30.491852 444.77487 28.913727Q446.24362 27.335602 448.63425 27.335602Q450.83737 27.335602 452.02487 28.632477Q453.228 29.913727 453.228 32.288727L453.228 33.288727ZM451.44675 31.882477Q451.43112 30.444977 450.71237 29.648102Q449.99362 28.851227 448.52487 28.851227Q447.05612 28.851227 446.18112 29.726227Q445.30612 30.601227 445.19675 31.882477L451.44675 31.882477ZM464.57175 38.55435L462.74362 38.55435L462.74362 37.3981Q462.50925 37.55435 462.08737 37.851227Q461.68112 38.1481 461.2905 38.3356Q460.82175 38.55435 460.228 38.694977Q459.63425 38.851227 458.83737 38.851227Q457.353 38.851227 456.32175 37.882477Q455.30612 36.8981 455.30612 35.382477Q455.30612 34.1481 455.83737 33.382477Q456.36862 32.61685 457.353 32.17935Q458.353 31.741852 459.74362 31.585602Q461.14987 31.429352 462.74362 31.351227L462.74362 31.069977Q462.74362 30.444977 462.52487 30.038727Q462.30612 29.616852 461.89987 29.382477Q461.50925 29.163727 460.96237 29.085602Q460.4155 29.007477 459.82175 29.007477Q459.103 29.007477 458.21237 29.194977Q457.32175 29.382477 456.36862 29.741852L456.27487 29.741852L456.27487 27.882477Q456.80612 27.726227 457.82175 27.554352Q458.83737 27.382477 459.82175 27.382477Q460.978 27.382477 461.83737 27.569977Q462.69675 27.757477 463.32175 28.226227Q463.93112 28.663727 464.24362 29.382477Q464.57175 30.101227 464.57175 31.148102L464.57175 38.55435ZM462.74362 35.86685L462.74362 32.8356Q461.9155 32.882477 460.77487 32.976227Q459.63425 33.069977 458.96237 33.257477Q458.18112 33.49185 457.68112 33.9606Q457.19675 34.42935 457.19675 35.257477Q457.19675 36.194977 457.75925 36.67935Q458.33737 37.1481 459.49362 37.1481Q460.46237 37.1481 461.25925 36.7731Q462.07175 36.3981 462.74362 35.86685ZM474.89987 29.648102L474.80612 29.648102Q474.39987 29.554352 474.00925 29.507477Q473.61862 29.460602 473.103 29.460602Q472.24362 29.460602 471.44675 29.835602Q470.6655 30.210602 469.93112 30.804352L469.93112 38.55435L468.103 38.55435L468.103 27.648102L469.93112 27.648102L469.93112 29.257477Q471.02487 28.382477 471.853 28.023102Q472.69675 27.648102 473.57175 27.648102Q474.0405 27.648102 474.25925 27.679352Q474.478 27.694977 474.89987 27.757477L474.89987 29.648102ZM484.88425 35.413727Q484.88425 36.8981 483.64987 37.86685Q482.4155 38.819977 480.27487 38.819977Q479.07175 38.819977 478.05612 38.538727Q477.05612 38.24185 476.36862 37.8981L476.36862 35.8356L476.46237 35.8356Q477.33737 36.49185 478.39987 36.882477Q479.46237 37.257477 480.43112 37.257477Q481.64987 37.257477 482.32175 36.86685Q483.00925 36.476227 483.00925 35.6481Q483.00925 34.99185 482.64987 34.663727Q482.27487 34.3356 481.21237 34.101227Q480.82175 34.007477 480.19675 33.8981Q479.57175 33.7731 479.05612 33.6481Q477.61862 33.257477 477.00925 32.5231Q476.4155 31.788727 476.4155 30.710602Q476.4155 30.038727 476.69675 29.444977Q476.978 28.851227 477.5405 28.382477Q478.08737 27.913727 478.93112 27.648102Q479.77487 27.382477 480.82175 27.382477Q481.7905 27.382477 482.7905 27.632477Q483.7905 27.866852 484.46237 28.194977L484.46237 30.163727L484.36862 30.163727Q483.6655 29.648102 482.64987 29.288727Q481.64987 28.929352 480.68112 28.929352Q479.68112 28.929352 478.978 29.319977Q478.2905 29.710602 478.2905 30.460602Q478.2905 31.148102 478.71237 31.476227Q479.11862 31.819977 480.0405 32.038727Q480.5405 32.163727 481.1655 32.288727Q481.80612 32.3981 482.228 32.49185Q483.50925 32.788727 484.19675 33.49185Q484.88425 34.2106 484.88425 35.413727Z" fill-rule="nonzero"/></svg>