<svg version="1.1" viewBox="0.0 0.0 676.0 394.0" fill="none" stroke="none" stroke-linecap="square" stroke-miterlimit="10" width="676" height="394" xmlns:xlink="http://www.w3.org/1999/xlink" xmlns="http://www.w3.org/2000/svg"><path fill="#f0f0f0" d="M0 0L676.0 0L676.0 394.0L0 394.0L0 0Z" fill-rule="nonzero"/><path stroke="#242424" stroke-width="1.0" stroke-linecap="butt" d="M83.5 60.5L83.5 323.5" fill-rule="nonzero"/><path stroke="#192432" stroke-width="1.0" stroke-linecap="butt" d="M197.5 60.5L197.5 323.5" fill-rule="nonzero"/><path stroke="#192432" stroke-width="1.0" stroke-linecap="butt" d="M312.5 60.5L312.5 323.5" fill-rule="nonzero"/><path stroke="#192432" stroke-width="1.0" stroke-linecap="butt" d="M427.5 60.5L427.5 323.5" fill-rule="nonzero"/><path stroke="#192432" stroke-width="1.0" stroke-linecap="butt" d="M542.5 60.5L542.5 323.5" fill-rule="nonzero"/><path stroke="#192432" stroke-width="1.0" stroke-linecap="butt" d="M657.5 60.5L657.5 323.5" fill-rule="nonzero"/><path stroke="#ced0da" stroke-width="1.0" stroke-linecap="butt" d="M106.5 60.5L106.5 323.5" fill-rule="nonzero"/><path stroke="#ced0da" stroke-width="1.0" stroke-linecap="butt" d="M128.5 60.5L128.5 323.5" fill-rule="nonzero"/><path stroke="#ced0da" stroke-width="1.0" stroke-linecap="butt" d="M151.5 60.5L151.5 323.5" fill-rule="nonzero"/><path stroke="#ced0da" stroke-width="1.0" stroke-linecap="butt" d="M174.5 60.5L174.5 323.5" fill-rule="nonzero"/><path stroke="#ced0da" stroke-width="1.0" stroke-linecap="butt" d="M220.5 60.5L220.5 323.5" fill-rule="nonzero"/><path stroke="#ced0da" stroke-width="1.0" stroke-linecap="butt" d="M243.5 60.5L243.5 323.5" fill-rule="nonzero"/><path stroke="#ced0da" stroke-width="1.0" stroke-linecap="butt" d="M266.5 60.5L266.5 323.5" fill-rule="nonzero"/><path stroke="#ced0da" stroke-width="1.0" stroke-linecap="butt" d="M289.5 60.5L289.5 323.5" fill-rule="nonzero"/><path stroke="#ced0da" stroke-width="1.0" stroke-linecap="butt" d="M335.5 60.5L335.5 323.5" fill-rule="nonzero"/><path stroke="#ced0da" stroke-width="1.0" stroke-linecap="butt" d="M358.5 60.5L358.5 323.5" fill-rule="nonzero"/><path stroke="#ced0da" stroke-width="1.0" stroke-linecap="butt" d="M381.5 60.5L381.5 323.5" fill-rule="nonzero"/><path stroke="#ced0da" stroke-width="1.0" stroke-linecap="butt" d="M404.5 60.5L404.5 323.5" fill-rule="nonzero"/><path stroke="#ced0da" stroke-width="1.0" stroke-linecap="butt" d="M450.5 60.5L450.5 323.5" fill-rule="nonzero"/><path stroke="#ced0da" stroke-width="1.0" stroke-linecap="butt" d="M473.5 60.5L473.5 323.5" fill-rule="nonzero"/><path stroke="#ced0da" stroke-width="1.0" stroke-linecap="butt" d="M496.5 60.5L496.5 323.5" fill-rule="nonzero"/><path stroke="#ced0da" stroke-width="1.0" stroke-linecap="butt" d="M519.5 60.5L519.5 323.5" fill-rule="nonzero"/><path stroke="#ced0da" stroke-width="1.0" stroke-linecap="butt" d="M565.5 60.5L565.5 323.5" fill-rule="nonzero"/><path stroke="#ced0da" stroke-width="1.0" stroke-linecap="butt" d="M588.5 60.5L588.5 323.5" fill-rule="nonzero"/><path stroke="#ced0da" stroke-width="1.0" stroke-linecap="butt" d="M611.5 60.5L611.5 323.5" fill-rule="nonzero"/><path stroke="#ced0da" stroke-width="1.0" stroke-linecap="butt" d="M634.5 60.5L634.5 323.5" fill-rule="nonzero"/><path stroke="#242424" stroke-width="1.0" stroke-linecap="butt" d="M83.5 323.5L657.5 323.5" fill-rule="nonzero"/><path stroke="#bdbdbd" stroke-width="1.0" stroke-linecap="butt" d="M83.5 257.5L657.5 257.5" fill-rule="nonzero"/><path stroke="#bdbdbd" stroke-width="1.0" stroke-linecap="butt" d="M83.5 192.5L657.5 192.5" fill-rule="nonzero"/><path stroke="#bdbdbd" stroke-width="1.0" stroke-linecap="butt" d="M83.5 126.5L657.5 126.5" fill-rule="nonzero"/><path stroke="#bdbdbd" stroke-width="1.0" stroke-linecap="butt" d="M83.5 60.5L657.5 60.5" fill-rule="nonzero"/><path stroke="#dedede" stroke-width="1.0" stroke-linecap="butt" d="M83.5 310.5L657.5 310.5" fill-rule="nonzero"/><path stroke="#dedede" stroke-width="1.0" stroke-linecap="butt" d="M83.5 297.5L657.5 297.5" fill-rule="nonzero"/><path stroke="#dedede" stroke-width="1.0" stroke-linecap="butt" d="M83.5 284.5L657.5 284.5" fill-rule="nonzero"/><path stroke="#dedede" stroke-width="1.0" stroke-linecap="butt" d="M83.5 270.5L657.5 270.5" fill-rule="nonzero"/><path stroke="#dedede" stroke-width="1.0" stroke-linecap="butt" d="M83.5 244.5L657.5 244.5" fill-rule="nonzero"/><path stroke="#dedede" stroke-width="1.0" stroke-linecap="butt" d="M83.5 231.5L657.5 231.5" fill-rule="nonzero"/><path stroke="#dedede" stroke-width="1.0" stroke-linecap="butt" d="M83.5 218.5L657.5 218.5" fill-rule="nonzero"/><path stroke="#dedede" stroke-width="1.0" stroke-linecap="butt" d="M83.5 205.5L657.5 205.5" fill-rule="nonzero"/><path stroke="#dedede" stroke-width="1.0" stroke-linecap="butt" d="M83.5 178.5L657.5 178.5" fill-rule="nonzero"/><path stroke="#dedede" stroke-width="1.0" stroke-linecap="butt" d="M83.5 165.5L657.5 165.5" fill-rule="nonzero"/><path stroke="#dedede" stroke-width="1.0" stroke-linecap="butt" d="M83.5 152.5L657.5 152.5" fill-rule="nonzero"/><path stroke="#dedede" stroke-width="1.0" stroke-linecap="butt" d="M83.5 139.5L657.5 139.5" fill-rule="nonzero"/><path stroke="#dedede" stroke-width="1.0" stroke-linecap="butt" d="M83.5 113.5L657.5 113.5" fill-rule="nonzero"/><path stroke="#dedede" stroke-width="1.0" stroke-linecap="butt" d="M83.5 99.5L657.5 99.5" fill-rule="nonzero"/><path stroke="#dedede" stroke-width="1.0" stroke-linecap="butt" d="M83.5 86.5L657.5 86.5" fill-rule="nonzero"/><path stroke="#dedede" stroke-width="1.0" stroke-linecap="butt" d="M83.5 73.5L657.5 73.5" fill-rule="nonzero"/><path stroke="#000000" stroke-width="1.0" stroke-linecap="butt" d="M657.5 323.5L83.5 323.5" fill-rule="nonzero"/><path stroke="#000000" stroke-width="1.0" stroke-linecap="butt" d="M83.5 323.5L83.5 60.5" fill-rule="nonzero"/><clipPath id="id_0"><path d="M83.06337 60.445194L657.00195 60.445194L657.00195 323.5L83.06337 323.5L83.06337 60.445194Z" clip-rule="nonzero"/></clipPath><path fill="#192432" fill-opacity="0.5019608" clip-path="url(#id_0)" d="M83.06337 192.01765L86.585625 191.91164L109.54317 162.5411L132.50072 139.7202L155.45825 121.988365L178.4158 108.21073L201.37335 97.50551L224.33089 89.187546L247.28844 82.72449L270.24597 77.7027L293.20352 73.800766L316.16107 70.76896L339.11862 68.41325L362.07617 66.58286L385.0337 65.16065L407.99124 64.055595L430.9488 63.196964L453.90634 62.529808L476.8639 62.01143L499.8214 61.60865L522.779 61.29569L545.7365 61.052517L568.69403 60.863575L591.6516 60.716766L614.60913 60.602695L637.5667 60.51406L660.52423 60.445194L660.52423 323.5L637.5667 323.5L614.60913 323.5L591.6516 323.5L568.69403 323.5L545.7365 323.5L522.779 323.5L499.8214 323.5L476.8639 323.5L453.90634 323.5L430.9488 323.5L407.99124 323.5L385.0337 323.5L362.07617 323.5L339.11862 323.5L316.16107 323.5L293.20352 323.5L270.24597 323.5L247.28844 323.5L224.33089 323.5L201.37335 323.5L178.4158 323.5L155.45825 323.5L132.50072 323.5L109.54317 323.5L86.585625 323.5L83.06337 323.5Z" fill-rule="nonzero"/><path stroke="#192432" stroke-width="2.0" stroke-linecap="butt" clip-path="url(#id_0)" d="M83.06337 192.01765L86.585625 191.91164L109.54317 162.5411L132.50072 139.7202L155.45825 121.988365L178.4158 108.21073L201.37335 97.50551L224.33089 89.187546L247.28844 82.72449L270.24597 77.7027L293.20352 73.800766L316.16107 70.76896L339.11862 68.41325L362.07617 66.58286L385.0337 65.16065L407.99124 64.055595L430.9488 63.196964L453.90634 62.529808L476.8639 62.01143L499.8214 61.60865L522.779 61.29569L545.7365 61.052517L568.69403 60.863575L591.6516 60.716766L614.60913 60.602695L637.5667 60.51406L660.52423 60.445194" fill-rule="nonzero"/><path fill="#192432" clip-path="url(#id_0)" d="M85.06337 192.01765C85.06337 193.12222 84.16794 194.01765 83.06337 194.01765C81.9588 194.01765 81.06337 193.12222 81.06337 192.01765C81.06337 190.91309 81.9588 190.01765 83.06337 190.01765C84.16794 190.01765 85.06337 190.91309 85.06337 192.01765Z" fill-rule="nonzero"/><path fill="#192432" clip-path="url(#id_0)" d="M88.585625 191.91164C88.585625 193.0162 87.69019 193.91164 86.585625 193.91164C85.48106 193.91164 84.585625 193.0162 84.585625 191.91164C84.585625 190.80707 85.48106 189.91164 86.585625 189.91164C87.69019 189.91164 88.585625 190.80707 88.585625 191.91164Z" fill-rule="nonzero"/><path fill="#192432" clip-path="url(#id_0)" d="M111.54317 162.5411C111.54317 163.64568 110.647736 164.5411 109.54317 164.5411C108.4386 164.5411 107.54317 163.64568 107.54317 162.5411C107.54317 161.43654 108.4386 160.5411 109.54317 160.5411C110.647736 160.5411 111.54317 161.43654 111.54317 162.5411Z" fill-rule="nonzero"/><path fill="#192432" clip-path="url(#id_0)" d="M134.50072 139.7202C134.50072 140.82477 133.60529 141.7202 132.50072 141.7202C131.39615 141.7202 130.50072 140.82477 130.50072 139.7202C130.50072 138.61563 131.39615 137.7202 132.50072 137.7202C133.60529 137.7202 134.50072 138.61563 134.50072 139.7202Z" fill-rule="nonzero"/><path fill="#192432" clip-path="url(#id_0)" d="M157.45825 121.988365C157.45825 123.09293 156.56282 123.988365 155.45825 123.988365C154.35368 123.988365 153.45825 123.09293 153.45825 121.988365C153.45825 120.8838 154.35368 119.988365 155.45825 119.988365C156.56282 119.988365 157.45825 120.8838 157.45825 121.988365Z" fill-rule="nonzero"/><path fill="#192432" clip-path="url(#id_0)" d="M180.4158 108.21073C180.4158 109.3153 179.52037 110.21073 178.4158 110.21073C177.31123 110.21073 176.4158 109.3153 176.4158 108.21073C176.4158 107.10616 177.31123 106.21073 178.4158 106.21073C179.52037 106.21073 180.4158 107.10616 180.4158 108.21073Z" fill-rule="nonzero"/><path fill="#192432" clip-path="url(#id_0)" d="M203.37335 97.50551C203.37335 98.61008 202.47792 99.50551 201.37335 99.50551C200.26878 99.50551 199.37335 98.61008 199.37335 97.50551C199.37335 96.40093 200.26878 95.50551 201.37335 95.50551C202.47792 95.50551 203.37335 96.40093 203.37335 97.50551Z" fill-rule="nonzero"/><path fill="#192432" clip-path="url(#id_0)" d="M226.33089 89.187546C226.33089 90.292114 225.43546 91.187546 224.33089 91.187546C223.22632 91.187546 222.33089 90.292114 222.33089 89.187546C222.33089 88.08298 223.22632 87.187546 224.33089 87.187546C225.43546 87.187546 226.33089 88.08298 226.33089 89.187546Z" fill-rule="nonzero"/><path fill="#192432" clip-path="url(#id_0)" d="M249.28844 82.72449C249.28844 83.82906 248.393 84.72449 247.28844 84.72449C246.18387 84.72449 245.28844 83.82906 245.28844 82.72449C245.28844 81.61992 246.18387 80.72449 247.28844 80.72449C248.393 80.72449 249.28844 81.61992 249.28844 82.72449Z" fill-rule="nonzero"/><path fill="#192432" clip-path="url(#id_0)" d="M272.24597 77.7027C272.24597 78.80727 271.35056 79.7027 270.24597 79.7027C269.14142 79.7027 268.24597 78.80727 268.24597 77.7027C268.24597 76.59813 269.14142 75.7027 270.24597 75.7027C271.35056 75.7027 272.24597 76.59813 272.24597 77.7027Z" fill-rule="nonzero"/><path fill="#192432" clip-path="url(#id_0)" d="M295.20352 73.800766C295.20352 74.905334 294.3081 75.800766 293.20352 75.800766C292.09897 75.800766 291.20352 74.905334 291.20352 73.800766C291.20352 72.69619 292.09897 71.800766 293.20352 71.800766C294.3081 71.800766 295.20352 72.69619 295.20352 73.800766Z" fill-rule="nonzero"/><path fill="#192432" clip-path="url(#id_0)" d="M318.16107 70.76896C318.16107 71.87353 317.26562 72.76896 316.16107 72.76896C315.0565 72.76896 314.16107 71.87353 314.16107 70.76896C314.16107 69.66439 315.0565 68.76896 316.16107 68.76896C317.26562 68.76896 318.16107 69.66439 318.16107 70.76896Z" fill-rule="nonzero"/><path fill="#192432" clip-path="url(#id_0)" d="M341.11862 68.41325C341.11862 69.51782 340.22318 70.41325 339.11862 70.41325C338.01404 70.41325 337.11862 69.51782 337.11862 68.41325C337.11862 67.30868 338.01404 66.41325 339.11862 66.41325C340.22318 66.41325 341.11862 67.30868 341.11862 68.41325Z" fill-rule="nonzero"/><path fill="#192432" clip-path="url(#id_0)" d="M364.07617 66.58286C364.07617 67.68743 363.18073 68.58286 362.07617 68.58286C360.9716 68.58286 360.07617 67.68743 360.07617 66.58286C360.07617 65.478294 360.9716 64.58286 362.07617 64.58286C363.18073 64.58286 364.07617 65.478294 364.07617 66.58286Z" fill-rule="nonzero"/><path fill="#192432" clip-path="url(#id_0)" d="M387.0337 65.16065C387.0337 66.26522 386.13828 67.16065 385.0337 67.16065C383.92914 67.16065 383.0337 66.26522 383.0337 65.16065C383.0337 64.05608 383.92914 63.160652 385.0337 63.160652C386.13828 63.160652 387.0337 64.05608 387.0337 65.16065Z" fill-rule="nonzero"/><path fill="#192432" clip-path="url(#id_0)" d="M409.99124 64.055595C409.99124 65.160164 409.09583 66.055595 407.99124 66.055595C406.8867 66.055595 405.99124 65.160164 405.99124 64.055595C405.99124 62.951027 406.8867 62.055595 407.99124 62.055595C409.09583 62.055595 409.99124 62.951027 409.99124 64.055595Z" fill-rule="nonzero"/><path fill="#192432" clip-path="url(#id_0)" d="M432.9488 63.196964C432.9488 64.30154 432.05338 65.19697 430.9488 65.19697C429.8442 65.19697 428.9488 64.30154 428.9488 63.196964C428.9488 62.092396 429.8442 61.196964 430.9488 61.196964C432.05338 61.196964 432.9488 62.092396 432.9488 63.196964Z" fill-rule="nonzero"/><path fill="#192432" clip-path="url(#id_0)" d="M455.90634 62.529808C455.90634 63.63438 455.0109 64.52981 453.90634 64.52981C452.80176 64.52981 451.90634 63.63438 451.90634 62.529808C451.90634 61.42524 452.80176 60.529808 453.90634 60.529808C455.0109 60.529808 455.90634 61.42524 455.90634 62.529808Z" fill-rule="nonzero"/><path fill="#192432" clip-path="url(#id_0)" d="M478.8639 62.01143C478.8639 63.116 477.96844 64.01143 476.8639 64.01143C475.7593 64.01143 474.8639 63.116 474.8639 62.01143C474.8639 60.90686 475.7593 60.01143 476.8639 60.01143C477.96844 60.01143 478.8639 60.90686 478.8639 62.01143Z" fill-rule="nonzero"/><path fill="#192432" clip-path="url(#id_0)" d="M501.8214 61.60865C501.8214 62.71322 500.926 63.60865 499.8214 63.60865C498.71686 63.60865 497.8214 62.71322 497.8214 61.60865C497.8214 60.504078 498.71686 59.60865 499.8214 59.60865C500.926 59.60865 501.8214 60.504078 501.8214 61.60865Z" fill-rule="nonzero"/><path fill="#192432" clip-path="url(#id_0)" d="M524.779 61.29569C524.779 62.400257 523.88354 63.29569 522.779 63.29569C521.6744 63.29569 520.779 62.400257 520.779 61.29569C520.779 60.19112 521.6744 59.29569 522.779 59.29569C523.88354 59.29569 524.779 60.19112 524.779 61.29569Z" fill-rule="nonzero"/><path fill="#192432" clip-path="url(#id_0)" d="M547.7365 61.052517C547.7365 62.157085 546.84106 63.052517 545.7365 63.052517C544.63196 63.052517 543.7365 62.157085 543.7365 61.052517C543.7365 59.94795 544.63196 59.052517 545.7365 59.052517C546.84106 59.052517 547.7365 59.94795 547.7365 61.052517Z" fill-rule="nonzero"/><path fill="#192432" clip-path="url(#id_0)" d="M570.69403 60.863575C570.69403 61.968143 569.79865 62.863575 568.69403 62.863575C567.5895 62.863575 566.69403 61.968143 566.69403 60.863575C566.69403 59.759003 567.5895 58.863575 568.69403 58.863575C569.79865 58.863575 570.69403 59.759003 570.69403 60.863575Z" fill-rule="nonzero"/><path fill="#192432" clip-path="url(#id_0)" d="M593.6516 60.716766C593.6516 61.821335 592.75616 62.716766 591.6516 62.716766C590.54706 62.716766 589.6516 61.821335 589.6516 60.716766C589.6516 59.612194 590.54706 58.716766 591.6516 58.716766C592.75616 58.716766 593.6516 59.612194 593.6516 60.716766Z" fill-rule="nonzero"/><path fill="#192432" clip-path="url(#id_0)" d="M616.60913 60.602695C616.60913 61.707264 615.71375 62.602695 614.60913 62.602695C613.5046 62.602695 612.60913 61.707264 612.60913 60.602695C612.60913 59.498123 613.5046 58.602695 614.60913 58.602695C615.71375 58.602695 616.60913 59.498123 616.60913 60.602695Z" fill-rule="nonzero"/><path fill="#192432" clip-path="url(#id_0)" d="M639.5667 60.51406C639.5667 61.61863 638.67126 62.51406 637.5667 62.51406C636.4621 62.51406 635.5667 61.61863 635.5667 60.51406C635.5667 59.409492 636.4621 58.51406 637.5667 58.51406C638.67126 58.51406 639.5667 59.409492 639.5667 60.51406Z" fill-rule="nonzero"/><path fill="#192432" clip-path="url(#id_0)" d="M662.52423 60.445194C662.52423 61.549763 661.6288 62.445194 660.52423 62.445194C659.4197 62.445194 658.52423 61.549763 658.52423 60.445194C658.52423 59.340622 659.4197 58.445194 660.52423 58.445194C661.6288 58.445194 662.52423 59.340622 662.52423 60.445194Z" fill-rule="nonzero"/><path stroke="#000000" stroke-width="1.0" stroke-linecap="butt" d="M106.5 326.5L106.5 320.5" fill-rule="nonzero"/><path stroke="#000000" stroke-width="1.0" stroke-linecap="butt" d="M128.5 326.5L128.5 320.5" fill-rule="nonzero"/><path stroke="#000000" stroke-width="1.0" stroke-linecap="butt" d="M151.5 326.5L151.5 320.5" fill-rule="nonzero"/><path stroke="#000000" stroke-width="1.0" stroke-linecap="butt" d="M174.5 326.5L174.5 320.5" fill-rule="nonzero"/><path stroke="#000000" stroke-width="1.0" stroke-linecap="butt" d="M220.5 326.5L220.5 320.5" fill-rule="nonzero"/><path stroke="#000000" stroke-width="1.0" stroke-linecap="butt" d="M243.5 326.5L243.5 320.5" fill-rule="nonzero"/><path stroke="#000000" stroke-width="1.0" stroke-linecap="butt" d="M266.5 326.5L266.5 320.5" fill-rule="nonzero"/><path stroke="#000000" stroke-width="1.0" stroke-linecap="butt" d="M289.5 326.5L289.5 320.5" fill-rule="nonzero"/><path stroke="#000000" stroke-width="1.0" stroke-linecap="butt" d="M335.5 326.5L335.5 320.5" fill-rule="nonzero"/><path stroke="#000000" stroke-width="1.0" stroke-linecap="butt" d="M358.5 326.5L358.5 320.5" fill-rule="nonzero"/><path stroke="#000000" stroke-width="1.0" stroke-linecap="butt" d="M381.5 326.5L381.5 320.5" fill-rule="nonzero"/><path stroke="#000000" stroke-width="1.0" stroke-linecap="butt" d="M404.5 326.5L404.5 320.5" fill-rule="nonzero"/><path stroke="#000000" stroke-width="1.0" stroke-linecap="butt" d="M450.5 326.5L450.5 320.5" fill-rule="nonzero"/><path stroke="#000000" stroke-width="1.0" stroke-linecap="butt" d="M473.5 326.5L473.5 320.5" fill-rule="nonzero"/><path stroke="#000000" stroke-width="1.0" stroke-linecap="butt" d="M496.5 326.5L496.5 320.5" fill-rule="nonzero"/><path stroke="#000000" stroke-width="1.0" stroke-linecap="butt" d="M519.5 326.5L519.5 320.5" fill-rule="nonzero"/><path stroke="#000000" stroke-width="1.0" stroke-linecap="butt" d="M565.5 326.5L565.5 320.5" fill-rule="nonzero"/><path stroke="#000000" stroke-width="1.0" stroke-linecap="butt" d="M588.5 326.5L588.5 320.5" fill-rule="nonzero"/><path stroke="#000000" stroke-width="1.0" stroke-linecap="butt" d="M611.5 326.5L611.5 320.5" fill-rule="nonzero"/><path stroke="#000000" stroke-width="1.0" stroke-linecap="butt" d="M634.5 326.5L634.5 320.5" fill-rule="nonzero"/><path stroke="#000000" stroke-width="1.0" stroke-linecap="butt" d="M83.5 329.5L83.5 317.5" fill-rule="nonzero"/><path stroke="#000000" stroke-width="1.0" stroke-linecap="butt" d="M197.5 329.5L197.5 317.5" fill-rule="nonzero"/><path stroke="#000000" stroke-width="1.0" stroke-linecap="butt" d="M312.5 329.5L312.5 317.5" fill-rule="nonzero"/><path stroke="#000000" stroke-width="1.0" stroke-linecap="butt" d="M427.5 329.5L427.5 317.5" fill-rule="nonzero"/><path stroke="#000000" stroke-width="1.0" stroke-linecap="butt" d="M542.5 329.5L542.5 317.5" fill-rule="nonzero"/><path stroke="#000000" stroke-width="1.0" stroke-linecap="butt" d="M657.5 329.5L657.5 317.5" fill-rule="nonzero"/><path fill="#333333" d="M327.89206 370.75162L323.7358 370.75162L323.7358 381.01724L322.18893 381.01724L322.18893 370.75162L318.03268 370.75162L318.03268 369.37662L327.89206 369.37662L327.89206 370.75162ZM331.06393 370.82974L329.40768 370.82974L329.40768 369.2985L331.06393 369.2985L331.06393 370.82974ZM330.97018 381.01724L329.50143 381.01724L329.50143 372.28287L330.97018 372.28287L330.97018 381.01724ZM347.22018 381.01724L345.75143 381.01724L345.75143 376.0485Q345.75143 375.486 345.68893 374.97037Q345.64206 374.43912 345.4858 374.12662Q345.2983 373.78287 344.95456 373.611Q344.62643 373.43912 344.00143 373.43912Q343.37643 373.43912 342.75143 373.75162Q342.14206 374.06412 341.53268 374.53287Q341.5483 374.72037 341.56393 374.95474Q341.57956 375.18912 341.57956 375.4235L341.57956 381.01724L340.1108 381.01724L340.1108 376.0485Q340.1108 375.47037 340.06393 374.95474Q340.01706 374.4235 339.84518 374.111Q339.6733 373.78287 339.32956 373.611Q339.00143 373.43912 338.3608 373.43912Q337.76706 373.43912 337.15768 373.736Q336.5483 374.03287 335.95456 374.50162L335.95456 381.01724L334.4858 381.01724L334.4858 372.28287L335.95456 372.28287L335.95456 373.25162Q336.64206 372.68912 337.31393 372.37662Q338.00143 372.0485 338.78268 372.0485Q339.6733 372.0485 340.28268 372.4235Q340.90768 372.7985 341.22018 373.45474Q342.1108 372.70474 342.84518 372.37662Q343.57956 372.0485 344.40768 372.0485Q345.84518 372.0485 346.53268 372.9235Q347.22018 373.78287 347.22018 375.34537L347.22018 381.01724ZM356.78268 376.7985L350.3608 376.7985Q350.3608 377.611 350.59518 378.20474Q350.84518 378.7985 351.26706 379.18912Q351.6733 379.56412 352.22018 379.75162Q352.78268 379.93912 353.45456 379.93912Q354.34518 379.93912 355.25143 379.57974Q356.15768 379.22037 356.53268 378.87662L356.6108 378.87662L356.6108 380.486Q355.87643 380.7985 355.09518 381.01724Q354.32956 381.22037 353.47018 381.22037Q351.2983 381.22037 350.07956 380.0485Q348.8608 378.861 348.8608 376.70474Q348.8608 374.56412 350.03268 373.31412Q351.20456 372.0485 353.1108 372.0485Q354.87643 372.0485 355.82956 373.07974Q356.78268 374.111 356.78268 376.00162L356.78268 376.7985ZM355.3608 375.6735Q355.34518 374.51724 354.76706 373.89224Q354.20456 373.25162 353.03268 373.25162Q351.84518 373.25162 351.14206 373.95474Q350.45456 374.64224 350.3608 375.6735L355.3608 375.6735ZM370.15768 384.236L368.3608 384.236Q366.9858 382.65787 366.22018 380.78287Q365.45456 378.89224 365.45456 376.5485Q365.45456 374.18912 366.22018 372.31412Q366.9858 370.43912 368.3608 368.861L370.15768 368.861L370.15768 368.93912Q369.51706 369.50162 368.93893 370.25162Q368.37643 371.00162 367.87643 371.986Q367.40768 372.95474 367.1108 374.111Q366.82956 375.26724 366.82956 376.5485Q366.82956 377.87662 367.1108 378.986Q367.39206 380.09537 367.87643 381.111Q368.34518 382.06412 368.93893 382.84537Q369.5483 383.62662 370.15768 384.15787L370.15768 384.236ZM380.03268 372.28287L374.93893 384.236L373.3608 384.236L374.9858 380.59537L371.51706 372.28287L373.1108 372.28287L375.78268 378.75162L378.4858 372.28287L380.03268 372.28287ZM388.78268 376.7985L382.3608 376.7985Q382.3608 377.611 382.59518 378.20474Q382.84518 378.7985 383.26706 379.18912Q383.6733 379.56412 384.22018 379.75162Q384.78268 379.93912 385.45456 379.93912Q386.34518 379.93912 387.25143 379.57974Q388.15768 379.22037 388.53268 378.87662L388.6108 378.87662L388.6108 380.486Q387.87643 380.7985 387.09518 381.01724Q386.32956 381.22037 385.47018 381.22037Q383.2983 381.22037 382.07956 380.0485Q380.8608 378.861 380.8608 376.70474Q380.8608 374.56412 382.03268 373.31412Q383.20456 372.0485 385.1108 372.0485Q386.87643 372.0485 387.82956 373.07974Q388.78268 374.111 388.78268 376.00162L388.78268 376.7985ZM387.3608 375.6735Q387.34518 374.51724 386.76706 373.89224Q386.20456 373.25162 385.03268 373.25162Q383.84518 373.25162 383.14206 373.95474Q382.45456 374.64224 382.3608 375.6735L387.3608 375.6735ZM398.26706 381.01724L396.7983 381.01724L396.7983 380.07974Q396.6108 380.22037 396.26706 380.45474Q395.93893 380.68912 395.62643 380.82974Q395.26706 381.01724 394.78268 381.14224Q394.31393 381.26724 393.6733 381.26724Q392.4858 381.26724 391.65768 380.486Q390.84518 379.68912 390.84518 378.486Q390.84518 377.486 391.26706 376.87662Q391.70456 376.26724 392.4858 375.90787Q393.28268 375.56412 394.39206 375.43912Q395.51706 375.31412 396.7983 375.25162L396.7983 375.01724Q396.7983 374.51724 396.62643 374.18912Q396.45456 373.861 396.12643 373.6735Q395.81393 373.50162 395.37643 373.43912Q394.93893 373.37662 394.45456 373.37662Q393.87643 373.37662 393.15768 373.53287Q392.45456 373.6735 391.70456 373.97037L391.62643 373.97037L391.62643 372.47037Q392.0483 372.361 392.8608 372.22037Q393.6733 372.07974 394.47018 372.07974Q395.39206 372.07974 396.06393 372.236Q396.75143 372.37662 397.25143 372.75162Q397.75143 373.111 398.00143 373.68912Q398.26706 374.25162 398.26706 375.09537L398.26706 381.01724ZM396.7983 378.861L396.7983 376.43912Q396.12643 376.47037 395.22018 376.5485Q394.31393 376.62662 393.78268 376.78287Q393.14206 376.95474 392.75143 377.34537Q392.3608 377.72037 392.3608 378.37662Q392.3608 379.12662 392.81393 379.51724Q393.26706 379.89224 394.20456 379.89224Q394.97018 379.89224 395.6108 379.59537Q396.25143 379.28287 396.7983 378.861ZM406.9233 373.89224L406.84518 373.89224Q406.51706 373.81412 406.20456 373.78287Q405.90768 373.736 405.4858 373.736Q404.7983 373.736 404.15768 374.0485Q403.53268 374.34537 402.95456 374.81412L402.95456 381.01724L401.4858 381.01724L401.4858 372.28287L402.95456 372.28287L402.95456 373.57974Q403.82956 372.87662 404.4858 372.57974Q405.15768 372.28287 405.8608 372.28287Q406.2358 372.28287 406.40768 372.31412Q406.57956 372.32974 406.9233 372.37662L406.9233 373.89224ZM413.72018 378.50162Q413.72018 379.68912 412.72018 380.47037Q411.7358 381.236 410.03268 381.236Q409.06393 381.236 408.25143 381.00162Q407.43893 380.76724 406.89206 380.486L406.89206 378.84537L406.97018 378.84537Q407.6733 379.361 408.51706 379.6735Q409.37643 379.986 410.15768 379.986Q411.12643 379.986 411.6733 379.6735Q412.22018 379.361 412.22018 378.68912Q412.22018 378.1735 411.9233 377.90787Q411.62643 377.64224 410.78268 377.45474Q410.47018 377.37662 409.95456 377.28287Q409.45456 377.18912 409.0483 377.07974Q407.89206 376.78287 407.40768 376.18912Q406.93893 375.59537 406.93893 374.736Q406.93893 374.20474 407.15768 373.736Q407.37643 373.25162 407.82956 372.87662Q408.26706 372.50162 408.93893 372.2985Q409.62643 372.07974 410.45456 372.07974Q411.2358 372.07974 412.03268 372.26724Q412.84518 372.45474 413.37643 372.736L413.37643 374.2985L413.2983 374.2985Q412.7358 373.89224 411.9233 373.611Q411.12643 373.31412 410.34518 373.31412Q409.5483 373.31412 408.9858 373.62662Q408.43893 373.93912 408.43893 374.5485Q408.43893 375.07974 408.76706 375.361Q409.09518 375.62662 409.82956 375.7985Q410.2358 375.89224 410.7358 375.986Q411.25143 376.07974 411.57956 376.15787Q412.6108 376.39224 413.15768 376.97037Q413.72018 377.5485 413.72018 378.50162ZM420.89206 376.5485Q420.89206 378.89224 420.12643 380.78287Q419.3608 382.65787 417.97018 384.236L416.18893 384.236L416.18893 384.15787Q416.78268 383.62662 417.39206 382.84537Q418.00143 382.06412 418.45456 381.111Q418.93893 380.09537 419.22018 378.986Q419.51706 377.87662 419.51706 376.5485Q419.51706 375.26724 419.22018 374.111Q418.93893 372.95474 418.45456 371.986Q417.97018 371.00162 417.39206 370.25162Q416.81393 369.50162 416.18893 368.93912L416.18893 368.861L417.97018 368.861Q419.3608 370.43912 420.12643 372.31412Q420.89206 374.18912 420.89206 376.5485Z" fill-rule="nonzero"/><path fill="#333333" d="M23.3134 260.5317L23.3134 264.68796L33.579025 264.68796L33.579025 266.23483L23.3134 266.23483L23.3134 270.39108L21.9384 270.39108L21.9384 260.5317L23.3134 260.5317ZM29.21965 251.50047Q31.34465 251.50047 32.59465 252.59422Q33.829025 253.68797 33.829025 255.53172Q33.829025 257.37546 32.59465 258.4692Q31.34465 259.56296 29.21965 259.56296Q27.079025 259.56296 25.84465 258.4692Q24.610275 257.37546 24.610275 255.53172Q24.610275 253.68797 25.84465 252.59422Q27.079025 251.50047 29.21965 251.50047ZM29.21965 253.0161Q27.516525 253.0161 26.704025 253.68797Q25.8759 254.34422 25.8759 255.53172Q25.8759 256.7192 26.704025 257.39108Q27.516525 258.04733 29.21965 258.04733Q30.860275 258.04733 31.704025 257.39108Q32.547775 256.7192 32.547775 255.53172Q32.547775 254.35985 31.71965 253.68797Q30.8759 253.0161 29.21965 253.0161ZM33.579025 241.0161L33.579025 242.9536L29.7509 246.4536L30.65715 247.40672L33.579025 247.40672L33.579025 248.87547L21.422775 248.87547L21.422775 247.40672L29.21965 247.40672L24.84465 243.17235L24.84465 241.31297L28.8759 245.37547L33.579025 241.0161ZM29.360275 232.6411L29.360275 239.06297Q30.172775 239.06297 30.766525 238.8286Q31.360275 238.5786 31.7509 238.15672Q32.1259 237.75047 32.3134 237.2036Q32.5009 236.6411 32.5009 235.96922Q32.5009 235.0786 32.141525 234.17235Q31.78215 233.2661 31.4384 232.8911L31.4384 232.81297L33.047775 232.81297Q33.360275 233.54735 33.579025 234.3286Q33.78215 235.09422 33.78215 235.9536Q33.78215 238.12547 32.610275 239.34422Q31.422775 240.56297 29.266525 240.56297Q27.1259 240.56297 25.8759 239.3911Q24.610275 238.21922 24.610275 236.31297Q24.610275 234.54735 25.641525 233.59422Q26.672775 232.6411 28.5634 232.6411L29.360275 232.6411ZM28.235275 234.06297Q27.079025 234.0786 26.454025 234.65672Q25.8134 235.21922 25.8134 236.3911Q25.8134 237.5786 26.516525 238.28172Q27.204025 238.96922 28.235275 239.06297L28.235275 234.06297ZM33.579025 228.4536L33.579025 229.92235L21.422775 229.92235L21.422775 228.4536L33.579025 228.4536ZM36.797775 214.2661L36.797775 216.06297Q35.21965 217.43797 33.34465 218.2036Q31.454025 218.96922 29.110275 218.96922Q26.7509 218.96922 24.8759 218.2036Q23.0009 217.43797 21.422775 216.06297L21.422775 214.2661L21.5009 214.2661Q22.0634 214.90672 22.8134 215.48485Q23.5634 216.04735 24.547775 216.54735Q25.516525 217.0161 26.672775 217.31297Q27.829025 217.59422 29.110275 217.59422Q30.4384 217.59422 31.547775 217.31297Q32.65715 217.03172 33.672775 216.54735Q34.6259 216.0786 35.40715 215.48485Q36.1884 214.87547 36.71965 214.2661L36.797775 214.2661ZM33.579025 204.3911L33.579025 206.23485L30.21965 208.71922L33.579025 211.2036L33.579025 212.92235L29.21965 209.5161L24.84465 212.8911L24.84465 211.03172L28.141525 208.5786L24.84465 206.10985L24.84465 204.3911L29.141525 207.81297L33.579025 204.3911ZM33.579025 184.2036L33.579025 185.67235L28.610275 185.67235Q28.047775 185.67235 27.53215 185.73485Q27.0009 185.78172 26.6884 185.93797Q26.34465 186.12547 26.172775 186.46922Q26.0009 186.79735 26.0009 187.42235Q26.0009 188.04735 26.3134 188.67235Q26.6259 189.28172 27.09465 189.8911Q27.28215 189.87547 27.516525 189.85985Q27.7509 189.84422 27.985275 189.84422L33.579025 189.84422L33.579025 191.31297L28.610275 191.31297Q28.03215 191.31297 27.516525 191.35985Q26.985275 191.40672 26.672775 191.5786Q26.34465 191.75047 26.172775 192.09422Q26.0009 192.42235 26.0009 193.06297Q26.0009 193.65672 26.297775 194.2661Q26.59465 194.87547 27.0634 195.46922L33.579025 195.46922L33.579025 196.93797L24.84465 196.93797L24.84465 195.46922L25.8134 195.46922Q25.2509 194.78172 24.9384 194.10985Q24.610275 193.42235 24.610275 192.6411Q24.610275 191.75047 24.985275 191.1411Q25.360275 190.5161 26.016525 190.2036Q25.266525 189.31297 24.9384 188.5786Q24.610275 187.84422 24.610275 187.0161Q24.610275 185.5786 25.485275 184.8911Q26.34465 184.2036 27.90715 184.2036L33.579025 184.2036ZM23.391525 180.35985L23.391525 182.0161L21.860275 182.0161L21.860275 180.35985L23.391525 180.35985ZM33.579025 180.4536L33.579025 181.92235L24.84465 181.92235L24.84465 180.4536L33.579025 180.4536ZM33.579025 175.4536L33.579025 176.92235L21.422775 176.92235L21.422775 175.4536L33.579025 175.4536ZM33.579025 170.4536L33.579025 171.92235L21.422775 171.92235L21.422775 170.4536L33.579025 170.4536ZM23.391525 165.35985L23.391525 167.0161L21.860275 167.0161L21.860275 165.35985L23.391525 165.35985ZM33.579025 165.4536L33.579025 166.92235L24.84465 166.92235L24.84465 165.4536L33.579025 165.4536ZM29.21965 154.50047Q31.34465 154.50047 32.59465 155.59422Q33.829025 156.68797 33.829025 158.53172Q33.829025 160.37547 32.59465 161.46922Q31.34465 162.56297 29.21965 162.56297Q27.079025 162.56297 25.84465 161.46922Q24.610275 160.37547 24.610275 158.53172Q24.610275 156.68797 25.84465 155.59422Q27.079025 154.50047 29.21965 154.50047ZM29.21965 156.0161Q27.516525 156.0161 26.704025 156.68797Q25.8759 157.34422 25.8759 158.53172Q25.8759 159.71922 26.704025 160.3911Q27.516525 161.04735 29.21965 161.04735Q30.860275 161.04735 31.704025 160.3911Q32.547775 159.71922 32.547775 158.53172Q32.547775 157.35985 31.71965 156.68797Q30.8759 156.0161 29.21965 156.0161ZM33.579025 144.6411L33.579025 146.10985L28.610275 146.10985Q28.0009 146.10985 27.485275 146.18797Q26.954025 146.25047 26.65715 146.43797Q26.329025 146.6411 26.172775 147.0161Q26.0009 147.37547 26.0009 147.9536Q26.0009 148.56297 26.297775 149.21922Q26.59465 149.87547 27.0634 150.46922L33.579025 150.46922L33.579025 151.93797L24.84465 151.93797L24.84465 150.46922L25.8134 150.46922Q25.2509 149.78172 24.9384 149.04735Q24.610275 148.31297 24.610275 147.54735Q24.610275 146.12547 25.46965 145.3911Q26.3134 144.6411 27.90715 144.6411L33.579025 144.6411ZM29.110275 137.53172Q31.454025 137.53172 33.34465 138.29735Q35.21965 139.06297 36.797775 140.4536L36.797775 142.23485L36.71965 142.23485Q36.1884 141.6411 35.40715 141.03172Q34.6259 140.42235 33.672775 139.96922Q32.65715 139.48485 31.547775 139.2036Q30.4384 138.90672 29.110275 138.90672Q27.829025 138.90672 26.672775 139.2036Q25.516525 139.48485 24.547775 139.96922Q23.5634 140.4536 22.8134 141.03172Q22.0634 141.60985 21.5009 142.23485L21.422775 142.23485L21.422775 140.4536Q23.0009 139.06297 24.8759 138.29735Q26.7509 137.53172 29.110275 137.53172Z" fill-rule="nonzero"/><path fill="#666666" d="M75.047745 324.40625Q75.047745 327.14062 74.18837 328.4375Q73.328995 329.71875 71.516495 329.71875Q69.68837 329.71875 68.84462 328.42188Q68.00087 327.10938 68.00087 324.42188Q68.00087 321.70312 68.84462 320.40625Q69.703995 319.10938 71.516495 319.10938Q73.360245 319.10938 74.203995 320.4375Q75.047745 321.75 75.047745 324.40625ZM73.25087 327.51562Q73.485245 326.95312 73.56337 326.20312Q73.65712 325.45312 73.65712 324.40625Q73.65712 323.375 73.56337 322.60938Q73.485245 321.84375 73.235245 321.29688Q73.00087 320.78125 72.578995 320.51562Q72.172745 320.25 71.516495 320.25Q70.87587 320.25 70.453995 320.51562Q70.03212 320.78125 69.797745 321.3125Q69.56337 321.82812 69.46962 322.64062Q69.391495 323.45312 69.391495 324.42188Q69.391495 325.48438 69.453995 326.20312Q69.53212 326.92188 69.78212 327.48438Q70.016495 328.01562 70.422745 328.29688Q70.84462 328.57812 71.516495 328.57812Q72.15712 328.57812 72.578995 328.3125Q73.016495 328.04688 73.25087 327.51562Z" fill-rule="nonzero"/><path fill="#666666" d="M65.96962 260.52444Q65.96962 261.2432 65.703995 261.89944Q65.453995 262.54007 65.00087 262.97757Q64.516495 263.46194 63.828995 263.72757Q63.15712 263.97757 62.25087 263.97757Q61.422745 263.97757 60.641495 263.79007Q59.87587 263.6182 59.34462 263.3682L59.34462 261.9307L59.43837 261.9307Q60.00087 262.29007 60.75087 262.54007Q61.50087 262.79007 62.21962 262.79007Q62.71962 262.79007 63.172745 262.64944Q63.62587 262.50882 63.96962 262.16507Q64.28212 261.88382 64.422745 261.47757Q64.578995 261.0557 64.578995 260.52444Q64.578995 259.9932 64.391495 259.63382Q64.21962 259.27444 63.90712 259.0557Q63.547745 258.79007 63.03212 258.6807Q62.53212 258.57132 61.891495 258.57132Q61.297745 258.57132 60.735245 258.66507Q60.18837 258.7432 59.78212 258.82132L59.78212 253.58694L65.90712 253.58694L65.90712 254.77444L61.09462 254.77444L61.09462 257.47757Q61.391495 257.46194 61.68837 257.44632Q62.00087 257.4307 62.235245 257.4307Q63.06337 257.4307 63.672745 257.57132Q64.297745 257.71194 64.828995 258.07132Q65.37587 258.44632 65.672745 259.04007Q65.96962 259.63382 65.96962 260.52444ZM75.047745 258.66507Q75.047745 261.39944 74.18837 262.69632Q73.328995 263.97757 71.516495 263.97757Q69.68837 263.97757 68.84462 262.6807Q68.00087 261.3682 68.00087 258.6807Q68.00087 255.96194 68.84462 254.66507Q69.703995 253.3682 71.516495 253.3682Q73.360245 253.3682 74.203995 254.69632Q75.047745 256.00882 75.047745 258.66507ZM73.25087 261.77444Q73.485245 261.21194 73.56337 260.46194Q73.65712 259.71194 73.65712 258.66507Q73.65712 257.63382 73.56337 256.8682Q73.485245 256.10257 73.235245 255.5557Q73.00087 255.04007 72.578995 254.77444Q72.172745 254.50882 71.516495 254.50882Q70.87587 254.50882 70.453995 254.77444Q70.03212 255.04007 69.797745 255.57132Q69.56337 256.08694 69.46962 256.89944Q69.391495 257.71194 69.391495 258.6807Q69.391495 259.7432 69.453995 260.46194Q69.53212 261.1807 69.78212 261.7432Q70.016495 262.27444 70.422745 262.5557Q70.84462 262.83694 71.516495 262.83694Q72.15712 262.83694 72.578995 262.57132Q73.016495 262.3057 73.25087 261.77444Z" fill-rule="nonzero"/><path fill="#666666" d="M56.46962 198.01765L50.96962 198.01765L50.96962 196.97078L53.078995 196.97078L53.078995 190.15828L50.96962 190.15828L50.96962 189.22078Q51.391495 189.22078 51.87587 189.15828Q52.37587 189.08015 52.62587 188.93953Q52.953995 188.76765 53.12587 188.51765Q53.31337 188.25203 53.328995 187.7989L54.391495 187.7989L54.391495 196.97078L56.46962 196.97078L56.46962 198.01765ZM66.047745 192.9239Q66.047745 195.65828 65.18837 196.95515Q64.328995 198.2364 62.516495 198.2364Q60.68837 198.2364 59.84462 196.93953Q59.00087 195.62703 59.00087 192.93953Q59.00087 190.22078 59.84462 188.9239Q60.703995 187.62703 62.516495 187.62703Q64.360245 187.62703 65.203995 188.95515Q66.047745 190.26765 66.047745 192.9239ZM64.25087 196.03328Q64.485245 195.47078 64.56337 194.72078Q64.65712 193.97078 64.65712 192.9239Q64.65712 191.89265 64.56337 191.12703Q64.485245 190.3614 64.235245 189.81453Q64.00087 189.2989 63.578995 189.03328Q63.172745 188.76765 62.516495 188.76765Q61.87587 188.76765 61.453995 189.03328Q61.03212 189.2989 60.797745 189.83015Q60.56337 190.34578 60.46962 191.15828Q60.391495 191.97078 60.391495 192.93953Q60.391495 194.00203 60.453995 194.72078Q60.53212 195.43953 60.78212 196.00203Q61.016495 196.53328 61.422745 196.81453Q61.84462 197.09578 62.516495 197.09578Q63.15712 197.09578 63.578995 196.83015Q64.016495 196.56453 64.25087 196.03328ZM75.047745 192.9239Q75.047745 195.65828 74.18837 196.95515Q73.328995 198.2364 71.516495 198.2364Q69.68837 198.2364 68.84462 196.93953Q68.00087 195.62703 68.00087 192.93953Q68.00087 190.22078 68.84462 188.9239Q69.703995 187.62703 71.516495 187.62703Q73.360245 187.62703 74.203995 188.95515Q75.047745 190.26765 75.047745 192.9239ZM73.25087 196.03328Q73.485245 195.47078 73.56337 194.72078Q73.65712 193.97078 73.65712 192.9239Q73.65712 191.89265 73.56337 191.12703Q73.485245 190.3614 73.235245 189.81453Q73.00087 189.2989 72.578995 189.03328Q72.172745 188.76765 71.516495 188.76765Q70.87587 188.76765 70.453995 189.03328Q70.03212 189.2989 69.797745 189.83015Q69.56337 190.34578 69.46962 191.15828Q69.391495 191.97078 69.391495 192.93953Q69.391495 194.00203 69.453995 194.72078Q69.53212 195.43953 69.78212 196.00203Q70.016495 196.53328 70.422745 196.81453Q70.84462 197.09578 71.516495 197.09578Q72.15712 197.09578 72.578995 196.83015Q73.016495 196.56453 73.25087 196.03328Z" fill-rule="nonzero"/><path fill="#666666" d="M56.46962 132.27649L50.96962 132.27649L50.96962 131.22961L53.078995 131.22961L53.078995 124.417114L50.96962 124.417114L50.96962 123.479614Q51.391495 123.479614 51.87587 123.417114Q52.37587 123.33899 52.62587 123.198364Q52.953995 123.02649 53.12587 122.77649Q53.31337 122.510864 53.328995 122.05774L54.391495 122.05774L54.391495 131.22961L56.46962 131.22961L56.46962 132.27649ZM65.96962 129.04211Q65.96962 129.76086 65.703995 130.41711Q65.453995 131.05774 65.00087 131.49524Q64.516495 131.97961 63.828995 132.24524Q63.15712 132.49524 62.25087 132.49524Q61.422745 132.49524 60.641495 132.30774Q59.87587 132.13586 59.34462 131.88586L59.34462 130.44836L59.43837 130.44836Q60.00087 130.80774 60.75087 131.05774Q61.50087 131.30774 62.21962 131.30774Q62.71962 131.30774 63.172745 131.16711Q63.62587 131.02649 63.96962 130.68274Q64.28212 130.40149 64.422745 129.99524Q64.578995 129.57336 64.578995 129.04211Q64.578995 128.51086 64.391495 128.15149Q64.21962 127.792114 63.90712 127.573364Q63.547745 127.30774 63.03212 127.198364Q62.53212 127.08899 61.891495 127.08899Q61.297745 127.08899 60.735245 127.18274Q60.18837 127.260864 59.78212 127.33899L59.78212 122.104614L65.90712 122.104614L65.90712 123.292114L61.09462 123.292114L61.09462 125.99524Q61.391495 125.979614 61.68837 125.96399Q62.00087 125.948364 62.235245 125.948364Q63.06337 125.948364 63.672745 126.08899Q64.297745 126.229614 64.828995 126.58899Q65.37587 126.96399 65.672745 127.55774Q65.96962 128.15149 65.96962 129.04211ZM75.047745 127.18274Q75.047745 129.91711 74.18837 131.21399Q73.328995 132.49524 71.516495 132.49524Q69.68837 132.49524 68.84462 131.19836Q68.00087 129.88586 68.00087 127.198364Q68.00087 124.479614 68.84462 123.18274Q69.703995 121.885864 71.516495 121.885864Q73.360245 121.885864 74.203995 123.21399Q75.047745 124.52649 75.047745 127.18274ZM73.25087 130.29211Q73.485245 129.72961 73.56337 128.97961Q73.65712 128.22961 73.65712 127.18274Q73.65712 126.15149 73.56337 125.385864Q73.485245 124.62024 73.235245 124.073364Q73.00087 123.55774 72.578995 123.292114Q72.172745 123.02649 71.516495 123.02649Q70.87587 123.02649 70.453995 123.292114Q70.03212 123.55774 69.797745 124.08899Q69.56337 124.604614 69.46962 125.417114Q69.391495 126.229614 69.391495 127.198364Q69.391495 128.26086 69.453995 128.97961Q69.53212 129.69836 69.78212 130.26086Q70.016495 130.79211 70.422745 131.07336Q70.84462 131.35461 71.516495 131.35461Q72.15712 131.35461 72.578995 131.08899Q73.016495 130.82336 73.25087 130.29211Z" fill-rule="nonzero"/><path fill="#666666" d="M57.047745 66.53532L50.15712 66.53532L50.15712 65.11344Q50.87587 64.48844 51.59462 63.879066Q52.328995 63.254066 52.953995 62.64469Q54.266495 61.379066 54.75087 60.629066Q55.235245 59.879066 55.235245 59.01969Q55.235245 58.222816 54.703995 57.785316Q54.18837 57.33219 53.25087 57.33219Q52.62587 57.33219 51.891495 57.55094Q51.172745 57.76969 50.485245 58.222816L50.422745 58.222816L50.422745 56.785316Q50.90712 56.535316 51.703995 56.347816Q52.516495 56.14469 53.28212 56.14469Q54.84462 56.14469 55.735245 56.910316Q56.62587 57.660316 56.62587 58.941566Q56.62587 59.535316 56.46962 60.035316Q56.328995 60.535316 56.047745 60.98844Q55.78212 61.410316 55.422745 61.816566Q55.06337 62.222816 54.547745 62.722816Q53.81337 63.441566 53.03212 64.11344Q52.25087 64.78532 51.578995 65.36344L57.047745 65.36344L57.047745 66.53532ZM66.047745 61.441566Q66.047745 64.17594 65.18837 65.47282Q64.328995 66.75407 62.516495 66.75407Q60.68837 66.75407 59.84462 65.45719Q59.00087 64.14469 59.00087 61.45719Q59.00087 58.73844 59.84462 57.441566Q60.703995 56.14469 62.516495 56.14469Q64.360245 56.14469 65.203995 57.472816Q66.047745 58.785316 66.047745 61.441566ZM64.25087 64.55094Q64.485245 63.98844 64.56337 63.23844Q64.65712 62.48844 64.65712 61.441566Q64.65712 60.410316 64.56337 59.64469Q64.485245 58.879066 64.235245 58.33219Q64.00087 57.816566 63.578995 57.55094Q63.172745 57.285316 62.516495 57.285316Q61.87587 57.285316 61.453995 57.55094Q61.03212 57.816566 60.797745 58.347816Q60.56337 58.86344 60.46962 59.67594Q60.391495 60.48844 60.391495 61.45719Q60.391495 62.51969 60.453995 63.23844Q60.53212 63.95719 60.78212 64.51969Q61.016495 65.05094 61.422745 65.33219Q61.84462 65.61344 62.516495 65.61344Q63.15712 65.61344 63.578995 65.34782Q64.016495 65.08219 64.25087 64.55094ZM75.047745 61.441566Q75.047745 64.17594 74.18837 65.47282Q73.328995 66.75407 71.516495 66.75407Q69.68837 66.75407 68.84462 65.45719Q68.00087 64.14469 68.00087 61.45719Q68.00087 58.73844 68.84462 57.441566Q69.703995 56.14469 71.516495 56.14469Q73.360245 56.14469 74.203995 57.472816Q75.047745 58.785316 75.047745 61.441566ZM73.25087 64.55094Q73.485245 63.98844 73.56337 63.23844Q73.65712 62.48844 73.65712 61.441566Q73.65712 60.410316 73.56337 59.64469Q73.485245 58.879066 73.235245 58.33219Q73.00087 57.816566 72.578995 57.55094Q72.172745 57.285316 71.516495 57.285316Q70.87587 57.285316 70.453995 57.55094Q70.03212 57.816566 69.797745 58.347816Q69.56337 58.86344 69.46962 59.67594Q69.391495 60.48844 69.391495 61.45719Q69.391495 62.51969 69.453995 63.23844Q69.53212 63.95719 69.78212 64.51969Q70.016495 65.05094 70.422745 65.33219Q70.84462 65.61344 71.516495 65.61344Q72.15712 65.61344 72.578995 65.34782Q73.016495 65.08219 73.25087 64.55094Z" fill-rule="nonzero"/><path fill="#666666" d="M86.547745 346.40625Q86.547745 349.14062 85.68837 350.4375Q84.828995 351.71875 83.016495 351.71875Q81.18837 351.71875 80.34462 350.42188Q79.50087 349.10938 79.50087 346.42188Q79.50087 343.70312 80.34462 342.40625Q81.203995 341.10938 83.016495 341.10938Q84.860245 341.10938 85.703995 342.4375Q86.547745 343.75 86.547745 346.40625ZM84.75087 349.51562Q84.985245 348.95312 85.06337 348.20312Q85.15712 347.45312 85.15712 346.40625Q85.15712 345.375 85.06337 344.60938Q84.985245 343.84375 84.735245 343.29688Q84.50087 342.78125 84.078995 342.51562Q83.672745 342.25 83.016495 342.25Q82.37587 342.25 81.953995 342.51562Q81.53212 342.78125 81.297745 343.3125Q81.06337 343.82812 80.96962 344.64062Q80.891495 345.45312 80.891495 346.42188Q80.891495 347.48438 80.953995 348.20312Q81.03212 348.92188 81.28212 349.48438Q81.516495 350.01562 81.922745 350.29688Q82.34462 350.57812 83.016495 350.57812Q83.65712 350.57812 84.078995 350.3125Q84.516495 350.04688 84.75087 349.51562Z" fill-rule="nonzero"/><path fill="#666666" d="M201.25734 348.26562Q201.25734 348.98438 200.99171 349.64062Q200.74171 350.28125 200.28859 350.71875Q199.80421 351.20312 199.11671 351.46875Q198.44484 351.71875 197.53859 351.71875Q196.71046 351.71875 195.92921 351.53125Q195.16359 351.35938 194.63234 351.10938L194.63234 349.67188L194.72609 349.67188Q195.28859 350.03125 196.03859 350.28125Q196.78859 350.53125 197.50734 350.53125Q198.00734 350.53125 198.46046 350.39062Q198.91359 350.25 199.25734 349.90625Q199.56984 349.625 199.71046 349.21875Q199.86671 348.79688 199.86671 348.26562Q199.86671 347.73438 199.67921 347.375Q199.50734 347.01562 199.19484 346.79688Q198.83546 346.53125 198.31984 346.42188Q197.81984 346.3125 197.17921 346.3125Q196.58546 346.3125 196.02296 346.40625Q195.47609 346.48438 195.06984 346.5625L195.06984 341.32812L201.19484 341.32812L201.19484 342.51562L196.38234 342.51562L196.38234 345.21875Q196.67921 345.20312 196.97609 345.1875Q197.28859 345.17188 197.52296 345.17188Q198.35109 345.17188 198.96046 345.3125Q199.58546 345.45312 200.11671 345.8125Q200.66359 346.1875 200.96046 346.78125Q201.25734 347.375 201.25734 348.26562Z" fill-rule="nonzero"/><path fill="#666666" d="M311.04507 351.5L305.54507 351.5L305.54507 350.45312L307.65445 350.45312L307.65445 343.64062L305.54507 343.64062L305.54507 342.70312Q305.96695 342.70312 306.45132 342.64062Q306.95132 342.5625 307.20132 342.42188Q307.52945 342.25 307.70132 342.0Q307.88882 341.73438 307.90445 341.28125L308.96695 341.28125L308.96695 350.45312L311.04507 350.45312L311.04507 351.5ZM320.6232 346.40625Q320.6232 349.14062 319.76382 350.4375Q318.90445 351.71875 317.09195 351.71875Q315.26382 351.71875 314.42007 350.42188Q313.57632 349.10938 313.57632 346.42188Q313.57632 343.70312 314.42007 342.40625Q315.27945 341.10938 317.09195 341.10938Q318.9357 341.10938 319.77945 342.4375Q320.6232 343.75 320.6232 346.40625ZM318.82632 349.51562Q319.0607 348.95312 319.13882 348.20312Q319.23257 347.45312 319.23257 346.40625Q319.23257 345.375 319.13882 344.60938Q319.0607 343.84375 318.8107 343.29688Q318.57632 342.78125 318.15445 342.51562Q317.7482 342.25 317.09195 342.25Q316.45132 342.25 316.02945 342.51562Q315.60757 342.78125 315.3732 343.3125Q315.13882 343.82812 315.04507 344.64062Q314.96695 345.45312 314.96695 346.42188Q314.96695 347.48438 315.02945 348.20312Q315.10757 348.92188 315.35757 349.48438Q315.59195 350.01562 315.9982 350.29688Q316.42007 350.57812 317.09195 350.57812Q317.73257 350.57812 318.15445 350.3125Q318.59195 350.04688 318.82632 349.51562Z" fill-rule="nonzero"/><path fill="#666666" d="M425.8328 351.5L420.3328 351.5L420.3328 350.45312L422.44217 350.45312L422.44217 343.64062L420.3328 343.64062L420.3328 342.70312Q420.75467 342.70312 421.23904 342.64062Q421.73904 342.5625 421.98904 342.42188Q422.31717 342.25 422.48904 342.0Q422.67654 341.73438 422.69217 341.28125L423.75467 341.28125L423.75467 350.45312L425.8328 350.45312L425.8328 351.5ZM435.3328 348.26562Q435.3328 348.98438 435.06717 349.64062Q434.81717 350.28125 434.36404 350.71875Q433.87967 351.20312 433.19217 351.46875Q432.5203 351.71875 431.61404 351.71875Q430.78592 351.71875 430.00467 351.53125Q429.23904 351.35938 428.7078 351.10938L428.7078 349.67188L428.80154 349.67188Q429.36404 350.03125 430.11404 350.28125Q430.86404 350.53125 431.5828 350.53125Q432.0828 350.53125 432.53592 350.39062Q432.98904 350.25 433.3328 349.90625Q433.6453 349.625 433.78592 349.21875Q433.94217 348.79688 433.94217 348.26562Q433.94217 347.73438 433.75467 347.375Q433.5828 347.01562 433.2703 346.79688Q432.91092 346.53125 432.3953 346.42188Q431.8953 346.3125 431.25467 346.3125Q430.66092 346.3125 430.09842 346.40625Q429.55154 346.48438 429.1453 346.5625L429.1453 341.32812L435.2703 341.32812L435.2703 342.51562L430.4578 342.51562L430.4578 345.21875Q430.75467 345.20312 431.05154 345.1875Q431.36404 345.17188 431.59842 345.17188Q432.42654 345.17188 433.03592 345.3125Q433.66092 345.45312 434.19217 345.8125Q434.73904 346.1875 435.03592 346.78125Q435.3328 347.375 435.3328 348.26562Z" fill-rule="nonzero"/><path fill="#666666" d="M541.1986 351.5L534.308 351.5L534.308 350.07812Q535.02673 349.45312 535.7455 348.84375Q536.47986 348.21875 537.10486 347.60938Q538.41736 346.34375 538.90173 345.59375Q539.3861 344.84375 539.3861 343.98438Q539.3861 343.1875 538.85486 342.75Q538.33923 342.29688 537.40173 342.29688Q536.77673 342.29688 536.04236 342.51562Q535.3236 342.73438 534.6361 343.1875L534.5736 343.1875L534.5736 341.75Q535.058 341.5 535.85486 341.3125Q536.66736 341.10938 537.433 341.10938Q538.9955 341.10938 539.8861 341.875Q540.77673 342.625 540.77673 343.90625Q540.77673 344.5 540.6205 345.0Q540.47986 345.5 540.1986 345.95312Q539.933 346.375 539.5736 346.78125Q539.21423 347.1875 538.6986 347.6875Q537.96423 348.40625 537.183 349.07812Q536.40173 349.75 535.72986 350.32812L541.1986 350.32812L541.1986 351.5ZM550.1986 346.40625Q550.1986 349.14062 549.33923 350.4375Q548.47986 351.71875 546.66736 351.71875Q544.83923 351.71875 543.9955 350.42188Q543.15173 349.10938 543.15173 346.42188Q543.15173 343.70312 543.9955 342.40625Q544.85486 341.10938 546.66736 341.10938Q548.5111 341.10938 549.35486 342.4375Q550.1986 343.75 550.1986 346.40625ZM548.40173 349.51562Q548.6361 348.95312 548.71423 348.20312Q548.808 347.45312 548.808 346.40625Q548.808 345.375 548.71423 344.60938Q548.6361 343.84375 548.3861 343.29688Q548.15173 342.78125 547.72986 342.51562Q547.3236 342.25 546.66736 342.25Q546.02673 342.25 545.60486 342.51562Q545.183 342.78125 544.9486 343.3125Q544.71423 343.82812 544.6205 344.64062Q544.54236 345.45312 544.54236 346.42188Q544.54236 347.48438 544.60486 348.20312Q544.683 348.92188 544.933 349.48438Q545.16736 350.01562 545.5736 350.29688Q545.9955 350.57812 546.66736 350.57812Q547.308 350.57812 547.72986 350.3125Q548.16736 350.04688 548.40173 349.51562Z" fill-rule="nonzero"/><path fill="#666666" d="M655.9863 351.5L649.0957 351.5L649.0957 350.07812Q649.81445 349.45312 650.5332 348.84375Q651.2676 348.21875 651.8926 347.60938Q653.2051 346.34375 653.68945 345.59375Q654.1738 344.84375 654.1738 343.98438Q654.1738 343.1875 653.6426 342.75Q653.12695 342.29688 652.18945 342.29688Q651.56445 342.29688 650.8301 342.51562Q650.1113 342.73438 649.4238 343.1875L649.3613 343.1875L649.3613 341.75Q649.8457 341.5 650.6426 341.3125Q651.4551 341.10938 652.2207 341.10938Q653.7832 341.10938 654.6738 341.875Q655.56445 342.625 655.56445 343.90625Q655.56445 344.5 655.4082 345.0Q655.2676 345.5 654.9863 345.95312Q654.7207 346.375 654.3613 346.78125Q654.00195 347.1875 653.4863 347.6875Q652.75195 348.40625 651.9707 349.07812Q651.18945 349.75 650.5176 350.32812L655.9863 350.32812L655.9863 351.5ZM664.9082 348.26562Q664.9082 348.98438 664.6426 349.64062Q664.3926 350.28125 663.93945 350.71875Q663.4551 351.20312 662.7676 351.46875Q662.0957 351.71875 661.18945 351.71875Q660.3613 351.71875 659.5801 351.53125Q658.81445 351.35938 658.2832 351.10938L658.2832 349.67188L658.37695 349.67188Q658.93945 350.03125 659.68945 350.28125Q660.43945 350.53125 661.1582 350.53125Q661.6582 350.53125 662.1113 350.39062Q662.56445 350.25 662.9082 349.90625Q663.2207 349.625 663.3613 349.21875Q663.5176 348.79688 663.5176 348.26562Q663.5176 347.73438 663.3301 347.375Q663.1582 347.01562 662.8457 346.79688Q662.4863 346.53125 661.9707 346.42188Q661.4707 346.3125 660.8301 346.3125Q660.2363 346.3125 659.6738 346.40625Q659.12695 346.48438 658.7207 346.5625L658.7207 341.32812L664.8457 341.32812L664.8457 342.51562L660.0332 342.51562L660.0332 345.21875Q660.3301 345.20312 660.62695 345.1875Q660.93945 345.17188 661.1738 345.17188Q662.00195 345.17188 662.6113 345.3125Q663.2363 345.45312 663.7676 345.8125Q664.31445 346.1875 664.6113 346.78125Q664.9082 347.375 664.9082 348.26562Z" fill-rule="nonzero"/><path fill="#666666" d="M200.61862 25.726227L195.4155 25.726227L195.4155 38.55435L193.49362 38.55435L193.49362 25.726227L188.2905 25.726227L188.2905 24.007477L200.61862 24.007477L200.61862 25.726227ZM211.39987 33.101227Q211.39987 35.7731 210.02487 37.319977Q208.6655 38.851227 206.36862 38.851227Q204.05612 38.851227 202.68112 37.319977Q201.32175 35.7731 201.32175 33.101227Q201.32175 30.444977 202.68112 28.898102Q204.05612 27.335602 206.36862 27.335602Q208.6655 27.335602 210.02487 28.898102Q211.39987 30.444977 211.39987 33.101227ZM209.49362 33.101227Q209.49362 30.991852 208.6655 29.960602Q207.83737 28.929352 206.36862 28.929352Q204.86862 28.929352 204.0405 29.960602Q203.228 30.991852 203.228 33.101227Q203.228 35.1481 204.05612 36.2106Q204.88425 37.2731 206.36862 37.2731Q207.83737 37.2731 208.6655 36.226227Q209.49362 35.17935 209.49362 33.101227ZM223.99362 38.55435L221.57175 38.55435L217.19675 33.7731L216.00925 34.913727L216.00925 38.55435L214.18112 38.55435L214.18112 23.351227L216.00925 23.351227L216.00925 33.101227L221.32175 27.648102L223.63425 27.648102L218.55612 32.67935L223.99362 38.55435ZM235.228 33.288727L227.19675 33.288727Q227.19675 34.288727 227.49362 35.038727Q227.7905 35.788727 228.32175 36.2731Q228.83737 36.74185 229.52487 36.976227Q230.228 37.2106 231.07175 37.2106Q232.18112 37.2106 233.30612 36.7731Q234.43112 36.319977 234.9155 35.882477L235.00925 35.882477L235.00925 37.882477Q234.08737 38.2731 233.11862 38.538727Q232.14987 38.80435 231.08737 38.80435Q228.36862 38.80435 226.83737 37.3356Q225.32175 35.86685 225.32175 33.163727Q225.32175 30.491852 226.77487 28.913727Q228.24362 27.335602 230.63425 27.335602Q232.83737 27.335602 234.02487 28.632477Q235.228 29.913727 235.228 32.288727L235.228 33.288727ZM233.44675 31.882477Q233.43112 30.444977 232.71237 29.648102Q231.99362 28.851227 230.52487 28.851227Q229.05612 28.851227 228.18112 29.726227Q227.30612 30.601227 227.19675 31.882477L233.44675 31.882477ZM239.94675 38.55435L238.11862 38.55435L238.11862 23.351227L239.94675 23.351227L239.94675 38.55435ZM262.478 37.49185Q261.93112 37.726227 261.49362 37.944977Q261.07175 38.1481 260.36862 38.36685Q259.77487 38.55435 259.07175 38.67935Q258.36862 38.819977 257.5405 38.819977Q255.94675 38.819977 254.64987 38.382477Q253.36862 37.92935 252.39987 36.976227Q251.46237 36.05435 250.93112 34.632477Q250.4155 33.194977 250.4155 31.304352Q250.4155 29.507477 250.9155 28.085602Q251.43112 26.663727 252.38425 25.694977Q253.32175 24.741852 254.63425 24.241852Q255.94675 23.741852 257.5405 23.741852Q258.71237 23.741852 259.88425 24.038727Q261.05612 24.319977 262.478 25.023102L262.478 27.319977L262.32175 27.319977Q261.13425 26.319977 259.94675 25.866852Q258.75925 25.398102 257.4155 25.398102Q256.30612 25.398102 255.4155 25.757477Q254.5405 26.116852 253.853 26.866852Q253.18112 27.601227 252.80612 28.726227Q252.43112 29.835602 252.43112 31.304352Q252.43112 32.8356 252.83737 33.944977Q253.25925 35.038727 253.9155 35.726227Q254.58737 36.4606 255.49362 36.80435Q256.4155 37.1481 257.43112 37.1481Q258.83737 37.1481 260.05612 36.67935Q261.27487 36.194977 262.33737 35.226227L262.478 35.226227L262.478 37.49185ZM274.39987 33.101227Q274.39987 35.7731 273.02487 37.319977Q271.6655 38.851227 269.36862 38.851227Q267.05612 38.851227 265.68112 37.319977Q264.32175 35.7731 264.32175 33.101227Q264.32175 30.444977 265.68112 28.898102Q267.05612 27.335602 269.36862 27.335602Q271.6655 27.335602 273.02487 28.898102Q274.39987 30.444977 274.39987 33.101227ZM272.49362 33.101227Q272.49362 30.991852 271.6655 29.960602Q270.83737 28.929352 269.36862 28.929352Q267.86862 28.929352 267.0405 29.960602Q266.228 30.991852 266.228 33.101227Q266.228 35.1481 267.05612 36.2106Q267.88425 37.2731 269.36862 37.2731Q270.83737 37.2731 271.6655 36.226227Q272.49362 35.17935 272.49362 33.101227ZM279.07175 25.819977L276.99362 25.819977L276.99362 23.913727L279.07175 23.913727L279.07175 25.819977ZM278.94675 38.55435L277.11862 38.55435L277.11862 27.648102L278.94675 27.648102L278.94675 38.55435ZM292.21237 38.55435L290.38425 38.55435L290.38425 32.3356Q290.38425 31.585602 290.2905 30.929352Q290.21237 30.273102 289.978 29.898102Q289.728 29.491852 289.25925 29.288727Q288.80612 29.085602 288.07175 29.085602Q287.32175 29.085602 286.49362 29.460602Q285.68112 29.835602 284.93112 30.413727L284.93112 38.55435L283.103 38.55435L283.103 27.648102L284.93112 27.648102L284.93112 28.851227Q285.7905 28.148102 286.71237 27.741852Q287.63425 27.335602 288.603 27.335602Q290.36862 27.335602 291.2905 28.413727Q292.21237 29.476227 292.21237 31.476227L292.21237 38.55435ZM312.82175 38.55435L303.24362 38.55435L303.24362 24.007477L312.82175 24.007477L312.82175 25.726227L305.18112 25.726227L305.18112 29.710602L312.82175 29.710602L312.82175 31.429352L305.18112 31.429352L305.18112 36.8356L312.82175 36.8356L312.82175 38.55435ZM332.00925 38.55435L330.18112 38.55435L330.18112 32.3356Q330.18112 31.632477 330.11862 30.991852Q330.05612 30.335602 329.853 29.944977Q329.61862 29.523102 329.19675 29.304352Q328.7905 29.085602 327.99362 29.085602Q327.228 29.085602 326.44675 29.476227Q325.68112 29.866852 324.89987 30.460602Q324.93112 30.679352 324.94675 30.976227Q324.978 31.273102 324.978 31.569977L324.978 38.55435L323.13425 38.55435L323.13425 32.3356Q323.13425 31.616852 323.07175 30.976227Q323.00925 30.319977 322.80612 29.929352Q322.58737 29.507477 322.1655 29.304352Q321.74362 29.085602 320.94675 29.085602Q320.19675 29.085602 319.43112 29.460602Q318.68112 29.835602 317.93112 30.413727L317.93112 38.55435L316.103 38.55435L316.103 27.648102L317.93112 27.648102L317.93112 28.851227Q318.7905 28.148102 319.64987 27.741852Q320.50925 27.335602 321.46237 27.335602Q322.58737 27.335602 323.353 27.804352Q324.13425 28.273102 324.50925 29.116852Q325.63425 28.179352 326.5405 27.757477Q327.46237 27.335602 328.50925 27.335602Q330.30612 27.335602 331.14987 28.429352Q332.00925 29.523102 332.00925 31.476227L332.00925 38.55435ZM337.07175 25.819977L334.99362 25.819977L334.99362 23.913727L337.07175 23.913727L337.07175 25.819977ZM336.94675 38.55435L335.11862 38.55435L335.11862 27.648102L336.94675 27.648102L336.94675 38.55435ZM348.88425 35.413727Q348.88425 36.8981 347.64987 37.86685Q346.4155 38.819977 344.27487 38.819977Q343.07175 38.819977 342.05612 38.538727Q341.05612 38.24185 340.36862 37.8981L340.36862 35.8356L340.46237 35.8356Q341.33737 36.49185 342.39987 36.882477Q343.46237 37.257477 344.43112 37.257477Q345.64987 37.257477 346.32175 36.86685Q347.00925 36.476227 347.00925 35.6481Q347.00925 34.99185 346.64987 34.663727Q346.27487 34.3356 345.21237 34.101227Q344.82175 34.007477 344.19675 33.8981Q343.57175 33.7731 343.05612 33.6481Q341.61862 33.257477 341.00925 32.5231Q340.4155 31.788727 340.4155 30.710602Q340.4155 30.038727 340.69675 29.444977Q340.978 28.851227 341.5405 28.382477Q342.08737 27.913727 342.93112 27.648102Q343.77487 27.382477 344.82175 27.382477Q345.7905 27.382477 346.7905 27.632477Q347.7905 27.866852 348.46237 28.194977L348.46237 30.163727L348.36862 30.163727Q347.6655 29.648102 346.64987 29.288727Q345.64987 28.929352 344.68112 28.929352Q343.68112 28.929352 342.978 29.319977Q342.2905 29.710602 342.2905 30.460602Q342.2905 31.148102 342.71237 31.476227Q343.11862 31.819977 344.0405 32.038727Q344.5405 32.163727 345.1655 32.288727Q345.80612 32.3981 346.228 32.49185Q347.50925 32.788727 348.19675 33.49185Q348.88425 34.2106 348.88425 35.413727ZM358.88425 35.413727Q358.88425 36.8981 357.64987 37.86685Q356.4155 38.819977 354.27487 38.819977Q353.07175 38.819977 352.05612 38.538727Q351.05612 38.24185 350.36862 37.8981L350.36862 35.8356L350.46237 35.8356Q351.33737 36.49185 352.39987 36.882477Q353.46237 37.257477 354.43112 37.257477Q355.64987 37.257477 356.32175 36.86685Q357.00925 36.476227 357.00925 35.6481Q357.00925 34.99185 356.64987 34.663727Q356.27487 34.3356 355.21237 34.101227Q354.82175 34.007477 354.19675 33.8981Q353.57175 33.7731 353.05612 33.6481Q351.61862 33.257477 351.00925 32.5231Q350.4155 31.788727 350.4155 30.710602Q350.4155 30.038727 350.69675 29.444977Q350.978 28.851227 351.5405 28.382477Q352.08737 27.913727 352.93112 27.648102Q353.77487 27.382477 354.82175 27.382477Q355.7905 27.382477 356.7905 27.632477Q357.7905 27.866852 358.46237 28.194977L358.46237 30.163727L358.36862 30.163727Q357.6655 29.648102 356.64987 29.288727Q355.64987 28.929352 354.68112 28.929352Q353.68112 28.929352 352.978 29.319977Q352.2905 29.710602 352.2905 30.460602Q352.2905 31.148102 352.71237 31.476227Q353.11862 31.819977 354.0405 32.038727Q354.5405 32.163727 355.1655 32.288727Q355.80612 32.3981 356.228 32.49185Q357.50925 32.788727 358.19675 33.49185Q358.88425 34.2106 358.88425 35.413727ZM363.07175 25.819977L360.99362 25.819977L360.99362 23.913727L363.07175 23.913727L363.07175 25.819977ZM362.94675 38.55435L361.11862 38.55435L361.11862 27.648102L362.94675 27.648102L362.94675 38.55435ZM376.39987 33.101227Q376.39987 35.7731 375.02487 37.319977Q373.6655 38.851227 371.36862 38.851227Q369.05612 38.851227 367.68112 37.319977Q366.32175 35.7731 366.32175 33.101227Q366.32175 30.444977 367.68112 28.898102Q369.05612 27.335602 371.36862 27.335602Q373.6655 27.335602 375.02487 28.898102Q376.39987 30.444977 376.39987 33.101227ZM374.49362 33.101227Q374.49362 30.991852 373.6655 29.960602Q372.83737 28.929352 371.36862 28.929352Q369.86862 28.929352 369.0405 29.960602Q368.228 30.991852 368.228 33.101227Q368.228 35.1481 369.05612 36.2106Q369.88425 37.2731 371.36862 37.2731Q372.83737 37.2731 373.6655 36.226227Q374.49362 35.17935 374.49362 33.101227ZM388.21237 38.55435L386.38425 38.55435L386.38425 32.3356Q386.38425 31.585602 386.2905 30.929352Q386.21237 30.273102 385.978 29.898102Q385.728 29.491852 385.25925 29.288727Q384.80612 29.085602 384.07175 29.085602Q383.32175 29.085602 382.49362 29.460602Q381.68112 29.835602 380.93112 30.413727L380.93112 38.55435L379.103 38.55435L379.103 27.648102L380.93112 27.648102L380.93112 28.851227Q381.7905 28.148102 382.71237 27.741852Q383.63425 27.335602 384.603 27.335602Q386.36862 27.335602 387.2905 28.413727Q388.21237 29.476227 388.21237 31.476227L388.21237 38.55435ZM408.71237 38.55435L398.86862 38.55435L398.86862 36.507477Q399.88425 35.632477 400.9155 34.757477Q401.94675 33.882477 402.83737 33.007477Q404.71237 31.194977 405.39987 30.132477Q406.103 29.054352 406.103 27.804352Q406.103 26.679352 405.353 26.038727Q404.603 25.398102 403.27487 25.398102Q402.38425 25.398102 401.33737 25.710602Q400.30612 26.023102 399.32175 26.663727L399.228 26.663727L399.228 24.616852Q399.9155 24.273102 401.07175 23.991852Q402.228 23.710602 403.32175 23.710602Q405.55612 23.710602 406.82175 24.788727Q408.08737 25.866852 408.08737 27.710602Q408.08737 28.538727 407.86862 29.257477Q407.6655 29.976227 407.25925 30.616852Q406.88425 31.226227 406.36862 31.819977Q405.853 32.3981 405.11862 33.11685Q404.07175 34.132477 402.96237 35.101227Q401.853 36.069977 400.88425 36.882477L408.71237 36.882477L408.71237 38.55435ZM421.58737 33.92935Q421.58737 34.944977 421.21237 35.882477Q420.853 36.80435 420.19675 37.444977Q419.49362 38.11685 418.52487 38.49185Q417.55612 38.851227 416.27487 38.851227Q415.08737 38.851227 413.978 38.601227Q412.88425 38.351227 412.11862 38.007477L412.11862 35.944977L412.25925 35.944977Q413.05612 36.4606 414.11862 36.819977Q415.19675 37.163727 416.24362 37.163727Q416.93112 37.163727 417.57175 36.976227Q418.228 36.7731 418.74362 36.288727Q419.1655 35.86685 419.38425 35.288727Q419.603 34.694977 419.603 33.92935Q419.603 33.17935 419.33737 32.663727Q419.08737 32.132477 418.63425 31.819977Q418.11862 31.460602 417.38425 31.304352Q416.6655 31.148102 415.77487 31.148102Q414.9155 31.148102 414.11862 31.273102Q413.32175 31.382477 412.74362 31.507477L412.74362 24.007477L421.49362 24.007477L421.49362 25.726227L414.63425 25.726227L414.63425 29.585602Q415.0405 29.554352 415.478 29.538727Q415.93112 29.507477 416.24362 29.507477Q417.43112 29.507477 418.32175 29.710602Q419.21237 29.913727 419.94675 30.413727Q420.728 30.960602 421.14987 31.804352Q421.58737 32.6481 421.58737 33.92935ZM442.5405 24.007477L437.4155 32.17935L437.4155 38.55435L435.49362 38.55435L435.49362 32.382477L430.353 24.007477L432.49362 24.007477L436.46237 30.523102L440.478 24.007477L442.5405 24.007477ZM453.228 33.288727L445.19675 33.288727Q445.19675 34.288727 445.49362 35.038727Q445.7905 35.788727 446.32175 36.2731Q446.83737 36.74185 447.52487 36.976227Q448.228 37.2106 449.07175 37.2106Q450.18112 37.2106 451.30612 36.7731Q452.43112 36.319977 452.9155 35.882477L453.00925 35.882477L453.00925 37.882477Q452.08737 38.2731 451.11862 38.538727Q450.14987 38.80435 449.08737 38.80435Q446.36862 38.80435 444.83737 37.3356Q443.32175 35.86685 443.32175 33.163727Q443.32175 30.491852 444.77487 28.913727Q446.24362 27.335602 448.63425 27.335602Q450.83737 27.335602 452.02487 28.632477Q453.228 29.913727 453.228 32.288727L453.228 33.288727ZM451.44675 31.882477Q451.43112 30.444977 450.71237 29.648102Q449.99362 28.851227 448.52487 28.851227Q447.05612 28.851227 446.18112 29.726227Q445.30612 30.601227 445.19675 31.882477L451.44675 31.882477ZM464.57175 38.55435L462.74362 38.55435L462.74362 37.3981Q462.50925 37.55435 462.08737 37.851227Q461.68112 38.1481 461.2905 38.3356Q460.82175 38.55435 460.228 38.694977Q459.63425 38.851227 458.83737 38.851227Q457.353 38.851227 456.32175 37.882477Q455.30612 36.8981 455.30612 35.382477Q455.30612 34.1481 455.83737 33.382477Q456.36862 32.61685 457.353 32.17935Q458.353 31.741852 459.74362 31.585602Q461.14987 31.429352 462.74362 31.351227L462.74362 31.069977Q462.74362 30.444977 462.52487 30.038727Q462.30612 29.616852 461.89987 29.382477Q461.50925 29.163727 460.96237 29.085602Q460.4155 29.007477 459.82175 29.007477Q459.103 29.007477 458.21237 29.194977Q457.32175 29.382477 456.36862 29.741852L456.27487 29.741852L456.27487 27.882477Q456.80612 27.726227 457.82175 27.554352Q458.83737 27.382477 459.82175 27.382477Q460.978 27.382477 461.83737 27.569977Q462.69675 27.757477 463.32175 28.226227Q463.93112 28.663727 464.24362 29.382477Q464.57175 30.101227 464.57175 31.148102L464.57175 38.55435ZM462.74362 35.86685L462.74362 32.8356Q461.9155 32.882477 460.77487 32.976227Q459.63425 33.069977 458.96237 33.257477Q458.18112 33.49185 457.68112 33.9606Q457.19675 34.42935 457.19675 35.257477Q457.19675 36.194977 457.75925 36.67935Q458.33737 37.1481 459.49362 37.1481Q460.46237 37.1481 461.25925 36.7731Q462.07175 36.3981 462.74362 35.86685ZM474.89987 29.648102L474.80612 29.648102Q474.39987 29.554352 474.00925 29.507477Q473.61862 29.460602 473.103 29.460602Q472.24362 29.460602 471.44675 29.835602Q470.6655 30.210602 469.93112 30.804352L469.93112 38.55435L468.103 38.55435L468.103 27.648102L469.93112 27.648102L469.93112 29.257477Q471.02487 28.382477 471.853 28.023102Q472.69675 27.648102 473.57175 27.648102Q474.0405 27.648102 474.25925 27.679352Q474.478 27.694977 474.89987 27.757477L474.89987 29.648102ZM484.88425 35.413727Q484.88425 36.8981 483.64987 37.86685Q482.4155 38.819977 480.27487 38.819977Q479.07175 38.819977 478.05612 38.538727Q477.05612 38.24185 476.36862 37.8981L476.36862 35.8356L476.46237 35.8356Q477.33737 36.49185 478.39987 36.882477Q479.46237 37.257477 480.43112 37.257477Q481.64987 37.257477 482.32175 36.86685Q483.00925 36.476227 483.00925 35.6481Q483.00925 34.99185 482.64987 34.663727Q482.27487 34.3356 481.21237 34.101227Q480.82175 34.007477 480.19675 33.8981Q479.57175 33.7731 479.05612 33.6481Q477.61862 33.257477 477.00925 32.5231Q476.4155 31.788727 476.4155 30.710602Q476.4155 30.038727 476.69675 29.444977Q476.978 28.851227 477.5405 28.382477Q478.08737 27.913727 478.93112 27.648102Q479.77487 27.382477 480.82175 27.382477Q481.7905 27.382477 482.7905 27.632477Q483.7905 27.866852 484.46237 28.194977L484.46237 30.163727L484.36862 30.163727Q483.6655 29.648102 482.64987 29.288727Q481.64987 28.929352 480.68112 28.929352Q479.68112 28.929352 478.978 29.319977Q478.2905 29.710602 478.2905 30.460602Q478.2905 31.148102 478.71237 31.476227Q479.11862 31.819977 480.0405 32.038727Q480.5405 32.163727 481.1655 32.288727Q481.80612 32.3981 482.228 32.49185Q483.50925 32.788727 484.19675 33.49185Q484.88425 34.2106 484.88425 35.413727Z" fill-rule="nonzero"/></svg>