<svg version="1.1" viewBox="0.0 0.0 676.0 394.0" fill="none" stroke="none" stroke-linecap="square" stroke-miterlimit="10" width="676" height="394" xmlns:xlink="http://www.w3.org/1999/xlink" xmlns="http://www.w3.org/2000/svg"><path fill="#f0f0f0" d="M0 0L676.0 0L676.0 394.0L0 394.0L0 0Z" fill-rule="nonzero"/><path stroke="#242424" stroke-width="1.0" stroke-linecap="butt" d="M83.5 60.5L83.5 323.5" fill-rule="nonzero"/><path stroke="#192432" stroke-width="1.0" stroke-linecap="butt" d="M197.5 60.5L197.5 323.5" fill-rule="nonzero"/><path stroke="#192432" stroke-width="1.0" stroke-linecap="butt" d="M312.5 60.5L312.5 323.5" fill-rule="nonzero"/><path stroke="#192432" stroke-width="1.0" stroke-linecap="butt" d="M427.5 60.5L427.5 323.5" fill-rule="nonzero"/><path stroke="#192432" stroke-width="1.0" stroke-linecap="butt" d="M542.5 60.5L542.5 323.5" fill-rule="nonzero"/><path stroke="#192432" stroke-width="1.0" stroke-linecap="butt" d="M657.5 60.5L657.5 323.5" fill-rule="nonzero"/><path stroke="#ced0da" stroke-width="1.0" stroke-linecap="butt" d="M140.5 60.5L140.5 323.5" fill-rule="nonzero"/><path stroke="#ced0da" stroke-width="1.0" stroke-linecap="butt" d="M255.5 60.5L255.5 323.5" fill-rule="nonzero"/><path stroke="#ced0da" stroke-width="1.0" stroke-linecap="butt" d="M370.5 60.5L370.5 323.5" fill-rule="nonzero"/><path stroke="#ced0da" stroke-width="1.0" stroke-linecap="butt" d="M484.5 60.5L484.5 323.5" fill-rule="nonzero"/><path stroke="#ced0da" stroke-width="1.0" stroke-linecap="butt" d="M599.5 60.5L599.5 323.5" fill-rule="nonzero"/><path stroke="#bdbdbd" stroke-width="1.0" stroke-linecap="butt" d="M83.5 323.5L657.5 323.5" fill-rule="nonzero"/><path stroke="#bdbdbd" stroke-width="1.0" stroke-linecap="butt" d="M83.5 279.5L657.5 279.5" fill-rule="nonzero"/><path stroke="#bdbdbd" stroke-width="1.0" stroke-linecap="butt" d="M83.5 235.5L657.5 235.5" fill-rule="nonzero"/><path stroke="#bdbdbd" stroke-width="1.0" stroke-linecap="butt" d="M83.5 191.5L657.5 191.5" fill-rule="nonzero"/><path stroke="#bdbdbd" stroke-width="1.0" stroke-linecap="butt" d="M83.5 148.5L657.5 148.5" fill-rule="nonzero"/><path stroke="#bdbdbd" stroke-width="1.0" stroke-linecap="butt" d="M83.5 104.5L657.5 104.5" fill-rule="nonzero"/><path stroke="#bdbdbd" stroke-width="1.0" stroke-linecap="butt" d="M83.5 60.5L657.5 60.5" fill-rule="nonzero"/><path stroke="#dedede" stroke-width="1.0" stroke-linecap="butt" d="M83.5 301.5L657.5 301.5" fill-rule="nonzero"/><path stroke="#dedede" stroke-width="1.0" stroke-linecap="butt" d="M83.5 257.5L657.5 257.5" fill-rule="nonzero"/><path stroke="#dedede" stroke-width="1.0" stroke-linecap="butt" d="M83.5 213.5L657.5 213.5" fill-rule="nonzero"/><path stroke="#dedede" stroke-width="1.0" stroke-linecap="butt" d="M83.5 170.5L657.5 170.5" fill-rule="nonzero"/><path stroke="#dedede" stroke-width="1.0" stroke-linecap="butt" d="M83.5 126.5L657.5 126.5" fill-rule="nonzero"/><path stroke="#dedede" stroke-width="1.0" stroke-linecap="butt" d="M83.5 82.5L657.5 82.5" fill-rule="nonzero"/><path stroke="#000000" stroke-width="1.0" stroke-linecap="butt" d="M657.5 323.5L83.5 323.5" fill-rule="nonzero"/><path stroke="#000000" stroke-width="1.0" stroke-linecap="butt" d="M83.5 323.5L83.5 60.5" fill-rule="nonzero"/><clipPath id="id_0"><path d="M83.06337 60.445194L657.00195 60.445194L657.00195 323.5L83.06337 323.5L83.06337 60.445194Z" clip-rule="nonzero"/></clipPath><path fill="#192432" fill-opacity="0.5019608" clip-path="url(#id_0)" d="M83.06337 279.65753L91.869 279.48077L149.26286 230.5131L206.65672 192.46524L264.0506 162.90205L321.44446 139.93144L378.83832 122.08329L436.23218 108.21528L493.62604 97.43983L551.0199 89.0673L608.41376 82.56185L665.8076 77.50712L723.2015 73.57958L780.59534 70.52789L837.9892 68.15673L895.38306 66.31434L952.7769 64.8828L1010.1708 63.77049L1067.5647 62.906227L1124.9585 62.234695L1182.3524 61.712917L1239.7462 61.30749L1297.1401 60.992477L1354.5339 60.747715L1411.9279 60.55753L1469.3217 60.40976L1526.7156 60.294937L1526.7156 498.86987L1469.3217 498.86987L1411.9279 498.86987L1354.5339 498.86987L1297.1401 498.86987L1239.7462 498.86987L1182.3524 498.86987L1124.9585 498.86987L1067.5647 498.86987L1010.1708 498.86987L952.7769 498.86987L895.38306 498.86987L837.9892 498.86987L780.59534 498.86987L723.2015 498.86987L665.8076 498.86987L608.41376 498.86987L551.0199 498.86987L493.62604 498.86987L436.23218 498.86987L378.83832 498.86987L321.44446 498.86987L264.0506 498.86987L206.65672 498.86987L149.26286 498.86987L91.869 498.86987L83.06337 498.86987Z" fill-rule="nonzero"/><path stroke="#192432" stroke-width="2.0" stroke-linecap="butt" clip-path="url(#id_0)" d="M83.06337 279.65753L91.869 279.48077L149.26286 230.5131L206.65672 192.46524L264.0506 162.90205L321.44446 139.93144L378.83832 122.08329L436.23218 108.21528L493.62604 97.43983L551.0199 89.0673L608.41376 82.56185L665.8076 77.50712L723.2015 73.57958L780.59534 70.52789L837.9892 68.15673L895.38306 66.31434L952.7769 64.8828L1010.1708 63.77049L1067.5647 62.906227L1124.9585 62.234695L1182.3524 61.712917L1239.7462 61.30749L1297.1401 60.992477L1354.5339 60.747715L1411.9279 60.55753L1469.3217 60.40976L1526.7156 60.294937" fill-rule="nonzero"/><path fill="#192432" clip-path="url(#id_0)" d="M87.56337 279.65753C87.56337 282.14282 85.54865 284.15753 83.06337 284.15753C80.57809 284.15753 78.56337 282.14282 78.56337 279.65753C78.56337 277.17224 80.57809 275.15753 83.06337 275.15753C85.54865 275.15753 87.56337 277.17224 87.56337 279.65753Z" fill-rule="nonzero"/><path fill="#192432" clip-path="url(#id_0)" d="M96.369 279.48077C96.369 281.96603 94.35429 283.98077 91.869 283.98077C89.38372 283.98077 87.369 281.96603 87.369 279.48077C87.369 276.99548 89.38372 274.98077 91.869 274.98077C94.35429 274.98077 96.369 276.99548 96.369 279.48077Z" fill-rule="nonzero"/><path fill="#192432" clip-path="url(#id_0)" d="M153.76286 230.5131C153.76286 232.99838 151.74814 235.0131 149.26286 235.0131C146.77759 235.0131 144.76286 232.99838 144.76286 230.5131C144.76286 228.02783 146.77759 226.0131 149.26286 226.0131C151.74814 226.0131 153.76286 228.02783 153.76286 230.5131Z" fill-rule="nonzero"/><path fill="#192432" clip-path="url(#id_0)" d="M211.15672 192.46524C211.15672 194.95052 209.14201 196.96524 206.65672 196.96524C204.17145 196.96524 202.15672 194.95052 202.15672 192.46524C202.15672 189.97997 204.17145 187.96524 206.65672 187.96524C209.14201 187.96524 211.15672 189.97997 211.15672 192.46524Z" fill-rule="nonzero"/><path fill="#192432" clip-path="url(#id_0)" d="M268.5506 162.90205C268.5506 165.38733 266.53586 167.40205 264.0506 167.40205C261.5653 167.40205 259.5506 165.38733 259.5506 162.90205C259.5506 160.41676 261.5653 158.40205 264.0506 158.40205C266.53586 158.40205 268.5506 160.41676 268.5506 162.90205Z" fill-rule="nonzero"/><path fill="#192432" clip-path="url(#id_0)" d="M325.94446 139.93144C325.94446 142.41673 323.92972 144.43144 321.44446 144.43144C318.95917 144.43144 316.94446 142.41673 316.94446 139.93144C316.94446 137.44617 318.95917 135.43144 321.44446 135.43144C323.92972 135.43144 325.94446 137.44617 325.94446 139.93144Z" fill-rule="nonzero"/><path fill="#192432" clip-path="url(#id_0)" d="M383.33832 122.08329C383.33832 124.56857 381.32358 126.58329 378.83832 126.58329C376.35303 126.58329 374.33832 124.56857 374.33832 122.08329C374.33832 119.598015 376.35303 117.58329 378.83832 117.58329C381.32358 117.58329 383.33832 119.598015 383.33832 122.08329Z" fill-rule="nonzero"/><path fill="#192432" clip-path="url(#id_0)" d="M440.73218 108.21528C440.73218 110.700554 438.71744 112.71528 436.23218 112.71528C433.7469 112.71528 431.73218 110.700554 431.73218 108.21528C431.73218 105.729996 433.7469 103.71528 436.23218 103.71528C438.71744 103.71528 440.73218 105.729996 440.73218 108.21528Z" fill-rule="nonzero"/><path fill="#192432" clip-path="url(#id_0)" d="M498.12604 97.43983C498.12604 99.92511 496.11133 101.93983 493.62604 101.93983C491.14075 101.93983 489.12604 99.92511 489.12604 97.43983C489.12604 94.954544 491.14075 92.93983 493.62604 92.93983C496.11133 92.93983 498.12604 94.954544 498.12604 97.43983Z" fill-rule="nonzero"/><path fill="#192432" clip-path="url(#id_0)" d="M555.5199 89.0673C555.5199 91.55258 553.5052 93.5673 551.0199 93.5673C548.5346 93.5673 546.5199 91.55258 546.5199 89.0673C546.5199 86.58202 548.5346 84.5673 551.0199 84.5673C553.5052 84.5673 555.5199 86.58202 555.5199 89.0673Z" fill-rule="nonzero"/><path fill="#192432" clip-path="url(#id_0)" d="M612.91376 82.56185C612.91376 85.047134 610.89905 87.06185 608.41376 87.06185C605.92847 87.06185 603.91376 85.047134 603.91376 82.56185C603.91376 80.07657 605.92847 78.06185 608.41376 78.06185C610.89905 78.06185 612.91376 80.07657 612.91376 82.56185Z" fill-rule="nonzero"/><path fill="#192432" clip-path="url(#id_0)" d="M670.3076 77.50712C670.3076 79.99239 668.2929 82.00712 665.8076 82.00712C663.3223 82.00712 661.3076 79.99239 661.3076 77.50712C661.3076 75.021835 663.3223 73.00712 665.8076 73.00712C668.2929 73.00712 670.3076 75.021835 670.3076 77.50712Z" fill-rule="nonzero"/><path fill="#192432" clip-path="url(#id_0)" d="M727.7015 73.57958C727.7015 76.064865 725.68677 78.07958 723.2015 78.07958C720.7162 78.07958 718.7015 76.064865 718.7015 73.57958C718.7015 71.09431 720.7162 69.07958 723.2015 69.07958C725.68677 69.07958 727.7015 71.09431 727.7015 73.57958Z" fill-rule="nonzero"/><path fill="#192432" clip-path="url(#id_0)" d="M785.09534 70.52789C785.09534 73.013176 783.0806 75.02789 780.59534 75.02789C778.11005 75.02789 776.09534 73.013176 776.09534 70.52789C776.09534 68.04261 778.11005 66.02789 780.59534 66.02789C783.0806 66.02789 785.09534 68.04261 785.09534 70.52789Z" fill-rule="nonzero"/><path fill="#192432" clip-path="url(#id_0)" d="M842.4892 68.15673C842.4892 70.64201 840.4745 72.65673 837.9892 72.65673C835.5039 72.65673 833.4892 70.64201 833.4892 68.15673C833.4892 65.67145 835.5039 63.65673 837.9892 63.65673C840.4745 63.65673 842.4892 65.67145 842.4892 68.15673Z" fill-rule="nonzero"/><path fill="#192432" clip-path="url(#id_0)" d="M899.88306 66.31434C899.88306 68.79962 897.86835 70.81434 895.38306 70.81434C892.89777 70.81434 890.88306 68.79962 890.88306 66.31434C890.88306 63.829056 892.89777 61.81434 895.38306 61.81434C897.86835 61.81434 899.88306 63.829056 899.88306 66.31434Z" fill-rule="nonzero"/><path fill="#192432" clip-path="url(#id_0)" d="M957.2769 64.8828C957.2769 67.36808 955.2622 69.3828 952.7769 69.3828C950.2916 69.3828 948.2769 67.36808 948.2769 64.8828C948.2769 62.397514 950.2916 60.382797 952.7769 60.382797C955.2622 60.382797 957.2769 62.397514 957.2769 64.8828Z" fill-rule="nonzero"/><path fill="#192432" clip-path="url(#id_0)" d="M1014.6708 63.77049C1014.6708 66.255775 1012.65607 68.27049 1010.1708 68.27049C1007.6855 68.27049 1005.6708 66.255775 1005.6708 63.77049C1005.6708 61.28521 1007.6855 59.27049 1010.1708 59.27049C1012.65607 59.27049 1014.6708 61.28521 1014.6708 63.77049Z" fill-rule="nonzero"/><path fill="#192432" clip-path="url(#id_0)" d="M1072.0647 62.906227C1072.0647 65.39151 1070.0499 67.40623 1067.5647 67.40623C1065.0793 67.40623 1063.0647 65.39151 1063.0647 62.906227C1063.0647 60.420948 1065.0793 58.406227 1067.5647 58.406227C1070.0499 58.406227 1072.0647 60.420948 1072.0647 62.906227Z" fill-rule="nonzero"/><path fill="#192432" clip-path="url(#id_0)" d="M1129.4585 62.234695C1129.4585 64.71998 1127.4438 66.734695 1124.9585 66.734695C1122.4733 66.734695 1120.4585 64.71998 1120.4585 62.234695C1120.4585 59.749416 1122.4733 57.734695 1124.9585 57.734695C1127.4438 57.734695 1129.4585 59.749416 1129.4585 62.234695Z" fill-rule="nonzero"/><path fill="#192432" clip-path="url(#id_0)" d="M1186.8524 61.712917C1186.8524 64.1982 1184.8376 66.21291 1182.3524 66.21291C1179.8671 66.21291 1177.8524 64.1982 1177.8524 61.712917C1177.8524 59.227634 1179.8671 57.212917 1182.3524 57.212917C1184.8376 57.212917 1186.8524 59.227634 1186.8524 61.712917Z" fill-rule="nonzero"/><path fill="#192432" clip-path="url(#id_0)" d="M1244.2462 61.30749C1244.2462 63.792774 1242.2316 65.807495 1239.7462 65.807495C1237.261 65.807495 1235.2462 63.792774 1235.2462 61.30749C1235.2462 58.822212 1237.261 56.80749 1239.7462 56.80749C1242.2316 56.80749 1244.2462 58.822212 1244.2462 61.30749Z" fill-rule="nonzero"/><path fill="#192432" clip-path="url(#id_0)" d="M1301.6401 60.992477C1301.6401 63.47776 1299.6254 65.49248 1297.1401 65.49248C1294.6548 65.49248 1292.6401 63.47776 1292.6401 60.992477C1292.6401 58.5072 1294.6548 56.492477 1297.1401 56.492477C1299.6254 56.492477 1301.6401 58.5072 1301.6401 60.992477Z" fill-rule="nonzero"/><path fill="#192432" clip-path="url(#id_0)" d="M1359.0339 60.747715C1359.0339 63.232994 1357.0193 65.24771 1354.5339 65.24771C1352.0487 65.24771 1350.0339 63.232994 1350.0339 60.747715C1350.0339 58.262432 1352.0487 56.247715 1354.5339 56.247715C1357.0193 56.247715 1359.0339 58.262432 1359.0339 60.747715Z" fill-rule="nonzero"/><path fill="#192432" clip-path="url(#id_0)" d="M1416.4279 60.55753C1416.4279 63.042812 1414.4131 65.05753 1411.9279 65.05753C1409.4425 65.05753 1407.4279 63.042812 1407.4279 60.55753C1407.4279 58.07225 1409.4425 56.05753 1411.9279 56.05753C1414.4131 56.05753 1416.4279 58.07225 1416.4279 60.55753Z" fill-rule="nonzero"/><path fill="#192432" clip-path="url(#id_0)" d="M1473.8217 60.40976C1473.8217 62.89504 1471.807 64.90976 1469.3217 64.90976C1466.8364 64.90976 1464.8217 62.89504 1464.8217 60.40976C1464.8217 57.924477 1466.8364 55.90976 1469.3217 55.90976C1471.807 55.90976 1473.8217 57.924477 1473.8217 60.40976Z" fill-rule="nonzero"/><path fill="#192432" clip-path="url(#id_0)" d="M1531.2156 60.294937C1531.2156 62.78022 1529.2008 64.79494 1526.7156 64.79494C1524.2302 64.79494 1522.2156 62.78022 1522.2156 60.294937C1522.2156 57.809658 1524.2302 55.794937 1526.7156 55.794937C1529.2008 55.794937 1531.2156 57.809658 1531.2156 60.294937Z" fill-rule="nonzero"/><path stroke="#000000" stroke-width="1.0" stroke-linecap="butt" d="M140.5 326.5L140.5 320.5" fill-rule="nonzero"/><path stroke="#000000" stroke-width="1.0" stroke-linecap="butt" d="M255.5 326.5L255.5 320.5" fill-rule="nonzero"/><path stroke="#000000" stroke-width="1.0" stroke-linecap="butt" d="M370.5 326.5L370.5 320.5" fill-rule="nonzero"/><path stroke="#000000" stroke-width="1.0" stroke-linecap="butt" d="M484.5 326.5L484.5 320.5" fill-rule="nonzero"/><path stroke="#000000" stroke-width="1.0" stroke-linecap="butt" d="M599.5 326.5L599.5 320.5" fill-rule="nonzero"/><path stroke="#000000" stroke-width="1.0" stroke-linecap="butt" d="M83.5 329.5L83.5 317.5" fill-rule="nonzero"/><path stroke="#000000" stroke-width="1.0" stroke-linecap="butt" d="M197.5 329.5L197.5 317.5" fill-rule="nonzero"/><path stroke="#000000" stroke-width="1.0" stroke-linecap="butt" d="M312.5 329.5L312.5 317.5" fill-rule="nonzero"/><path stroke="#000000" stroke-width="1.0" stroke-linecap="butt" d="M427.5 329.5L427.5 317.5" fill-rule="nonzero"/><path stroke="#000000" stroke-width="1.0" stroke-linecap="butt" d="M542.5 329.5L542.5 317.5" fill-rule="nonzero"/><path stroke="#000000" stroke-width="1.0" stroke-linecap="butt" d="M657.5 329.5L657.5 317.5" fill-rule="nonzero"/><path fill="#333333" d="M327.89206 370.75162L323.7358 370.75162L323.7358 381.01724L322.18893 381.01724L322.18893 370.75162L318.03268 370.75162L318.03268 369.37662L327.89206 369.37662L327.89206 370.75162ZM331.06393 370.82974L329.40768 370.82974L329.40768 369.2985L331.06393 369.2985L331.06393 370.82974ZM330.97018 381.01724L329.50143 381.01724L329.50143 372.28287L330.97018 372.28287L330.97018 381.01724ZM347.22018 381.01724L345.75143 381.01724L345.75143 376.0485Q345.75143 375.486 345.68893 374.97037Q345.64206 374.43912 345.4858 374.12662Q345.2983 373.78287 344.95456 373.611Q344.62643 373.43912 344.00143 373.43912Q343.37643 373.43912 342.75143 373.75162Q342.14206 374.06412 341.53268 374.53287Q341.5483 374.72037 341.56393 374.95474Q341.57956 375.18912 341.57956 375.4235L341.57956 381.01724L340.1108 381.01724L340.1108 376.0485Q340.1108 375.47037 340.06393 374.95474Q340.01706 374.4235 339.84518 374.111Q339.6733 373.78287 339.32956 373.611Q339.00143 373.43912 338.3608 373.43912Q337.76706 373.43912 337.15768 373.736Q336.5483 374.03287 335.95456 374.50162L335.95456 381.01724L334.4858 381.01724L334.4858 372.28287L335.95456 372.28287L335.95456 373.25162Q336.64206 372.68912 337.31393 372.37662Q338.00143 372.0485 338.78268 372.0485Q339.6733 372.0485 340.28268 372.4235Q340.90768 372.7985 341.22018 373.45474Q342.1108 372.70474 342.84518 372.37662Q343.57956 372.0485 344.40768 372.0485Q345.84518 372.0485 346.53268 372.9235Q347.22018 373.78287 347.22018 375.34537L347.22018 381.01724ZM356.78268 376.7985L350.3608 376.7985Q350.3608 377.611 350.59518 378.20474Q350.84518 378.7985 351.26706 379.18912Q351.6733 379.56412 352.22018 379.75162Q352.78268 379.93912 353.45456 379.93912Q354.34518 379.93912 355.25143 379.57974Q356.15768 379.22037 356.53268 378.87662L356.6108 378.87662L356.6108 380.486Q355.87643 380.7985 355.09518 381.01724Q354.32956 381.22037 353.47018 381.22037Q351.2983 381.22037 350.07956 380.0485Q348.8608 378.861 348.8608 376.70474Q348.8608 374.56412 350.03268 373.31412Q351.20456 372.0485 353.1108 372.0485Q354.87643 372.0485 355.82956 373.07974Q356.78268 374.111 356.78268 376.00162L356.78268 376.7985ZM355.3608 375.6735Q355.34518 374.51724 354.76706 373.89224Q354.20456 373.25162 353.03268 373.25162Q351.84518 373.25162 351.14206 373.95474Q350.45456 374.64224 350.3608 375.6735L355.3608 375.6735ZM370.15768 384.236L368.3608 384.236Q366.9858 382.65787 366.22018 380.78287Q365.45456 378.89224 365.45456 376.5485Q365.45456 374.18912 366.22018 372.31412Q366.9858 370.43912 368.3608 368.861L370.15768 368.861L370.15768 368.93912Q369.51706 369.50162 368.93893 370.25162Q368.37643 371.00162 367.87643 371.986Q367.40768 372.95474 367.1108 374.111Q366.82956 375.26724 366.82956 376.5485Q366.82956 377.87662 367.1108 378.986Q367.39206 380.09537 367.87643 381.111Q368.34518 382.06412 368.93893 382.84537Q369.5483 383.62662 370.15768 384.15787L370.15768 384.236ZM380.03268 372.28287L374.93893 384.236L373.3608 384.236L374.9858 380.59537L371.51706 372.28287L373.1108 372.28287L375.78268 378.75162L378.4858 372.28287L380.03268 372.28287ZM388.78268 376.7985L382.3608 376.7985Q382.3608 377.611 382.59518 378.20474Q382.84518 378.7985 383.26706 379.18912Q383.6733 379.56412 384.22018 379.75162Q384.78268 379.93912 385.45456 379.93912Q386.34518 379.93912 387.25143 379.57974Q388.15768 379.22037 388.53268 378.87662L388.6108 378.87662L388.6108 380.486Q387.87643 380.7985 387.09518 381.01724Q386.32956 381.22037 385.47018 381.22037Q383.2983 381.22037 382.07956 380.0485Q380.8608 378.861 380.8608 376.70474Q380.8608 374.56412 382.03268 373.31412Q383.20456 372.0485 385.1108 372.0485Q386.87643 372.0485 387.82956 373.07974Q388.78268 374.111 388.78268 376.00162L388.78268 376.7985ZM387.3608 375.6735Q387.34518 374.51724 386.76706 373.89224Q386.20456 373.25162 385.03268 373.25162Q383.84518 373.25162 383.14206 373.95474Q382.45456 374.64224 382.3608 375.6735L387.3608 375.6735ZM398.26706 381.01724L396.7983 381.01724L396.7983 380.07974Q396.6108 380.22037 396.26706 380.45474Q395.93893 380.68912 395.62643 380.82974Q395.26706 381.01724 394.78268 381.14224Q394.31393 381.26724 393.6733 381.26724Q392.4858 381.26724 391.65768 380.486Q390.84518 379.68912 390.84518 378.486Q390.84518 377.486 391.26706 376.87662Q391.70456 376.26724 392.4858 375.90787Q393.28268 375.56412 394.39206 375.43912Q395.51706 375.31412 396.7983 375.25162L396.7983 375.01724Q396.7983 374.51724 396.62643 374.18912Q396.45456 373.861 396.12643 373.6735Q395.81393 373.50162 395.37643 373.43912Q394.93893 373.37662 394.45456 373.37662Q393.87643 373.37662 393.15768 373.53287Q392.45456 373.6735 391.70456 373.97037L391.62643 373.97037L391.62643 372.47037Q392.0483 372.361 392.8608 372.22037Q393.6733 372.07974 394.47018 372.07974Q395.39206 372.07974 396.06393 372.236Q396.75143 372.37662 397.25143 372.75162Q397.75143 373.111 398.00143 373.68912Q398.26706 374.25162 398.26706 375.09537L398.26706 381.01724ZM396.7983 378.861L396.7983 376.43912Q396.12643 376.47037 395.22018 376.5485Q394.31393 376.62662 393.78268 376.78287Q393.14206 376.95474 392.75143 377.34537Q392.3608 377.72037 392.3608 378.37662Q392.3608 379.12662 392.81393 379.51724Q393.26706 379.89224 394.20456 379.89224Q394.97018 379.89224 395.6108 379.59537Q396.25143 379.28287 396.7983 378.861ZM406.9233 373.89224L406.84518 373.89224Q406.51706 373.81412 406.20456 373.78287Q405.90768 373.736 405.4858 373.736Q404.7983 373.736 404.15768 374.0485Q403.53268 374.34537 402.95456 374.81412L402.95456 381.01724L401.4858 381.01724L401.4858 372.28287L402.95456 372.28287L402.95456 373.57974Q403.82956 372.87662 404.4858 372.57974Q405.15768 372.28287 405.8608 372.28287Q406.2358 372.28287 406.40768 372.31412Q406.57956 372.32974 406.9233 372.37662L406.9233 373.89224ZM413.72018 378.50162Q413.72018 379.68912 412.72018 380.47037Q411.7358 381.236 410.03268 381.236Q409.06393 381.236 408.25143 381.00162Q407.43893 380.76724 406.89206 380.486L406.89206 378.84537L406.97018 378.84537Q407.6733 379.361 408.51706 379.6735Q409.37643 379.986 410.15768 379.986Q411.12643 379.986 411.6733 379.6735Q412.22018 379.361 412.22018 378.68912Q412.22018 378.1735 411.9233 377.90787Q411.62643 377.64224 410.78268 377.45474Q410.47018 377.37662 409.95456 377.28287Q409.45456 377.18912 409.0483 377.07974Q407.89206 376.78287 407.40768 376.18912Q406.93893 375.59537 406.93893 374.736Q406.93893 374.20474 407.15768 373.736Q407.37643 373.25162 407.82956 372.87662Q408.26706 372.50162 408.93893 372.2985Q409.62643 372.07974 410.45456 372.07974Q411.2358 372.07974 412.03268 372.26724Q412.84518 372.45474 413.37643 372.736L413.37643 374.2985L413.2983 374.2985Q412.7358 373.89224 411.9233 373.611Q411.12643 373.31412 410.34518 373.31412Q409.5483 373.31412 408.9858 373.62662Q408.43893 373.93912 408.43893 374.5485Q408.43893 375.07974 408.76706 375.361Q409.09518 375.62662 409.82956 375.7985Q410.2358 375.89224 410.7358 375.986Q411.25143 376.07974 411.57956 376.15787Q412.6108 376.39224 413.15768 376.97037Q413.72018 377.5485 413.72018 378.50162ZM420.89206 376.5485Q420.89206 378.89224 420.12643 380.78287Q419.3608 382.65787 417.97018 384.236L416.18893 384.236L416.18893 384.15787Q416.78268 383.62662 417.39206 382.84537Q418.00143 382.06412 418.45456 381.111Q418.93893 380.09537 419.22018 378.986Q419.51706 377.87662 419.51706 376.5485Q419.51706 375.26724 419.22018 374.111Q418.93893 372.95474 418.45456 371.986Q417.97018 371.00162 417.39206 370.25162Q416.81393 369.50162 416.18893 368.93912L416.18893 368.861L417.97018 368.861Q419.3608 370.43912 420.12643 372.31412Q420.89206 374.18912 420.89206 376.5485Z" fill-rule="nonzero"/><path fill="#333333" d="M23.3134 260.5317L23.3134 264.68796L33.579025 264.68796L33.579025 266.23483L23.3134 266.23483L23.3134 270.39108L21.9384 270.39108L21.9384 260.5317L23.3134 260.5317ZM29.21965 251.50047Q31.34465 251.50047 32.59465 252.59422Q33.829025 253.68797 33.829025 255.53172Q33.829025 257.37546 32.59465 258.4692Q31.34465 259.56296 29.21965 259.56296Q27.079025 259.56296 25.84465 258.4692Q24.610275 257.37546 24.610275 255.53172Q24.610275 253.68797 25.84465 252.59422Q27.079025 251.50047 29.21965 251.50047ZM29.21965 253.0161Q27.516525 253.0161 26.704025 253.68797Q25.8759 254.34422 25.8759 255.53172Q25.8759 256.7192 26.704025 257.39108Q27.516525 258.04733 29.21965 258.04733Q30.860275 258.04733 31.704025 257.39108Q32.547775 256.7192 32.547775 255.53172Q32.547775 254.35985 31.71965 253.68797Q30.8759 253.0161 29.21965 253.0161ZM33.579025 241.0161L33.579025 242.9536L29.7509 246.4536L30.65715 247.40672L33.579025 247.40672L33.579025 248.87547L21.422775 248.87547L21.422775 247.40672L29.21965 247.40672L24.84465 243.17235L24.84465 241.31297L28.8759 245.37547L33.579025 241.0161ZM29.360275 232.6411L29.360275 239.06297Q30.172775 239.06297 30.766525 238.8286Q31.360275 238.5786 31.7509 238.15672Q32.1259 237.75047 32.3134 237.2036Q32.5009 236.6411 32.5009 235.96922Q32.5009 235.0786 32.141525 234.17235Q31.78215 233.2661 31.4384 232.8911L31.4384 232.81297L33.047775 232.81297Q33.360275 233.54735 33.579025 234.3286Q33.78215 235.09422 33.78215 235.9536Q33.78215 238.12547 32.610275 239.34422Q31.422775 240.56297 29.266525 240.56297Q27.1259 240.56297 25.8759 239.3911Q24.610275 238.21922 24.610275 236.31297Q24.610275 234.54735 25.641525 233.59422Q26.672775 232.6411 28.5634 232.6411L29.360275 232.6411ZM28.235275 234.06297Q27.079025 234.0786 26.454025 234.65672Q25.8134 235.21922 25.8134 236.3911Q25.8134 237.5786 26.516525 238.28172Q27.204025 238.96922 28.235275 239.06297L28.235275 234.06297ZM33.579025 228.4536L33.579025 229.92235L21.422775 229.92235L21.422775 228.4536L33.579025 228.4536ZM36.797775 214.2661L36.797775 216.06297Q35.21965 217.43797 33.34465 218.2036Q31.454025 218.96922 29.110275 218.96922Q26.7509 218.96922 24.8759 218.2036Q23.0009 217.43797 21.422775 216.06297L21.422775 214.2661L21.5009 214.2661Q22.0634 214.90672 22.8134 215.48485Q23.5634 216.04735 24.547775 216.54735Q25.516525 217.0161 26.672775 217.31297Q27.829025 217.59422 29.110275 217.59422Q30.4384 217.59422 31.547775 217.31297Q32.65715 217.03172 33.672775 216.54735Q34.6259 216.0786 35.40715 215.48485Q36.1884 214.87547 36.71965 214.2661L36.797775 214.2661ZM33.579025 204.3911L33.579025 206.23485L30.21965 208.71922L33.579025 211.2036L33.579025 212.92235L29.21965 209.5161L24.84465 212.8911L24.84465 211.03172L28.141525 208.5786L24.84465 206.10985L24.84465 204.3911L29.141525 207.81297L33.579025 204.3911ZM33.579025 184.2036L33.579025 185.67235L28.610275 185.67235Q28.047775 185.67235 27.53215 185.73485Q27.0009 185.78172 26.6884 185.93797Q26.34465 186.12547 26.172775 186.46922Q26.0009 186.79735 26.0009 187.42235Q26.0009 188.04735 26.3134 188.67235Q26.6259 189.28172 27.09465 189.8911Q27.28215 189.87547 27.516525 189.85985Q27.7509 189.84422 27.985275 189.84422L33.579025 189.84422L33.579025 191.31297L28.610275 191.31297Q28.03215 191.31297 27.516525 191.35985Q26.985275 191.40672 26.672775 191.5786Q26.34465 191.75047 26.172775 192.09422Q26.0009 192.42235 26.0009 193.06297Q26.0009 193.65672 26.297775 194.2661Q26.59465 194.87547 27.0634 195.46922L33.579025 195.46922L33.579025 196.93797L24.84465 196.93797L24.84465 195.46922L25.8134 195.46922Q25.2509 194.78172 24.9384 194.10985Q24.610275 193.42235 24.610275 192.6411Q24.610275 191.75047 24.985275 191.1411Q25.360275 190.5161 26.016525 190.2036Q25.266525 189.31297 24.9384 188.5786Q24.610275 187.84422 24.610275 187.0161Q24.610275 185.5786 25.485275 184.8911Q26.34465 184.2036 27.90715 184.2036L33.579025 184.2036ZM23.391525 180.35985L23.391525 182.0161L21.860275 182.0161L21.860275 180.35985L23.391525 180.35985ZM33.579025 180.4536L33.579025 181.92235L24.84465 181.92235L24.84465 180.4536L33.579025 180.4536ZM33.579025 175.4536L33.579025 176.92235L21.422775 176.92235L21.422775 175.4536L33.579025 175.4536ZM33.579025 170.4536L33.579025 171.92235L21.422775 171.92235L21.422775 170.4536L33.579025 170.4536ZM23.391525 165.35985L23.391525 167.0161L21.860275 167.0161L21.860275 165.35985L23.391525 165.35985ZM33.579025 165.4536L33.579025 166.92235L24.84465 166.92235L24.84465 165.4536L33.579025 165.4536ZM29.21965 154.50047Q31.34465 154.50047 32.59465 155.59422Q33.829025 156.68797 33.829025 158.53172Q33.829025 160.37547 32.59465 161.46922Q31.34465 162.56297 29.21965 162.56297Q27.079025 162.56297 25.84465 161.46922Q24.610275 160.37547 24.610275 158.53172Q24.610275 156.68797 25.84465 155.59422Q27.079025 154.50047 29.21965 154.50047ZM29.21965 156.0161Q27.516525 156.0161 26.704025 156.68797Q25.8759 157.34422 25.8759 158.53172Q25.8759 159.71922 26.704025 160.3911Q27.516525 161.04735 29.21965 161.04735Q30.860275 161.04735 31.704025 160.3911Q32.547775 159.71922 32.547775 158.53172Q32.547775 157.35985 31.71965 156.68797Q30.8759 156.0161 29.21965 156.0161ZM33.579025 144.6411L33.579025 146.10985L28.610275 146.10985Q28.0009 146.10985 27.485275 146.18797Q26.954025 146.25047 26.65715 146.43797Q26.329025 146.6411 26.172775 147.0161Q26.0009 147.37547 26.0009 147.9536Q26.0009 148.56297 26.297775 149.21922Q26.59465 149.87547 27.0634 150.46922L33.579025 150.46922L33.579025 151.93797L24.84465 151.93797L24.84465 150.46922L25.8134 150.46922Q25.2509 149.78172 24.9384 149.04735Q24.610275 148.31297 24.610275 147.54735Q24.610275 146.12547 25.46965 145.3911Q26.3134 144.6411 27.90715 144.6411L33.579025 144.6411ZM29.110275 137.53172Q31.454025 137.53172 33.34465 138.29735Q35.21965 139.06297 36.797775 140.4536L36.797775 142.23485L36.71965 142.23485Q36.1884 141.6411 35.40715 141.03172Q34.6259 140.42235 33.672775 139.96922Q32.65715 139.48485 31.547775 139.2036Q30.4384 138.90672 29.110275 138.90672Q27.829025 138.90672 26.672775 139.2036Q25.516525 139.48485 24.547775 139.96922Q23.5634 140.4536 22.8134 141.03172Q22.0634 141.60985 21.5009 142.23485L21.422775 142.23485L21.422775 140.4536Q23.0009 139.06297 24.8759 138.29735Q26.7509 137.53172 29.110275 137.53172Z" fill-rule="nonzero"/><path fill="#666666" d="M66.12587 326.65625Q66.12587 327.98438 65.09462 328.85938Q64.078995 329.73438 62.516495 329.73438Q60.860245 329.73438 59.87587 328.875Q58.891495 328.01562 58.891495 326.6875Q58.891495 325.84375 59.37587 325.15625Q59.87587 324.46875 60.78212 324.0625L60.78212 324.03125Q59.953995 323.59375 59.56337 323.07812Q59.172745 322.54688 59.172745 321.76562Q59.172745 320.625 60.110245 319.85938Q61.06337 319.09375 62.516495 319.09375Q64.03212 319.09375 64.93837 319.82812Q65.860245 320.54688 65.860245 321.67188Q65.860245 322.375 65.422745 323.04688Q65.00087 323.70312 64.15712 324.07812L64.15712 324.125Q65.12587 324.53125 65.62587 325.14062Q66.12587 325.73438 66.12587 326.65625ZM64.516495 321.6875Q64.516495 320.96875 63.93837 320.53125Q63.37587 320.09375 62.50087 320.09375Q61.641495 320.09375 61.09462 320.5Q60.547745 320.90625 60.547745 321.60938Q60.547745 322.10938 60.81337 322.46875Q61.09462 322.82812 61.65712 323.09375Q61.90712 323.21875 62.37587 323.42188Q62.860245 323.625 63.31337 323.75Q63.985245 323.29688 64.25087 322.8125Q64.516495 322.32812 64.516495 321.6875ZM64.71962 326.79688Q64.71962 326.15625 64.43837 325.78125Q64.172745 325.40625 63.360245 325.01562Q63.047745 324.875 62.65712 324.75Q62.28212 324.60938 61.641495 324.375Q61.016495 324.71875 60.641495 325.29688Q60.28212 325.85938 60.28212 326.59375Q60.28212 327.51562 60.90712 328.125Q61.547745 328.71875 62.53212 328.71875Q63.53212 328.71875 64.12587 328.20312Q64.71962 327.6875 64.71962 326.79688ZM75.047745 324.40625Q75.047745 327.14062 74.18837 328.4375Q73.328995 329.71875 71.516495 329.71875Q69.68837 329.71875 68.84462 328.42188Q68.00087 327.10938 68.00087 324.42188Q68.00087 321.70312 68.84462 320.40625Q69.703995 319.10938 71.516495 319.10938Q73.360245 319.10938 74.203995 320.4375Q75.047745 321.75 75.047745 324.40625ZM73.25087 327.51562Q73.485245 326.95312 73.56337 326.20312Q73.65712 325.45312 73.65712 324.40625Q73.65712 323.375 73.56337 322.60938Q73.485245 321.84375 73.235245 321.29688Q73.00087 320.78125 72.578995 320.51562Q72.172745 320.25 71.516495 320.25Q70.87587 320.25 70.453995 320.51562Q70.03212 320.78125 69.797745 321.3125Q69.56337 321.82812 69.46962 322.64062Q69.391495 323.45312 69.391495 324.42188Q69.391495 325.48438 69.453995 326.20312Q69.53212 326.92188 69.78212 327.48438Q70.016495 328.01562 70.422745 328.29688Q70.84462 328.57812 71.516495 328.57812Q72.15712 328.57812 72.578995 328.3125Q73.016495 328.04688 73.25087 327.51562Z" fill-rule="nonzero"/><path fill="#666666" d="M56.46962 285.65753L50.96962 285.65753L50.96962 284.61066L53.078995 284.61066L53.078995 277.79816L50.96962 277.79816L50.96962 276.86066Q51.391495 276.86066 51.87587 276.79816Q52.37587 276.72003 52.62587 276.5794Q52.953995 276.40753 53.12587 276.15753Q53.31337 275.8919 53.328995 275.43878L54.391495 275.43878L54.391495 284.61066L56.46962 284.61066L56.46962 285.65753ZM66.047745 280.56378Q66.047745 283.29816 65.18837 284.59503Q64.328995 285.87628 62.516495 285.87628Q60.68837 285.87628 59.84462 284.5794Q59.00087 283.2669 59.00087 280.5794Q59.00087 277.86066 59.84462 276.56378Q60.703995 275.2669 62.516495 275.2669Q64.360245 275.2669 65.203995 276.59503Q66.047745 277.90753 66.047745 280.56378ZM64.25087 283.67316Q64.485245 283.11066 64.56337 282.36066Q64.65712 281.61066 64.65712 280.56378Q64.65712 279.53253 64.56337 278.7669Q64.485245 278.00128 64.235245 277.4544Q64.00087 276.93878 63.578995 276.67316Q63.172745 276.40753 62.516495 276.40753Q61.87587 276.40753 61.453995 276.67316Q61.03212 276.93878 60.797745 277.47003Q60.56337 277.98566 60.46962 278.79816Q60.391495 279.61066 60.391495 280.5794Q60.391495 281.6419 60.453995 282.36066Q60.53212 283.0794 60.78212 283.6419Q61.016495 284.17316 61.422745 284.4544Q61.84462 284.73566 62.516495 284.73566Q63.15712 284.73566 63.578995 284.47003Q64.016495 284.2044 64.25087 283.67316ZM75.047745 280.56378Q75.047745 283.29816 74.18837 284.59503Q73.328995 285.87628 71.516495 285.87628Q69.68837 285.87628 68.84462 284.5794Q68.00087 283.2669 68.00087 280.5794Q68.00087 277.86066 68.84462 276.56378Q69.703995 275.2669 71.516495 275.2669Q73.360245 275.2669 74.203995 276.59503Q75.047745 277.90753 75.047745 280.56378ZM73.25087 283.67316Q73.485245 283.11066 73.56337 282.36066Q73.65712 281.61066 73.65712 280.56378Q73.65712 279.53253 73.56337 278.7669Q73.485245 278.00128 73.235245 277.4544Q73.00087 276.93878 72.578995 276.67316Q72.172745 276.40753 71.516495 276.40753Q70.87587 276.40753 70.453995 276.67316Q70.03212 276.93878 69.797745 277.47003Q69.56337 277.98566 69.46962 278.79816Q69.391495 279.61066 69.391495 280.5794Q69.391495 281.6419 69.453995 282.36066Q69.53212 283.0794 69.78212 283.6419Q70.016495 284.17316 70.422745 284.4544Q70.84462 284.73566 71.516495 284.73566Q72.15712 284.73566 72.578995 284.47003Q73.016495 284.2044 73.25087 283.67316Z" fill-rule="nonzero"/><path fill="#666666" d="M56.46962 241.81506L50.96962 241.81506L50.96962 240.76819L53.078995 240.76819L53.078995 233.95569L50.96962 233.95569L50.96962 233.01819Q51.391495 233.01819 51.87587 232.95569Q52.37587 232.87756 52.62587 232.73694Q52.953995 232.56506 53.12587 232.31506Q53.31337 232.04944 53.328995 231.59631L54.391495 231.59631L54.391495 240.76819L56.46962 240.76819L56.46962 241.81506ZM66.047745 241.81506L59.15712 241.81506L59.15712 240.39319Q59.87587 239.76819 60.59462 239.15881Q61.328995 238.53381 61.953995 237.92444Q63.266495 236.65881 63.75087 235.90881Q64.235245 235.15881 64.235245 234.29944Q64.235245 233.50256 63.703995 233.06506Q63.18837 232.61194 62.25087 232.61194Q61.62587 232.61194 60.891495 232.83069Q60.172745 233.04944 59.485245 233.50256L59.422745 233.50256L59.422745 232.06506Q59.90712 231.81506 60.703995 231.62756Q61.516495 231.42444 62.28212 231.42444Q63.84462 231.42444 64.735245 232.19006Q65.62587 232.94006 65.62587 234.22131Q65.62587 234.81506 65.46962 235.31506Q65.328995 235.81506 65.047745 236.26819Q64.78212 236.69006 64.422745 237.09631Q64.06337 237.50256 63.547745 238.00256Q62.81337 238.72131 62.03212 239.39319Q61.25087 240.06506 60.578995 240.64319L66.047745 240.64319L66.047745 241.81506ZM75.047745 236.72131Q75.047745 239.45569 74.18837 240.75256Q73.328995 242.03381 71.516495 242.03381Q69.68837 242.03381 68.84462 240.73694Q68.00087 239.42444 68.00087 236.73694Q68.00087 234.01819 68.84462 232.72131Q69.703995 231.42444 71.516495 231.42444Q73.360245 231.42444 74.203995 232.75256Q75.047745 234.06506 75.047745 236.72131ZM73.25087 239.83069Q73.485245 239.26819 73.56337 238.51819Q73.65712 237.76819 73.65712 236.72131Q73.65712 235.69006 73.56337 234.92444Q73.485245 234.15881 73.235245 233.61194Q73.00087 233.09631 72.578995 232.83069Q72.172745 232.56506 71.516495 232.56506Q70.87587 232.56506 70.453995 232.83069Q70.03212 233.09631 69.797745 233.62756Q69.56337 234.14319 69.46962 234.95569Q69.391495 235.76819 69.391495 236.73694Q69.391495 237.79944 69.453995 238.51819Q69.53212 239.23694 69.78212 239.79944Q70.016495 240.33069 70.422745 240.61194Q70.84462 240.89319 71.516495 240.89319Q72.15712 240.89319 72.578995 240.62756Q73.016495 240.36194 73.25087 239.83069Z" fill-rule="nonzero"/><path fill="#666666" d="M56.46962 197.9726L50.96962 197.9726L50.96962 196.92572L53.078995 196.92572L53.078995 190.11322L50.96962 190.11322L50.96962 189.17572Q51.391495 189.17572 51.87587 189.11322Q52.37587 189.0351 52.62587 188.89447Q52.953995 188.7226 53.12587 188.4726Q53.31337 188.20697 53.328995 187.75385L54.391495 187.75385L54.391495 196.92572L56.46962 196.92572L56.46962 197.9726ZM66.28212 195.11322L64.78212 195.11322L64.78212 197.9726L63.46962 197.9726L63.46962 195.11322L58.59462 195.11322L58.59462 193.5351L63.516495 187.80072L64.78212 187.80072L64.78212 194.01947L66.28212 194.01947L66.28212 195.11322ZM63.46962 194.01947L63.46962 189.42572L59.516495 194.01947L63.46962 194.01947ZM75.047745 192.87885Q75.047745 195.61322 74.18837 196.9101Q73.328995 198.19135 71.516495 198.19135Q69.68837 198.19135 68.84462 196.89447Q68.00087 195.58197 68.00087 192.89447Q68.00087 190.17572 68.84462 188.87885Q69.703995 187.58197 71.516495 187.58197Q73.360245 187.58197 74.203995 188.9101Q75.047745 190.2226 75.047745 192.87885ZM73.25087 195.98822Q73.485245 195.42572 73.56337 194.67572Q73.65712 193.92572 73.65712 192.87885Q73.65712 191.8476 73.56337 191.08197Q73.485245 190.31635 73.235245 189.76947Q73.00087 189.25385 72.578995 188.98822Q72.172745 188.7226 71.516495 188.7226Q70.87587 188.7226 70.453995 188.98822Q70.03212 189.25385 69.797745 189.7851Q69.56337 190.30072 69.46962 191.11322Q69.391495 191.92572 69.391495 192.89447Q69.391495 193.95697 69.453995 194.67572Q69.53212 195.39447 69.78212 195.95697Q70.016495 196.48822 70.422745 196.76947Q70.84462 197.05072 71.516495 197.05072Q72.15712 197.05072 72.578995 196.7851Q73.016495 196.51947 73.25087 195.98822Z" fill-rule="nonzero"/><path fill="#666666" d="M56.46962 154.13013L50.96962 154.13013L50.96962 153.08325L53.078995 153.08325L53.078995 146.27075L50.96962 146.27075L50.96962 145.33325Q51.391495 145.33325 51.87587 145.27075Q52.37587 145.19263 52.62587 145.052Q52.953995 144.88013 53.12587 144.63013Q53.31337 144.3645 53.328995 143.91138L54.391495 143.91138L54.391495 153.08325L56.46962 153.08325L56.46962 154.13013ZM66.203995 150.83325Q66.203995 152.38013 65.172745 153.3645Q64.15712 154.34888 62.672745 154.34888Q61.922745 154.34888 61.297745 154.1145Q60.68837 153.88013 60.21962 153.41138Q59.641495 152.84888 59.31337 151.91138Q59.00087 150.97388 59.00087 149.66138Q59.00087 148.302 59.28212 147.25513Q59.578995 146.20825 60.21962 145.39575Q60.81337 144.63013 61.766495 144.19263Q62.71962 143.75513 63.985245 143.75513Q64.391495 143.75513 64.65712 143.802Q64.93837 143.83325 65.21962 143.91138L65.21962 145.22388L65.141495 145.22388Q64.953995 145.1145 64.56337 145.03638Q64.18837 144.94263 63.78212 144.94263Q62.31337 144.94263 61.43837 145.8645Q60.56337 146.77075 60.422745 148.33325Q60.985245 147.9895 61.547745 147.81763Q62.110245 147.63013 62.828995 147.63013Q63.485245 147.63013 63.96962 147.75513Q64.46962 147.8645 65.00087 148.22388Q65.59462 148.64575 65.891495 149.28638Q66.203995 149.91138 66.203995 150.83325ZM64.81337 150.88013Q64.81337 150.2395 64.62587 149.83325Q64.43837 149.41138 64.016495 149.09888Q63.703995 148.88013 63.31337 148.81763Q62.93837 148.75513 62.516495 148.75513Q61.93837 148.75513 61.43837 148.89575Q60.93837 149.02075 60.40712 149.31763Q60.391495 149.45825 60.37587 149.59888Q60.37587 149.7395 60.37587 149.95825Q60.37587 151.03638 60.59462 151.66138Q60.828995 152.28638 61.21962 152.64575Q61.53212 152.94263 61.891495 153.08325Q62.266495 153.22388 62.68837 153.22388Q63.68837 153.22388 64.25087 152.63013Q64.81337 152.02075 64.81337 150.88013ZM75.047745 149.03638Q75.047745 151.77075 74.18837 153.06763Q73.328995 154.34888 71.516495 154.34888Q69.68837 154.34888 68.84462 153.052Q68.00087 151.7395 68.00087 149.052Q68.00087 146.33325 68.84462 145.03638Q69.703995 143.7395 71.516495 143.7395Q73.360245 143.7395 74.203995 145.06763Q75.047745 146.38013 75.047745 149.03638ZM73.25087 152.14575Q73.485245 151.58325 73.56337 150.83325Q73.65712 150.08325 73.65712 149.03638Q73.65712 148.00513 73.56337 147.2395Q73.485245 146.47388 73.235245 145.927Q73.00087 145.41138 72.578995 145.14575Q72.172745 144.88013 71.516495 144.88013Q70.87587 144.88013 70.453995 145.14575Q70.03212 145.41138 69.797745 145.94263Q69.56337 146.45825 69.46962 147.27075Q69.391495 148.08325 69.391495 149.052Q69.391495 150.1145 69.453995 150.83325Q69.53212 151.552 69.78212 152.1145Q70.016495 152.64575 70.422745 152.927Q70.84462 153.20825 71.516495 153.20825Q72.15712 153.20825 72.578995 152.94263Q73.016495 152.677 73.25087 152.14575Z" fill-rule="nonzero"/><path fill="#666666" d="M56.46962 110.28766L50.96962 110.28766L50.96962 109.24078L53.078995 109.24078L53.078995 102.42828L50.96962 102.42828L50.96962 101.49078Q51.391495 101.49078 51.87587 101.42828Q52.37587 101.35016 52.62587 101.20953Q52.953995 101.03766 53.12587 100.78766Q53.31337 100.52203 53.328995 100.06891L54.391495 100.06891L54.391495 109.24078L56.46962 109.24078L56.46962 110.28766ZM66.12587 107.44391Q66.12587 108.77203 65.09462 109.64703Q64.078995 110.52203 62.516495 110.52203Q60.860245 110.52203 59.87587 109.66266Q58.891495 108.80328 58.891495 107.47516Q58.891495 106.63141 59.37587 105.94391Q59.87587 105.25641 60.78212 104.85016L60.78212 104.81891Q59.953995 104.38141 59.56337 103.86578Q59.172745 103.33453 59.172745 102.55328Q59.172745 101.41266 60.110245 100.64703Q61.06337 99.88141 62.516495 99.88141Q64.03212 99.88141 64.93837 100.61578Q65.860245 101.33453 65.860245 102.45953Q65.860245 103.16266 65.422745 103.83453Q65.00087 104.49078 64.15712 104.86578L64.15712 104.91266Q65.12587 105.31891 65.62587 105.92828Q66.12587 106.52203 66.12587 107.44391ZM64.516495 102.47516Q64.516495 101.75641 63.93837 101.31891Q63.37587 100.88141 62.50087 100.88141Q61.641495 100.88141 61.09462 101.28766Q60.547745 101.69391 60.547745 102.39703Q60.547745 102.89703 60.81337 103.25641Q61.09462 103.61578 61.65712 103.88141Q61.90712 104.00641 62.37587 104.20953Q62.860245 104.41266 63.31337 104.53766Q63.985245 104.08453 64.25087 103.60016Q64.516495 103.11578 64.516495 102.47516ZM64.71962 107.58453Q64.71962 106.94391 64.43837 106.56891Q64.172745 106.19391 63.360245 105.80328Q63.047745 105.66266 62.65712 105.53766Q62.28212 105.39703 61.641495 105.16266Q61.016495 105.50641 60.641495 106.08453Q60.28212 106.64703 60.28212 107.38141Q60.28212 108.30328 60.90712 108.91266Q61.547745 109.50641 62.53212 109.50641Q63.53212 109.50641 64.12587 108.99078Q64.71962 108.47516 64.71962 107.58453ZM75.047745 105.19391Q75.047745 107.92828 74.18837 109.22516Q73.328995 110.50641 71.516495 110.50641Q69.68837 110.50641 68.84462 109.20953Q68.00087 107.89703 68.00087 105.20953Q68.00087 102.49078 68.84462 101.19391Q69.703995 99.89703 71.516495 99.89703Q73.360245 99.89703 74.203995 101.22516Q75.047745 102.53766 75.047745 105.19391ZM73.25087 108.30328Q73.485245 107.74078 73.56337 106.99078Q73.65712 106.24078 73.65712 105.19391Q73.65712 104.16266 73.56337 103.39703Q73.485245 102.63141 73.235245 102.08453Q73.00087 101.56891 72.578995 101.30328Q72.172745 101.03766 71.516495 101.03766Q70.87587 101.03766 70.453995 101.30328Q70.03212 101.56891 69.797745 102.10016Q69.56337 102.61578 69.46962 103.42828Q69.391495 104.24078 69.391495 105.20953Q69.391495 106.27203 69.453995 106.99078Q69.53212 107.70953 69.78212 108.27203Q70.016495 108.80328 70.422745 109.08453Q70.84462 109.36578 71.516495 109.36578Q72.15712 109.36578 72.578995 109.10016Q73.016495 108.83453 73.25087 108.30328Z" fill-rule="nonzero"/><path fill="#666666" d="M57.047745 66.44519L50.15712 66.44519L50.15712 65.023315Q50.87587 64.398315 51.59462 63.78894Q52.328995 63.16394 52.953995 62.554565Q54.266495 61.28894 54.75087 60.53894Q55.235245 59.78894 55.235245 58.929565Q55.235245 58.13269 54.703995 57.69519Q54.18837 57.242065 53.25087 57.242065Q52.62587 57.242065 51.891495 57.460815Q51.172745 57.679565 50.485245 58.13269L50.422745 58.13269L50.422745 56.69519Q50.90712 56.44519 51.703995 56.25769Q52.516495 56.054565 53.28212 56.054565Q54.84462 56.054565 55.735245 56.82019Q56.62587 57.57019 56.62587 58.85144Q56.62587 59.44519 56.46962 59.94519Q56.328995 60.44519 56.047745 60.898315Q55.78212 61.32019 55.422745 61.72644Q55.06337 62.13269 54.547745 62.63269Q53.81337 63.35144 53.03212 64.023315Q52.25087 64.69519 51.578995 65.273315L57.047745 65.273315L57.047745 66.44519ZM66.047745 61.35144Q66.047745 64.085815 65.18837 65.38269Q64.328995 66.66394 62.516495 66.66394Q60.68837 66.66394 59.84462 65.367065Q59.00087 64.054565 59.00087 61.367065Q59.00087 58.648315 59.84462 57.35144Q60.703995 56.054565 62.516495 56.054565Q64.360245 56.054565 65.203995 57.38269Q66.047745 58.69519 66.047745 61.35144ZM64.25087 64.460815Q64.485245 63.898315 64.56337 63.148315Q64.65712 62.398315 64.65712 61.35144Q64.65712 60.32019 64.56337 59.554565Q64.485245 58.78894 64.235245 58.242065Q64.00087 57.72644 63.578995 57.460815Q63.172745 57.19519 62.516495 57.19519Q61.87587 57.19519 61.453995 57.460815Q61.03212 57.72644 60.797745 58.25769Q60.56337 58.773315 60.46962 59.585815Q60.391495 60.398315 60.391495 61.367065Q60.391495 62.429565 60.453995 63.148315Q60.53212 63.867065 60.78212 64.429565Q61.016495 64.960815 61.422745 65.242065Q61.84462 65.523315 62.516495 65.523315Q63.15712 65.523315 63.578995 65.25769Q64.016495 64.992065 64.25087 64.460815ZM75.047745 61.35144Q75.047745 64.085815 74.18837 65.38269Q73.328995 66.66394 71.516495 66.66394Q69.68837 66.66394 68.84462 65.367065Q68.00087 64.054565 68.00087 61.367065Q68.00087 58.648315 68.84462 57.35144Q69.703995 56.054565 71.516495 56.054565Q73.360245 56.054565 74.203995 57.38269Q75.047745 58.69519 75.047745 61.35144ZM73.25087 64.460815Q73.485245 63.898315 73.56337 63.148315Q73.65712 62.398315 73.65712 61.35144Q73.65712 60.32019 73.56337 59.554565Q73.485245 58.78894 73.235245 58.242065Q73.00087 57.72644 72.578995 57.460815Q72.172745 57.19519 71.516495 57.19519Q70.87587 57.19519 70.453995 57.460815Q70.03212 57.72644 69.797745 58.25769Q69.56337 58.773315 69.46962 59.585815Q69.391495 60.398315 69.391495 61.367065Q69.391495 62.429565 69.453995 63.148315Q69.53212 63.867065 69.78212 64.429565Q70.016495 64.960815 70.422745 65.242065Q70.84462 65.523315 71.516495 65.523315Q72.15712 65.523315 72.578995 65.25769Q73.016495 64.992065 73.25087 64.460815Z" fill-rule="nonzero"/><path fill="#666666" d="M86.547745 346.40625Q86.547745 349.14062 85.68837 350.4375Q84.828995 351.71875 83.016495 351.71875Q81.18837 351.71875 80.34462 350.42188Q79.50087 349.10938 79.50087 346.42188Q79.50087 343.70312 80.34462 342.40625Q81.203995 341.10938 83.016495 341.10938Q84.860245 341.10938 85.703995 342.4375Q86.547745 343.75 86.547745 346.40625ZM84.75087 349.51562Q84.985245 348.95312 85.06337 348.20312Q85.15712 347.45312 85.15712 346.40625Q85.15712 345.375 85.06337 344.60938Q84.985245 343.84375 84.735245 343.29688Q84.50087 342.78125 84.078995 342.51562Q83.672745 342.25 83.016495 342.25Q82.37587 342.25 81.953995 342.51562Q81.53212 342.78125 81.297745 343.3125Q81.06337 343.82812 80.96962 344.64062Q80.891495 345.45312 80.891495 346.42188Q80.891495 347.48438 80.953995 348.20312Q81.03212 348.92188 81.28212 349.48438Q81.516495 350.01562 81.922745 350.29688Q82.34462 350.57812 83.016495 350.57812Q83.65712 350.57812 84.078995 350.3125Q84.516495 350.04688 84.75087 349.51562Z" fill-rule="nonzero"/><path fill="#666666" d="M201.33546 351.5L194.44484 351.5L194.44484 350.07812Q195.16359 349.45312 195.88234 348.84375Q196.61671 348.21875 197.24171 347.60938Q198.55421 346.34375 199.03859 345.59375Q199.52296 344.84375 199.52296 343.98438Q199.52296 343.1875 198.99171 342.75Q198.47609 342.29688 197.53859 342.29688Q196.91359 342.29688 196.17921 342.51562Q195.46046 342.73438 194.77296 343.1875L194.71046 343.1875L194.71046 341.75Q195.19484 341.5 195.99171 341.3125Q196.80421 341.10938 197.56984 341.10938Q199.13234 341.10938 200.02296 341.875Q200.91359 342.625 200.91359 343.90625Q200.91359 344.5 200.75734 345.0Q200.61671 345.5 200.33546 345.95312Q200.06984 346.375 199.71046 346.78125Q199.35109 347.1875 198.83546 347.6875Q198.10109 348.40625 197.31984 349.07812Q196.53859 349.75 195.86671 350.32812L201.33546 350.32812L201.33546 351.5Z" fill-rule="nonzero"/><path fill="#666666" d="M316.35757 348.64062L314.85757 348.64062L314.85757 351.5L313.54507 351.5L313.54507 348.64062L308.67007 348.64062L308.67007 347.0625L313.59195 341.32812L314.85757 341.32812L314.85757 347.54688L316.35757 347.54688L316.35757 348.64062ZM313.54507 347.54688L313.54507 342.95312L309.59195 347.54688L313.54507 347.54688Z" fill-rule="nonzero"/><path fill="#666666" d="M431.06717 348.20312Q431.06717 349.75 430.03592 350.73438Q429.0203 351.71875 427.53592 351.71875Q426.78592 351.71875 426.16092 351.48438Q425.55154 351.25 425.0828 350.78125Q424.50467 350.21875 424.17654 349.28125Q423.86404 348.34375 423.86404 347.03125Q423.86404 345.67188 424.1453 344.625Q424.44217 343.57812 425.0828 342.76562Q425.67654 342.0 426.62967 341.5625Q427.5828 341.125 428.84842 341.125Q429.25467 341.125 429.5203 341.17188Q429.80154 341.20312 430.0828 341.28125L430.0828 342.59375L430.00467 342.59375Q429.81717 342.48438 429.42654 342.40625Q429.05154 342.3125 428.6453 342.3125Q427.17654 342.3125 426.30154 343.23438Q425.42654 344.14062 425.28592 345.70312Q425.84842 345.35938 426.41092 345.1875Q426.97342 345.0 427.69217 345.0Q428.34842 345.0 428.8328 345.125Q429.3328 345.23438 429.86404 345.59375Q430.4578 346.01562 430.75467 346.65625Q431.06717 347.28125 431.06717 348.20312ZM429.67654 348.25Q429.67654 347.60938 429.48904 347.20312Q429.30154 346.78125 428.87967 346.46875Q428.56717 346.25 428.17654 346.1875Q427.80154 346.125 427.37967 346.125Q426.80154 346.125 426.30154 346.26562Q425.80154 346.39062 425.2703 346.6875Q425.25467 346.82812 425.23904 346.96875Q425.23904 347.10938 425.23904 347.32812Q425.23904 348.40625 425.4578 349.03125Q425.69217 349.65625 426.0828 350.01562Q426.3953 350.3125 426.75467 350.45312Q427.12967 350.59375 427.55154 350.59375Q428.55154 350.59375 429.11404 350.0Q429.67654 349.39062 429.67654 348.25Z" fill-rule="nonzero"/><path fill="#666666" d="M545.77673 348.65625Q545.77673 349.98438 544.7455 350.85938Q543.72986 351.73438 542.16736 351.73438Q540.5111 351.73438 539.52673 350.875Q538.54236 350.01562 538.54236 348.6875Q538.54236 347.84375 539.02673 347.15625Q539.52673 346.46875 540.433 346.0625L540.433 346.03125Q539.60486 345.59375 539.21423 345.07812Q538.8236 344.54688 538.8236 343.76562Q538.8236 342.625 539.7611 341.85938Q540.71423 341.09375 542.16736 341.09375Q543.683 341.09375 544.58923 341.82812Q545.5111 342.54688 545.5111 343.67188Q545.5111 344.375 545.0736 345.04688Q544.65173 345.70312 543.808 346.07812L543.808 346.125Q544.77673 346.53125 545.27673 347.14062Q545.77673 347.73438 545.77673 348.65625ZM544.16736 343.6875Q544.16736 342.96875 543.58923 342.53125Q543.02673 342.09375 542.15173 342.09375Q541.29236 342.09375 540.7455 342.5Q540.1986 342.90625 540.1986 343.60938Q540.1986 344.10938 540.46423 344.46875Q540.7455 344.82812 541.308 345.09375Q541.558 345.21875 542.02673 345.42188Q542.5111 345.625 542.96423 345.75Q543.6361 345.29688 543.90173 344.8125Q544.16736 344.32812 544.16736 343.6875ZM544.3705 348.79688Q544.3705 348.15625 544.08923 347.78125Q543.8236 347.40625 543.0111 347.01562Q542.6986 346.875 542.308 346.75Q541.933 346.60938 541.29236 346.375Q540.66736 346.71875 540.29236 347.29688Q539.933 347.85938 539.933 348.59375Q539.933 349.51562 540.558 350.125Q541.1986 350.71875 542.183 350.71875Q543.183 350.71875 543.77673 350.20312Q544.3705 349.6875 544.3705 348.79688Z" fill-rule="nonzero"/><path fill="#666666" d="M655.4082 351.5L649.9082 351.5L649.9082 350.45312L652.0176 350.45312L652.0176 343.64062L649.9082 343.64062L649.9082 342.70312Q650.3301 342.70312 650.81445 342.64062Q651.31445 342.5625 651.56445 342.42188Q651.8926 342.25 652.06445 342.0Q652.25195 341.73438 652.2676 341.28125L653.3301 341.28125L653.3301 350.45312L655.4082 350.45312L655.4082 351.5ZM664.9863 346.40625Q664.9863 349.14062 664.12695 350.4375Q663.2676 351.71875 661.4551 351.71875Q659.62695 351.71875 658.7832 350.42188Q657.93945 349.10938 657.93945 346.42188Q657.93945 343.70312 658.7832 342.40625Q659.6426 341.10938 661.4551 341.10938Q663.2988 341.10938 664.1426 342.4375Q664.9863 343.75 664.9863 346.40625ZM663.18945 349.51562Q663.4238 348.95312 663.50195 348.20312Q663.5957 347.45312 663.5957 346.40625Q663.5957 345.375 663.50195 344.60938Q663.4238 343.84375 663.1738 343.29688Q662.93945 342.78125 662.5176 342.51562Q662.1113 342.25 661.4551 342.25Q660.81445 342.25 660.3926 342.51562Q659.9707 342.78125 659.7363 343.3125Q659.50195 343.82812 659.4082 344.64062Q659.3301 345.45312 659.3301 346.42188Q659.3301 347.48438 659.3926 348.20312Q659.4707 348.92188 659.7207 349.48438Q659.9551 350.01562 660.3613 350.29688Q660.7832 350.57812 661.4551 350.57812Q662.0957 350.57812 662.5176 350.3125Q662.9551 350.04688 663.18945 349.51562Z" fill-rule="nonzero"/><path fill="#666666" d="M200.61862 25.726227L195.4155 25.726227L195.4155 38.55435L193.49362 38.55435L193.49362 25.726227L188.2905 25.726227L188.2905 24.007477L200.61862 24.007477L200.61862 25.726227ZM211.39987 33.101227Q211.39987 35.7731 210.02487 37.319977Q208.6655 38.851227 206.36862 38.851227Q204.05612 38.851227 202.68112 37.319977Q201.32175 35.7731 201.32175 33.101227Q201.32175 30.444977 202.68112 28.898102Q204.05612 27.335602 206.36862 27.335602Q208.6655 27.335602 210.02487 28.898102Q211.39987 30.444977 211.39987 33.101227ZM209.49362 33.101227Q209.49362 30.991852 208.6655 29.960602Q207.83737 28.929352 206.36862 28.929352Q204.86862 28.929352 204.0405 29.960602Q203.228 30.991852 203.228 33.101227Q203.228 35.1481 204.05612 36.2106Q204.88425 37.2731 206.36862 37.2731Q207.83737 37.2731 208.6655 36.226227Q209.49362 35.17935 209.49362 33.101227ZM223.99362 38.55435L221.57175 38.55435L217.19675 33.7731L216.00925 34.913727L216.00925 38.55435L214.18112 38.55435L214.18112 23.351227L216.00925 23.351227L216.00925 33.101227L221.32175 27.648102L223.63425 27.648102L218.55612 32.67935L223.99362 38.55435ZM235.228 33.288727L227.19675 33.288727Q227.19675 34.288727 227.49362 35.038727Q227.7905 35.788727 228.32175 36.2731Q228.83737 36.74185 229.52487 36.976227Q230.228 37.2106 231.07175 37.2106Q232.18112 37.2106 233.30612 36.7731Q234.43112 36.319977 234.9155 35.882477L235.00925 35.882477L235.00925 37.882477Q234.08737 38.2731 233.11862 38.538727Q232.14987 38.80435 231.08737 38.80435Q228.36862 38.80435 226.83737 37.3356Q225.32175 35.86685 225.32175 33.163727Q225.32175 30.491852 226.77487 28.913727Q228.24362 27.335602 230.63425 27.335602Q232.83737 27.335602 234.02487 28.632477Q235.228 29.913727 235.228 32.288727L235.228 33.288727ZM233.44675 31.882477Q233.43112 30.444977 232.71237 29.648102Q231.99362 28.851227 230.52487 28.851227Q229.05612 28.851227 228.18112 29.726227Q227.30612 30.601227 227.19675 31.882477L233.44675 31.882477ZM239.94675 38.55435L238.11862 38.55435L238.11862 23.351227L239.94675 23.351227L239.94675 38.55435ZM262.478 37.49185Q261.93112 37.726227 261.49362 37.944977Q261.07175 38.1481 260.36862 38.36685Q259.77487 38.55435 259.07175 38.67935Q258.36862 38.819977 257.5405 38.819977Q255.94675 38.819977 254.64987 38.382477Q253.36862 37.92935 252.39987 36.976227Q251.46237 36.05435 250.93112 34.632477Q250.4155 33.194977 250.4155 31.304352Q250.4155 29.507477 250.9155 28.085602Q251.43112 26.663727 252.38425 25.694977Q253.32175 24.741852 254.63425 24.241852Q255.94675 23.741852 257.5405 23.741852Q258.71237 23.741852 259.88425 24.038727Q261.05612 24.319977 262.478 25.023102L262.478 27.319977L262.32175 27.319977Q261.13425 26.319977 259.94675 25.866852Q258.75925 25.398102 257.4155 25.398102Q256.30612 25.398102 255.4155 25.757477Q254.5405 26.116852 253.853 26.866852Q253.18112 27.601227 252.80612 28.726227Q252.43112 29.835602 252.43112 31.304352Q252.43112 32.8356 252.83737 33.944977Q253.25925 35.038727 253.9155 35.726227Q254.58737 36.4606 255.49362 36.80435Q256.4155 37.1481 257.43112 37.1481Q258.83737 37.1481 260.05612 36.67935Q261.27487 36.194977 262.33737 35.226227L262.478 35.226227L262.478 37.49185ZM274.39987 33.101227Q274.39987 35.7731 273.02487 37.319977Q271.6655 38.851227 269.36862 38.851227Q267.05612 38.851227 265.68112 37.319977Q264.32175 35.7731 264.32175 33.101227Q264.32175 30.444977 265.68112 28.898102Q267.05612 27.335602 269.36862 27.335602Q271.6655 27.335602 273.02487 28.898102Q274.39987 30.444977 274.39987 33.101227ZM272.49362 33.101227Q272.49362 30.991852 271.6655 29.960602Q270.83737 28.929352 269.36862 28.929352Q267.86862 28.929352 267.0405 29.960602Q266.228 30.991852 266.228 33.101227Q266.228 35.1481 267.05612 36.2106Q267.88425 37.2731 269.36862 37.2731Q270.83737 37.2731 271.6655 36.226227Q272.49362 35.17935 272.49362 33.101227ZM279.07175 25.819977L276.99362 25.819977L276.99362 23.913727L279.07175 23.913727L279.07175 25.819977ZM278.94675 38.55435L277.11862 38.55435L277.11862 27.648102L278.94675 27.648102L278.94675 38.55435ZM292.21237 38.55435L290.38425 38.55435L290.38425 32.3356Q290.38425 31.585602 290.2905 30.929352Q290.21237 30.273102 289.978 29.898102Q289.728 29.491852 289.25925 29.288727Q288.80612 29.085602 288.07175 29.085602Q287.32175 29.085602 286.49362 29.460602Q285.68112 29.835602 284.93112 30.413727L284.93112 38.55435L283.103 38.55435L283.103 27.648102L284.93112 27.648102L284.93112 28.851227Q285.7905 28.148102 286.71237 27.741852Q287.63425 27.335602 288.603 27.335602Q290.36862 27.335602 291.2905 28.413727Q292.21237 29.476227 292.21237 31.476227L292.21237 38.55435ZM312.82175 38.55435L303.24362 38.55435L303.24362 24.007477L312.82175 24.007477L312.82175 25.726227L305.18112 25.726227L305.18112 29.710602L312.82175 29.710602L312.82175 31.429352L305.18112 31.429352L305.18112 36.8356L312.82175 36.8356L312.82175 38.55435ZM332.00925 38.55435L330.18112 38.55435L330.18112 32.3356Q330.18112 31.632477 330.11862 30.991852Q330.05612 30.335602 329.853 29.944977Q329.61862 29.523102 329.19675 29.304352Q328.7905 29.085602 327.99362 29.085602Q327.228 29.085602 326.44675 29.476227Q325.68112 29.866852 324.89987 30.460602Q324.93112 30.679352 324.94675 30.976227Q324.978 31.273102 324.978 31.569977L324.978 38.55435L323.13425 38.55435L323.13425 32.3356Q323.13425 31.616852 323.07175 30.976227Q323.00925 30.319977 322.80612 29.929352Q322.58737 29.507477 322.1655 29.304352Q321.74362 29.085602 320.94675 29.085602Q320.19675 29.085602 319.43112 29.460602Q318.68112 29.835602 317.93112 30.413727L317.93112 38.55435L316.103 38.55435L316.103 27.648102L317.93112 27.648102L317.93112 28.851227Q318.7905 28.148102 319.64987 27.741852Q320.50925 27.335602 321.46237 27.335602Q322.58737 27.335602 323.353 27.804352Q324.13425 28.273102 324.50925 29.116852Q325.63425 28.179352 326.5405 27.757477Q327.46237 27.335602 328.50925 27.335602Q330.30612 27.335602 331.14987 28.429352Q332.00925 29.523102 332.00925 31.476227L332.00925 38.55435ZM337.07175 25.819977L334.99362 25.819977L334.99362 23.913727L337.07175 23.913727L337.07175 25.819977ZM336.94675 38.55435L335.11862 38.55435L335.11862 27.648102L336.94675 27.648102L336.94675 38.55435ZM348.88425 35.413727Q348.88425 36.8981 347.64987 37.86685Q346.4155 38.819977 344.27487 38.819977Q343.07175 38.819977 342.05612 38.538727Q341.05612 38.24185 340.36862 37.8981L340.36862 35.8356L340.46237 35.8356Q341.33737 36.49185 342.39987 36.882477Q343.46237 37.257477 344.43112 37.257477Q345.64987 37.257477 346.32175 36.86685Q347.00925 36.476227 347.00925 35.6481Q347.00925 34.99185 346.64987 34.663727Q346.27487 34.3356 345.21237 34.101227Q344.82175 34.007477 344.19675 33.8981Q343.57175 33.7731 343.05612 33.6481Q341.61862 33.257477 341.00925 32.5231Q340.4155 31.788727 340.4155 30.710602Q340.4155 30.038727 340.69675 29.444977Q340.978 28.851227 341.5405 28.382477Q342.08737 27.913727 342.93112 27.648102Q343.77487 27.382477 344.82175 27.382477Q345.7905 27.382477 346.7905 27.632477Q347.7905 27.866852 348.46237 28.194977L348.46237 30.163727L348.36862 30.163727Q347.6655 29.648102 346.64987 29.288727Q345.64987 28.929352 344.68112 28.929352Q343.68112 28.929352 342.978 29.319977Q342.2905 29.710602 342.2905 30.460602Q342.2905 31.148102 342.71237 31.476227Q343.11862 31.819977 344.0405 32.038727Q344.5405 32.163727 345.1655 32.288727Q345.80612 32.3981 346.228 32.49185Q347.50925 32.788727 348.19675 33.49185Q348.88425 34.2106 348.88425 35.413727ZM358.88425 35.413727Q358.88425 36.8981 357.64987 37.86685Q356.4155 38.819977 354.27487 38.819977Q353.07175 38.819977 352.05612 38.538727Q351.05612 38.24185 350.36862 37.8981L350.36862 35.8356L350.46237 35.8356Q351.33737 36.49185 352.39987 36.882477Q353.46237 37.257477 354.43112 37.257477Q355.64987 37.257477 356.32175 36.86685Q357.00925 36.476227 357.00925 35.6481Q357.00925 34.99185 356.64987 34.663727Q356.27487 34.3356 355.21237 34.101227Q354.82175 34.007477 354.19675 33.8981Q353.57175 33.7731 353.05612 33.6481Q351.61862 33.257477 351.00925 32.5231Q350.4155 31.788727 350.4155 30.710602Q350.4155 30.038727 350.69675 29.444977Q350.978 28.851227 351.5405 28.382477Q352.08737 27.913727 352.93112 27.648102Q353.77487 27.382477 354.82175 27.382477Q355.7905 27.382477 356.7905 27.632477Q357.7905 27.866852 358.46237 28.194977L358.46237 30.163727L358.36862 30.163727Q357.6655 29.648102 356.64987 29.288727Q355.64987 28.929352 354.68112 28.929352Q353.68112 28.929352 352.978 29.319977Q352.2905 29.710602 352.2905 30.460602Q352.2905 31.148102 352.71237 31.476227Q353.11862 31.819977 354.0405 32.038727Q354.5405 32.163727 355.1655 32.288727Q355.80612 32.3981 356.228 32.49185Q357.50925 32.788727 358.19675 33.49185Q358.88425 34.2106 358.88425 35.413727ZM363.07175 25.819977L360.99362 25.819977L360.99362 23.913727L363.07175 23.913727L363.07175 25.819977ZM362.94675 38.55435L361.11862 38.55435L361.11862 27.648102L362.94675 27.648102L362.94675 38.55435ZM376.39987 33.101227Q376.39987 35.7731 375.02487 37.319977Q373.6655 38.851227 371.36862 38.851227Q369.05612 38.851227 367.68112 37.319977Q366.32175 35.7731 366.32175 33.101227Q366.32175 30.444977 367.68112 28.898102Q369.05612 27.335602 371.36862 27.335602Q373.6655 27.335602 375.02487 28.898102Q376.39987 30.444977 376.39987 33.101227ZM374.49362 33.101227Q374.49362 30.991852 373.6655 29.960602Q372.83737 28.929352 371.36862 28.929352Q369.86862 28.929352 369.0405 29.960602Q368.228 30.991852 368.228 33.101227Q368.228 35.1481 369.05612 36.2106Q369.88425 37.2731 371.36862 37.2731Q372.83737 37.2731 373.6655 36.226227Q374.49362 35.17935 374.49362 33.101227ZM388.21237 38.55435L386.38425 38.55435L386.38425 32.3356Q386.38425 31.585602 386.2905 30.929352Q386.21237 30.273102 385.978 29.898102Q385.728 29.491852 385.25925 29.288727Q384.80612 29.085602 384.07175 29.085602Q383.32175 29.085602 382.49362 29.460602Q381.68112 29.835602 380.93112 30.413727L380.93112 38.55435L379.103 38.55435L379.103 27.648102L380.93112 27.648102L380.93112 28.851227Q381.7905 28.148102 382.71237 27.741852Q383.63425 27.335602 384.603 27.335602Q386.36862 27.335602 387.2905 28.413727Q388.21237 29.476227 388.21237 31.476227L388.21237 38.55435ZM407.88425 38.55435L400.00925 38.55435L400.00925 37.069977L403.0405 37.069977L403.0405 27.319977L400.00925 27.319977L400.00925 25.991852Q400.61862 25.991852 401.32175 25.898102Q402.02487 25.788727 402.38425 25.601227Q402.83737 25.351227 403.08737 24.976227Q403.353 24.601227 403.39987 23.960602L404.9155 23.960602L404.9155 37.069977L407.88425 37.069977L407.88425 38.55435ZM421.68112 31.273102Q421.68112 35.194977 420.46237 37.0231Q419.24362 38.851227 416.6655 38.851227Q414.0405 38.851227 412.83737 37.007477Q411.63425 35.1481 411.63425 31.304352Q411.63425 27.413727 412.853 25.569977Q414.07175 23.726227 416.6655 23.726227Q419.27487 23.726227 420.478 25.601227Q421.68112 27.476227 421.68112 31.273102ZM419.11862 35.7106Q419.46237 34.913727 419.58737 33.851227Q419.71237 32.788727 419.71237 31.273102Q419.71237 29.788727 419.58737 28.694977Q419.46237 27.601227 419.103 26.851227Q418.77487 26.085602 418.18112 25.710602Q417.58737 25.335602 416.6655 25.335602Q415.74362 25.335602 415.13425 25.710602Q414.5405 26.085602 414.18112 26.866852Q413.853 27.585602 413.728 28.757477Q413.61862 29.913727 413.61862 31.304352Q413.61862 32.819977 413.71237 33.851227Q413.82175 34.86685 414.18112 35.67935Q414.49362 36.444977 415.08737 36.851227Q415.68112 37.24185 416.6655 37.24185Q417.57175 37.24185 418.18112 36.86685Q418.7905 36.476227 419.11862 35.7106ZM441.52487 27.648102L435.1655 42.5856L433.19675 42.5856L435.228 38.0231L430.88425 27.648102L432.88425 27.648102L436.228 35.726227L439.603 27.648102L441.52487 27.648102ZM453.228 33.288727L445.19675 33.288727Q445.19675 34.288727 445.49362 35.038727Q445.7905 35.788727 446.32175 36.2731Q446.83737 36.74185 447.52487 36.976227Q448.228 37.2106 449.07175 37.2106Q450.18112 37.2106 451.30612 36.7731Q452.43112 36.319977 452.9155 35.882477L453.00925 35.882477L453.00925 37.882477Q452.08737 38.2731 451.11862 38.538727Q450.14987 38.80435 449.08737 38.80435Q446.36862 38.80435 444.83737 37.3356Q443.32175 35.86685 443.32175 33.163727Q443.32175 30.491852 444.77487 28.913727Q446.24362 27.335602 448.63425 27.335602Q450.83737 27.335602 452.02487 28.632477Q453.228 29.913727 453.228 32.288727L453.228 33.288727ZM451.44675 31.882477Q451.43112 30.444977 450.71237 29.648102Q449.99362 28.851227 448.52487 28.851227Q447.05612 28.851227 446.18112 29.726227Q445.30612 30.601227 445.19675 31.882477L451.44675 31.882477ZM464.57175 38.55435L462.74362 38.55435L462.74362 37.3981Q462.50925 37.55435 462.08737 37.851227Q461.68112 38.1481 461.2905 38.3356Q460.82175 38.55435 460.228 38.694977Q459.63425 38.851227 458.83737 38.851227Q457.353 38.851227 456.32175 37.882477Q455.30612 36.8981 455.30612 35.382477Q455.30612 34.1481 455.83737 33.382477Q456.36862 32.61685 457.353 32.17935Q458.353 31.741852 459.74362 31.585602Q461.14987 31.429352 462.74362 31.351227L462.74362 31.069977Q462.74362 30.444977 462.52487 30.038727Q462.30612 29.616852 461.89987 29.382477Q461.50925 29.163727 460.96237 29.085602Q460.4155 29.007477 459.82175 29.007477Q459.103 29.007477 458.21237 29.194977Q457.32175 29.382477 456.36862 29.741852L456.27487 29.741852L456.27487 27.882477Q456.80612 27.726227 457.82175 27.554352Q458.83737 27.382477 459.82175 27.382477Q460.978 27.382477 461.83737 27.569977Q462.69675 27.757477 463.32175 28.226227Q463.93112 28.663727 464.24362 29.382477Q464.57175 30.101227 464.57175 31.148102L464.57175 38.55435ZM462.74362 35.86685L462.74362 32.8356Q461.9155 32.882477 460.77487 32.976227Q459.63425 33.069977 458.96237 33.257477Q458.18112 33.49185 457.68112 33.9606Q457.19675 34.42935 457.19675 35.257477Q457.19675 36.194977 457.75925 36.67935Q458.33737 37.1481 459.49362 37.1481Q460.46237 37.1481 461.25925 36.7731Q462.07175 36.3981 462.74362 35.86685ZM474.89987 29.648102L474.80612 29.648102Q474.39987 29.554352 474.00925 29.507477Q473.61862 29.460602 473.103 29.460602Q472.24362 29.460602 471.44675 29.835602Q470.6655 30.210602 469.93112 30.804352L469.93112 38.55435L468.103 38.55435L468.103 27.648102L469.93112 27.648102L469.93112 29.257477Q471.02487 28.382477 471.853 28.023102Q472.69675 27.648102 473.57175 27.648102Q474.0405 27.648102 474.25925 27.679352Q474.478 27.694977 474.89987 27.757477L474.89987 29.648102ZM484.88425 35.413727Q484.88425 36.8981 483.64987 37.86685Q482.4155 38.819977 480.27487 38.819977Q479.07175 38.819977 478.05612 38.538727Q477.05612 38.24185 476.36862 37.8981L476.36862 35.8356L476.46237 35.8356Q477.33737 36.49185 478.39987 36.882477Q479.46237 37.257477 480.43112 37.257477Q481.64987 37.257477 482.32175 36.86685Q483.00925 36.476227 483.00925 35.6481Q483.00925 34.99185 482.64987 34.663727Q482.27487 34.3356 481.21237 34.101227Q480.82175 34.007477 480.19675 33.8981Q479.57175 33.7731 479.05612 33.6481Q477.61862 33.257477 477.00925 32.5231Q476.4155 31.788727 476.4155 30.710602Q476.4155 30.038727 476.69675 29.444977Q476.978 28.851227 477.5405 28.382477Q478.08737 27.913727 478.93112 27.648102Q479.77487 27.382477 480.82175 27.382477Q481.7905 27.382477 482.7905 27.632477Q483.7905 27.866852 484.46237 28.194977L484.46237 30.163727L484.36862 30.163727Q483.6655 29.648102 482.64987 29.288727Q481.64987 28.929352 480.68112 28.929352Q479.68112 28.929352 478.978 29.319977Q478.2905 29.710602 478.2905 30.460602Q478.2905 31.148102 478.71237 31.476227Q479.11862 31.819977 480.0405 32.038727Q480.5405 32.163727 481.1655 32.288727Q481.80612 32.3981 482.228 32.49185Q483.50925 32.788727 484.19675 33.49185Q484.88425 34.2106 484.88425 35.413727Z" fill-rule="nonzero"/></svg>