<?xml version="1.0" encoding="utf-8"?>
<!-- Generator: Adobe Illustrator 25.4.1, SVG Export Plug-In . SVG Version: 6.00 Build 0)  -->
<svg version="1.1" id="Layer_1" xmlns="http://www.w3.org/2000/svg" xmlns:xlink="http://www.w3.org/1999/xlink" x="0px" y="0px"
	 viewBox="0 0 295 295" style="enable-background:new 0 0 295 295;" xml:space="preserve">
<style type="text/css">
	.st0{fill:#192432;}
</style>
<g>
	<g>
		<path class="st0" d="M222.7,163L222.7,163L222.7,163L222.7,163C222.7,162.9,222.7,162.9,222.7,163z M222.7,162.9L222.7,162.9
			L222.7,162.9L222.7,162.9L222.7,162.9z M129.2,39.9c0.2,0.3,0.4,0.6,0.5,0.9C129.6,40.4,129.4,40.1,129.2,39.9z M122.8,41.9
			L122.8,41.9L122.8,41.9L122.8,41.9z M122.8,42.1L122.8,42.1L122.8,42.1L122.8,42.1z M42.3,145.3C42.4,145.3,42.4,145.3,42.3,145.3
			L42.3,145.3L42.3,145.3z M42.2,145.3L42.2,145.3L42.2,145.3L42.2,145.3z"/>
		<path class="st0" d="M130,42.1L130,42.1c0,0.2,0,0.3,0,0.5c0,0.1,0,0.3-0.1,0.4l0,0l0,0c0,0.2-0.1,0.4-0.2,0.6
			c-0.2,0.4-0.5,0.8-0.8,1.1c-0.1,0.1-0.1,0.1-0.2,0.2c-0.1,0.1-0.2,0.2-0.3,0.2c-0.1,0.1-0.2,0.1-0.3,0.2c-0.2,0.1-0.4,0.2-0.6,0.3
			c-0.3,0.1-0.7,0.1-1,0.1l0,0c-0.3,0-0.6,0-0.9-0.1c-1.7-0.5-2.7-1.9-2.7-3.5l0,0l0,0V42v-0.1v-0.1c0-0.1,0-0.1,0-0.2
			s0-0.3,0.1-0.4c0.4-1.6,1.9-2.7,3.5-2.7c0.3,0,0.6,0,0.9,0.1l0,0c0,0,0,0,0.1,0l0,0l0,0l0,0h0.1c0.1,0,0.1,0.1,0.2,0.1
			c0.1,0,0.2,0.1,0.3,0.1s0.2,0.1,0.2,0.1c0.2,0.1,0.5,0.3,0.7,0.5c0.1,0.1,0.1,0.2,0.2,0.3c0.2,0.3,0.4,0.6,0.5,0.9
			c0.1,0.2,0.2,0.4,0.2,0.7c0,0.1,0,0.2,0,0.3C130,41.9,130,42,130,42.1z"/>
		<path class="st0" d="M45.7,148.9c0,2.1-1.7,3.6-3.6,3.6c-2.1,0-3.6-1.7-3.6-3.6v-0.1l0,0l0,0l0,0l0,0l0,0l0,0
			c0.1-2,1.7-3.4,3.6-3.4l0,0l0,0h0.1l0,0l0,0h0.1c0.1,0,0.2,0,0.2,0c0.2,0,0.3,0.1,0.4,0.1s0.2,0.1,0.3,0.1c0.1,0,0.1,0,0.2,0.1
			c0.1,0,0.2,0.1,0.3,0.1c0.1,0.1,0.3,0.2,0.4,0.2c0,0,0.1,0,0.1,0.1c0.1,0,0.1,0.1,0.2,0.1s0.1,0.1,0.2,0.2l0.1,0.1
			c0.1,0.1,0.2,0.2,0.2,0.3c0.1,0.1,0.1,0.2,0.2,0.2c0.1,0.1,0.2,0.3,0.2,0.4c0,0.1,0.1,0.2,0.1,0.3c0,0.2,0.1,0.3,0.1,0.4
			c0,0.1,0,0.2,0,0.3l0,0C45.7,148.6,45.7,148.8,45.7,148.9z"/>
		<path class="st0" d="M147.5,0C108.1,0,71,15.4,43.2,43.2S0,108.1,0,147.5C0,228.8,66.2,295,147.5,295c39.4,0,76.5-15.4,104.3-43.2
			c13.9-13.9,24.7-30.1,32-47.8s11.2-36.8,11.2-56.5C295,66.1,228.8,0,147.5,0z M146.9,277c-71.5-0.3-129.3-58.6-129-130.1
			c0.4-71.6,58.6-129.3,130.2-129c71.5,0.3,129.3,58.6,129,130.1S218.5,277.3,146.9,277z"/>
	</g>
	<path class="st0" d="M222.7,163L222.7,163L222.7,163L222.7,163C222.7,162.9,222.7,162.9,222.7,163z M222.7,162.9L222.7,162.9
		L222.7,162.9L222.7,162.9L222.7,162.9z M129.2,39.9c0.2,0.3,0.4,0.6,0.5,0.9C129.6,40.4,129.4,40.1,129.2,39.9z M122.8,41.9
		L122.8,41.9L122.8,41.9L122.8,41.9z M122.8,42.1L122.8,42.1L122.8,42.1L122.8,42.1z M42.3,145.3C42.4,145.3,42.4,145.3,42.3,145.3
		L42.3,145.3L42.3,145.3z M42.2,145.3L42.2,145.3L42.2,145.3L42.2,145.3z"/>
	<g>
		<path class="st0" d="M171,83.1c0.2,1.1,0.3,2.3,0.3,3.5c0,13.3-10.7,24-24,24c-11.8,0-21.6-8.5-23.6-19.6l-12,2l-1-6.2l12.7-2.1
			c1-12.4,11.3-22.1,23.9-22.1c9.9,0,18.3,5.9,22,14.4l13.6-2.3l1,6.2L171,83.1z"/>
	</g>
	<g>
		<circle class="st0" cx="150.2" cy="155.6" r="9.1"/>
	</g>
	<g>
		<path class="st0" d="M237.7,95.6c0,1.7-1.3,3-2.9,3c-1.7,0-3-1.3-3-3s1.3-2.9,3-2.9C236.4,92.7,237.7,93.9,237.7,95.6z"/>
	</g>
	<path class="st0" d="M42.2,152.5c-2.1,0-3.6-1.7-3.6-3.6v-0.1l0,0l0,0l0,0l0,0l0,0l0,0l0,0c0.1-2,1.7-3.4,3.6-3.4l0,0h0.1l0,0l0,0
		l0,0h0.1c0.1,0,0.2,0,0.2,0c0.2,0,0.3,0.1,0.4,0.1s0.2,0.1,0.3,0.1c0.1,0,0.1,0,0.2,0.1c0.1,0,0.2,0.1,0.3,0.1
		c0.1,0.1,0.3,0.2,0.4,0.2c0,0,0.1,0,0.1,0.1c0.1,0,0.1,0.1,0.2,0.1s0.1,0.1,0.2,0.2l0.1,0.1c0.1,0.1,0.2,0.2,0.2,0.3
		c0.1,0.1,0.1,0.2,0.2,0.2c0.1,0.1,0.2,0.3,0.2,0.4c0,0.1,0.1,0.2,0.1,0.3c0,0.2,0.1,0.3,0.1,0.4c0,0.1,0,0.2,0,0.3l0,0
		c0,0.1,0,0.3,0,0.4C45.7,151,44.1,152.5,42.2,152.5z M219.1,159.2c2.1,0,3.6,1.7,3.6,3.6v0.1l0,0l0,0v0.1l0,0l0,0
		c-0.1,2-1.7,3.4-3.6,3.4c-0.1,0-0.3,0-0.4,0c-0.1,0-0.2,0-0.4-0.1c-0.1,0-0.2-0.1-0.3-0.1h-0.1c-0.1,0-0.1,0-0.2-0.1l0,0h-0.1h-0.1
		c-0.1,0-0.1-0.1-0.2-0.1c-0.1,0-0.1-0.1-0.2-0.1l-0.1-0.1l-0.1-0.1c-0.1-0.1-0.3-0.2-0.4-0.3c-0.1-0.1-0.1-0.2-0.2-0.3
		c-0.1-0.1-0.1-0.2-0.2-0.2c0,0,0-0.1-0.1-0.1c0-0.1-0.1-0.1-0.1-0.2l0,0c0-0.1-0.1-0.2-0.1-0.3s0-0.1-0.1-0.2
		c0-0.1-0.1-0.2-0.1-0.2v-0.1c0,0,0,0,0-0.1s0-0.1,0-0.2c0-0.2,0-0.3,0-0.5C215.5,160.7,217.2,159.2,219.1,159.2z M122.8,42.1
		L122.8,42.1L122.8,42.1L122.8,42.1L122.8,42.1L122.8,42.1v-0.2c0-0.1,0-0.1,0-0.2s0-0.3,0.1-0.4c0.4-1.6,1.9-2.7,3.5-2.7
		c0.3,0,0.6,0,0.9,0.1l0,0h0.1l0,0h0.1c0.1,0,0.1,0.1,0.2,0.1c0.1,0,0.2,0.1,0.3,0.1s0.2,0.1,0.2,0.1c0.2,0.1,0.5,0.3,0.7,0.5
		c0.1,0.1,0.1,0.2,0.2,0.3c0.2,0.3,0.4,0.6,0.5,0.9c0.1,0.2,0.2,0.4,0.2,0.7c0,0.1,0,0.2,0,0.3c0,0.1,0,0.2,0,0.3l0,0
		c0,0.1,0,0.3,0,0.4s0,0.3-0.1,0.4l0,0l0,0c0,0.2-0.1,0.4-0.2,0.6c-0.2,0.4-0.5,0.8-0.8,1.1c-0.1,0.1-0.1,0.1-0.2,0.2
		c-0.1,0.1-0.2,0.2-0.3,0.2c-0.1,0.1-0.2,0.1-0.3,0.2c-0.2,0.1-0.4,0.2-0.6,0.3c-0.3,0.1-0.7,0.1-1,0.1l0,0c-0.3,0-0.6,0-0.9-0.1
		C123.8,45.1,122.8,43.6,122.8,42.1L122.8,42.1z M77.8,207.2c-3.4,0-6.1-2.7-6.1-6.1s2.7-6.1,6.1-6.1c3.4,0,6.1,2.7,6.1,6.1
		S80.9,207.2,77.8,207.2z M81.1,116.7c-3.4,0-6.1-2.7-6.1-6.1c0-3.4,2.7-6.1,6.1-6.1c3.4,0,6.1,2.7,6.1,6.1
		C87.2,113.9,84.3,116.7,81.1,116.7z M132.3,255.1c-1.7,0-3-1.3-3-3s1.3-2.9,3-2.9s3,1.3,3,2.9C135.3,253.8,133.8,255.1,132.3,255.1
		z M141.2,155.6c0-5,4-9.1,9.1-9.1c5,0,9.1,4,9.1,9.1s-4,9.1-9.1,9.1C145.2,164.7,141.2,160.7,141.2,155.6z M160.1,219.9
		c-2.1,0-3.6-1.7-3.6-3.6c0-2.1,1.7-3.6,3.6-3.6c2.1,0,3.6,1.7,3.6,3.6C163.7,218.4,162,219.9,160.1,219.9z M171.3,86.5
		c0,13.3-10.7,24-24,24c-11.8,0-21.6-8.5-23.6-19.6l-12,2l-1-6.2l12.7-2.1c1-12.4,11.3-22.1,23.9-22.1c9.9,0,18.3,5.9,22,14.4
		l13.6-2.3l1,6.2L171,83C171.2,84.2,171.3,85.4,171.3,86.5z M219.5,230.8c-6.7,0-12-5.5-12-12s5.5-12,12-12s12,5.5,12,12
		C231.5,225.6,226.3,230.8,219.5,230.8z M234.7,98.6c-1.7,0-3-1.3-3-3s1.3-2.9,3-2.9s2.9,1.3,2.9,2.9
		C237.7,97.3,236.4,98.6,234.7,98.6z"/>
	<path class="st0" d="M222.7,162.9L222.7,162.9C222.7,163,222.7,163,222.7,162.9L222.7,162.9C222.7,163,222.7,163,222.7,162.9
		L222.7,162.9L222.7,162.9z"/>
	<path class="st0" d="M42.2,145.3L42.2,145.3L42.2,145.3L42.2,145.3z M42.3,145.3C42.4,145.3,42.4,145.3,42.3,145.3L42.3,145.3
		L42.3,145.3z"/>
	<path class="st0" d="M122.8,42.1L122.8,42.1L122.8,42.1L122.8,42.1z M122.8,41.9L122.8,41.9L122.8,41.9L122.8,41.9z"/>
	<path class="st0" d="M122.9,41.9L122.9,41.9C122.8,41.9,122.8,41.9,122.9,41.9C122.8,41.9,122.8,41.9,122.9,41.9z"/>
	<path class="st0" d="M122.9,42.1L122.9,42.1C122.8,42.1,122.8,42.1,122.9,42.1C122.8,42.1,122.8,42.1,122.9,42.1z"/>
	<path class="st0" d="M129.7,40.7c-0.1-0.3-0.3-0.6-0.5-0.9C129.4,40.1,129.6,40.4,129.7,40.7z"/>
	<path class="st0" d="M163.7,216.3c0,2.1-1.7,3.6-3.6,3.6c-2.1,0-3.6-1.7-3.6-3.6c0-2.1,1.7-3.6,3.6-3.6
		C162.2,212.7,163.7,214.4,163.7,216.3z"/>
	<g>
		<path class="st0" d="M135.3,252.1c0,1.7-1.5,3-3,3c-1.7,0-3-1.3-3-3s1.3-2.9,3-2.9S135.3,250.4,135.3,252.1z"/>
	</g>
	<g>
		
			<ellipse transform="matrix(0.1602 -0.9871 0.9871 0.1602 -31.6347 400.4178)" class="st0" cx="219.5" cy="218.8" rx="12" ry="12"/>
	</g>
	<g>
		<circle class="st0" cx="77.8" cy="201.1" r="6.1"/>
	</g>
	<g>
		<path class="st0" d="M87.2,110.6c0,3.4-3,6.1-6.1,6.1c-3.4,0-6.1-2.7-6.1-6.1c0-3.4,2.7-6.1,6.1-6.1
			C84.5,104.5,87.2,107.2,87.2,110.6z"/>
	</g>
	<path class="st0" d="M42.2,145.3L42.2,145.3L42.2,145.3L42.2,145.3z"/>
	<path class="st0" d="M222.7,163L222.7,163L222.7,163L222.7,163c-0.1,2.1-1.7,3.4-3.6,3.4c-0.1,0-0.3,0-0.4,0c-0.1,0-0.2,0-0.4-0.1
		c-0.1,0-0.2-0.1-0.3-0.1h-0.1c-0.1,0-0.1,0-0.2-0.1l0,0h-0.1h-0.1c-0.1,0-0.1-0.1-0.2-0.1c-0.1,0-0.1-0.1-0.2-0.1l-0.1-0.1
		l-0.1-0.1c-0.1-0.1-0.3-0.2-0.4-0.3c-0.1-0.1-0.1-0.2-0.2-0.3c-0.1-0.1-0.1-0.2-0.2-0.2c0,0,0-0.1-0.1-0.1c0-0.1-0.1-0.1-0.1-0.2
		l0,0c0-0.1-0.1-0.2-0.1-0.3s0-0.1-0.1-0.2c0-0.1-0.1-0.2-0.1-0.2v-0.1c0,0,0,0,0-0.1s0-0.1,0-0.2c0-0.2,0-0.3,0-0.5
		c0-2.1,1.7-3.6,3.6-3.6C221.3,159.4,222.8,161.1,222.7,163C222.7,162.8,222.7,162.9,222.7,163L222.7,163L222.7,163L222.7,163z"/>
</g>
</svg>
