<svg width="8" height="13" viewBox="0 0 8 13" fill="none" xmlns="http://www.w3.org/2000/svg">
<path fill-rule="evenodd" clip-rule="evenodd" d="M0.186762 6.66055C0.222762 6.69555 0.276762 6.70455 0.319763 6.72955C0.382763 6.81555 0.436763 6.90455 0.517763 6.98355L5.15776 11.5095C5.70576 12.0445 6.44776 12.1895 6.81376 11.8325C7.17976 11.4755 7.03176 10.7515 6.48276 10.2165L2.17476 6.01355L6.48276 1.81155C7.03176 1.27655 7.17976 0.552547 6.81376 0.195547C6.44776 -0.161453 5.70576 -0.0164528 5.15776 0.518547L0.517763 5.04455C0.436763 5.12355 0.382763 5.21255 0.319763 5.29755C0.276762 5.32355 0.222762 5.33255 0.186762 5.36755C0.0247622 5.52555 -0.0212379 5.76055 0.00876236 6.01355C-0.0212379 6.26755 0.0247622 6.50255 0.186762 6.66055Z" fill="#7F8FA4"/>
</svg>
