<svg width="24" height="26" viewBox="0 0 24 26" fill="none" xmlns="http://www.w3.org/2000/svg">
<path fill-rule="evenodd" clip-rule="evenodd" d="M18.1643 5.69652C17.8395 2.4957 15.1971 5.61574e-05 11.9854 5.61574e-05C10.3371 -0.00704755 8.75019 0.660053 7.57945 1.85388C6.5632 2.89017 5.9332 4.24925 5.78461 5.69652H5.78355C3.53336 5.69652 1.64284 7.38803 1.11171 10.325L0.150596 17.9561C-0.667516 23.5437 1.88571 26 6.88263 26H17.1108C21.7318 26 24.4937 23.2314 23.9266 18.2627L22.9344 10.3762C22.2983 7.40264 20.4564 5.69652 18.2547 5.69652H18.1643ZM16.3121 5.69652C15.9982 3.53796 14.1803 1.88211 11.9816 1.8821C10.8181 1.87709 9.70067 2.34685 8.87627 3.1875C8.20693 3.87004 7.77554 4.75144 7.63694 5.69652H16.3121ZM5.78351 7.57857H18.2547C19.5459 7.57857 20.6802 8.62932 21.1255 10.6989L22.0648 18.1965C22.6238 22.1855 20.7631 24.1179 17.1107 24.1179H6.88258C2.92764 24.1179 1.33155 22.5825 1.97074 18.2158L2.92665 10.6166C3.29192 8.60453 4.4386 7.57857 5.78351 7.57857ZM15.6191 11.0713C16.1266 11.0713 16.5381 11.4927 16.5381 12.0124C16.5381 12.4888 16.1923 12.8825 15.7438 12.9448L15.6191 12.9534H15.563C15.0555 12.9534 14.6441 12.5321 14.6441 12.0124C14.6441 11.536 14.9898 11.1422 15.4383 11.0799L15.563 11.0713H15.6191ZM9.39419 12.0124C9.39419 11.4927 8.98277 11.0713 8.47526 11.0713H8.41918L8.29449 11.0799C7.84595 11.1422 7.50024 11.536 7.50024 12.0124C7.50024 12.5321 7.91167 12.9534 8.41918 12.9534H8.47526L8.59995 12.9448C9.04848 12.8825 9.39419 12.4888 9.39419 12.0124Z" fill="#8492B4"/>
</svg>
