<svg width="24" height="24" viewBox="0 0 24 24" fill="none" xmlns="http://www.w3.org/2000/svg">
<path fill-rule="evenodd" clip-rule="evenodd" d="M23.5214 11.9995C23.2455 12.0114 23.0123 11.7973 23.0004 11.5214C22.75 5.6687 17.9232 1 12.0053 1C5.92703 1 0.999991 5.92509 0.999992 12C0.999992 18.0749 5.92703 23 12.0053 23C12.2815 23 12.5053 23.2239 12.5053 23.5C12.5053 23.7761 12.2815 24 12.0053 24C5.37518 24 -8.34989e-06 18.6276 -8.42892e-06 12C-8.50795e-06 5.37236 5.37518 2.22099e-07 12.0053 1.43035e-07C18.4607 6.60552e-08 23.7262 5.09268 23.9995 11.4786C24.0113 11.7545 23.7973 11.9877 23.5214 11.9995ZM22.587 16.5499C22.8356 16.6702 22.9396 16.9692 22.8193 17.2177C22.6337 17.6015 22.4282 17.9738 22.2042 18.3334C21.9955 18.6686 21.7707 18.9927 21.5309 19.3047C21.2791 19.6322 21.0108 19.9464 20.7273 20.246C20.4446 20.5446 20.1468 20.8287 19.835 21.097C19.5356 21.3547 19.2234 21.5978 18.8994 21.8254C18.5895 22.043 18.2688 22.2464 17.9383 22.4345C17.6548 22.5959 17.3641 22.746 17.0668 22.8844C16.8164 23.0009 16.519 22.8924 16.4025 22.642C16.286 22.3917 16.3945 22.0943 16.6449 21.9778C16.9173 21.851 17.1837 21.7134 17.4435 21.5655C17.7465 21.393 18.0405 21.2066 18.3246 21.007C18.6218 20.7984 18.9081 20.5754 19.1826 20.3391C19.4686 20.093 19.7418 19.8324 20.001 19.5585C20.2611 19.2838 20.5071 18.9957 20.738 18.6953C20.9579 18.4092 21.164 18.112 21.3554 17.8048C21.5607 17.4751 21.749 17.1339 21.9191 16.7823C22.0394 16.5337 22.3384 16.4296 22.587 16.5499Z" fill="url(#paint0_linear)"/>
<path d="M10.6 15.7C10.4343 15.9209 10.4791 16.2343 10.7 16.4C10.9209 16.5657 11.2343 16.5209 11.4 16.3L10.6 15.7ZM17.4 8.3C17.5657 8.07909 17.5209 7.76569 17.3 7.6C17.0791 7.43431 16.7657 7.47909 16.6 7.7L17.4 8.3ZM11.4 16.3L17.4 8.3L16.6 7.7L10.6 15.7L11.4 16.3Z" fill="#706EF5"/>
<path d="M10.7 16.4C10.9209 16.5657 11.2343 16.5209 11.4 16.3C11.5657 16.0791 11.5209 15.7657 11.3 15.6L10.7 16.4ZM7.3 12.6C7.07909 12.4343 6.76569 12.4791 6.6 12.7C6.43431 12.9209 6.47909 13.2343 6.7 13.4L7.3 12.6ZM11.3 15.6L7.3 12.6L6.7 13.4L10.7 16.4L11.3 15.6Z" fill="#706EF5"/>
<defs>
<linearGradient id="paint0_linear" x1="23" y1="2" x2="-2.00001" y2="21" gradientUnits="userSpaceOnUse">
<stop stop-color="#706EF5"/>
<stop offset="1" stop-color="#7E59F3"/>
</linearGradient>
</defs>
</svg>
