<svg width="24" height="24" viewBox="0 0 24 24" fill="none" xmlns="http://www.w3.org/2000/svg">
<path d="M24 11.9947C24 11.7185 23.7761 11.4947 23.5 11.4947C23.2239 11.4947 23 11.7185 23 11.9947H24ZM17.2177 1.18068C16.9692 1.06042 16.6702 1.16444 16.5499 1.41303C16.4296 1.66161 16.5337 1.96061 16.7823 2.08087L17.2177 1.18068ZM18.0691 2.22018L18.3334 1.79576L18.3334 1.79576L18.0691 2.22018ZM19 2.86556L19.3047 2.46913L19.3047 2.46913L19 2.86556ZM19.9022 3.63584L20.246 3.27272L20.246 3.27272L19.9022 3.63584ZM20.7181 4.49119L20.3391 4.81735L20.3391 4.81735L20.7181 4.49119ZM21.4162 5.388L21.8254 5.10064L21.8254 5.10064L21.4162 5.388ZM22 6.3091L22.4345 6.06174L22.4345 6.06174L22 6.3091ZM21.9778 7.35512C22.0943 7.60548 22.3917 7.71399 22.642 7.59748C22.8924 7.48097 23.0009 7.18356 22.8844 6.9332L21.9778 7.35512ZM11.5214 0.99955C11.7973 0.987743 12.0114 0.754518 11.9995 0.478628C11.9877 0.202738 11.7545 -0.0113428 11.4786 0.000464938L11.5214 0.99955ZM11.6069 12.4893H11.1069V12.8358L11.4314 12.9575L11.6069 12.4893ZM12.1069 5.48933C12.1069 5.21318 11.8831 4.98933 11.6069 4.98933C11.3308 4.98933 11.1069 5.21318 11.1069 5.48933H12.1069ZM15.4314 14.4575C15.6899 14.5545 15.9781 14.4234 16.0751 14.1649C16.1721 13.9063 16.0411 13.6181 15.7825 13.5212L15.4314 14.4575ZM23 11.9947C23 18.073 18.0749 23 12 23V24C18.6276 24 24 18.6248 24 11.9947H23ZM12 23C5.92509 23 1 18.073 1 11.9947H0C0 18.6248 5.37236 24 12 24V23ZM16.7823 2.08087C17.1339 2.25098 17.4751 2.4393 17.8048 2.6446L18.3334 1.79576C17.9738 1.57181 17.6015 1.36633 17.2177 1.18068L16.7823 2.08087ZM17.8048 2.6446C18.112 2.83596 18.4092 3.04209 18.6953 3.26198L19.3047 2.46913C18.9927 2.22934 18.6686 2.00452 18.3334 1.79576L17.8048 2.6446ZM18.6953 3.26198C18.9957 3.49285 19.2838 3.73889 19.5585 3.99896L20.246 3.27272C19.9464 2.98917 19.6322 2.72089 19.3047 2.46913L18.6953 3.26198ZM19.5585 3.99896C19.8324 4.25821 20.093 4.53138 20.3391 4.81735L21.097 4.16502C20.8287 3.85322 20.5446 3.55538 20.246 3.27272L19.5585 3.99896ZM20.3391 4.81735C20.5754 5.09191 20.7984 5.37824 21.007 5.67535L21.8254 5.10064C21.5978 4.77662 21.3547 4.46438 21.097 4.16502L20.3391 4.81735ZM21.007 5.67535C21.2066 5.9595 21.393 6.2535 21.5655 6.55645L22.4345 6.06174C22.2464 5.73122 22.043 5.41054 21.8254 5.10064L21.007 5.67535ZM21.5655 6.55645C21.7134 6.81627 21.851 7.08267 21.9778 7.35512L22.8844 6.9332C22.746 6.63588 22.5959 6.34519 22.4345 6.06174L21.5655 6.55645ZM1 11.9947C1 6.07683 5.6687 1.25004 11.5214 0.99955L11.4786 0.000464938C5.09268 0.273776 0 5.53927 0 11.9947H1ZM12.1069 12.4893V5.48933H11.1069V12.4893H12.1069ZM11.4314 12.9575L15.4314 14.4575L15.7825 13.5212L11.7825 12.0212L11.4314 12.9575Z" fill="#706EF5"/>
</svg>
