<svg width="12" height="12" viewBox="0 0 12 12" fill="none" xmlns="http://www.w3.org/2000/svg">
<path d="M9.35231 7.04821C9.35231 7.67076 9.35231 8.29331 9.35231 8.91585C9.35231 9.18148 9.35231 9.44713 9.35231 9.71275C9.35231 9.86642 9.36012 10.0238 9.33977 10.1764C9.34672 10.1262 9.35368 10.0759 9.36064 10.0256C9.3444 10.1358 9.31499 10.2423 9.2723 10.3452C9.2916 10.299 9.31091 10.2528 9.3302 10.2067C9.28712 10.3066 9.2327 10.4001 9.16709 10.4869C9.19742 10.4471 9.22776 10.4073 9.2581 10.3675C9.19178 10.4529 9.11633 10.5293 9.0318 10.5968C9.07185 10.5656 9.11191 10.5345 9.15195 10.5033C9.06145 10.5736 8.96351 10.6315 8.85827 10.6769C8.90671 10.6567 8.95516 10.6364 9.0036 10.6162C8.89519 10.6612 8.78267 10.6914 8.66633 10.7069C8.71839 10.7002 8.77044 10.6935 8.82252 10.6868C8.68488 10.7032 8.54367 10.697 8.40526 10.697C8.15058 10.697 7.89591 10.697 7.64122 10.697C6.84785 10.697 6.05449 10.697 5.26113 10.697C4.46891 10.697 3.67669 10.697 2.88446 10.697C2.6312 10.697 2.37795 10.697 2.12469 10.697C1.98207 10.697 1.83671 10.7033 1.69508 10.6844C1.74535 10.6914 1.79561 10.6983 1.84586 10.7053C1.73569 10.6891 1.62915 10.6597 1.52628 10.617C1.57247 10.6363 1.61864 10.6556 1.66482 10.6749C1.56484 10.6318 1.47143 10.5774 1.38457 10.5118C1.42438 10.5421 1.4642 10.5724 1.50401 10.6028C1.4186 10.5365 1.34216 10.461 1.2747 10.3765C1.30586 10.4165 1.33702 10.4566 1.36817 10.4966C1.29789 10.4061 1.23996 10.3082 1.1946 10.2029C1.21483 10.2514 1.23504 10.2998 1.25526 10.3483C1.21027 10.2399 1.18007 10.1273 1.16456 10.011C1.17126 10.0631 1.17798 10.1151 1.18469 10.1672C1.16829 10.0296 1.17451 9.88834 1.17451 9.74993C1.17451 9.49525 1.17451 9.24058 1.17451 8.98589C1.17451 8.19252 1.17451 7.39916 1.17451 6.6058C1.17451 5.81357 1.17451 5.02136 1.17451 4.22912C1.17451 3.97586 1.17451 3.72261 1.17451 3.46934C1.17451 3.32672 1.16816 3.18136 1.18704 3.03973C1.18008 3.09001 1.17313 3.14026 1.16616 3.19054C1.18241 3.08036 1.21181 2.97381 1.25451 2.87095C1.2352 2.91713 1.2159 2.96332 1.19659 3.00949C1.23967 2.90951 1.29409 2.81609 1.35972 2.72925C1.32938 2.76905 1.29904 2.80887 1.2687 2.84868C1.33502 2.76327 1.41047 2.68682 1.49501 2.61937C1.45495 2.65053 1.4149 2.68169 1.37485 2.71284C1.46536 2.64257 1.56331 2.58463 1.66855 2.53928C1.62011 2.5595 1.57166 2.57971 1.52322 2.59993C1.63163 2.55495 1.74415 2.52474 1.86049 2.50923C1.80843 2.51593 1.75636 2.52265 1.7043 2.52936C1.93041 2.50242 2.16641 2.51918 2.39338 2.51918C2.80399 2.51918 3.21459 2.51918 3.62519 2.51918C4.01267 2.51918 4.40014 2.51918 4.78762 2.51918C5.10747 2.51918 5.37698 2.25758 5.37911 1.93615C5.38122 1.6179 5.11595 1.34466 4.79607 1.34466C4.17185 1.34466 3.54761 1.34466 2.92337 1.34466C2.60509 1.34466 2.28681 1.34466 1.96854 1.34466C1.80607 1.34466 1.64767 1.35743 1.48627 1.38584C1.29982 1.41864 1.11535 1.49629 0.950488 1.58657C0.788414 1.67532 0.636594 1.79692 0.510439 1.93165C0.168376 2.297 0 2.77151 0 3.2681C0 3.44629 0 3.62448 0 3.80268C0 4.52681 0 5.25094 0 5.97508C0 6.80973 0 7.64439 0 8.47904C0 8.96846 0 9.45787 0 9.94727C0 10.077 0.015435 10.2033 0.0326706 10.3326C0.0579303 10.522 0.133605 10.7059 0.217826 10.8756C0.300116 11.0413 0.420934 11.1947 0.550247 11.3257C0.90982 11.69 1.40959 11.8715 1.91577 11.8715C2.40518 11.8715 2.8946 11.8715 3.38401 11.8715C4.21866 11.8715 5.05331 11.8715 5.88798 11.8715C6.61211 11.8715 7.33624 11.8715 8.06037 11.8715C8.23856 11.8715 8.41674 11.8715 8.59494 11.8715C8.6623 11.8715 8.72913 11.8705 8.79633 11.8634C8.91283 11.8512 9.03001 11.8369 9.14352 11.807C9.26078 11.7762 9.37458 11.7251 9.48445 11.676C9.65405 11.6001 9.80819 11.4807 9.94432 11.3566C10.2151 11.1097 10.4165 10.7478 10.485 10.3883C10.5152 10.2291 10.5269 10.0726 10.5269 9.91211C10.5269 9.59543 10.5269 9.27873 10.5269 8.96204C10.5269 8.32716 10.5269 7.69226 10.5269 7.05736C10.5269 7.05712 10.5269 7.0569 10.5269 7.05667C10.5269 6.73681 10.2653 6.4673 9.94382 6.46518C9.62556 6.46306 9.35231 6.72834 9.35231 7.04821Z" fill="white"/>
<path d="M6.52591 1.26024C7.01268 1.26068 7.49942 1.26113 7.98619 1.26158C8.80336 1.26234 9.62053 1.26309 10.4377 1.26384C10.6899 1.26408 10.942 1.2643 11.1942 1.26453C11.5141 1.26482 11.7836 1.00271 11.7857 0.681499C11.7878 0.363025 11.5225 0.0902961 11.2027 0.0900091C10.7159 0.0895655 10.2291 0.0891218 9.74237 0.0886652C8.92521 0.0879084 8.10804 0.0871517 7.29087 0.086408C7.03871 0.0861731 6.78654 0.0859513 6.53437 0.0857165C6.21452 0.0854294 5.94501 0.347538 5.94288 0.668751C5.94077 0.987212 6.20604 1.25994 6.52591 1.26024Z" fill="white"/>
<path d="M11.7815 5.34555C11.7819 4.85878 11.7824 4.37202 11.7828 3.88525C11.7836 3.06808 11.7843 2.25089 11.7851 1.43371C11.7853 1.18154 11.7855 0.929377 11.7858 0.677211C11.7861 0.357354 11.524 0.0878479 11.2027 0.0857212C10.8843 0.0836075 10.6115 0.348887 10.6113 0.668756C10.6108 1.15553 10.6104 1.64229 10.6099 2.12906C10.6091 2.94623 10.6084 3.76341 10.6076 4.58059C10.6074 4.83276 10.6072 5.08493 10.6069 5.33709C10.6066 5.65695 10.8687 5.92646 11.19 5.92858C11.5084 5.9307 11.7812 5.66542 11.7815 5.34555Z" fill="white"/>
<path d="M5.01419 7.6816C5.21506 7.48092 5.41591 7.28023 5.61677 7.07956C6.10534 6.59145 6.59392 6.10332 7.08249 5.61519C7.68777 5.01046 8.29305 4.40574 8.89833 3.80102C9.44931 3.25054 10.0003 2.70006 10.5513 2.14958C10.877 1.82419 11.2027 1.4988 11.5284 1.17341C11.5575 1.14426 11.5867 1.11513 11.6159 1.08598C11.8419 0.86013 11.8381 0.479342 11.6114 0.255527C11.3829 0.0298992 11.0075 0.033696 10.781 0.259977C10.5801 0.460645 10.3793 0.661327 10.1784 0.861996C9.68982 1.35012 9.20125 1.83824 8.71268 2.32637C8.10739 2.9311 7.50212 3.53582 6.89682 4.14054C6.34585 4.69102 5.79486 5.2415 5.24386 5.79199C4.91818 6.11737 4.59249 6.44276 4.26679 6.76816C4.23761 6.7973 4.20845 6.82645 4.17928 6.85558C3.95322 7.08143 3.95707 7.46222 4.18373 7.68603C4.41224 7.91167 4.7877 7.90788 5.01419 7.6816Z" fill="white"/>
</svg>
