<svg width="25" height="38" viewBox="0 0 25 38" fill="none" xmlns="http://www.w3.org/2000/svg">
<path d="M23.3057 15.4194C23.2606 15.4194 23.2154 15.4194 23.1702 15.4194C22.9444 15.4194 22.7637 15.3596 22.6508 15.22C22.2443 15.1402 21.7927 15.0803 21.341 15.0803H20.799C20.7764 15.1202 20.7538 15.1402 20.7313 15.1801C20.6183 15.3396 20.4377 15.3995 20.1893 15.3995C19.9408 15.3995 19.7602 15.3197 19.6473 15.1801C19.6247 15.1402 19.6021 15.1202 19.5795 15.0803H17.4341H17.8406V15.3795H16.5308V15.0803H17.0502H14.3628H14.7693V15.3795H13.4595V15.0803H13.9789H11.5399C11.5174 15.1003 11.5174 15.1202 11.4948 15.1402C11.3819 15.2997 11.2012 15.3596 10.9528 15.3596C10.7044 15.3596 10.5237 15.2798 10.4108 15.1402C10.3882 15.1202 10.3882 15.1003 10.3656 15.0803H8.46865C8.44607 15.1003 8.44606 15.1202 8.42348 15.1402C8.31057 15.2997 8.1299 15.3596 7.88149 15.3596C7.63308 15.3596 7.45241 15.2798 7.3395 15.1402C7.31691 15.1202 7.31691 15.1003 7.29433 15.0803H5.55543V15.3396H4.24562V15.0803H3.70362C3.27454 15.0803 2.86805 15.1202 2.48414 15.2V15.3396H1.89698C0.767825 15.6787 0 16.337 0 17.0751V36.0053C0 36.6436 0.564577 37.2221 1.44532 37.6011C1.51307 37.5811 1.6034 37.5612 1.69373 37.5612C1.94214 37.5612 2.12281 37.641 2.23572 37.7806C2.25831 37.8006 2.25831 37.8205 2.28089 37.8604C2.70997 37.9601 3.16163 38 3.65846 38H4.20045L4.5392 37.6011H5.17152V38H7.22658C7.24916 37.9202 7.29433 37.8604 7.3395 37.8006C7.45241 37.641 7.63308 37.5811 7.88149 37.5811C8.1299 37.5811 8.31057 37.6609 8.42348 37.8006C8.46865 37.8604 8.49123 37.9202 8.5364 38H10.2979C10.3205 37.9402 10.343 37.8803 10.3882 37.8404C10.5011 37.6809 10.6818 37.621 10.9302 37.621C11.1786 37.621 11.3593 37.7008 11.4722 37.8404C11.5174 37.8803 11.5399 37.9402 11.5625 38H13.3466C13.3692 37.9402 13.4143 37.8803 13.4595 37.8205C13.5724 37.6609 13.7531 37.6011 14.0015 37.6011C14.2499 37.6011 14.4306 37.6809 14.5435 37.8205C14.5887 37.8803 14.6112 37.9402 14.6564 38H16.5082L16.8018 37.6609H17.4341V38H19.5569C19.5795 37.9402 19.6021 37.9003 19.6473 37.8404C19.7602 37.6809 19.9408 37.621 20.1893 37.621C20.4377 37.621 20.6183 37.7008 20.7313 37.8404C20.7764 37.8803 20.799 37.9402 20.8216 38H21.3184C21.8152 38 22.2895 37.9402 22.7186 37.8404C22.8315 37.7008 23.0121 37.641 23.238 37.641C23.2831 37.641 23.3283 37.641 23.3735 37.641C24.3671 37.2819 24.9995 36.6635 24.9995 35.9853V17.0551C25.022 16.3969 24.3445 15.7785 23.3057 15.4194ZM1.17432 16.2373C1.28723 16.0777 1.4679 16.0179 1.71631 16.0179C1.96473 16.0179 2.14539 16.0976 2.25831 16.2373C2.37122 16.3969 2.43897 16.5963 2.43897 16.8756C2.43897 17.1549 2.37122 17.3543 2.25831 17.5139C2.14539 17.6735 1.96473 17.7333 1.71631 17.7333C1.4679 17.7333 1.28723 17.6536 1.17432 17.5139C1.0614 17.3543 0.993655 17.1549 0.993655 16.8756C0.993655 16.5963 1.0614 16.3769 1.17432 16.2373ZM1.17432 21.1045C1.28723 20.9449 1.4679 20.8851 1.71631 20.8851C1.96473 20.8851 2.14539 20.9648 2.25831 21.1045C2.37122 21.2641 2.43897 21.4635 2.43897 21.7428C2.43897 22.0221 2.37122 22.2215 2.25831 22.3811C2.14539 22.5407 1.96473 22.6005 1.71631 22.6005C1.4679 22.6005 1.28723 22.5207 1.17432 22.3811C1.0614 22.2215 0.993655 22.0221 0.993655 21.7428C0.993655 21.4635 1.0614 21.2641 1.17432 21.1045ZM1.17432 25.9118C1.28723 25.7522 1.4679 25.6924 1.71631 25.6924C1.96473 25.6924 2.14539 25.7722 2.25831 25.9118C2.37122 26.0515 2.43897 26.2709 2.43897 26.5501C2.43897 26.8294 2.37122 27.0289 2.25831 27.1885C2.14539 27.348 1.96473 27.4079 1.71631 27.4079C1.4679 27.4079 1.28723 27.3281 1.17432 27.1885C1.0614 27.0488 0.993655 26.8294 0.993655 26.5501C0.993655 26.2709 1.0614 26.0515 1.17432 25.9118ZM1.17432 32.9533C1.28723 32.7937 1.4679 32.7339 1.71631 32.7339C1.96473 32.7339 2.14539 32.8137 2.25831 32.9533C2.37122 33.1129 2.43897 33.3124 2.43897 33.5916C2.43897 33.8709 2.37122 34.0704 2.25831 34.2299C2.14539 34.3895 1.96473 34.4494 1.71631 34.4494C1.4679 34.4494 1.28723 34.3696 1.17432 34.2299C1.0614 34.0704 0.993655 33.8709 0.993655 33.5916C0.993655 33.3124 1.0614 33.0929 1.17432 32.9533ZM2.48414 36.9628H1.17432V36.6635H1.69373V35.5465H1.67115L1.28723 35.9853L1.01624 35.8058L1.4679 35.2872H2.10022V36.6635H2.50672V36.9628H2.48414ZM2.48414 32.0756H1.17432V31.7963H1.67115V30.6793H1.64856L1.26465 31.1181L0.993655 30.9386L1.44532 30.42H2.07764V31.7963H2.48414V32.0756ZM2.48414 29.8016H1.17432V29.5024H1.67115V28.3853H1.64856L1.26465 28.8242L0.993655 28.6446L1.44532 28.126H2.07764V29.5024H2.48414V29.8016ZM2.48414 25.0142H1.17432V24.715H1.67115V23.5979H1.64856L1.26465 24.0368L0.993655 23.8572L1.44532 23.3386H2.07764V24.715H2.48414V25.0142ZM2.48414 20.2467H1.17432V19.9475H1.67115V18.8305H1.64856L1.26465 19.2693L0.993655 19.0898L1.44532 18.5711H2.07764V19.9475H2.48414V20.2467ZM4.24562 16.2572C4.35853 16.0976 4.5392 16.0378 4.78761 16.0378C5.03602 16.0378 5.21669 16.1176 5.3296 16.2572C5.44252 16.4168 5.51027 16.6163 5.51027 16.8955C5.51027 17.1748 5.44252 17.3743 5.3296 17.5339C5.21669 17.6934 5.03602 17.7533 4.78761 17.7533C4.5392 17.7533 4.35853 17.6735 4.24562 17.5339C4.1327 17.3743 4.06495 17.1748 4.06495 16.8955C4.06495 16.6163 4.1327 16.4168 4.24562 16.2572ZM4.24562 18.7706C4.35853 18.611 4.5392 18.5512 4.78761 18.5512C5.03602 18.5512 5.21669 18.631 5.3296 18.7706C5.44252 18.9302 5.51027 19.1297 5.51027 19.4089C5.51027 19.6882 5.44252 19.8877 5.3296 20.0473C5.21669 20.2068 5.03602 20.2667 4.78761 20.2667C4.5392 20.2667 4.35853 20.1869 4.24562 20.0473C4.1327 19.8877 4.06495 19.6882 4.06495 19.4089C4.06495 19.1297 4.1327 18.9102 4.24562 18.7706ZM4.24562 23.5381C4.35853 23.3785 4.5392 23.3186 4.78761 23.3186C5.03602 23.3186 5.21669 23.3984 5.3296 23.5381C5.44252 23.6977 5.51027 23.8971 5.51027 24.1764C5.51027 24.4557 5.44252 24.6551 5.3296 24.8147C5.21669 24.9743 5.03602 25.0341 4.78761 25.0341C4.5392 25.0341 4.35853 24.9543 4.24562 24.8147C4.1327 24.6551 4.06495 24.4557 4.06495 24.1764C4.06495 23.8971 4.1327 23.6977 4.24562 23.5381ZM4.24562 25.9318C4.35853 25.7722 4.5392 25.7124 4.78761 25.7124C5.03602 25.7124 5.21669 25.7921 5.3296 25.9318C5.44252 26.0914 5.51027 26.2908 5.51027 26.5701C5.51027 26.8494 5.44252 27.0488 5.3296 27.2084C5.21669 27.368 5.03602 27.4278 4.78761 27.4278C4.5392 27.4278 4.35853 27.348 4.24562 27.2084C4.1327 27.0488 4.06495 26.8494 4.06495 26.5701C4.06495 26.2908 4.1327 26.0914 4.24562 25.9318ZM4.24562 28.3255C4.35853 28.1659 4.5392 28.1061 4.78761 28.1061C5.03602 28.1061 5.21669 28.1858 5.3296 28.3255C5.44252 28.4851 5.51027 28.6845 5.51027 28.9638C5.51027 29.2431 5.44252 29.4425 5.3296 29.6021C5.21669 29.7617 5.03602 29.8215 4.78761 29.8215C4.5392 29.8215 4.35853 29.7418 4.24562 29.6021C4.1327 29.4425 4.06495 29.2431 4.06495 28.9638C4.06495 28.6845 4.1327 28.4651 4.24562 28.3255ZM5.35219 36.7633C5.23927 36.9229 5.05861 36.9827 4.81019 36.9827C4.56178 36.9827 4.38111 36.9029 4.2682 36.7633C4.15528 36.6037 4.08753 36.4042 4.08753 36.125C4.08753 35.8457 4.15528 35.6462 4.2682 35.4866C4.38111 35.3271 4.56178 35.2672 4.81019 35.2672C5.05861 35.2672 5.23927 35.347 5.35219 35.4866C5.4651 35.6462 5.53285 35.8457 5.53285 36.125C5.53285 36.4042 5.4651 36.6037 5.35219 36.7633ZM5.35219 34.2499C5.23927 34.4095 5.05861 34.4693 4.81019 34.4693C4.56178 34.4693 4.38111 34.3895 4.2682 34.2499C4.15528 34.0903 4.08753 33.8908 4.08753 33.6116C4.08753 33.3323 4.15528 33.1328 4.2682 32.9732C4.38111 32.8137 4.56178 32.7538 4.81019 32.7538C5.05861 32.7538 5.23927 32.8336 5.35219 32.9732C5.4651 33.1328 5.53285 33.3323 5.53285 33.6116C5.53285 33.8908 5.4651 34.0903 5.35219 34.2499ZM5.55543 32.0756H4.24562V31.7963H4.74244V30.6793H4.71986L4.33595 31.1181L4.08753 30.9386L4.5392 30.42H5.17152V31.7963H5.57802V32.0756H5.55543ZM5.55543 22.6005H4.24562V22.3213H4.74244V21.2042H4.71986L4.33595 21.6431L4.08753 21.4635L4.5392 20.9449H5.17152V22.3213H5.57802V22.6005H5.55543ZM13.4595 16.2772C13.5724 16.1176 13.7531 16.0578 14.0015 16.0578C14.2499 16.0578 14.4306 16.1375 14.5435 16.2772C14.6564 16.4368 14.7242 16.6362 14.7242 16.9155C14.7242 17.1948 14.6564 17.3942 14.5435 17.5538C14.4306 17.7134 14.2499 17.7732 14.0015 17.7732C13.7531 17.7732 13.5724 17.6934 13.4595 17.5538C13.3466 17.3942 13.2788 17.1948 13.2788 16.9155C13.2788 16.6362 13.324 16.4168 13.4595 16.2772ZM13.4595 21.1444C13.5724 20.9848 13.7531 20.9249 14.0015 20.9249C14.2499 20.9249 14.4306 21.0047 14.5435 21.1444C14.6564 21.304 14.7242 21.5034 14.7242 21.7827C14.7242 22.062 14.6564 22.2614 14.5435 22.421C14.4306 22.5806 14.2499 22.6404 14.0015 22.6404C13.7531 22.6404 13.5724 22.5606 13.4595 22.421C13.3466 22.2614 13.2788 22.062 13.2788 21.7827C13.2788 21.5034 13.324 21.304 13.4595 21.1444ZM13.4595 25.9517C13.5724 25.7921 13.7531 25.7323 14.0015 25.7323C14.2499 25.7323 14.4306 25.8121 14.5435 25.9517C14.6564 26.1113 14.7242 26.3108 14.7242 26.59C14.7242 26.8693 14.6564 27.0688 14.5435 27.2284C14.4306 27.3879 14.2499 27.4478 14.0015 27.4478C13.7531 27.4478 13.5724 27.368 13.4595 27.2284C13.3466 27.0688 13.2788 26.8693 13.2788 26.59C13.2788 26.3108 13.324 26.0914 13.4595 25.9517ZM10.3882 16.2373C10.5011 16.0777 10.6818 16.0179 10.9302 16.0179C11.1786 16.0179 11.3593 16.0976 11.4722 16.2373C11.5851 16.3969 11.6529 16.5963 11.6529 16.8756C11.6529 17.1549 11.5851 17.3543 11.4722 17.5139C11.3593 17.6735 11.1786 17.7333 10.9302 17.7333C10.6818 17.7333 10.5011 17.6536 10.3882 17.5139C10.2753 17.3543 10.2075 17.1549 10.2075 16.8756C10.2075 16.5963 10.2527 16.3769 10.3882 16.2373ZM10.3882 21.1643C10.5011 21.0047 10.6818 20.9449 10.9302 20.9449C11.1786 20.9449 11.3593 21.0247 11.4722 21.1643C11.5851 21.3239 11.6529 21.5234 11.6529 21.8026C11.6529 22.0819 11.5851 22.2814 11.4722 22.441C11.3593 22.6005 11.1786 22.6604 10.9302 22.6604C10.6818 22.6604 10.5011 22.5806 10.3882 22.441C10.2753 22.3013 10.2075 22.0819 10.2075 21.8026C10.2075 21.5234 10.2527 21.3039 10.3882 21.1643ZM10.3882 25.9517C10.5011 25.7921 10.6818 25.7323 10.9302 25.7323C11.1786 25.7323 11.3593 25.8121 11.4722 25.9517C11.5851 26.1113 11.6529 26.3108 11.6529 26.59C11.6529 26.8693 11.5851 27.0688 11.4722 27.2284C11.3593 27.3879 11.1786 27.4478 10.9302 27.4478C10.6818 27.4478 10.5011 27.368 10.3882 27.2284C10.2753 27.0887 10.2075 26.8693 10.2075 26.59C10.2075 26.3108 10.2527 26.1113 10.3882 25.9517ZM10.3882 28.3255C10.5011 28.1659 10.6818 28.1061 10.9302 28.1061C11.1786 28.1061 11.3593 28.1858 11.4722 28.3255C11.5851 28.4851 11.6529 28.6845 11.6529 28.9638C11.6529 29.2431 11.5851 29.4425 11.4722 29.6021C11.3593 29.7617 11.1786 29.8215 10.9302 29.8215C10.6818 29.8215 10.5011 29.7418 10.3882 29.6021C10.2753 29.4625 10.2075 29.2431 10.2075 28.9638C10.2075 28.6845 10.2527 28.4651 10.3882 28.3255ZM10.3882 30.5995C10.5011 30.4399 10.6818 30.3801 10.9302 30.3801C11.1786 30.3801 11.3593 30.4599 11.4722 30.5995C11.5851 30.7591 11.6529 30.9585 11.6529 31.2378C11.6529 31.5171 11.5851 31.7166 11.4722 31.8761C11.3593 32.0357 11.1786 32.0956 10.9302 32.0956C10.6818 32.0956 10.5011 32.0158 10.3882 31.8761C10.2753 31.7365 10.2075 31.5171 10.2075 31.2378C10.2075 30.9785 10.2527 30.7591 10.3882 30.5995ZM7.31691 21.1244C7.42983 20.9648 7.61049 20.905 7.85891 20.905C8.10732 20.905 8.28798 20.9848 8.4009 21.1244C8.51381 21.284 8.58156 21.4835 8.58156 21.7627C8.58156 22.042 8.51381 22.2415 8.4009 22.4011C8.28798 22.5606 8.10732 22.6205 7.85891 22.6205C7.61049 22.6205 7.42983 22.5407 7.31691 22.4011C7.204 22.2415 7.13625 22.042 7.13625 21.7627C7.13625 21.4835 7.204 21.284 7.31691 21.1244ZM7.13625 19.4289C7.13625 19.1496 7.204 18.9501 7.31691 18.7906C7.42983 18.631 7.61049 18.5711 7.85891 18.5711C8.10732 18.5711 8.28798 18.6509 8.4009 18.7906C8.51381 18.9302 8.58156 19.1496 8.58156 19.4289C8.58156 19.7081 8.51381 19.9076 8.4009 20.0672C8.28798 20.2268 8.10732 20.2866 7.85891 20.2866C7.61049 20.2866 7.42983 20.2068 7.31691 20.0672C7.204 19.9076 7.13625 19.7081 7.13625 19.4289ZM7.31691 30.5995C7.42983 30.4399 7.61049 30.3801 7.85891 30.3801C8.10732 30.3801 8.28798 30.4599 8.4009 30.5995C8.51381 30.7591 8.58156 30.9585 8.58156 31.2378C8.58156 31.5171 8.51381 31.7166 8.4009 31.8761C8.28798 32.0357 8.10732 32.0956 7.85891 32.0956C7.61049 32.0956 7.42983 32.0158 7.31691 31.8761C7.204 31.7166 7.13625 31.5171 7.13625 31.2378C7.13625 30.9785 7.204 30.7591 7.31691 30.5995ZM8.42348 36.7832C8.31057 36.9428 8.1299 37.0026 7.88149 37.0026C7.63308 37.0026 7.45241 36.9229 7.3395 36.7832C7.22658 36.6236 7.15883 36.4242 7.15883 36.1449C7.15883 35.8656 7.22658 35.6662 7.3395 35.5066C7.45241 35.347 7.63308 35.2872 7.88149 35.2872C8.1299 35.2872 8.31057 35.367 8.42348 35.5066C8.5364 35.6462 8.60415 35.8656 8.60415 36.1449C8.58156 36.4242 8.5364 36.6436 8.42348 36.7832ZM8.62673 34.4693H7.31691V34.1701H7.83632V33.053H7.81374L7.42983 33.4919L7.15883 33.3124L7.61049 32.7937H8.24282V34.1701H8.64931V34.4693H8.62673ZM8.62673 29.8215H7.31691V29.5423H7.83632V28.4252H7.81374L7.42983 28.8641L7.15883 28.6845L7.61049 28.1659H8.24282V29.5423H8.64931V29.8215H8.62673ZM8.62673 27.4278H7.31691V27.1286H7.83632V26.0116H7.81374L7.42983 26.4504L7.15883 26.2709L7.61049 25.7522H8.24282V27.1286H8.64931V27.4278H8.62673ZM8.62673 25.0142H7.31691V24.715H7.83632V23.5979H7.81374L7.42983 24.0368L7.15883 23.8572L7.61049 23.3386H8.24282V24.715H8.64931V25.0142H8.62673ZM8.62673 17.7533H7.31691V17.4541H7.83632V16.337H7.81374L7.42983 16.7759L7.15883 16.5963L7.61049 16.0777H8.24282V17.4541H8.64931V17.7533H8.62673ZM10.3882 32.9533C10.5011 32.7937 10.6818 32.7339 10.9302 32.7339C11.1786 32.7339 11.3593 32.8137 11.4722 32.9533C11.5851 33.1129 11.6529 33.3124 11.6529 33.5916C11.6529 33.8709 11.5851 34.0704 11.4722 34.2299C11.3593 34.3895 11.1786 34.4494 10.9302 34.4494C10.6818 34.4494 10.5011 34.3696 10.3882 34.2299C10.2753 34.0704 10.2075 33.8709 10.2075 33.5916C10.2075 33.3124 10.2527 33.0929 10.3882 32.9533ZM11.698 36.9827H10.3882V36.6835H10.9076V35.5664H10.885L10.5011 36.0053L10.2301 35.8257L10.6818 35.3071H11.3141V36.6835H11.7206V36.9827H11.698ZM11.698 25.0341H10.3882V24.7349H10.9076V23.6179H10.885L10.5011 24.0567L10.2301 23.8772L10.6818 23.3585H11.3141V24.7349H11.7206V25.0341H11.698ZM11.698 20.2667H10.3882V19.9675H10.9076V18.8504H10.885L10.5011 19.2893L10.2301 19.1097L10.6818 18.5911H11.3141V19.9675H11.7206V20.2667H11.698ZM13.4595 32.9932C13.5724 32.8336 13.7531 32.7738 14.0015 32.7738C14.2499 32.7738 14.4306 32.8536 14.5435 32.9932C14.6564 33.1528 14.7242 33.3523 14.7242 33.6315C14.7242 33.9108 14.6564 34.1103 14.5435 34.2698C14.4306 34.4294 14.2499 34.4893 14.0015 34.4893C13.7531 34.4893 13.5724 34.4095 13.4595 34.2698C13.3466 34.1103 13.2788 33.9108 13.2788 33.6315C13.2788 33.3523 13.324 33.1328 13.4595 32.9932ZM14.7693 37.0026H13.4595V36.7034H13.9563V35.5864H13.9338L13.5498 36.0252L13.3014 35.8457L13.7531 35.3271H14.3854V36.7034H14.7919V37.0026H14.7693ZM14.7693 32.1155H13.4595V31.8163H13.9789V30.6992H13.9563L13.5724 31.1381L13.324 30.9586L13.7757 30.4399H14.408V31.8163H14.8145V32.1155H14.7693ZM14.7693 29.8415H13.4595V29.5622H13.9789V28.4452H13.9563L13.5724 28.884L13.324 28.7045L13.7757 28.1858H14.408V29.5622H14.8145V29.8415H14.7693ZM14.7693 25.0541H13.4595V24.7549H13.9563V23.6378H13.9338L13.5498 24.0767L13.3014 23.8971L13.7531 23.3785H14.3854V24.7549H14.7919V25.0541H14.7693ZM14.7693 20.2866H13.4595V19.9874H13.9789V18.8704H13.9563L13.5724 19.3092L13.324 19.1297L13.7757 18.611H14.408V19.9874H14.8145V20.2866H14.7693ZM16.5308 16.2971C16.6437 16.1375 16.8244 16.0777 17.0728 16.0777C17.3212 16.0777 17.5019 16.1575 17.6148 16.2971C17.7277 16.4368 17.7955 16.6562 17.7955 16.9354C17.7955 17.2147 17.7277 17.4142 17.6148 17.5738C17.5019 17.7333 17.3212 17.7932 17.0728 17.7932C16.8244 17.7932 16.6437 17.7134 16.5308 17.5738C16.4179 17.4142 16.3501 17.2147 16.3501 16.9354C16.3501 16.6562 16.3953 16.4567 16.5308 16.2971ZM16.5308 18.8105C16.6437 18.6509 16.8244 18.5911 17.0728 18.5911C17.3212 18.5911 17.5019 18.6709 17.6148 18.8105C17.7277 18.9501 17.7955 19.1696 17.7955 19.4488C17.7955 19.7281 17.7277 19.9276 17.6148 20.0872C17.5019 20.2467 17.3212 20.3066 17.0728 20.3066C16.8244 20.3066 16.6437 20.2268 16.5308 20.0872C16.4179 19.9276 16.3501 19.7281 16.3501 19.4488C16.3501 19.1696 16.3953 18.9501 16.5308 18.8105ZM16.5308 23.578C16.6437 23.4184 16.8244 23.3585 17.0728 23.3585C17.3212 23.3585 17.5019 23.4383 17.6148 23.578C17.7277 23.7176 17.7955 23.937 17.7955 24.2163C17.7955 24.4956 17.7277 24.695 17.6148 24.8546C17.5019 25.0142 17.3212 25.074 17.0728 25.074C16.8244 25.074 16.6437 24.9942 16.5308 24.8546C16.4179 24.695 16.3501 24.4956 16.3501 24.2163C16.3501 23.937 16.3953 23.7375 16.5308 23.578ZM16.5308 25.9717C16.6437 25.8121 16.8244 25.7522 17.0728 25.7522C17.3212 25.7522 17.5019 25.832 17.6148 25.9717C17.7277 26.1313 17.7955 26.3307 17.7955 26.61C17.7955 26.8893 17.7277 27.0887 17.6148 27.2483C17.5019 27.4079 17.3212 27.4677 17.0728 27.4677C16.8244 27.4677 16.6437 27.3879 16.5308 27.2483C16.4179 27.0887 16.3501 26.8893 16.3501 26.61C16.3501 26.3307 16.3953 26.1313 16.5308 25.9717ZM16.5308 28.3654C16.6437 28.2058 16.8244 28.1459 17.0728 28.1459C17.3212 28.1459 17.5019 28.2257 17.6148 28.3654C17.7277 28.525 17.7955 28.7244 17.7955 29.0037C17.7955 29.283 17.7277 29.4824 17.6148 29.642C17.5019 29.8016 17.3212 29.8614 17.0728 29.8614C16.8244 29.8614 16.6437 29.7816 16.5308 29.642C16.4179 29.4824 16.3501 29.283 16.3501 29.0037C16.3501 28.7244 16.3953 28.505 16.5308 28.3654ZM17.6148 36.8032C17.5019 36.9628 17.3212 37.0226 17.0728 37.0226C16.8244 37.0226 16.6437 36.9428 16.5308 36.8032C16.4179 36.6436 16.3501 36.4441 16.3501 36.1649C16.3501 35.8856 16.4179 35.6861 16.5308 35.5265C16.6437 35.367 16.8244 35.3071 17.0728 35.3071C17.3212 35.3071 17.5019 35.3869 17.6148 35.5265C17.7277 35.6662 17.7955 35.8856 17.7955 36.1649C17.7955 36.4242 17.7503 36.6436 17.6148 36.8032ZM17.6148 34.2898C17.5019 34.4494 17.3212 34.5092 17.0728 34.5092C16.8244 34.5092 16.6437 34.4294 16.5308 34.2898C16.4179 34.1302 16.3501 33.9307 16.3501 33.6515C16.3501 33.3722 16.4179 33.1727 16.5308 33.0131C16.6437 32.8536 16.8244 32.7937 17.0728 32.7937C17.3212 32.7937 17.5019 32.8735 17.6148 33.0131C17.7277 33.1528 17.7955 33.3722 17.7955 33.6515C17.7955 33.9307 17.7503 34.1302 17.6148 34.2898ZM17.8406 32.1155H16.5308V31.8163H17.0502V30.6992H17.0276L16.6437 31.1381L16.3727 30.9586L16.8244 30.4399H17.4567V31.8163H17.8632V32.1155H17.8406ZM17.8406 22.6404H16.5308V22.3412H17.0502V21.2242H17.0276L16.6437 21.663L16.3727 21.4835L16.8244 20.9648H17.4567V22.3412H17.8632V22.6404H17.8406ZM19.6473 21.1643C19.7602 21.0047 19.9408 20.9449 20.1893 20.9449C20.4377 20.9449 20.6183 21.0247 20.7313 21.1643C20.8442 21.3239 20.9119 21.5234 20.9119 21.8026C20.9119 22.0819 20.8442 22.2814 20.7313 22.441C20.6183 22.6005 20.4377 22.6604 20.1893 22.6604C19.9408 22.6604 19.7602 22.5806 19.6473 22.441C19.5343 22.3013 19.4666 22.0819 19.4666 21.8026C19.4666 21.5234 19.5118 21.3239 19.6473 21.1643ZM19.4666 19.4688C19.4666 19.1895 19.5343 18.99 19.6473 18.8305C19.7602 18.6709 19.9408 18.611 20.1893 18.611C20.4377 18.611 20.6183 18.6908 20.7313 18.8305C20.8442 18.99 20.9119 19.1895 20.9119 19.4688C20.9119 19.748 20.8442 19.9475 20.7313 20.1071C20.6183 20.2667 20.4377 20.3265 20.1893 20.3265C19.9408 20.3265 19.7602 20.2467 19.6473 20.1071C19.5118 19.9475 19.4666 19.748 19.4666 19.4688ZM19.8279 28.1858H20.4603V29.5622H20.8668V29.8614H19.5569V29.5622H20.0763V28.4452H20.0538L19.6698 28.884L19.4214 28.7045L19.8279 28.1858ZM20.9119 31.2777C20.9119 31.557 20.8442 31.7565 20.7313 31.916C20.6183 32.0756 20.4377 32.1355 20.1893 32.1355C19.9408 32.1355 19.7602 32.0557 19.6473 31.916C19.5343 31.7764 19.4666 31.557 19.4666 31.2777C19.4666 30.9984 19.5343 30.799 19.6473 30.6394C19.7602 30.4798 19.9408 30.42 20.1893 30.42C20.4377 30.42 20.6183 30.4998 20.7313 30.6394C20.8667 30.799 20.9119 31.0184 20.9119 31.2777ZM20.7313 36.8231C20.6183 36.9827 20.4377 37.0425 20.1893 37.0425C19.9408 37.0425 19.7602 36.9628 19.6473 36.8231C19.5343 36.6835 19.4666 36.4641 19.4666 36.1848C19.4666 35.9055 19.5343 35.7061 19.6473 35.5465C19.7602 35.3869 19.9408 35.3271 20.1893 35.3271C20.4377 35.3271 20.6183 35.4068 20.7313 35.5465C20.8442 35.7061 20.9119 35.9055 20.9119 36.1848C20.9119 36.4641 20.8667 36.6835 20.7313 36.8231ZM20.9571 34.5092H19.6473V34.21H20.1441V33.0929H20.1215L19.7376 33.5318L19.4666 33.3523L19.9183 32.8336H20.5506V34.21H20.9571V34.5092ZM20.9571 27.4677H19.6473V27.1685H20.1441V26.0515H20.1215L19.7376 26.4903L19.4666 26.3108L19.9183 25.7921H20.5506V27.1685H20.9571V27.4677ZM20.9571 25.0541H19.6473V24.7549H20.1441V23.6378H20.1215L19.7376 24.0767L19.4666 23.8971L19.9183 23.3785H20.5506V24.7549H20.9571V25.0541ZM20.9571 17.7932H19.6473V17.494H20.1441V16.3769H20.1215L19.7376 16.8158L19.4666 16.6362L19.9183 16.1176H20.5506V17.494H20.9571V17.7932ZM22.696 16.2772C22.8089 16.1176 22.9896 16.0578 23.238 16.0578C23.4864 16.0578 23.667 16.1375 23.78 16.2772C23.8929 16.4368 23.9606 16.6362 23.9606 16.9155C23.9606 17.1948 23.8929 17.3942 23.78 17.5538C23.667 17.7134 23.4864 17.7732 23.238 17.7732C22.9896 17.7732 22.8089 17.6934 22.696 17.5538C22.5831 17.3942 22.5153 17.1948 22.5153 16.9155C22.5153 16.6362 22.5831 16.4168 22.696 16.2772ZM22.696 21.2042C22.8089 21.0446 22.9896 20.9848 23.238 20.9848C23.4864 20.9848 23.667 21.0646 23.78 21.2042C23.8929 21.3638 23.9606 21.5633 23.9606 21.8425C23.9606 22.1218 23.8929 22.3213 23.78 22.4809C23.667 22.6404 23.4864 22.7003 23.238 22.7003C22.9896 22.7003 22.8089 22.6205 22.696 22.4809C22.5831 22.3412 22.5153 22.1218 22.5153 21.8425C22.5153 21.5633 22.5831 21.3438 22.696 21.2042ZM22.696 25.9916C22.8089 25.832 22.9896 25.7722 23.238 25.7722C23.4864 25.7722 23.667 25.852 23.78 25.9916C23.8929 26.1512 23.9606 26.3507 23.9606 26.6299C23.9606 26.9092 23.8929 27.1087 23.78 27.2683C23.667 27.4278 23.4864 27.4877 23.238 27.4877C22.9896 27.4877 22.8089 27.4079 22.696 27.2683C22.5831 27.1286 22.5153 26.9092 22.5153 26.6299C22.5153 26.3507 22.5831 26.1512 22.696 25.9916ZM22.696 28.3654C22.8089 28.2058 22.9896 28.1459 23.238 28.1459C23.4864 28.1459 23.667 28.2257 23.78 28.3654C23.8929 28.525 23.9606 28.7244 23.9606 29.0037C23.9606 29.283 23.8929 29.4824 23.78 29.642C23.667 29.8016 23.4864 29.8614 23.238 29.8614C22.9896 29.8614 22.8089 29.7816 22.696 29.642C22.5831 29.5024 22.5153 29.283 22.5153 29.0037C22.5153 28.7244 22.5831 28.505 22.696 28.3654ZM22.6282 30.6394C22.7411 30.4798 22.9218 30.42 23.1702 30.42C23.4186 30.42 23.5993 30.4998 23.7122 30.6394C23.8251 30.779 23.8929 30.9984 23.8929 31.2777C23.8929 31.557 23.8251 31.7565 23.7122 31.916C23.5993 32.0756 23.4186 32.1355 23.1702 32.1355C22.9218 32.1355 22.7411 32.0557 22.6282 31.916C22.5153 31.7565 22.4476 31.557 22.4476 31.2777C22.4476 31.0184 22.4927 30.799 22.6282 30.6394ZM22.696 32.9932C22.8089 32.8336 22.9896 32.7738 23.238 32.7738C23.4864 32.7738 23.667 32.8536 23.78 32.9932C23.8929 33.1528 23.9606 33.3523 23.9606 33.6315C23.9606 33.9108 23.8929 34.1103 23.78 34.2698C23.667 34.4294 23.4864 34.4893 23.238 34.4893C22.9896 34.4893 22.8089 34.4095 22.696 34.2698C22.5831 34.1103 22.5153 33.9108 22.5153 33.6315C22.5153 33.3523 22.5831 33.1328 22.696 32.9932ZM24.0058 37.0226H22.696V36.7234H23.1928V35.6063H23.1702L22.7863 36.0452L22.5379 35.8656L22.9896 35.347H23.6219V36.7234H24.0284V37.0226H24.0058ZM24.0058 25.074H22.696V24.7748H23.1928V23.6578H23.1702L22.7863 24.0966L22.5379 23.9171L22.9896 23.3984H23.6219V24.7748H24.0284V25.074H24.0058ZM24.0058 20.3066H22.696V20.0074H23.1928V18.8903H23.1702L22.7863 19.3291L22.5379 19.1496L22.9896 18.631H23.6219V20.0074H24.0284V20.3066H24.0058Z" fill="url(#paint0_linear_5491_35699)"/>
<path d="M2.01001 33.4322V33.7513C2.01001 33.871 1.98743 33.9707 1.94226 34.0505C1.8971 34.1303 1.82935 34.1503 1.71643 34.1503C1.60352 34.1503 1.53577 34.1104 1.4906 34.0505C1.44544 33.9907 1.42285 33.8909 1.42285 33.7513V33.4322C1.42285 33.3125 1.44544 33.2127 1.4906 33.1329C1.53577 33.0731 1.60352 33.0332 1.71643 33.0332C1.82935 33.0332 1.8971 33.0731 1.94226 33.1329C1.98743 33.1928 2.01001 33.2925 2.01001 33.4322Z" fill="#8B4CF7"/>
<path d="M2.01001 26.3906V26.7098C2.01001 26.8295 1.98743 26.9292 1.94226 27.009C1.8971 27.0888 1.82935 27.1088 1.71643 27.1088C1.60352 27.1088 1.53577 27.0689 1.4906 27.009C1.44544 26.9492 1.42285 26.8494 1.42285 26.7098V26.3906C1.42285 26.271 1.44544 26.1712 1.4906 26.0914C1.53577 26.0316 1.60352 25.9917 1.71643 25.9917C1.82935 25.9917 1.8971 26.0316 1.94226 26.0914C1.98743 26.1513 2.01001 26.251 2.01001 26.3906Z" fill="#8B4CF7"/>
<path d="M2.01001 21.5833V21.9024C2.01001 22.0221 1.98743 22.1219 1.94226 22.2016C1.8971 22.2814 1.82935 22.3014 1.71643 22.3014C1.60352 22.3014 1.53577 22.2615 1.4906 22.2016C1.44544 22.1219 1.42285 22.0421 1.42285 21.9024V21.5833C1.42285 21.4636 1.44544 21.3639 1.4906 21.2841C1.53577 21.2043 1.60352 21.1843 1.71643 21.1843C1.82935 21.1843 1.8971 21.2242 1.94226 21.2841C1.98743 21.3639 2.01001 21.4636 2.01001 21.5833Z" fill="#8B4CF7"/>
<path d="M2.01001 16.7161V17.0352C2.01001 17.1549 1.98743 17.2547 1.94226 17.3345C1.8971 17.4143 1.82935 17.4342 1.71643 17.4342C1.60352 17.4342 1.53577 17.3943 1.4906 17.3345C1.44544 17.2547 1.42285 17.1749 1.42285 17.0352V16.7161C1.42285 16.5964 1.44544 16.4967 1.4906 16.4169C1.53577 16.3371 1.60352 16.3171 1.71643 16.3171C1.82935 16.3171 1.8971 16.357 1.94226 16.4169C1.98743 16.4767 2.01001 16.5765 2.01001 16.7161Z" fill="#8B4CF7"/>
<path d="M5.0813 26.4104V26.7296C5.0813 26.8493 5.05871 26.949 5.01355 27.0288C4.96838 27.1086 4.90063 27.1285 4.78772 27.1285C4.6748 27.1285 4.60705 27.0886 4.56189 27.0288C4.51672 26.969 4.49414 26.8692 4.49414 26.7296V26.4104C4.49414 26.2907 4.51672 26.191 4.56189 26.1112C4.60705 26.0514 4.6748 26.0115 4.78772 26.0115C4.90063 26.0115 4.96838 26.0514 5.01355 26.1112C5.05871 26.191 5.0813 26.2907 5.0813 26.4104Z" fill="#8455F7"/>
<path d="M5.0813 24.0169V24.336C5.0813 24.4557 5.05871 24.5554 5.01355 24.6352C4.96838 24.715 4.90063 24.735 4.78772 24.735C4.6748 24.735 4.60705 24.6951 4.56189 24.6352C4.51672 24.5754 4.49414 24.4757 4.49414 24.336V24.0169C4.49414 23.8972 4.51672 23.7974 4.56189 23.7177C4.60705 23.6379 4.6748 23.6179 4.78772 23.6179C4.90063 23.6179 4.96838 23.6578 5.01355 23.7177C5.05871 23.7974 5.0813 23.8972 5.0813 24.0169Z" fill="#8455F7"/>
<path d="M5.0813 19.2493V19.5684C5.0813 19.6881 5.05871 19.7879 5.01355 19.8677C4.96838 19.9275 4.90063 19.9674 4.78772 19.9674C4.6748 19.9674 4.60705 19.9275 4.56189 19.8677C4.51672 19.7879 4.49414 19.6881 4.49414 19.5684V19.2493C4.49414 19.1296 4.51672 19.0299 4.56189 18.9501C4.60705 18.8703 4.6748 18.8503 4.78772 18.8503C4.90063 18.8503 4.96838 18.8902 5.01355 18.9501C5.05871 19.0099 5.0813 19.1097 5.0813 19.2493Z" fill="#8455F7"/>
<path d="M5.0813 16.7359V17.055C5.0813 17.1747 5.05871 17.2745 5.01355 17.3542C4.96838 17.4141 4.90063 17.454 4.78772 17.454C4.6748 17.454 4.60705 17.4141 4.56189 17.3542C4.51672 17.2944 4.49414 17.1947 4.49414 17.055V16.7359C4.49414 16.6162 4.51672 16.5164 4.56189 16.4367C4.60705 16.3569 4.6748 16.3369 4.78772 16.3369C4.90063 16.3369 4.96838 16.3768 5.01355 16.4367C5.05871 16.5164 5.0813 16.6162 5.0813 16.7359Z" fill="#8455F7"/>
<path d="M5.0813 35.9654V36.2845C5.0813 36.4042 5.05871 36.5039 5.01355 36.5837C4.96838 36.6436 4.90063 36.6835 4.78772 36.6835C4.6748 36.6835 4.60705 36.6436 4.56189 36.5837C4.51672 36.5039 4.49414 36.4042 4.49414 36.2845V35.9654C4.49414 35.8457 4.51672 35.7459 4.56189 35.6661C4.60705 35.5864 4.6748 35.5664 4.78772 35.5664C4.90063 35.5664 4.96838 35.6063 5.01355 35.6661C5.05871 35.726 5.0813 35.8257 5.0813 35.9654Z" fill="#8455F7"/>
<path d="M5.0813 33.4519V33.7711C5.0813 33.8908 5.05871 33.9905 5.01355 34.0703C4.96838 34.1301 4.90063 34.17 4.78772 34.17C4.6748 34.17 4.60705 34.1301 4.56189 34.0703C4.51672 34.0105 4.49414 33.9107 4.49414 33.7711V33.4519C4.49414 33.3322 4.51672 33.2325 4.56189 33.1527C4.60705 33.0929 4.6748 33.053 4.78772 33.053C4.90063 33.053 4.96838 33.0929 5.01355 33.1527C5.05871 33.2325 5.0813 33.3322 5.0813 33.4519Z" fill="#8455F7"/>
<path d="M5.0813 28.8042V29.1234C5.0813 29.2431 5.05871 29.3428 5.01355 29.4226C4.96838 29.5024 4.90063 29.5223 4.78772 29.5223C4.6748 29.5223 4.60705 29.4824 4.56189 29.4226C4.51672 29.3628 4.49414 29.263 4.49414 29.1234V28.8042C4.49414 28.6845 4.51672 28.5848 4.56189 28.505C4.60705 28.4452 4.6748 28.4053 4.78772 28.4053C4.90063 28.4053 4.96838 28.4452 5.01355 28.505C5.05871 28.5649 5.0813 28.6646 5.0813 28.8042Z" fill="#8455F7"/>
<path d="M8.15259 35.9854V36.3045C8.15259 36.4242 8.13 36.524 8.08484 36.6037C8.03967 36.6835 7.97192 36.7035 7.85901 36.7035C7.74609 36.7035 7.67834 36.6636 7.63318 36.6037C7.58801 36.524 7.56543 36.4442 7.56543 36.3045V35.9854C7.56543 35.8657 7.58801 35.766 7.63318 35.6862C7.67834 35.6064 7.74609 35.5864 7.85901 35.5864C7.97192 35.5864 8.03967 35.6263 8.08484 35.6862C8.13 35.766 8.15259 35.8657 8.15259 35.9854Z" fill="#8358F8"/>
<path d="M8.15259 31.0781V31.3973C8.15259 31.517 8.13 31.6167 8.08484 31.6965C8.03967 31.7763 7.97192 31.7963 7.85901 31.7963C7.74609 31.7963 7.67834 31.7564 7.63318 31.6965C7.58801 31.6167 7.56543 31.517 7.56543 31.3973V31.0781C7.56543 30.9585 7.58801 30.8587 7.63318 30.7789C7.67834 30.6991 7.74609 30.6792 7.85901 30.6792C7.97192 30.6792 8.03967 30.7191 8.08484 30.7789C8.13 30.8587 8.15259 30.9585 8.15259 31.0781Z" fill="#8358F8"/>
<path d="M8.15259 21.6031V21.9222C8.15259 22.0419 8.13 22.1416 8.08484 22.2214C8.03967 22.2813 7.97192 22.3212 7.85901 22.3212C7.74609 22.3212 7.67834 22.2813 7.63318 22.2214C7.58801 22.1416 7.56543 22.0419 7.56543 21.9222V21.6031C7.56543 21.4834 7.58801 21.3836 7.63318 21.3038C7.67834 21.224 7.74609 21.2041 7.85901 21.2041C7.97192 21.2041 8.03967 21.244 8.08484 21.3038C8.13 21.3836 8.15259 21.4834 8.15259 21.6031Z" fill="#8358F8"/>
<path d="M8.15259 19.2693V19.5885C8.15259 19.7281 8.13 19.8079 8.08484 19.8877C8.03967 19.9675 7.97192 19.9874 7.85901 19.9874C7.74609 19.9874 7.67834 19.9475 7.63318 19.8877C7.58801 19.8079 7.56543 19.7281 7.56543 19.5885V19.2693C7.56543 19.1496 7.58801 19.0499 7.63318 18.9701C7.67834 18.8903 7.74609 18.8704 7.85901 18.8704C7.97192 18.8704 8.03967 18.9103 8.08484 18.9701C8.13 19.0499 8.15259 19.1496 8.15259 19.2693Z" fill="#8358F8"/>
<path d="M11.2239 33.4322V33.7513C11.2239 33.871 11.2013 33.9707 11.1561 34.0505C11.111 34.1303 11.0432 34.1503 10.9303 34.1503C10.8174 34.1503 10.7496 34.1104 10.7045 34.0505C10.6593 33.9907 10.6367 33.8909 10.6367 33.7513V33.4322C10.6367 33.3125 10.6593 33.2127 10.7045 33.1329C10.7496 33.0731 10.8174 33.0332 10.9303 33.0332C11.0432 33.0332 11.111 33.0731 11.1561 33.1329C11.2013 33.1928 11.2239 33.2925 11.2239 33.4322Z" fill="#7966F9"/>
<path d="M11.2239 31.0781V31.3973C11.2239 31.517 11.2013 31.6167 11.1561 31.6965C11.111 31.7763 11.0432 31.7963 10.9303 31.7963C10.8174 31.7963 10.7496 31.7564 10.7045 31.6965C10.6593 31.6167 10.6367 31.517 10.6367 31.3973V31.0781C10.6367 30.9585 10.6593 30.8587 10.7045 30.7789C10.7496 30.6991 10.8174 30.6792 10.9303 30.6792C11.0432 30.6792 11.111 30.7191 11.1561 30.7789C11.2013 30.8587 11.2239 30.9585 11.2239 31.0781Z" fill="#7966F9"/>
<path d="M11.2239 28.8042V29.1234C11.2239 29.2431 11.2013 29.3428 11.1561 29.4226C11.111 29.5024 11.0432 29.5223 10.9303 29.5223C10.8174 29.5223 10.7496 29.4824 10.7045 29.4226C10.6593 29.3628 10.6367 29.263 10.6367 29.1234V28.8042C10.6367 28.6845 10.6593 28.5848 10.7045 28.505C10.7496 28.4452 10.8174 28.4053 10.9303 28.4053C11.0432 28.4053 11.111 28.4452 11.1561 28.505C11.2013 28.5649 11.2239 28.6646 11.2239 28.8042Z" fill="#7966F9"/>
<path d="M11.2239 26.4304V26.7496C11.2239 26.8693 11.2013 26.969 11.1561 27.0488C11.111 27.1087 11.0432 27.1486 10.9303 27.1486C10.8174 27.1486 10.7496 27.1087 10.7045 27.0488C10.6593 26.969 10.6367 26.8693 10.6367 26.7496V26.4304C10.6367 26.3108 10.6593 26.211 10.7045 26.1312C10.7496 26.0514 10.8174 26.0315 10.9303 26.0315C11.0432 26.0315 11.111 26.0714 11.1561 26.1312C11.2013 26.211 11.2239 26.3108 11.2239 26.4304Z" fill="#7966F9"/>
<path d="M11.2239 21.6428V21.962C11.2239 22.0817 11.2013 22.1814 11.1561 22.2612C11.111 22.3211 11.0432 22.361 10.9303 22.361C10.8174 22.361 10.7496 22.3211 10.7045 22.2612C10.6593 22.1814 10.6367 22.0817 10.6367 21.962V21.6428C10.6367 21.5232 10.6593 21.4234 10.7045 21.3436C10.7496 21.2638 10.8174 21.2439 10.9303 21.2439C11.0432 21.2439 11.111 21.2838 11.1561 21.3436C11.2013 21.4035 11.2239 21.5032 11.2239 21.6428Z" fill="#7966F9"/>
<path d="M11.2239 16.7161V17.0352C11.2239 17.1549 11.2013 17.2547 11.1561 17.3345C11.111 17.4143 11.0432 17.4342 10.9303 17.4342C10.8174 17.4342 10.7496 17.3943 10.7045 17.3345C10.6593 17.2547 10.6367 17.1749 10.6367 17.0352V16.7161C10.6367 16.5964 10.6593 16.4967 10.7045 16.4169C10.7496 16.3371 10.8174 16.3171 10.9303 16.3171C11.0432 16.3171 11.111 16.357 11.1561 16.4169C11.2013 16.4767 11.2239 16.5765 11.2239 16.7161Z" fill="#7966F9"/>
<path d="M14.2952 26.4304V26.7496C14.2952 26.8892 14.2726 26.969 14.2274 27.0488C14.1822 27.1286 14.1145 27.1486 14.0016 27.1486C13.8887 27.1486 13.8209 27.1087 13.7758 27.0488C13.7306 26.989 13.708 26.8892 13.708 26.7496V26.4304C13.708 26.3108 13.7306 26.211 13.7758 26.1312C13.8209 26.0714 13.8887 26.0315 14.0016 26.0315C14.1145 26.0315 14.1822 26.0714 14.2274 26.1312C14.2726 26.1911 14.2952 26.2908 14.2952 26.4304Z" fill="black"/>
<path d="M14.2952 21.6231V21.9422C14.2952 22.0619 14.2726 22.1617 14.2274 22.2414C14.1822 22.3013 14.1145 22.3412 14.0016 22.3412C13.8887 22.3412 13.8209 22.3013 13.7758 22.2414C13.7306 22.1816 13.708 22.0819 13.708 21.9422V21.6231C13.708 21.5034 13.7306 21.4036 13.7758 21.3239C13.8209 21.2441 13.8887 21.2241 14.0016 21.2241C14.1145 21.2241 14.1822 21.264 14.2274 21.3239C14.2726 21.4036 14.2952 21.5034 14.2952 21.6231Z" fill="#6F74FA"/>
<path d="M14.2952 16.7559V17.075C14.2952 17.1947 14.2726 17.2945 14.2274 17.3743C14.1822 17.4341 14.1145 17.474 14.0016 17.474C13.8887 17.474 13.8209 17.4341 13.7758 17.3743C13.7306 17.3144 13.708 17.2147 13.708 17.075V16.7559C13.708 16.6362 13.7306 16.5365 13.7758 16.4567C13.8209 16.3968 13.8887 16.3569 14.0016 16.3569C14.1145 16.3569 14.1822 16.3968 14.2274 16.4567C14.2726 16.5165 14.2952 16.6163 14.2952 16.7559Z" fill="#6F74FA"/>
<path d="M14.2952 33.472V33.7911C14.2952 33.9108 14.2726 34.0105 14.2274 34.0903C14.1822 34.1502 14.1145 34.1901 14.0016 34.1901C13.8887 34.1901 13.8209 34.1502 13.7758 34.0903C13.7306 34.0305 13.708 33.9307 13.708 33.7911V33.472C13.708 33.3523 13.7306 33.2525 13.7758 33.1727C13.8209 33.1129 13.8887 33.073 14.0016 33.073C14.1145 33.073 14.1822 33.1129 14.2274 33.1727C14.2726 33.2326 14.2952 33.3323 14.2952 33.472Z" fill="#6F74FA"/>
<path d="M17.3664 36.0052V36.3243C17.3664 36.444 17.3439 36.5437 17.2987 36.6235C17.2535 36.7033 17.1858 36.7233 17.0729 36.7233C16.96 36.7233 16.8922 36.6834 16.847 36.6235C16.8019 36.5437 16.7793 36.4639 16.7793 36.3243V36.0052C16.7793 35.8855 16.8019 35.7857 16.847 35.7059C16.8922 35.6261 16.96 35.6062 17.0729 35.6062C17.1858 35.6062 17.2535 35.6461 17.2987 35.7059C17.3439 35.7857 17.3664 35.8655 17.3664 36.0052Z" fill="#6A7BFB"/>
<path d="M17.3664 33.492V33.8111C17.3664 33.9308 17.3439 34.0306 17.2987 34.1103C17.2535 34.1901 17.1858 34.2101 17.0729 34.2101C16.96 34.2101 16.8922 34.1702 16.847 34.1103C16.8019 34.0306 16.7793 33.9508 16.7793 33.8111V33.492C16.7793 33.3723 16.8019 33.2725 16.847 33.1928C16.8922 33.113 16.96 33.093 17.0729 33.093C17.1858 33.093 17.2535 33.1329 17.2987 33.1928C17.3439 33.2725 17.3664 33.3723 17.3664 33.492Z" fill="#6A7BFB"/>
<path d="M17.3664 28.8443V29.1634C17.3664 29.2831 17.3439 29.3828 17.2987 29.4626C17.2535 29.5424 17.1858 29.5624 17.0729 29.5624C16.96 29.5624 16.8922 29.5225 16.847 29.4626C16.8019 29.4028 16.7793 29.3031 16.7793 29.1634V28.8443C16.7793 28.7246 16.8019 28.6248 16.847 28.5451C16.8922 28.4653 16.96 28.4453 17.0729 28.4453C17.1858 28.4453 17.2535 28.4852 17.2987 28.5451C17.3439 28.6248 17.3664 28.7046 17.3664 28.8443Z" fill="#6A7BFB"/>
<path d="M17.3664 26.4505V26.7696C17.3664 26.8893 17.3439 26.989 17.2987 27.0688C17.2535 27.1287 17.1858 27.1686 17.0729 27.1686C16.96 27.1686 16.8922 27.1287 16.847 27.0688C16.8019 26.989 16.7793 26.8893 16.7793 26.7696V26.4505C16.7793 26.3308 16.8019 26.231 16.847 26.1513C16.8922 26.0715 16.96 26.0515 17.0729 26.0515C17.1858 26.0515 17.2535 26.0914 17.2987 26.1513C17.3439 26.231 17.3664 26.3308 17.3664 26.4505Z" fill="#6A7BFB"/>
<path d="M17.3664 24.0567V24.3758C17.3664 24.4955 17.3439 24.5952 17.2987 24.675C17.2535 24.7349 17.1858 24.7748 17.0729 24.7748C16.96 24.7748 16.8922 24.7349 16.847 24.675C16.8019 24.5952 16.7793 24.4955 16.7793 24.3758V24.0567C16.7793 23.937 16.8019 23.8372 16.847 23.7575C16.8922 23.6777 16.96 23.6577 17.0729 23.6577C17.1858 23.6577 17.2535 23.6976 17.2987 23.7575C17.3439 23.8372 17.3664 23.937 17.3664 24.0567Z" fill="#6A7BFB"/>
<path d="M17.3664 19.2891V19.6082C17.3664 19.7279 17.3439 19.8277 17.2987 19.9075C17.2535 19.9673 17.1858 20.0072 17.0729 20.0072C16.96 20.0072 16.8922 19.9673 16.847 19.9075C16.8019 19.8277 16.7793 19.7279 16.7793 19.6082V19.2891C16.7793 19.1694 16.8019 19.0697 16.847 18.9899C16.8922 18.9101 16.96 18.8901 17.0729 18.8901C17.1858 18.8901 17.2535 18.93 17.2987 18.9899C17.3439 19.0497 17.3664 19.1495 17.3664 19.2891Z" fill="#6A7BFB"/>
<path d="M17.3664 16.7757V17.0948C17.3664 17.2145 17.3439 17.3142 17.2987 17.394C17.2535 17.4539 17.1858 17.4938 17.0729 17.4938C16.96 17.4938 16.8922 17.4539 16.847 17.394C16.8019 17.3142 16.7793 17.2145 16.7793 17.0948V16.7757C16.7793 16.656 16.8019 16.5562 16.847 16.4764C16.8922 16.3967 16.96 16.3767 17.0729 16.3767C17.1858 16.3767 17.2535 16.4166 17.2987 16.4764C17.3439 16.5562 17.3664 16.656 17.3664 16.7757Z" fill="#6A7BFB"/>
<path d="M20.4829 36.0252V36.3443C20.4829 36.464 20.4603 36.5638 20.4152 36.6436C20.37 36.7233 20.3022 36.7433 20.1893 36.7433C20.0764 36.7433 20.0087 36.7034 19.9635 36.6436C19.9183 36.5837 19.8958 36.484 19.8958 36.3443V36.0252C19.8958 35.9055 19.9183 35.8057 19.9635 35.726C20.0087 35.6661 20.0764 35.6262 20.1893 35.6262C20.3022 35.6262 20.37 35.6661 20.4152 35.726C20.4603 35.8057 20.4829 35.9055 20.4829 36.0252Z" fill="#5993FD"/>
<path d="M20.4829 31.1182V31.4374C20.4829 31.557 20.4603 31.6568 20.4152 31.7366C20.37 31.7964 20.3022 31.8363 20.1893 31.8363C20.0764 31.8363 20.0087 31.7964 19.9635 31.7366C19.9183 31.6568 19.8958 31.557 19.8958 31.4374V31.1182C19.8958 30.9985 19.9183 30.8988 19.9635 30.819C20.0087 30.7392 20.0764 30.7192 20.1893 30.7192C20.3022 30.7192 20.37 30.7591 20.4152 30.819C20.4603 30.8988 20.4829 30.9985 20.4829 31.1182Z" fill="#5C90FC"/>
<path d="M20.4829 21.6428V21.962C20.4829 22.0817 20.4603 22.1814 20.4152 22.2612C20.37 22.3211 20.3022 22.361 20.1893 22.361C20.0764 22.361 20.0087 22.3211 19.9635 22.2612C19.9183 22.1814 19.8958 22.0817 19.8958 21.962V21.6428C19.8958 21.5232 19.9183 21.4234 19.9635 21.3436C20.0087 21.2638 20.0764 21.2439 20.1893 21.2439C20.3022 21.2439 20.37 21.2838 20.4152 21.3436C20.4603 21.4234 20.4829 21.5232 20.4829 21.6428Z" fill="#6089FC"/>
<path d="M20.4829 19.3091V19.6283C20.4829 19.748 20.4603 19.8477 20.4152 19.9275C20.37 20.0073 20.3022 20.0272 20.1893 20.0272C20.0764 20.0272 20.0087 19.9873 19.9635 19.9275C19.9183 19.8477 19.8958 19.7679 19.8958 19.6283V19.3091C19.8958 19.1894 19.9183 19.0897 19.9635 19.0099C20.0087 18.9301 20.0764 18.9102 20.1893 18.9102C20.3022 18.9102 20.37 18.9501 20.4152 19.0099C20.4603 19.0897 20.4829 19.1894 20.4829 19.3091Z" fill="#6089FC"/>
<path d="M23.4636 31.1182V31.4374C23.4636 31.557 23.441 31.6568 23.3959 31.7366C23.3507 31.8164 23.283 31.8363 23.17 31.8363C23.0571 31.8363 22.9894 31.7964 22.9442 31.7366C22.899 31.6568 22.8765 31.577 22.8765 31.4374V31.1182C22.8765 30.9985 22.899 30.8988 22.9442 30.819C22.9894 30.7392 23.0571 30.7192 23.17 30.7192C23.283 30.7192 23.3507 30.7591 23.3959 30.819C23.441 30.8988 23.4636 30.9985 23.4636 31.1182Z" fill="#5698FD"/>
<path d="M23.5315 33.472V33.7911C23.5315 33.9108 23.5089 34.0105 23.4637 34.0903C23.4186 34.1502 23.3508 34.1901 23.2379 34.1901C23.125 34.1901 23.0573 34.1502 23.0121 34.0903C22.9669 34.0305 22.9443 33.9307 22.9443 33.7911V33.472C22.9443 33.3523 22.9669 33.2525 23.0121 33.1727C23.0573 33.1129 23.125 33.073 23.2379 33.073C23.3508 33.073 23.4186 33.1129 23.4637 33.1727C23.5315 33.2326 23.5315 33.3323 23.5315 33.472Z" fill="#5698FD"/>
<path d="M23.5315 28.8443V29.1634C23.5315 29.2831 23.5089 29.3828 23.4637 29.4626C23.4186 29.5424 23.3508 29.5624 23.2379 29.5624C23.125 29.5624 23.0573 29.5225 23.0121 29.4626C22.9669 29.4028 22.9443 29.3031 22.9443 29.1634V28.8443C22.9443 28.7246 22.9669 28.6248 23.0121 28.5451C23.0573 28.4653 23.125 28.4453 23.2379 28.4453C23.3508 28.4453 23.4186 28.4852 23.4637 28.5451C23.5315 28.6248 23.5315 28.7046 23.5315 28.8443Z" fill="#5698FD"/>
<path d="M23.5315 26.4702V26.7894C23.5315 26.9091 23.5089 27.0088 23.4637 27.0886C23.4186 27.1684 23.3508 27.1883 23.2379 27.1883C23.125 27.1883 23.0573 27.1485 23.0121 27.0886C22.9669 27.0288 22.9443 26.929 22.9443 26.7894V26.4702C22.9443 26.3506 22.9669 26.2508 23.0121 26.171C23.0573 26.1112 23.125 26.0713 23.2379 26.0713C23.3508 26.0713 23.4186 26.1112 23.4637 26.171C23.5315 26.2508 23.5315 26.3506 23.5315 26.4702Z" fill="#5698FD"/>
<path d="M23.5315 21.6829V22.002C23.5315 22.1217 23.5089 22.2215 23.4637 22.3013C23.4186 22.381 23.3508 22.401 23.2379 22.401C23.125 22.401 23.0573 22.3611 23.0121 22.3013C22.9669 22.2215 22.9443 22.1417 22.9443 22.002V21.6829C22.9443 21.5632 22.9669 21.4635 23.0121 21.3837C23.0573 21.3039 23.125 21.2839 23.2379 21.2839C23.3508 21.2839 23.4186 21.3238 23.4637 21.3837C23.5315 21.4635 23.5315 21.5433 23.5315 21.6829Z" fill="#5698FD"/>
<path d="M23.5315 16.7559V17.075C23.5315 17.1947 23.5089 17.2945 23.4637 17.3743C23.4186 17.4341 23.3508 17.474 23.2379 17.474C23.125 17.474 23.0573 17.4341 23.0121 17.3743C22.9669 17.3144 22.9443 17.2147 22.9443 17.075V16.7559C22.9443 16.6362 22.9669 16.5365 23.0121 16.4567C23.0573 16.3968 23.125 16.3569 23.2379 16.3569C23.3508 16.3569 23.4186 16.3968 23.4637 16.4567C23.5315 16.5165 23.5315 16.6163 23.5315 16.7559Z" fill="#5698FD"/>
<path d="M13.6626 27.2683L14.724 30.6195H10.2977L11.3591 27.2683C10.4332 26.8893 9.77832 26.0515 9.77832 25.0741C9.77832 23.7376 10.9978 22.6604 12.5109 22.6604C14.0239 22.6604 15.2434 23.7376 15.2434 25.0741C15.2434 26.0515 14.6111 26.8893 13.6626 27.2683Z" fill="#202D3E"/>
<path d="M22.1315 7.40053V15.6788H19.4215V7.40053C19.4215 4.62783 16.2148 2.3937 12.2401 2.3937C8.2881 2.3937 5.05872 4.64777 5.05872 7.40053H5.03614V15.6788H2.32617V7.40053H2.39392C2.39392 3.33124 6.8202 0 12.2627 0C17.7052 0 22.1315 3.31129 22.1315 7.40053Z" fill="url(#paint1_linear_5491_35699)"/>
<defs>
<linearGradient id="paint0_linear_5491_35699" x1="0" y1="15.0803" x2="27.6985" y2="19.0179" gradientUnits="userSpaceOnUse">
<stop stop-color="#973AF5"/>
<stop offset="1" stop-color="#4CA6FE"/>
</linearGradient>
<linearGradient id="paint1_linear_5491_35699" x1="12.2288" y1="-8.17711e-07" x2="14.8854" y2="15.2149" gradientUnits="userSpaceOnUse">
<stop stop-color="#687BF7"/>
<stop offset="1" stop-color="#8050EF"/>
</linearGradient>
</defs>
</svg>
