<svg width="33" height="33" viewBox="0 0 33 33" fill="none" xmlns="http://www.w3.org/2000/svg">
<ellipse rx="16.4973" ry="16.5" transform="matrix(1 0 0.000161611 1 16.5 16.5)" fill="#DEDEDE"/>
<circle cx="16.5" cy="16.5" r="14.5" fill="#13182A"/>
<ellipse cx="16.4788" cy="9.69287" rx="2.69558" ry="2.69175" fill="#DEDEDE"/>
<path d="M12.4351 10.0513L20.5218 8.70544" stroke="#DEDEDE"/>
<ellipse cx="16.816" cy="17.4316" rx="1.01084" ry="1.00941" fill="#DEDEDE"/>
<ellipse cx="26.25" cy="10.7023" rx="0.336947" ry="0.336469" fill="#DEDEDE"/>
<ellipse cx="24.5111" cy="18.2297" rx="0.157081" ry="0.157244" fill="#DEDEDE"/>
<ellipse cx="4.71909" cy="16.6572" rx="0.157081" ry="0.157244" fill="#DEDEDE"/>
<ellipse cx="14.1439" cy="4.70668" rx="0.157081" ry="0.157244" fill="#DEDEDE"/>
<ellipse cx="17.9139" cy="24.205" rx="0.157081" ry="0.157244" fill="#DEDEDE"/>
<ellipse cx="14.7935" cy="28.1987" rx="0.336947" ry="0.336469" fill="#DEDEDE"/>
<ellipse cx="24.5651" cy="24.4975" rx="1.34779" ry="1.34588" fill="#DEDEDE"/>
<ellipse cx="8.68903" cy="22.5291" rx="0.673894" ry="0.672938" fill="#DEDEDE"/>
<ellipse cx="9.06598" cy="12.3846" rx="0.673894" ry="0.672938" fill="#DEDEDE"/>
</svg>
