<svg width="23" height="22" viewBox="0 0 23 22" fill="none" xmlns="http://www.w3.org/2000/svg">
<path d="M23 12.3248L22.9526 12.2019L22.9368 11.8965H22.7669L18.8196 5.94824H14.2639V6.74135H18.3968L21.8265 11.8965H15.4492V14.6724H7.54681V11.8965H1.16956L4.59921 6.74135H8.73218V5.94824H4.17643L0.209414 11.9084L0.0395121 11.9163V12.2376L0 12.3367L0.0395121 12.3922V20.0695C0.0395121 20.811 0.640096 21.4138 1.37897 21.4138H21.621C22.3599 21.4138 22.9565 20.811 22.9565 20.0734V12.3882L23 12.3248ZM22.1663 20.0734C22.1663 20.3748 21.9213 20.6207 21.621 20.6207H1.37897C1.07868 20.6207 0.833706 20.3748 0.833706 20.0734V12.6896H6.76052V15.4655H16.2434V12.6896H22.1702V20.0734H22.1663Z" fill="url(#paint0_linear)"/>
<path d="M8.61752 8.83914C8.46342 8.68448 8.21449 8.68448 8.0604 8.83914C7.9063 8.99379 7.9063 9.24362 8.0604 9.39828L11.2214 12.5707L11.5019 12.8522L11.7824 12.5707L14.9434 9.39828C15.0975 9.24362 15.0975 8.99379 14.9434 8.83914C14.7893 8.68448 14.5404 8.68448 14.3863 8.83914L11.901 11.3334V0.396552C11.901 0.178448 11.7232 0 11.5059 0C11.2885 0 11.1107 0.178448 11.1107 0.396552V11.3374L8.61752 8.83914Z" fill="url(#paint1_linear)"/>
<defs>
<linearGradient id="paint0_linear" x1="11.5" y1="5.94824" x2="11.5" y2="21.4138" gradientUnits="userSpaceOnUse">
<stop stop-color="#50D2EF"/>
<stop offset="1" stop-color="#68DDF7"/>
</linearGradient>
<linearGradient id="paint1_linear" x1="11.5019" y1="0" x2="11.5019" y2="12.8522" gradientUnits="userSpaceOnUse">
<stop stop-color="#50D2EF"/>
<stop offset="1" stop-color="#68DDF7"/>
</linearGradient>
</defs>
</svg>
