<svg width="24" height="24" viewBox="0 0 24 24" fill="none" xmlns="http://www.w3.org/2000/svg">
<path fill-rule="evenodd" clip-rule="evenodd" d="M6.46466 0.199017C6.10423 -0.0958228 5.59166 -0.0630629 5.26504 0.297296L0.267706 5.81084L0.178951 5.92428C-0.0871984 6.32012 -0.056354 6.88081 0.27071 7.23834L0.374003 7.33581C0.734441 7.6281 1.24499 7.59423 1.57055 7.23504L4.99718 3.45373V19.3376L5.00557 19.4746C5.06644 19.9673 5.45099 20.347 5.91631 20.347C6.42393 20.347 6.83544 19.8951 6.83544 19.3376V3.45387L10.2624 7.23504L10.3653 7.33304C10.7245 7.62715 11.2351 7.59587 11.5622 7.23834C11.922 6.84506 11.9233 6.20595 11.5652 5.81084L6.56788 0.297296L6.56286 0.292514C6.53396 0.261104 6.50318 0.231785 6.47071 0.20478L6.46466 0.199017ZM18.9944 4.52525C18.9336 4.03256 18.549 3.65282 18.0837 3.65282C17.5761 3.65282 17.1646 4.10474 17.1646 4.66221V20.5457L13.7376 16.765L13.6347 16.667C13.2755 16.3729 12.7648 16.4041 12.4378 16.7617C12.078 17.1549 12.0766 17.7941 12.4348 18.1892L17.4321 23.7027L17.4387 23.709C17.4666 23.7392 17.4963 23.7675 17.5275 23.7936L17.5353 23.801C17.8957 24.0958 18.4083 24.0631 18.7349 23.7027L23.7323 18.1892L23.821 18.0757C24.0872 17.6799 24.0563 17.1192 23.7293 16.7617C23.3695 16.3684 22.7875 16.3699 22.4294 16.765L19.0028 20.5444V4.66221L18.9944 4.52525Z" fill="#8492B4"/>
</svg>
