<svg width="8" height="8" viewBox="0 0 8 8" fill="none" xmlns="http://www.w3.org/2000/svg">
<path d="M7.54193 0C7.42479 0 7.3077 0.0447414 7.21817 0.134263L3.99977 3.35243L0.781866 0.134758C0.602793 -0.0442948 0.313333 -0.0442948 0.13429 0.134758C-0.0447633 0.313802 -0.0447633 0.603184 0.13429 0.782237L3.3522 3.99993L0.13429 7.21765C-0.0447633 7.3967 -0.0447633 7.68614 0.13429 7.86519C0.223598 7.9545 0.340831 7.99935 0.458073 7.99935C0.575296 7.99935 0.692558 7.9545 0.781866 7.86519L3.99977 4.64748L7.21817 7.86565C7.30746 7.95495 7.4247 7.99983 7.54193 7.99983C7.65916 7.99983 7.77594 7.95495 7.8657 7.86565C8.04477 7.68659 8.04477 7.39719 7.8657 7.21815L4.64735 3.99997L7.8657 0.7818C8.04477 0.602747 8.04477 0.313316 7.8657 0.134263C7.77617 0.0447414 7.65903 0 7.54193 0Z" fill="#7F8FA4"/>
</svg>
