<svg width="24" height="25" viewBox="0 0 24 25" fill="none" xmlns="http://www.w3.org/2000/svg">
<path fill-rule="evenodd" clip-rule="evenodd" d="M15 0C13.8954 0 13 0.895433 13 2V2.99967H0.5C0.223858 2.99967 0 3.22352 0 3.49967C0 3.77581 0.223858 3.99967 0.5 3.99967H13V4.99935C13 6.10392 13.8954 6.99935 15 6.99935H17.0001C18.1046 6.99935 19.0001 6.10392 19.0001 4.99935V3.99967H23.5005C23.7766 3.99967 24.0005 3.77581 24.0005 3.49967C24.0005 3.22352 23.7766 2.99967 23.5005 2.99967H19.0001V2C19.0001 0.89543 18.1046 0 17.0001 0H15ZM14 2C14 1.44772 14.4477 1 15 1H17.0001C17.5524 1 18.0001 1.44772 18.0001 2V4.99935C18.0001 5.55163 17.5524 5.99935 17.0001 5.99935H15C14.4477 5.99935 14 5.55163 14 4.99935V2ZM15 17.998C13.8954 17.998 13 18.8935 13 19.998V20.9977H0.5C0.223858 20.9977 0 21.2216 0 21.4977C0 21.7739 0.223858 21.9977 0.5 21.9977H13V22.9974C13 24.102 13.8954 24.9974 15 24.9974H17.0001C18.1046 24.9974 19.0001 24.102 19.0001 22.9974V21.9977H23.5005C23.7766 21.9977 24.0005 21.7739 24.0005 21.4977C24.0005 21.2216 23.7766 20.9977 23.5005 20.9977H19.0001V19.998C19.0001 18.8935 18.1046 17.998 17.0001 17.998H15ZM14 19.998C14 19.4458 14.4477 18.998 15 18.998H17.0001C17.5524 18.998 18.0001 19.4458 18.0001 19.998V22.9974C18.0001 23.5497 17.5524 23.9974 17.0001 23.9974H15C14.4477 23.9974 14 23.5497 14 22.9974V19.998ZM4.99989 10.999C4.99989 9.89446 5.89532 8.99902 6.99989 8.99902H8.99999C10.1046 8.99902 11 9.89445 11 10.999V11.9987H23.5005C23.7766 11.9987 24.0005 12.2226 24.0005 12.4987C24.0005 12.7748 23.7766 12.9987 23.5005 12.9987H11V13.9984C11 15.1029 10.1046 15.9984 8.99999 15.9984H6.99989C5.89532 15.9984 4.99989 15.1029 4.99989 13.9984V12.9987H0.5C0.223858 12.9987 0 12.7748 0 12.4987C0 12.2226 0.223858 11.9987 0.5 11.9987H4.99989V10.999ZM6.99989 9.99902C6.4476 9.99902 5.99989 10.4467 5.99989 10.999V13.9984C5.99989 14.5507 6.4476 14.9984 6.99989 14.9984H8.99999C9.55228 14.9984 9.99999 14.5507 9.99999 13.9984V10.999C9.99999 10.4467 9.55228 9.99902 8.99999 9.99902H6.99989Z" fill="url(#paint0_linear)"/>
<path fill-rule="evenodd" clip-rule="evenodd" d="M15 0C13.8954 0 13 0.895433 13 2V2.99967H0.5C0.223858 2.99967 0 3.22352 0 3.49967C0 3.77581 0.223858 3.99967 0.5 3.99967H13V4.99935C13 6.10392 13.8954 6.99935 15 6.99935H17.0001C18.1046 6.99935 19.0001 6.10392 19.0001 4.99935V3.99967H23.5005C23.7766 3.99967 24.0005 3.77581 24.0005 3.49967C24.0005 3.22352 23.7766 2.99967 23.5005 2.99967H19.0001V2C19.0001 0.89543 18.1046 0 17.0001 0H15ZM14 2C14 1.44772 14.4477 1 15 1H17.0001C17.5524 1 18.0001 1.44772 18.0001 2V4.99935C18.0001 5.55163 17.5524 5.99935 17.0001 5.99935H15C14.4477 5.99935 14 5.55163 14 4.99935V2ZM15 17.998C13.8954 17.998 13 18.8935 13 19.998V20.9977H0.5C0.223858 20.9977 0 21.2216 0 21.4977C0 21.7739 0.223858 21.9977 0.5 21.9977H13V22.9974C13 24.102 13.8954 24.9974 15 24.9974H17.0001C18.1046 24.9974 19.0001 24.102 19.0001 22.9974V21.9977H23.5005C23.7766 21.9977 24.0005 21.7739 24.0005 21.4977C24.0005 21.2216 23.7766 20.9977 23.5005 20.9977H19.0001V19.998C19.0001 18.8935 18.1046 17.998 17.0001 17.998H15ZM14 19.998C14 19.4458 14.4477 18.998 15 18.998H17.0001C17.5524 18.998 18.0001 19.4458 18.0001 19.998V22.9974C18.0001 23.5497 17.5524 23.9974 17.0001 23.9974H15C14.4477 23.9974 14 23.5497 14 22.9974V19.998ZM4.99989 10.999C4.99989 9.89446 5.89532 8.99902 6.99989 8.99902H8.99999C10.1046 8.99902 11 9.89445 11 10.999V11.9987H23.5005C23.7766 11.9987 24.0005 12.2226 24.0005 12.4987C24.0005 12.7748 23.7766 12.9987 23.5005 12.9987H11V13.9984C11 15.1029 10.1046 15.9984 8.99999 15.9984H6.99989C5.89532 15.9984 4.99989 15.1029 4.99989 13.9984V12.9987H0.5C0.223858 12.9987 0 12.7748 0 12.4987C0 12.2226 0.223858 11.9987 0.5 11.9987H4.99989V10.999ZM6.99989 9.99902C6.4476 9.99902 5.99989 10.4467 5.99989 10.999V13.9984C5.99989 14.5507 6.4476 14.9984 6.99989 14.9984H8.99999C9.55228 14.9984 9.99999 14.5507 9.99999 13.9984V10.999C9.99999 10.4467 9.55228 9.99902 8.99999 9.99902H6.99989Z" fill="#8492B4"/>
<defs>
<linearGradient id="paint0_linear" x1="0.500009" y1="0.499949" x2="24.4974" y2="25.5003" gradientUnits="userSpaceOnUse">
<stop stop-color="#706EF5"/>
<stop offset="1" stop-color="#7C5DF4"/>
</linearGradient>
</defs>
</svg>
