<svg width="23" height="22" viewBox="0 0 23 22" fill="none" xmlns="http://www.w3.org/2000/svg">
<path d="M23 12.3248L22.9526 12.2019L22.9368 11.8965H22.7669L18.8196 5.94824H14.2639V6.74135H18.3968L21.8265 11.8965H15.4492V14.6724H7.54681V11.8965H1.16956L4.59921 6.74135H8.73218V5.94824H4.17643L0.209414 11.9084L0.0395121 11.9163V12.2376L0 12.3367L0.0395121 12.3922V20.0695C0.0395121 20.811 0.640096 21.4138 1.37897 21.4138H21.621C22.3599 21.4138 22.9565 20.811 22.9565 20.0734V12.3882L23 12.3248ZM22.1663 20.0734C22.1663 20.3748 21.9213 20.6207 21.621 20.6207H1.37897C1.07868 20.6207 0.833706 20.3748 0.833706 20.0734V12.6896H6.76052V15.4655H16.2434V12.6896H22.1702V20.0734H22.1663Z" fill="url(#paint0_linear)"/>
<path d="M14.3861 4.01316C14.5402 4.16781 14.7891 4.16781 14.9432 4.01316C15.0973 3.8585 15.0973 3.60867 14.9432 3.45402L11.7822 0.281605L11.5017 5.34698e-05L11.2212 0.281605L8.06019 3.45402C7.9061 3.60867 7.9061 3.8585 8.06019 4.01316C8.21429 4.16781 8.46322 4.16781 8.61731 4.01316L11.1026 1.51885L11.1026 12.4557C11.1026 12.6738 11.2804 12.8523 11.4977 12.8523C11.7151 12.8523 11.8929 12.6738 11.8929 12.4557L11.8929 1.51488L14.3861 4.01316Z" fill="url(#paint1_linear)"/>
<defs>
<linearGradient id="paint0_linear" x1="11.5" y1="5.94824" x2="11.5" y2="21.4138" gradientUnits="userSpaceOnUse">
<stop stop-color="#8050EF"/>
<stop offset="1" stop-color="#687BF7"/>
</linearGradient>
<linearGradient id="paint1_linear" x1="11.5017" y1="12.8523" x2="11.5017" y2="5.34058e-05" gradientUnits="userSpaceOnUse">
<stop stop-color="#8050EF"/>
<stop offset="1" stop-color="#687BF7"/>
</linearGradient>
</defs>
</svg>
