<svg width="23" height="22" viewBox="0 0 23 22" fill="none" xmlns="http://www.w3.org/2000/svg">
<path d="M23 12.3248L22.9526 12.2019L22.9368 11.8965H22.7669L18.8196 5.94824H14.2639V6.74135H18.3968L21.8265 11.8965H15.4492V14.6724H7.54681V11.8965H1.16956L4.59921 6.74135H8.73218V5.94824H4.17643L0.209414 11.9084L0.0395121 11.9163V12.2376L0 12.3367L0.0395121 12.3922V20.0695C0.0395121 20.811 0.640096 21.4138 1.37897 21.4138H21.621C22.3599 21.4138 22.9565 20.811 22.9565 20.0734V12.3882L23 12.3248ZM22.1663 20.0734C22.1663 20.3748 21.9213 20.6207 21.621 20.6207H1.37897C1.07868 20.6207 0.833706 20.3748 0.833706 20.0734V12.6896H6.76052V15.4655H16.2434V12.6896H22.1702V20.0734H22.1663Z" fill="url(#paint0_linear)"/>
<path d="M14.3864 4.01316C14.5405 4.16781 14.7894 4.16781 14.9435 4.01316C15.0976 3.8585 15.0976 3.60867 14.9435 3.45402L11.7825 0.281605L11.502 5.34698e-05L11.2215 0.281605L8.0605 3.45402C7.9064 3.60867 7.9064 3.8585 8.0605 4.01316C8.2146 4.16781 8.46352 4.16781 8.61762 4.01316L11.1029 1.51885L11.1029 12.4557C11.1029 12.6738 11.2807 12.8523 11.4981 12.8523C11.7154 12.8523 11.8932 12.6738 11.8932 12.4557L11.8932 1.51488L14.3864 4.01316Z" fill="url(#paint1_linear)"/>
<defs>
<linearGradient id="paint0_linear" x1="11.5" y1="5.94824" x2="11.5" y2="21.4138" gradientUnits="userSpaceOnUse">
<stop stop-color="#E250EF"/>
<stop offset="1" stop-color="#F76868"/>
</linearGradient>
<linearGradient id="paint1_linear" x1="11.502" y1="12.8523" x2="11.502" y2="5.34058e-05" gradientUnits="userSpaceOnUse">
<stop stop-color="#E250EF"/>
<stop offset="1" stop-color="#F76868"/>
</linearGradient>
</defs>
</svg>
